<svg xmlns="http://www.w3.org/2000/svg" width="293.339" height="146.038" viewBox="0 0 293.339 146.038"><g data-name="Group 430"><text data-name="Article Reader" transform="translate(159.339 70.794)" fill="#2980b9" font-size="38" font-family="Merriweather-Regular, Merriweather"><tspan x="0" y="0">Article </tspan><tspan x="0" y="47">Reader</tspan></text><g data-name="Group 429"><g data-name="Group 348"><g data-name="Group 343"><path data-name="Path 715" d="M11.866 82.23S-2.408 79.715.355 75.381s11.615 6.807 11.615 6.807" fill="#55b1c6"/><path data-name="Path 716" d="M18.977 85.209S6.402 92.416 5.75 87.318s13.28-2.208 13.28-2.208" fill="#55b1c6"/><path data-name="Path 717" d="M25.857 91.109s-12.459 7.4-13.192 2.316 13.244-2.417 13.244-2.417" fill="#55b1c6"/><path data-name="Path 718" d="M32.182 99.837s-12.47 7.387-13.2 2.3 13.247-2.4 13.247-2.4" fill="#55b1c6"/><path data-name="Path 719" d="M36.754 108.525s-13.15 6.1-13.36.959 13.421-1.053 13.421-1.053" fill="#55b1c6"/><path data-name="Path 720" d="M40.079 117.007s-13.437 5.433-13.391.293 13.457-.384 13.457-.384" fill="#55b1c6"/><path data-name="Path 721" d="M43.028 125.979s-13.437 5.433-13.391.293 13.457-.384 13.457-.384" fill="#55b1c6"/><path data-name="Path 722" d="M19.124 85.182s-9.865-10.619-5.045-12.408 5.154 12.437 5.154 12.437" fill="#55b1c6"/><path data-name="Path 723" d="M25.86 91.385s-7.205-12.576-2.106-13.228 2.205 13.281 2.205 13.281" fill="#55b1c6"/><path data-name="Path 724" d="M32.253 100.039s-4-13.931 1.109-13.348-1.025 13.423-1.025 13.423" fill="#55b1c6"/><path data-name="Path 725" d="M36.869 108.791s-1.886-14.371 3.078-13.036-3.007 13.121-3.007 13.121" fill="#55b1c6"/><path data-name="Path 726" d="M39.922 117.04s3.1-14.158 7.32-11.217-7.282 11.323-7.282 11.323" fill="#55b1c6"/><path data-name="Path 727" d="M43.269 125.984s3.1-14.158 7.32-11.217-7.282 11.323-7.282 11.323" fill="#55b1c6"/><g data-name="Group 342"><path data-name="Path 728" d="M44.798 132.759a.478.478 0 0 1-.5-.363c-6.1-24.94-14.854-37.282-21.123-43.244-6.764-6.433-12.157-7.009-12.211-7.013a.478.478 0 0 1 .087-.952c.23.021 5.709.582 12.7 7.194 6.389 6.041 15.3 18.543 21.477 43.789a.477.477 0 0 1-.351.577.422.422 0 0 1-.079.012z" fill="#55b1c6"/></g></g><g data-name="Group 345"><path data-name="Path 729" d="M43.419 140a34.607 34.607 0 0 1 8.808 4.268 15.075 15.075 0 0 0 2.409 1.325 3.083 3.083 0 0 0 2.748.187c1.247-.756.932-2.652.274-3.952-2.859-5.663-8.767-8.844-12.131-14.13a48.933 48.933 0 0 1-1.489-2.539l-3.675-.762 2.8-.817c-1.922-3.478-3.978-6.937-7.631-8.721l-1.067 2.708s.116-1.647.243-3.089c-2.5-1.117-5.19-2.062-7.072-4.069a17.908 17.908 0 0 1-2.919-5.178l-3.378.447s1.309-1.364 2.3-2.628a12.7 12.7 0 0 0-.341-.555c-1.855-2.832-4.776-4.487-7.795-5.82a44.961 44.961 0 0 0-5.2-2c-.275.643-.513 1.186-.513 1.186l-.808-1.547a19.043 19.043 0 0 0-2.978-.486c-.7-.056-3.162-.217-3.615.483-1.3 2.026-.231 4.787 1.407 6.553 1.551 1.672 3.3 2.951 4.678 4.656l1.621-.495-.645 1.9c.091.151.177.306.26.466 1.907 3.672 2.325 8.689 4.141 12.384 1.317-1.483 2.69-2.826 2.69-2.826l-.869 5.465a8.283 8.283 0 0 0 5.943 2.327c.883.028 1.751.007 2.608.025l-.227-1.679 1.3 1.736a8.17 8.17 0 0 1 3.214.863c3.1 1.626 4.752 4.887 6.679 7.829 1 .154 1.875.292 1.875.292l-.791 1.268a14.432 14.432 0 0 0 1.739 1.957A14.13 14.13 0 0 0 43.419 140z" fill="#80dcbe"/><g data-name="Group 344"><path data-name="Path 730" d="M50.33 138.168c-7.186-4.433-9.463-8.132-11.472-11.4a21.088 21.088 0 0 0-3.226-4.352 27.57 27.57 0 0 0-6.085-3.912c-3.854-2.056-7.839-4.182-9.258-7.889-2.419-6.321-12.334-12.256-12.43-12.306l-.367.711.184-.355-.185.355c.094.05 9.714 5.773 12.051 11.882 1.526 3.985 5.645 6.183 9.628 8.308a27.062 27.062 0 0 1 5.906 3.782 20.157 20.157 0 0 1 3.1 4.2c1.953 3.175 4.385 7.126 11.732 11.658z" fill="#55b1c6"/></g></g><g data-name="Group 347"><path data-name="Path 731" d="M42.611 117.365a34.623 34.623 0 0 1 6.4 7.409 15.1 15.1 0 0 0 1.687 2.172 3.084 3.084 0 0 0 2.449 1.26c1.445-.2 1.906-2.066 1.818-3.519-.381-6.332-4.545-11.594-5.539-17.781a49.438 49.438 0 0 1-.361-2.92l-3.072-2.156 2.9.36c-.386-3.954-.9-7.945-3.55-11.031l-2.053 2.064s.76-1.466 1.448-2.74c-1.855-2.018-3.947-3.95-4.88-6.538a17.918 17.918 0 0 1-.628-5.911l-3.279-.928s1.742-.734 3.149-1.5a12.836 12.836 0 0 0-.093-.645c-.581-3.336-2.607-6.012-4.85-8.433a45.076 45.076 0 0 0-3.982-3.9c-.507.481-.941.886-.941.886l-.129-1.742a19.051 19.051 0 0 0-2.542-1.627c-.618-.327-2.817-1.452-3.511-.988-2 1.342-2.109 4.3-1.305 6.574.762 2.15 1.857 4.016 2.451 6.129l1.684.188-1.344 1.485c.024.175.041.351.054.531.3 4.127-1.308 8.9-1.105 13.011 1.8-.84 3.59-1.529 3.59-1.529l-2.971 4.668a8.284 8.284 0 0 0 4.534 4.492c.8.375 1.605.7 2.384 1.056l.457-1.632.507 2.109a8.174 8.174 0 0 1 2.609 2.066c2.2 2.721 2.426 6.37 3.029 9.834.856.538 1.606 1.012 1.606 1.012l-1.228.851a14.425 14.425 0 0 0 .821 2.486 14.13 14.13 0 0 0 3.786 4.877z" fill="#70c3e0"/><g data-name="Group 346"><path data-name="Path 732" d="M49.685 118.422c-4.841-6.918-5.465-11.216-6.016-15.009a21.1 21.1 0 0 0-1.238-5.274 27.571 27.571 0 0 0-4.037-6c-2.723-3.415-5.539-6.946-5.374-10.912.283-6.762-6.467-16.14-6.535-16.224l-.619.507.31-.253-.311.252c.067.084 6.63 9.15 6.357 15.684-.179 4.264 2.732 7.914 5.547 11.444a27.051 27.051 0 0 1 3.924 5.812 20.155 20.155 0 0 1 1.184 5.082c.536 3.689 1.2 8.28 6.153 15.353z" fill="#55b1c6"/></g></g></g><g data-name="Group 410"><g data-name="Group 356"><g data-name="Group 355"><g data-name="Group 354"><g data-name="Group 353"><g data-name="Group 352"><g data-name="Group 351"><g data-name="Group 350"><g data-name="Group 349"><path data-name="Path 733" d="M44.211 8.907v120.392a8.909 8.909 0 0 0 8.912 8.907h52.759a8.909 8.909 0 0 0 8.912-8.907V8.907A8.908 8.908 0 0 0 105.882 0H53.123a8.908 8.908 0 0 0-8.912 8.907z" fill="#1e282d"/><path data-name="Path 734" d="M44.211 8.476v114.566a8.7 8.7 0 0 0 8.912 8.476h52.759a8.7 8.7 0 0 0 8.912-8.476V8.476A8.7 8.7 0 0 0 105.882 0H53.123a8.7 8.7 0 0 0-8.912 8.476z" fill="#263138"/><path data-name="Path 735" d="M54.221 4.304h50.567a5.544 5.544 0 0 1 5.544 5.544v106.717a5.544 5.544 0 0 1-5.544 5.544H54.217a5.539 5.539 0 0 1-5.54-5.539V9.848a5.544 5.544 0 0 1 5.544-5.544z" fill="#edf6f9"/></g></g></g></g></g></g></g></g><g data-name="Group 376" transform="translate(48.544 17.83)"><circle data-name="Ellipse 24" cx="25.773" cy="25.773" r="25.773" transform="rotate(-76.858 31.633 25.098)" fill="#cce2ed"/><g data-name="Group 358"><g data-name="Group 357"><circle data-name="Ellipse 25" cx="22.087" cy="22.087" r="22.087" transform="rotate(-76.451 32.153 20.89)" fill="#6dc4e2"/></g></g><g data-name="Group 360"><g data-name="Group 359"><circle data-name="Ellipse 26" cx="18.679" cy="18.679" r="18.679" transform="rotate(-76.92 32.548 17.09)" fill="#be5f67"/></g></g><g data-name="Group 375"><g data-name="Group 371"><path data-name="Path 736" d="M35.196 21.5l-.006 9.145a4.324 4.324 0 1 1-8.647 0l.006-9.145a4.324 4.324 0 1 1 8.647 0z" fill="#cce2ed"/><path data-name="Path 737" d="M26.546 26.387a.335.335 0 0 0-.343.343v3.918a4.668 4.668 0 0 0 9.3.582 4.72 4.72 0 0 0 .036-.584v-3.919a.342.342 0 0 0-.343-.343z" fill="#fff"/><g data-name="Group 370"><g data-name="Group 369"><g data-name="Group 361"><path data-name="Path 738" d="M32.266 18.051a.155.155 0 0 1-.155-.153.151.151 0 0 1 .151-.153.153.153 0 1 1 0 .306zm-.93 0a.154.154 0 0 1-.155-.153.151.151 0 0 1 .151-.153.153.153 0 1 1 0 .306zm-.931 0a.154.154 0 0 1-.155-.153.151.151 0 0 1 .151-.153.153.153 0 1 1 0 .306zm-.93 0a.155.155 0 0 1-.156-.153.151.151 0 0 1 .151-.153.153.153 0 1 1 0 .306z" fill="#b8d3dd"/></g><g data-name="Group 362"><path data-name="Path 739" d="M33.197 19.171a.155.155 0 0 1-.155-.153.151.151 0 0 1 .151-.153.153.153 0 1 1 0 .306zm-.93 0a.155.155 0 0 1-.155-.153.151.151 0 0 1 .151-.153.153.153 0 1 1 0 .306zm-.93 0a.155.155 0 0 1-.155-.153.151.151 0 0 1 .151-.153.153.153 0 1 1 0 .306zm-.93 0a.155.155 0 0 1-.155-.153.151.151 0 0 1 .151-.153.153.153 0 1 1 0 .306zm-.93 0a.155.155 0 0 1-.155-.154.151.151 0 0 1 .151-.153.153.153 0 1 1 0 .306zm-.93 0a.155.155 0 0 1-.156-.153.151.151 0 0 1 .151-.153.153.153 0 0 1 0 .306z" fill="#b8d3dd"/></g><g data-name="Group 363"><path data-name="Path 740" d="M34.127 20.291a.155.155 0 0 1-.156-.153.151.151 0 0 1 .151-.153.153.153 0 0 1 0 .306zm-.93 0a.155.155 0 0 1-.155-.153.151.151 0 0 1 .151-.153.153.153 0 1 1 0 .306zm-.931 0a.155.155 0 0 1-.155-.153.151.151 0 0 1 .151-.153.153.153 0 1 1 0 .306zm-.93 0a.155.155 0 0 1-.155-.153.151.151 0 0 1 .151-.153.153.153 0 1 1 0 .306zm-.93 0a.155.155 0 0 1-.155-.153.151.151 0 0 1 .151-.153.153.153 0 1 1 0 .306zm-.93 0a.155.155 0 0 1-.156-.153.151.151 0 0 1 .151-.153.153.153 0 1 1 0 .306zm-.93 0a.155.155 0 0 1-.156-.153.151.151 0 0 1 .151-.153.153.153 0 0 1 0 .306zm-.93 0a.155.155 0 0 1-.156-.153.151.151 0 0 1 .151-.153.153.153 0 0 1 0 .306z" fill="#b8d3dd"/></g><g data-name="Group 364"><path data-name="Path 741" d="M34.127 21.41a.155.155 0 0 1-.156-.153.151.151 0 0 1 .151-.153.153.153 0 0 1 0 .306zm-.93 0a.155.155 0 0 1-.155-.153.151.151 0 0 1 .151-.153.153.153 0 0 1 0 .306zm-.931 0a.155.155 0 0 1-.155-.153.151.151 0 0 1 .151-.153.153.153 0 1 1 0 .306zm-.93 0a.155.155 0 0 1-.155-.153.151.151 0 0 1 .151-.153.153.153 0 1 1 0 .306zm-.93 0a.155.155 0 0 1-.155-.153.151.151 0 0 1 .151-.153.153.153 0 0 1 0 .306zm-.93 0a.155.155 0 0 1-.156-.153.151.151 0 0 1 .151-.153.153.153 0 1 1 0 .306zm-.93 0a.155.155 0 0 1-.156-.153.151.151 0 0 1 .151-.153.153.153 0 0 1 0 .306zm-.93 0a.155.155 0 0 1-.156-.153.151.151 0 0 1 .151-.153.153.153 0 0 1 0 .306z" fill="#b8d3dd"/></g><g data-name="Group 365"><path data-name="Path 742" d="M34.127 22.53a.155.155 0 0 1-.156-.153.151.151 0 0 1 .151-.153.153.153 0 0 1 0 .306zm-.93 0a.155.155 0 0 1-.155-.153.151.151 0 0 1 .151-.153.153.153 0 0 1 0 .306zm-.931 0a.155.155 0 0 1-.155-.153.151.151 0 0 1 .151-.153.153.153 0 1 1 0 .306zm-.93 0a.155.155 0 0 1-.155-.153.151.151 0 0 1 .151-.153.153.153 0 1 1 0 .306zm-.93 0a.155.155 0 0 1-.155-.153.151.151 0 0 1 .151-.153.153.153 0 0 1 0 .306zm-.93 0a.155.155 0 0 1-.156-.153.151.151 0 0 1 .151-.153.153.153 0 1 1 0 .306zm-.93 0a.155.155 0 0 1-.156-.153.151.151 0 0 1 .151-.153.153.153 0 0 1 0 .306zm-.93 0a.155.155 0 0 1-.156-.153.151.151 0 0 1 .151-.153.153.153 0 0 1 0 .306z" fill="#b8d3dd"/></g><g data-name="Group 366"><path data-name="Path 743" d="M34.127 23.65a.155.155 0 0 1-.156-.153.151.151 0 0 1 .151-.153.153.153 0 0 1 0 .306zm-.93 0a.155.155 0 0 1-.155-.153.151.151 0 0 1 .151-.153.153.153 0 0 1 0 .306zm-.931 0a.155.155 0 0 1-.155-.153.151.151 0 0 1 .151-.153.153.153 0 1 1 0 .306zm-.93 0a.155.155 0 0 1-.155-.153.151.151 0 0 1 .151-.153.153.153 0 1 1 0 .306zm-.93 0a.155.155 0 0 1-.155-.153.151.151 0 0 1 .151-.153.153.153 0 0 1 0 .306zm-.93 0a.155.155 0 0 1-.156-.153.151.151 0 0 1 .151-.153.153.153 0 1 1 0 .306zm-.93 0a.155.155 0 0 1-.156-.153.151.151 0 0 1 .151-.153.153.153 0 0 1 0 .306zm-.93 0a.155.155 0 0 1-.156-.153.151.151 0 0 1 .151-.153.153.153 0 0 1 0 .306z" fill="#b8d3dd"/></g><g data-name="Group 367"><path data-name="Path 744" d="M34.127 24.771a.155.155 0 0 1-.156-.153.151.151 0 0 1 .151-.153.153.153 0 0 1 0 .306zm-.93 0a.155.155 0 0 1-.155-.153.151.151 0 0 1 .151-.153.153.153 0 1 1 0 .306zm-.931 0a.155.155 0 0 1-.155-.153.151.151 0 0 1 .151-.153.153.153 0 1 1 0 .306zm-.93 0a.155.155 0 0 1-.155-.153.151.151 0 0 1 .151-.153.153.153 0 1 1 0 .306zm-.93 0a.155.155 0 0 1-.155-.153.151.151 0 0 1 .151-.153.153.153 0 1 1 0 .306zm-.93 0a.155.155 0 0 1-.156-.153.151.151 0 0 1 .151-.153.153.153 0 1 1 0 .306zm-.93 0a.155.155 0 0 1-.156-.153.151.151 0 0 1 .151-.153.153.153 0 0 1 0 .306zm-.93 0a.155.155 0 0 1-.156-.153.151.151 0 0 1 .151-.153.153.153 0 0 1 0 .306z" fill="#b8d3dd"/></g><g data-name="Group 368"><path data-name="Path 745" d="M34.127 25.889a.155.155 0 0 1-.156-.153.151.151 0 0 1 .151-.153.153.153 0 0 1 0 .306zm-.93 0a.155.155 0 0 1-.155-.153.151.151 0 0 1 .151-.153.153.153 0 1 1 0 .306zm-.931 0a.155.155 0 0 1-.155-.153.151.151 0 0 1 .151-.153.153.153 0 1 1 0 .306zm-.93 0a.155.155 0 0 1-.155-.153.151.151 0 0 1 .151-.153.153.153 0 1 1 0 .306zm-.93 0a.155.155 0 0 1-.155-.153.151.151 0 0 1 .151-.153.153.153 0 1 1 0 .306zm-.93 0a.155.155 0 0 1-.156-.153.151.151 0 0 1 .151-.153.153.153 0 1 1 0 .306zm-.93 0a.155.155 0 0 1-.156-.153.151.151 0 0 1 .151-.153.153.153 0 0 1 0 .306zm-.93 0a.155.155 0 0 1-.156-.153.151.151 0 0 1 .151-.153.153.153 0 0 1 0 .306z" fill="#b8d3dd"/></g></g></g></g><g data-name="Group 372"><path data-name="Path 746" d="M30.958 37.592a6.843 6.843 0 0 1-6.851-6.844v-3.955a.586.586 0 0 1 .586-.585.585.585 0 0 1 .585.586v3.954a5.677 5.677 0 0 0 11.31.709 5.318 5.318 0 0 0 .046-.714v-3.951a.585.585 0 0 1 .586-.585.585.585 0 0 1 .585.586v3.95a6.491 6.491 0 0 1-.056.863 6.84 6.84 0 0 1-6.791 5.985z" fill="#fff"/></g><g data-name="Group 373"><path data-name="Path 747" d="M30.959 44.239a.619.619 0 0 1-.619-.619v-8.23a.619.619 0 1 1 1.237 0v8.23a.619.619 0 0 1-.618.619z" fill="#fff"/></g><g data-name="Group 374"><path data-name="Rectangle 244" d="M29.132 42.28h3.654a2.4 2.4 0 0 1 2.4 2.4v.058h-8.454v-.058a2.4 2.4 0 0 1 2.4-2.4z" fill="#fff"/></g></g></g><g data-name="Group 409"><g data-name="Group 377"><path data-name="Path 748" d="M105.309 97.761a.245.245 0 0 1-.245-.245V96.11a.245.245 0 1 1 .489 0v1.406a.244.244 0 0 1-.244.245z" fill="#46a5ce"/></g><g data-name="Group 378"><path data-name="Path 749" d="M103.644 98.623a.244.244 0 0 1-.245-.245v-3.13a.245.245 0 0 1 .489 0v3.13a.244.244 0 0 1-.244.245z" fill="#46a5ce"/></g><g data-name="Group 379"><path data-name="Path 750" d="M101.979 100.784a.244.244 0 0 1-.245-.245v-7.452a.245.245 0 1 1 .489 0v7.452a.244.244 0 0 1-.244.245z" fill="#46a5ce"/></g><g data-name="Group 380"><path data-name="Path 751" d="M100.311 99.996a.245.245 0 0 1-.245-.245v-5.877a.245.245 0 1 1 .489 0v5.877a.244.244 0 0 1-.244.245z" fill="#46a5ce"/></g><g data-name="Group 381"><path data-name="Path 752" d="M98.648 101.871a.244.244 0 0 1-.245-.245v-9.624a.245.245 0 1 1 .489 0v9.624a.245.245 0 0 1-.244.245z" fill="#46a5ce"/></g><g data-name="Group 382"><path data-name="Path 753" d="M96.987 105.064a.244.244 0 0 1-.245-.245V88.808a.245.245 0 0 1 .489 0v16.012a.244.244 0 0 1-.244.244z" fill="#46a5ce"/></g><g data-name="Group 383"><path data-name="Path 754" d="M95.319 100.125a.245.245 0 0 1-.245-.245v-6.132a.245.245 0 0 1 .489 0v6.132a.245.245 0 0 1-.244.245z" fill="#46a5ce"/></g><g data-name="Group 384"><path data-name="Path 755" d="M93.655 98.804a.244.244 0 0 1-.245-.245v-3.491a.245.245 0 1 1 .489 0v3.49a.244.244 0 0 1-.244.246z" fill="#46a5ce"/></g><g data-name="Group 385"><path data-name="Path 756" d="M91.989 97.697a.245.245 0 0 1-.245-.245v-1.278a.245.245 0 1 1 .489 0v1.278a.244.244 0 0 1-.244.245z" fill="#46a5ce"/></g><g data-name="Group 386"><path data-name="Path 757" d="M90.324 99.186a.244.244 0 0 1-.245-.245v-4.258a.245.245 0 1 1 .489 0v4.258a.244.244 0 0 1-.244.245z" fill="#46a5ce"/></g><g data-name="Group 387"><path data-name="Path 758" d="M88.66 100.976a.245.245 0 0 1-.245-.245v-7.835a.245.245 0 0 1 .489 0v7.836a.245.245 0 0 1-.244.244z" fill="#46a5ce"/></g><g data-name="Group 388"><path data-name="Path 759" d="M86.995 103.531a.244.244 0 0 1-.245-.245V90.341a.245.245 0 0 1 .489 0v12.946a.245.245 0 0 1-.244.244z" fill="#46a5ce"/></g><g data-name="Group 389"><path data-name="Path 760" d="M85.329 101.53a.245.245 0 0 1-.245-.245v-8.943a.245.245 0 1 1 .489 0v8.943a.244.244 0 0 1-.244.245z" fill="#46a5ce"/></g><g data-name="Group 390"><path data-name="Path 761" d="M83.665 98.512a.245.245 0 0 1-.245-.245v-2.906a.245.245 0 1 1 .489 0v2.906a.245.245 0 0 1-.244.245z" fill="#46a5ce"/></g><g data-name="Group 391"><path data-name="Path 762" d="M82 101.913a.245.245 0 0 1-.245-.245v-9.71a.245.245 0 1 1 .489 0v9.71a.244.244 0 0 1-.244.245z" fill="#46a5ce"/></g><g data-name="Group 392"><path data-name="Path 763" d="M80.335 104.02a.244.244 0 0 1-.245-.245V89.851a.245.245 0 1 1 .489 0v13.925a.244.244 0 0 1-.244.244z" fill="#46a5ce"/></g><g data-name="Group 393"><path data-name="Path 764" d="M78.67 107.47a.244.244 0 0 1-.245-.245V86.406a.245.245 0 0 1 .489 0v20.824a.244.244 0 0 1-.244.24z" fill="#46a5ce"/></g><g data-name="Group 394"><path data-name="Path 765" d="M77.005 103.765a.245.245 0 0 1-.245-.245V90.107a.245.245 0 1 1 .489 0v13.414a.244.244 0 0 1-.244.244z" fill="#46a5ce"/></g><g data-name="Group 395"><path data-name="Path 766" d="M75.34 101.465a.245.245 0 0 1-.245-.245v-8.815a.245.245 0 1 1 .489 0v8.815a.245.245 0 0 1-.244.245z" fill="#46a5ce"/></g><g data-name="Group 396"><path data-name="Path 767" d="M73.675 98.91a.244.244 0 0 1-.245-.245v-3.7a.245.245 0 1 1 .489 0v3.7a.244.244 0 0 1-.244.245z" fill="#46a5ce"/></g><g data-name="Group 397"><path data-name="Path 768" d="M72.01 99.803a.244.244 0 0 1-.245-.245v-5.493a.245.245 0 1 1 .489 0v5.493a.244.244 0 0 1-.244.245z" fill="#46a5ce"/></g><g data-name="Group 398"><path data-name="Path 769" d="M70.346 98.932a.244.244 0 0 1-.245-.245V94.94a.245.245 0 0 1 .489 0v3.752a.244.244 0 0 1-.244.24z" fill="#46a5ce"/></g><g data-name="Group 399"><path data-name="Path 770" d="M68.68 102.999a.245.245 0 0 1-.245-.245V90.873a.245.245 0 1 1 .489 0v11.882a.244.244 0 0 1-.244.244z" fill="#46a5ce"/></g><g data-name="Group 400"><path data-name="Path 771" d="M67.016 100.891a.245.245 0 0 1-.245-.245V92.98a.245.245 0 1 1 .489 0v7.666a.245.245 0 0 1-.244.245z" fill="#46a5ce"/></g><g data-name="Group 401"><path data-name="Path 772" d="M65.351 104.471a.244.244 0 0 1-.245-.245V89.404a.245.245 0 0 1 .489 0v14.819a.244.244 0 0 1-.244.248z" fill="#46a5ce"/></g><g data-name="Group 402"><path data-name="Path 773" d="M63.686 105.681a.244.244 0 0 1-.245-.245V88.19a.245.245 0 0 1 .489 0v17.249a.245.245 0 0 1-.244.242z" fill="#46a5ce"/></g><g data-name="Group 403"><path data-name="Path 774" d="M62.021 103.19a.244.244 0 0 1-.245-.245V90.682a.245.245 0 1 1 .489 0v12.264a.244.244 0 0 1-.244.244z" fill="#46a5ce"/></g><g data-name="Group 404"><path data-name="Path 775" d="M60.356 103.477a.245.245 0 0 1-.245-.245V90.394a.245.245 0 0 1 .489 0v12.839a.245.245 0 0 1-.244.244z" fill="#46a5ce"/></g><g data-name="Group 405"><path data-name="Path 776" d="M58.691 100.348a.244.244 0 0 1-.245-.245v-6.579a.245.245 0 1 1 .489 0v6.579a.245.245 0 0 1-.244.245z" fill="#46a5ce"/></g><g data-name="Group 406"><path data-name="Path 777" d="M57.026 99.038a.245.245 0 0 1-.245-.245v-3.96a.245.245 0 1 1 .489 0v3.96a.244.244 0 0 1-.244.245z" fill="#46a5ce"/></g><g data-name="Group 407"><path data-name="Path 778" d="M55.361 98.814a.244.244 0 0 1-.245-.245v-3.513a.245.245 0 0 1 .489 0v3.513a.245.245 0 0 1-.244.245z" fill="#46a5ce"/></g><g data-name="Group 408"><path data-name="Path 779" d="M53.696 97.888a.244.244 0 0 1-.245-.245v-1.66a.245.245 0 0 1 .489 0v1.66a.244.244 0 0 1-.244.245z" fill="#46a5ce"/></g></g></g><g data-name="Group 417"><path data-name="Path 780" d="M20.489 90.48l14.088-.586.617-24.1-1.306-5.541-6.174-2.9-4.191.8a4.916 4.916 0 0 0-3.992 5l1.528 17.058z" fill="#e6d5b9"/><path data-name="Path 781" d="M26.143 54.38v4.843a7.194 7.194 0 0 0 3.418.612c1.291 0 1.581-.612 1.581-.612v-1.79z" fill="#e6d5b9"/><path data-name="Path 782" d="M25.579 50.766c.011.175.017.34.028.5 0 .057-.006.113-.006.175-.119 2.875 1.726 5.954 4.5 6.373 0 0 .022.005.062.011.023 0 .057.006.1.006.594.073 2.745.249 3.531-.617a7.314 7.314 0 0 0 1.743-4.161 16.356 16.356 0 0 0-.232-2.093c0-.4.216-1.659.22-2.2a4.82 4.82 0 0 0-4.775-5.111c-4.599-.008-5.301 4.027-5.171 7.117z" fill="#e6d5b9"/><g data-name="Group 412" fill="#e6d5b9"><path data-name="Path 784" d="M14.78 78.947c1.511.628 5.974-7.809 7.6-11.53s2.246-6.944.4-7.712-3.695 1.943-5.186 5.722-4.325 12.891-2.814 13.52z"/><path data-name="Path 785" d="M19.328 73.448s-1.513 3.643-1.513 3.784 1.742 4.752 1.742 4.752l-4.717-5.28z"/><g data-name="Group 411"><path data-name="Path 786" d="M23.308 94.529c1.319-.6-2.767-10.476-4.022-13.217s-2.784-5.541-4.263-4.863-.356 3.663.9 6.4 6.066 12.285 7.385 11.68z"/><path data-name="Path 787" d="M22.222 91.987c-1.607.6-.232 3.311.27 4.22.818 1.48 3.106 2.213 3.685 1.9s-1.526-3.521-1.455-3.7 1.032 1.647 1.546 1.3-.762-2.516-1.6-3.18a2.189 2.189 0 0 0-2.446-.54z"/></g></g><path data-name="Path 788" d="M23.33 68.422l-.732 1.008-3.188 4.4-.022.034-3.852-3.328c2.208-7.935 5.491-11.5 5.491-11.5z" fill="#cce2ed"/><path data-name="Path 789" d="M22.597 69.431l-3.188 4.4a34.312 34.312 0 0 1 .49-13.06z" fill="#bdd9e5"/><path data-name="Path 790" d="M29.862 88.694c-1.4.532-2.186 2.761-1.712 4.834a30.839 30.839 0 0 0 2.212 6.245c2.917 6.184 5.174 14.454 7.244 14.424s2.755-5.159.727-11.841c-1.833-6.039-3.512-13.958-5.035-14.352a7.284 7.284 0 0 0-3.436.69z" fill="#e6d5b9"/><g data-name="Group 413"><path data-name="Path 791" d="M38.197 111.938c-5.622-1.722-3.078 20.864-1.19 25.7s2.6-3.444 2.935-11.781.462-13.241-1.745-13.919z" fill="#e6d5b9"/></g><path data-name="Path 792" d="M35.534 130.528c.064.085.469 7.507.469 7.507s3.583.256 3.583 0 .277-6.7.277-6.7z" fill="#e6d5b9"/><path data-name="Path 793" d="M10.812 122.464c-.026.1-5.527 5.1-5.527 5.1s2.063 2.941 2.261 2.779 5.369-4.011 5.369-4.011z" fill="#e6d5b9"/><path data-name="Path 794" d="M22.928 88.69c-1.481.25-2.68 2.285-2.616 4.411a30.836 30.836 0 0 0 .959 6.555c1.663 6.633 2.275 15.182 4.311 15.555s3.7-4.527 3.009-11.475c-.628-6.28-.74-14.375-2.158-15.056a7.283 7.283 0 0 0-3.505.01z" fill="#e6d5b9"/><g data-name="Group 414"><path data-name="Path 795" d="M27.376 112.718c-2.191-5.456-18.081 10.813-20.655 15.315s4.221-.247 10.923-5.219 10.594-7.949 9.732-10.096z" fill="#e6d5b9"/></g><path data-name="Path 796" d="M29.294 106.82c-.13 3.582-.5 6.6-1.273 7.873-2.534 4.134-16.614 13.331-16.614 13.331L8.4 124.577l-.186-.214s6.009-6.477 8.166-8.352a67.724 67.724 0 0 1 6.1-4.415s-6.361-18-2.535-22.809a3.983 3.983 0 0 0 .4-1.076c3.154-7.62 8.329.141 8.329.141s.141 1.723.3 4.308c.238 3.919.489 9.8.32 14.66z" fill="#263138"/><path data-name="Path 797" d="M29.294 106.82c-5.829-10.554-4.934-19.16-4.934-19.16l4.618 4.5c.228 3.914.485 9.799.316 14.66z" fill="#1e282d"/><path data-name="Path 798" d="M35.976 88.319s4.857 17.177 5.139 24.217-1.267 22.434-1.267 22.434h-4.224s-.915-9.269-1.267-13a53.318 53.318 0 0 1 .352-9.293s-9.316-12.812-10.63-24.639" fill="#263138"/><path data-name="Path 799" d="M36.604 88.517a.42.42 0 0 1-.406.507l-16.2.282a.814.814 0 0 1-.828-.873c.265-3.239 1.115-14.367.687-17.031-1.5-9.417.011-12.447 2.641-13.184a13.7 13.7 0 0 1 9.467 1.1c1.115.732 2.027 1.909 3.9 5.024a8.813 8.813 0 0 1 .946 2.129 7.053 7.053 0 0 1 .2.986 7.357 7.357 0 0 1-1.29 4.911c-1.882 2.954.388 13.84.883 16.149z" fill="#cce2ed"/><path data-name="Path 800" d="M50.923 59.848c-.245-1.6-9.693-1.042-13.685-.505s-7.042 1.672-6.742 3.63 3.549 2.131 7.519 1.449 13.155-2.97 12.908-4.574z" fill="#e6d5b9"/><path data-name="Path 801" d="M43.13 58.847s4.646-.681 4.81-.774 4.036-4.693 4.036-4.693l2.065 3.309a44.269 44.269 0 0 1-3.238 4.482c-.7.587-8.987 2.792-8.987 2.792s-.164-4.623-.07-4.623 1.384-.493 1.384-.493z" fill="#e6d5b9"/><path data-name="Path 802" d="M36.806 66.468a7.04 7.04 0 0 1 .2.986 12.492 12.492 0 0 0-3.5-.017l3.283-.985a.057.057 0 0 1 .017.016z" fill="#bdd9e5"/><path data-name="Path 803" d="M28.911 62.512l1.879-3.478 11.444-.69.782 5.969-8.941 3.027s-5.215-1.481-5.12-1.827z" fill="#cce2ed"/><path data-name="Path 804" d="M36.424 47.167c-.143 1.689-1.181 2.644-1.879 4.024-.793 1.568-.194 3.826-.076 5.49a14.444 14.444 0 0 1-1.96 8.757 19.978 19.978 0 0 1-3.7 4.052 4.418 4.418 0 0 1-2.162 1.265c-1.285.19-2.456-.732-3.336-1.688a18.042 18.042 0 0 1-2.286-3.095 7.745 7.745 0 0 1-1.029-2.546 9.866 9.866 0 0 1-.034-2.3l.311-4.883c.123-1.935.28-3.973 1.367-5.579a16.947 16.947 0 0 0 2.053-2.81 7.572 7.572 0 0 1 1.412-2.821 6.713 6.713 0 0 1 3.633-2.4c2.621-.528 7.3.6 7.679 3.837a3.483 3.483 0 0 1 .007.697z" fill="#263138"/><path data-name="Path 805" d="M8.841 129.293a9.685 9.685 0 0 0-.56 3.063c-.122 1.886.87 2.618.44 2.839-.412.212-5.415-6.123-5.415-6.123l3.1-2.639s2.435 2.863 2.435 2.86z" fill="#263138"/><g data-name="Group 416"><g data-name="Group 415"><path data-name="Path 806" d="M60.599 44.779c-1.156-.857-7.781 7.41-9.562 9.81s-3.484 5.066-2.189 6.028 3.353-1.442 5.134-3.842 7.772-11.138 6.617-11.996z" fill="#e6d5b9"/></g><path data-name="Path 807" d="M59.419 48.381a12.273 12.273 0 0 1 .986-1.384c.342-.352 1.685.195 2.44-1.039a1.846 1.846 0 0 0-.406-2.3c-.132-.257 1.733-1.964 1.313-2.332s-2.905 2.072-2.905 2.072a2.164 2.164 0 0 0-1.067.722c-.476.549-1.01 1.413-1.531 2.037" fill="#e6d5b9"/></g><path data-name="Path 809" d="M39.69 137.867s.378 1.1 2.66 2.525 2.882 1.116 2.933 1.651-9.49.094-9.49.094l.149-4.392s3.747.007 3.748.122z" fill="#263138"/></g><g data-name="Group 418"><path data-name="Path 810" d="M30.886 23.779H14.257a1.242 1.242 0 0 0-1.241 1.241v8.845a1.237 1.237 0 0 0 1.241 1.235h10.221a482.85 482.85 0 0 1 3.914 3.931V35.1h2.494a1.237 1.237 0 0 0 1.241-1.235V25.02a1.242 1.242 0 0 0-1.241-1.241zm-12.905 6.908a1.247 1.247 0 1 1 1.247-1.247 1.244 1.244 0 0 1-1.247 1.247zm4.588 0a1.247 1.247 0 1 1 1.252-1.247 1.248 1.248 0 0 1-1.252 1.247zm4.594 0a1.247 1.247 0 1 1 1.247-1.247 1.244 1.244 0 0 1-1.248 1.247z" fill="#d88c2c"/></g><g data-name="Group 427"><g data-name="Group 420"><g data-name="Group 419"><path data-name="Rectangle 245" d="M107.366 10.48h11.2a6.279 6.279 0 0 1 6.279 6.279v11.2a6.28 6.28 0 0 1-6.28 6.28h-11.199a6.28 6.28 0 0 1-6.28-6.281V16.76a6.28 6.28 0 0 1 6.28-6.28z" fill="#5b318c"/></g></g><g data-name="Group 426"><path data-name="Path 812" d="M115.813 16.703a.2.2 0 0 1-.165-.3l2.221-3.393a.2.2 0 0 1 .33.216l-2.223 3.388a.2.2 0 0 1-.163.089z" fill="#fff"/><path data-name="Path 813" d="M118.376 20.858a.2.2 0 0 1-.022-.393l4.03-.455a.2.2 0 0 1 .044.392l-4.03.455z" fill="#fff"/><path data-name="Path 814" d="M117.189 18.723a.2.2 0 0 1-.1-.365l2.907-1.79a.2.2 0 0 1 .206.336l-2.906 1.79a.2.2 0 0 1-.107.029z" fill="#fff"/><g data-name="Group 425"><path data-name="Rectangle 246" fill="#fff" d="M104.642 24.674l4.094-3.056 3.456 4.629-4.094 3.056z"/><path data-name="Path 815" d="M108.736 21.616l-4.094 3.059-.579.432a1.839 1.839 0 0 0-.372 2.573l1.258 1.683a1.839 1.839 0 0 0 2.574.372l.579-.432 3.9 2.435a.415.415 0 0 0 .469-.02l1.1-.821a.416.416 0 0 0-.03-.687l-2.221-1.389.006-.038.286-.206a.446.446 0 0 0-.035-.746l-.838-.493 1.463-1.092 2.432-.776a7.717 7.717 0 0 1 2.905-.234.569.569 0 0 0 .391-.1.854.854 0 0 0 .219-.794 8.634 8.634 0 0 0-1.434-3.327c-.239-.382-.508-.769-.8-1.159s-.582-.748-.875-1.076a8.744 8.744 0 0 0-2.8-2.328.87.87 0 0 0-.828-.009.567.567 0 0 0-.2.349 7.658 7.658 0 0 1-1.039 2.716l-1.426 2.106" fill="#fff"/><g data-name="Group 424"><g data-name="Group 423"><path data-name="Path 816" d="M115.578 20.103c.236.315.453.627.645.936a6.774 6.774 0 0 1 1.137 2.7.714.714 0 0 1-.193.653c-.228.171-.629.079-1.12-.215a12.05 12.05 0 0 1-4.249-5.666c-.146-.554-.121-.964.106-1.135a.726.726 0 0 1 .684-.005 6.859 6.859 0 0 1 2.282 1.864c.238.268.474.561.708.868z" fill="#5b318c"/></g></g></g></g></g></g></g></svg>