<svg xmlns="http://www.w3.org/2000/svg" width="186" height="217.578" viewBox="0 0 186 217.578"><g data-name="Group 428"><g data-name="Group 348"><g data-name="Group 343"><path data-name="Path 715" d="M17.679 122.511s-21.266-3.746-17.15-10.2 17.3 10.142 17.3 10.142" fill="#55b1c6"/><path data-name="Path 716" d="M28.273 126.949S9.538 137.687 8.566 130.09s19.786-3.289 19.786-3.289" fill="#55b1c6"/><path data-name="Path 717" d="M38.523 135.74s-18.563 11.032-19.655 3.451 19.731-3.6 19.731-3.6" fill="#55b1c6"/><path data-name="Path 718" d="M47.947 148.746s-18.578 11.006-19.659 3.424 19.736-3.572 19.736-3.572" fill="#55b1c6"/><path data-name="Path 719" d="M54.759 161.688s-19.591 9.081-19.9 1.429 20-1.569 20-1.569" fill="#55b1c6"/><path data-name="Path 720" d="M59.712 174.326s-20.019 8.095-19.951.437 20.049-.572 20.049-.572" fill="#55b1c6"/><path data-name="Path 721" d="M64.107 187.692s-20.019 8.095-19.951.437 20.049-.572 20.049-.572" fill="#55b1c6"/><path data-name="Path 722" d="M28.492 126.914s-14.7-15.821-7.517-18.486 7.679 18.529 7.679 18.529" fill="#55b1c6"/><path data-name="Path 723" d="M38.528 136.157S27.793 117.42 35.39 116.45s3.286 19.787 3.286 19.787" fill="#55b1c6"/><path data-name="Path 724" d="M48.053 149.045s-5.958-20.755 1.652-19.887-1.527 20-1.527 20" fill="#55b1c6"/><path data-name="Path 725" d="M54.931 162.085s-2.81-21.411 4.586-19.422-4.48 19.551-4.48 19.551" fill="#55b1c6"/><path data-name="Path 726" d="M59.479 174.375s4.623-21.093 10.905-16.712-10.848 16.872-10.848 16.872" fill="#55b1c6"/><path data-name="Path 727" d="M64.465 187.7s4.623-21.093 10.905-16.712-10.849 16.87-10.849 16.87" fill="#55b1c6"/><g data-name="Group 342"><path data-name="Path 728" d="M66.743 197.794a.712.712 0 0 1-.741-.542c-9.09-37.157-22.131-55.545-31.471-64.428-10.078-9.584-18.113-10.442-18.193-10.449a.712.712 0 0 1 .129-1.418c.343.031 8.505.867 18.92 10.718 9.518 9 22.8 27.627 32 65.239a.711.711 0 0 1-.523.86.629.629 0 0 1-.121.02z" fill="#55b1c6"/></g></g><g data-name="Group 345"><path data-name="Path 729" d="M64.686 208.582a51.561 51.561 0 0 1 13.123 6.359 22.462 22.462 0 0 0 3.59 1.974c1.31.56 2.88 1.017 4.094.278 1.858-1.127 1.388-3.951.409-5.889-4.26-8.437-13.062-13.176-18.074-21.051a71.542 71.542 0 0 1-2.218-3.782l-5.475-1.136 4.178-1.218c-2.863-5.182-5.927-10.335-11.37-12.994l-1.59 4.035s.173-2.454.362-4.6c-3.729-1.666-7.729-3.074-10.529-6.066-2.031-2.169-3.128-4.975-4.349-7.715l-5.033.666s1.95-2.032 3.42-3.916a17.644 17.644 0 0 0-.509-.827c-2.764-4.219-7.115-6.685-11.613-8.671a66.991 66.991 0 0 0-7.749-2.982c-.41.958-.765 1.767-.765 1.767l-1.2-2.305a28.375 28.375 0 0 0-4.437-.725c-1.039-.083-4.711-.324-5.386.72-1.944 3.018-.344 7.133 2.1 9.763 2.311 2.491 4.911 4.4 6.97 6.937l2.415-.737-.961 2.825c.136.225.263.456.387.694 2.842 5.471 3.464 12.945 6.17 18.45 1.961-2.209 4.007-4.211 4.007-4.211l-1.294 8.142c2.014 2.031 4.8 3.34 8.854 3.467 1.315.042 2.609.01 3.886.037l-.338-2.5 1.94 2.587a12.172 12.172 0 0 1 4.788 1.286c4.617 2.422 7.08 7.281 9.951 11.664 1.488.23 2.794.435 2.794.435l-1.179 1.889a21.509 21.509 0 0 0 2.591 2.915 21.051 21.051 0 0 0 8.04 4.435z" fill="#80dcbe"/><g data-name="Group 344"><path data-name="Path 730" d="M74.986 205.852c-10.706-6.6-14.1-12.116-17.091-16.979a31.417 31.417 0 0 0-4.807-6.484c-2.287-2.211-5.58-3.969-9.066-5.829-5.742-3.063-11.679-6.231-13.793-11.753-3.6-9.417-18.376-18.26-18.519-18.334l-.547 1.059.274-.529-.276.528c.14.075 14.472 8.6 17.955 17.7 2.273 5.937 8.41 9.212 14.345 12.378 3.41 1.82 6.632 3.539 8.8 5.634a30.032 30.032 0 0 1 4.621 6.252c2.91 4.73 6.533 10.616 17.48 17.369z" fill="#55b1c6"/></g></g><g data-name="Group 347"><path data-name="Path 731" d="M63.486 174.858a51.582 51.582 0 0 1 9.529 11.038 22.5 22.5 0 0 0 2.513 3.235c.982 1.033 2.241 2.074 3.649 1.878 2.152-.3 2.84-3.077 2.709-5.244-.568-9.435-6.771-17.274-8.252-26.492a73.234 73.234 0 0 1-.537-4.351l-4.577-3.212 4.319.536c-.575-5.891-1.346-11.838-5.289-16.435l-3.059 3.074s1.133-2.184 2.157-4.082c-2.763-3.007-5.881-5.885-7.271-9.741-1.005-2.8-.9-5.807-.935-8.807l-4.885-1.383s2.6-1.093 4.692-2.24a18.37 18.37 0 0 0-.139-.961c-.866-4.97-3.883-8.957-7.225-12.564a67.154 67.154 0 0 0-5.933-5.808c-.756.717-1.4 1.321-1.4 1.321l-.192-2.595a28.384 28.384 0 0 0-3.786-2.424c-.921-.488-4.2-2.164-5.23-1.472-2.98 2-3.142 6.412-1.945 9.794 1.135 3.2 2.767 5.983 3.651 9.131l2.509.281-2 2.213c.035.261.061.523.08.791.441 6.149-1.949 13.258-1.647 19.384 2.676-1.251 5.349-2.278 5.349-2.278l-4.416 6.961c1.044 2.664 3.083 4.969 6.755 6.692 1.191.559 2.391 1.043 3.553 1.574l.682-2.431.755 3.143a12.178 12.178 0 0 1 3.886 3.079c3.279 4.053 3.615 9.491 4.513 14.652 1.276.8 2.393 1.507 2.393 1.507l-1.83 1.267a21.491 21.491 0 0 0 1.223 3.7 21.052 21.052 0 0 0 5.631 7.269z" fill="#70c3e0"/><g data-name="Group 346"><path data-name="Path 732" d="M74.021 176.437c-7.212-10.306-8.142-16.711-8.963-22.362a31.431 31.431 0 0 0-1.844-7.858c-1.224-2.937-3.551-5.855-6.015-8.945-4.058-5.088-8.253-10.349-8.006-16.257.422-10.075-9.635-24.047-9.737-24.172l-.923.755.461-.378-.463.376c.1.125 9.878 13.632 9.471 23.368-.267 6.353 4.07 11.791 8.265 17.051 2.41 3.022 4.687 5.877 5.846 8.66a30.027 30.027 0 0 1 1.765 7.571c.8 5.5 1.792 12.336 9.167 22.874z" fill="#55b1c6"/></g></g></g><g data-name="Group 410"><g data-name="Group 356"><g data-name="Group 355"><g data-name="Group 354"><g data-name="Group 353"><g data-name="Group 352"><g data-name="Group 351"><g data-name="Group 350"><g data-name="Group 349"><path data-name="Path 733" d="M65.868 13.271V192.64a13.273 13.273 0 0 0 13.277 13.271h78.6a13.273 13.273 0 0 0 13.277-13.271V13.271A13.272 13.272 0 0 0 157.745 0h-78.6a13.272 13.272 0 0 0-13.277 13.271z" fill="#1e282d"/><path data-name="Path 734" d="M65.868 12.628v170.689c0 6.974 5.942 12.628 13.277 12.628h78.6c7.335 0 13.277-5.655 13.277-12.628V12.628C171.022 5.653 165.079 0 157.745 0h-78.6C71.81 0 65.868 5.654 65.868 12.628z" fill="#263138"/><path data-name="Path 735" d="M80.782 6.413h75.338a8.259 8.259 0 0 1 8.26 8.26v159.001a8.259 8.259 0 0 1-8.26 8.26H80.776a8.252 8.252 0 0 1-8.254-8.26v-159a8.259 8.259 0 0 1 8.26-8.26z" fill="#edf6f9"/></g></g></g></g></g></g></g></g><g data-name="Group 376" transform="translate(72.324 26.565)"><circle data-name="Ellipse 24" cx="38.398" cy="38.398" r="38.398" transform="rotate(-76.858 47.13 37.393)" fill="#cce2ed"/><g data-name="Group 358"><g data-name="Group 357"><circle data-name="Ellipse 25" cx="32.906" cy="32.906" r="32.906" transform="rotate(-76.451 47.904 31.125)" fill="#6dc4e2"/></g></g><g data-name="Group 360"><g data-name="Group 359"><circle data-name="Ellipse 26" cx="27.83" cy="27.83" r="27.83" transform="rotate(-76.92 48.491 25.46)" fill="#be5f67"/></g></g><g data-name="Group 375"><g data-name="Group 371"><path data-name="Path 736" d="M52.437 32.033l-.009 13.625a6.442 6.442 0 1 1-12.884 0l.009-13.625a6.442 6.442 0 1 1 12.884 0z" fill="#cce2ed"/><path data-name="Path 737" d="M39.55 39.312a.5.5 0 0 0-.512.512l-.005 5.838a6.954 6.954 0 0 0 13.854.867 7.038 7.038 0 0 0 .053-.87l.005-5.839a.51.51 0 0 0-.512-.512z" fill="#fff"/><g data-name="Group 370"><g data-name="Group 369"><g data-name="Group 361"><path data-name="Path 738" d="M48.072 26.894a.23.23 0 0 1-.231-.227.225.225 0 0 1 .224-.228h.007a.228.228 0 1 1 0 .456zm-1.386 0a.23.23 0 0 1-.231-.227.225.225 0 0 1 .224-.228h.007a.228.228 0 1 1 0 .456zm-1.386 0a.23.23 0 0 1-.231-.227.225.225 0 0 1 .224-.228h.007a.228.228 0 1 1 0 .456zm-1.386 0a.231.231 0 0 1-.232-.227.225.225 0 0 1 .224-.228h.007a.228.228 0 1 1 0 .456z" fill="#b8d3dd"/></g><g data-name="Group 362"><path data-name="Path 739" d="M49.458 28.558a.23.23 0 0 1-.231-.227.225.225 0 0 1 .225-.228h.007a.228.228 0 1 1 0 .456zm-1.386 0a.231.231 0 0 1-.231-.227.225.225 0 0 1 .224-.228h.007a.228.228 0 1 1 0 .456zm-1.386 0a.23.23 0 0 1-.231-.227.225.225 0 0 1 .224-.228h.007a.228.228 0 1 1 0 .456zm-1.386 0a.23.23 0 0 1-.231-.227.225.225 0 0 1 .224-.228h.007a.228.228 0 1 1 0 .456zm-1.386 0a.231.231 0 0 1-.232-.227.225.225 0 0 1 .224-.228h.007a.228.228 0 1 1 0 .456zm-1.386 0a.231.231 0 0 1-.232-.227.225.225 0 0 1 .224-.228h.007a.228.228 0 0 1 0 .456z" fill="#b8d3dd"/></g><g data-name="Group 363"><path data-name="Path 740" d="M50.845 30.231a.231.231 0 0 1-.232-.228.225.225 0 0 1 .224-.227h.007a.228.228 0 0 1 0 .456zm-1.386 0a.231.231 0 0 1-.231-.228.225.225 0 0 1 .225-.227h.007a.228.228 0 1 1 0 .456zm-1.386 0a.231.231 0 0 1-.231-.228.225.225 0 0 1 .224-.227h.007a.228.228 0 1 1 0 .456zm-1.386 0a.23.23 0 0 1-.231-.228.225.225 0 0 1 .224-.227h.007a.228.228 0 1 1 0 .456zm-1.386 0a.23.23 0 0 1-.231-.228.225.225 0 0 1 .224-.227h.007a.228.228 0 1 1 0 .456zm-1.386 0a.231.231 0 0 1-.232-.228.225.225 0 0 1 .224-.227h.007a.228.228 0 1 1 0 .456zm-1.386 0a.231.231 0 0 1-.232-.228.225.225 0 0 1 .225-.227h.007a.228.228 0 0 1 0 .456zm-1.386 0a.231.231 0 0 1-.232-.228.225.225 0 0 1 .225-.227h.007a.228.228 0 0 1 0 .456z" fill="#b8d3dd"/></g><g data-name="Group 364"><path data-name="Path 741" d="M50.845 31.898a.231.231 0 0 1-.232-.228.225.225 0 0 1 .224-.228h.007a.228.228 0 0 1 0 .456zm-1.386 0a.231.231 0 0 1-.231-.228.225.225 0 0 1 .225-.228h.007a.228.228 0 0 1 0 .456zm-1.386 0a.231.231 0 0 1-.231-.228.225.225 0 0 1 .224-.228h.007a.228.228 0 0 1 0 .456zm-1.386 0a.23.23 0 0 1-.231-.228.225.225 0 0 1 .224-.228h.007a.228.228 0 1 1 0 .456zm-1.386 0a.23.23 0 0 1-.231-.228.225.225 0 0 1 .224-.228h.007a.228.228 0 1 1 0 .456zm-1.386 0a.231.231 0 0 1-.232-.228.225.225 0 0 1 .224-.228h.007a.228.228 0 1 1 0 .456zm-1.386 0a.231.231 0 0 1-.232-.228.225.225 0 0 1 .225-.228h.007a.228.228 0 0 1 0 .456zm-1.386 0a.231.231 0 0 1-.232-.228.225.225 0 0 1 .225-.228h.007a.228.228 0 0 1 0 .456z" fill="#b8d3dd"/></g><g data-name="Group 365"><path data-name="Path 742" d="M50.845 33.567a.231.231 0 0 1-.232-.228.225.225 0 0 1 .224-.228h.007a.228.228 0 0 1 0 .456zm-1.386 0a.231.231 0 0 1-.231-.228.225.225 0 0 1 .225-.228h.007a.228.228 0 0 1 0 .456zm-1.386 0a.231.231 0 0 1-.231-.228.225.225 0 0 1 .224-.228h.007a.228.228 0 0 1 0 .456zm-1.386 0a.23.23 0 0 1-.231-.228.225.225 0 0 1 .224-.228h.007a.228.228 0 1 1 0 .456zm-1.386 0a.23.23 0 0 1-.231-.228.225.225 0 0 1 .224-.228h.007a.228.228 0 1 1 0 .456zm-1.386 0a.231.231 0 0 1-.232-.228.225.225 0 0 1 .224-.228h.007a.228.228 0 1 1 0 .456zm-1.386 0a.231.231 0 0 1-.232-.228.225.225 0 0 1 .225-.228h.007a.228.228 0 0 1 0 .456zm-1.386 0a.231.231 0 0 1-.232-.228.225.225 0 0 1 .225-.228h.007a.228.228 0 0 1 0 .456z" fill="#b8d3dd"/></g><g data-name="Group 366"><path data-name="Path 743" d="M50.845 35.235a.231.231 0 0 1-.232-.228.225.225 0 0 1 .224-.228h.007a.228.228 0 0 1 0 .456zm-1.386 0a.231.231 0 0 1-.231-.228.225.225 0 0 1 .225-.228h.007a.228.228 0 0 1 0 .456zm-1.386 0a.231.231 0 0 1-.231-.228.225.225 0 0 1 .224-.228h.007a.228.228 0 0 1 0 .456zm-1.386 0a.23.23 0 0 1-.231-.228.225.225 0 0 1 .224-.228h.007a.228.228 0 1 1 0 .456zm-1.386 0a.23.23 0 0 1-.231-.228.225.225 0 0 1 .224-.228h.007a.228.228 0 1 1 0 .456zm-1.386 0a.231.231 0 0 1-.232-.228.225.225 0 0 1 .224-.228h.007a.228.228 0 1 1 0 .456zm-1.386 0a.231.231 0 0 1-.232-.228.225.225 0 0 1 .225-.228h.007a.228.228 0 0 1 0 .456zm-1.386 0a.231.231 0 0 1-.232-.228.225.225 0 0 1 .225-.228h.007a.228.228 0 0 1 0 .456z" fill="#b8d3dd"/></g><g data-name="Group 367"><path data-name="Path 744" d="M50.845 36.904a.231.231 0 0 1-.232-.227.225.225 0 0 1 .224-.228h.007a.228.228 0 0 1 0 .456zm-1.386 0a.23.23 0 0 1-.231-.227.225.225 0 0 1 .225-.228h.007a.228.228 0 1 1 0 .456zm-1.386 0a.231.231 0 0 1-.231-.227.225.225 0 0 1 .224-.228h.007a.228.228 0 1 1 0 .456zm-1.386 0a.23.23 0 0 1-.231-.227.225.225 0 0 1 .224-.228h.007a.228.228 0 1 1 0 .456zm-1.386 0a.23.23 0 0 1-.231-.227.225.225 0 0 1 .224-.228h.007a.228.228 0 1 1 0 .456zm-1.386 0a.231.231 0 0 1-.232-.227.225.225 0 0 1 .224-.228h.007a.228.228 0 1 1 0 .456zm-1.386 0a.231.231 0 0 1-.232-.227.225.225 0 0 1 .225-.228h.007a.228.228 0 0 1 0 .456zm-1.386 0a.231.231 0 0 1-.232-.227.225.225 0 0 1 .225-.228h.007a.228.228 0 0 1 0 .456z" fill="#b8d3dd"/></g><g data-name="Group 368"><path data-name="Path 745" d="M50.845 38.572a.231.231 0 0 1-.232-.228.224.224 0 0 1 .224-.227h.007a.228.228 0 0 1 0 .456zm-1.386 0a.231.231 0 0 1-.231-.228.224.224 0 0 1 .225-.227h.007a.228.228 0 1 1 0 .456zm-1.386 0a.231.231 0 0 1-.231-.228.224.224 0 0 1 .224-.227h.007a.228.228 0 1 1 0 .456zm-1.386 0a.23.23 0 0 1-.231-.228.224.224 0 0 1 .224-.227h.007a.228.228 0 1 1 0 .456zm-1.386 0a.23.23 0 0 1-.231-.228.224.224 0 0 1 .224-.227h.007a.228.228 0 1 1 0 .456zm-1.386 0a.231.231 0 0 1-.232-.228.225.225 0 0 1 .224-.227h.007a.228.228 0 1 1 0 .456zm-1.386 0a.231.231 0 0 1-.232-.228.224.224 0 0 1 .225-.227h.007a.228.228 0 0 1 0 .456zm-1.386 0a.231.231 0 0 1-.232-.228.224.224 0 0 1 .225-.227h.007a.228.228 0 0 1 0 .456z" fill="#b8d3dd"/></g></g></g></g><g data-name="Group 372"><path data-name="Path 746" d="M46.123 56.006a10.2 10.2 0 0 1-10.207-10.2l.005-5.893a.873.873 0 0 1 .872-.871.872.872 0 0 1 .872.873l-.006 5.891a8.459 8.459 0 0 0 16.851 1.057 7.916 7.916 0 0 0 .069-1.063l.006-5.887a.872.872 0 0 1 .872-.871.872.872 0 0 1 .872.873l-.006 5.886a9.666 9.666 0 0 1-.084 1.285 10.19 10.19 0 0 1-10.118 8.916z" fill="#fff"/></g><g data-name="Group 373"><path data-name="Path 747" d="M46.125 65.911a.922.922 0 0 1-.922-.922V52.728a.922.922 0 1 1 1.843 0v12.261a.922.922 0 0 1-.921.922z" fill="#fff"/></g><g data-name="Group 374"><path data-name="Rectangle 244" d="M42.227 62.992h7.8a2.4 2.4 0 0 1 2.4 2.4v1.261h-12.6v-1.261a2.4 2.4 0 0 1 2.4-2.4z" fill="#fff"/></g></g></g><g data-name="Group 409"><g data-name="Group 377"><path data-name="Path 748" d="M156.894 145.65a.365.365 0 0 1-.364-.364v-2.094a.364.364 0 0 1 .729 0v2.094a.364.364 0 0 1-.365.364z" fill="#46a5ce"/></g><g data-name="Group 378"><path data-name="Path 749" d="M154.414 146.934a.364.364 0 0 1-.364-.364v-4.662a.364.364 0 1 1 .729 0v4.663a.364.364 0 0 1-.365.363z" fill="#46a5ce"/></g><g data-name="Group 379"><path data-name="Path 750" d="M151.934 150.155a.364.364 0 0 1-.364-.364v-11.1a.364.364 0 0 1 .729 0v11.1a.364.364 0 0 1-.365.364z" fill="#46a5ce"/></g><g data-name="Group 380"><path data-name="Path 751" d="M149.453 148.981a.365.365 0 0 1-.364-.364v-8.756a.364.364 0 0 1 .729 0v8.756a.364.364 0 0 1-.365.364z" fill="#46a5ce"/></g><g data-name="Group 381"><path data-name="Path 752" d="M146.973 151.773a.364.364 0 0 1-.364-.364v-14.34a.364.364 0 0 1 .729 0v14.339a.365.365 0 0 1-.365.365z" fill="#46a5ce"/></g><g data-name="Group 382"><path data-name="Path 753" d="M144.492 156.531a.364.364 0 0 1-.364-.364v-23.856a.364.364 0 1 1 .729 0v23.855a.364.364 0 0 1-.365.365z" fill="#46a5ce"/></g><g data-name="Group 383"><path data-name="Path 754" d="M142.011 149.171a.365.365 0 0 1-.364-.364v-9.137a.364.364 0 0 1 .729 0v9.136a.365.365 0 0 1-.365.365z" fill="#46a5ce"/></g><g data-name="Group 384"><path data-name="Path 755" d="M139.531 147.208a.364.364 0 0 1-.364-.364v-5.2a.364.364 0 0 1 .729 0v5.2a.364.364 0 0 1-.365.364z" fill="#46a5ce"/></g><g data-name="Group 385"><path data-name="Path 756" d="M137.05 145.555a.365.365 0 0 1-.364-.364v-1.9a.364.364 0 0 1 .729 0v1.9a.364.364 0 0 1-.365.364z" fill="#46a5ce"/></g><g data-name="Group 386"><path data-name="Path 757" d="M134.567 147.775a.364.364 0 0 1-.364-.364v-6.344a.364.364 0 0 1 .729 0v6.344a.364.364 0 0 1-.365.364z" fill="#46a5ce"/></g><g data-name="Group 387"><path data-name="Path 758" d="M132.089 150.44a.365.365 0 0 1-.364-.364v-11.675a.364.364 0 1 1 .729 0v11.674a.365.365 0 0 1-.365.365z" fill="#46a5ce"/></g><g data-name="Group 388"><path data-name="Path 759" d="M129.612 154.247a.364.364 0 0 1-.364-.364v-19.288a.364.364 0 0 1 .729 0v19.288a.365.365 0 0 1-.365.364z" fill="#46a5ce"/></g><g data-name="Group 389"><path data-name="Path 760" d="M127.128 151.265a.365.365 0 0 1-.364-.364v-13.325a.364.364 0 0 1 .729 0v13.325a.364.364 0 0 1-.365.364z" fill="#46a5ce"/></g><g data-name="Group 390"><path data-name="Path 761" d="M124.647 146.768a.365.365 0 0 1-.364-.364v-4.33a.364.364 0 0 1 .729 0v4.33a.365.365 0 0 1-.365.364z" fill="#46a5ce"/></g><g data-name="Group 391"><path data-name="Path 762" d="M122.167 151.831a.365.365 0 0 1-.364-.364v-14.462a.364.364 0 0 1 .729 0v14.466a.364.364 0 0 1-.365.36z" fill="#46a5ce"/></g><g data-name="Group 392"><path data-name="Path 763" d="M119.687 154.976a.364.364 0 0 1-.364-.364v-20.747a.364.364 0 1 1 .729 0v20.746a.364.364 0 0 1-.365.365z" fill="#46a5ce"/></g><g data-name="Group 393"><path data-name="Path 764" d="M117.206 160.111a.364.364 0 0 1-.364-.364v-31.021a.364.364 0 0 1 .729 0v31.025a.364.364 0 0 1-.365.36z" fill="#46a5ce"/></g><g data-name="Group 394"><path data-name="Path 765" d="M114.725 154.596a.365.365 0 0 1-.364-.364v-19.986a.364.364 0 0 1 .729 0v19.985a.364.364 0 0 1-.365.365z" fill="#46a5ce"/></g><g data-name="Group 395"><path data-name="Path 766" d="M112.245 151.169a.365.365 0 0 1-.364-.364v-13.134a.364.364 0 1 1 .729 0v13.134a.365.365 0 0 1-.365.364z" fill="#46a5ce"/></g><g data-name="Group 396"><path data-name="Path 767" d="M109.765 147.367a.364.364 0 0 1-.364-.364v-5.52a.364.364 0 0 1 .729 0v5.52a.364.364 0 0 1-.365.364z" fill="#46a5ce"/></g><g data-name="Group 397"><path data-name="Path 768" d="M107.284 148.695a.364.364 0 0 1-.364-.364v-8.185a.364.364 0 1 1 .729 0v8.185a.364.364 0 0 1-.365.364z" fill="#46a5ce"/></g><g data-name="Group 398"><path data-name="Path 769" d="M104.804 147.394a.364.364 0 0 1-.364-.364v-5.583a.364.364 0 0 1 .729 0v5.583a.364.364 0 0 1-.365.364z" fill="#46a5ce"/></g><g data-name="Group 399"><path data-name="Path 770" d="M102.323 153.454a.365.365 0 0 1-.364-.364v-17.7a.364.364 0 1 1 .729 0v17.7a.364.364 0 0 1-.365.364z" fill="#46a5ce"/></g><g data-name="Group 400"><path data-name="Path 771" d="M99.842 150.314a.365.365 0 0 1-.364-.364v-11.422a.364.364 0 0 1 .729 0v11.421a.365.365 0 0 1-.365.365z" fill="#46a5ce"/></g><g data-name="Group 401"><path data-name="Path 772" d="M97.362 155.647a.364.364 0 0 1-.364-.364v-22.084a.364.364 0 1 1 .729 0v22.078a.364.364 0 0 1-.365.37z" fill="#46a5ce"/></g><g data-name="Group 402"><path data-name="Path 773" d="M94.882 157.451a.364.364 0 0 1-.364-.364v-25.7a.364.364 0 0 1 .729 0v25.7a.365.365 0 0 1-.365.364z" fill="#46a5ce"/></g><g data-name="Group 403"><path data-name="Path 774" d="M92.401 153.739a.364.364 0 0 1-.364-.364v-18.273a.364.364 0 1 1 .729 0v18.272a.364.364 0 0 1-.365.365z" fill="#46a5ce"/></g><g data-name="Group 404"><path data-name="Path 775" d="M89.92 154.167a.365.365 0 0 1-.364-.364v-19.129a.364.364 0 1 1 .729 0v19.125a.365.365 0 0 1-.365.368z" fill="#46a5ce"/></g><g data-name="Group 405"><path data-name="Path 776" d="M87.44 149.505a.364.364 0 0 1-.364-.364v-9.8a.364.364 0 0 1 .729 0v9.8a.365.365 0 0 1-.365.364z" fill="#46a5ce"/></g><g data-name="Group 406"><path data-name="Path 777" d="M84.959 147.553a.365.365 0 0 1-.364-.364v-5.9a.364.364 0 1 1 .729 0v5.9a.364.364 0 0 1-.365.364z" fill="#46a5ce"/></g><g data-name="Group 407"><path data-name="Path 778" d="M82.479 147.22a.364.364 0 0 1-.364-.364v-5.234a.364.364 0 0 1 .729 0v5.234a.365.365 0 0 1-.365.364z" fill="#46a5ce"/></g><g data-name="Group 408"><path data-name="Path 779" d="M79.998 145.84a.364.364 0 0 1-.364-.364v-2.475a.364.364 0 1 1 .729 0v2.474a.364.364 0 0 1-.365.365z" fill="#46a5ce"/></g></g></g><g data-name="Group 417"><path data-name="Path 780" d="M30.525 134.809l20.989-.872.92-35.909-1.946-8.256-9.2-4.327-6.244 1.192a7.325 7.325 0 0 0-5.948 7.452l2.276 25.414z" fill="#e6d5b9"/><path data-name="Path 781" d="M38.949 81.02v7.215s1.525.911 5.093.911c1.924 0 2.356-.911 2.356-.911V85.57z" fill="#e6d5b9"/><path data-name="Path 782" d="M38.109 75.635c.017.261.026.506.042.742 0 .085-.009.168-.009.261-.177 4.284 2.571 8.87 6.711 9.494 0 0 .034.008.093.017.034 0 .085.009.144.009.886.109 4.089.371 5.261-.92a10.9 10.9 0 0 0 2.6-6.2 24.369 24.369 0 0 0-.345-3.118c0-.6.321-2.472.327-3.285.028-3.822-2.544-7.615-7.115-7.615-6.857 0-7.898 6.012-7.709 10.615z" fill="#e6d5b9"/><g data-name="Group 412" fill="#e6d5b9"><path data-name="Path 784" d="M22.019 117.621c2.251.936 8.9-11.634 11.326-17.179s3.347-10.346.6-11.489-5.5 2.9-7.727 8.525-6.45 19.206-4.199 20.143z"/><path data-name="Path 785" d="M28.794 109.428s-2.254 5.428-2.254 5.637 2.6 7.08 2.6 7.08l-7.027-7.866z"/><g data-name="Group 411"><path data-name="Path 786" d="M34.725 140.835c1.965-.9-4.122-15.608-5.992-19.691s-4.147-8.255-6.351-7.246-.53 5.458 1.341 9.541 9.037 18.297 11.002 17.396z"/><path data-name="Path 787" d="M33.106 137.048c-2.394.888-.346 4.933.4 6.287 1.219 2.206 4.628 3.3 5.49 2.835s-2.274-5.246-2.168-5.52 1.538 2.454 2.3 1.936-1.135-3.748-2.378-4.738-2.144-1.358-3.644-.8z"/></g></g><path data-name="Path 788" d="M34.758 101.942l-1.091 1.5-4.749 6.553-.034.05-5.739-4.959c3.289-11.822 8.181-17.134 8.181-17.134z" fill="#cce2ed"/><path data-name="Path 789" d="M33.668 103.443l-4.749 6.553a51.121 51.121 0 0 1 .73-19.458z" fill="#bdd9e5"/><path data-name="Path 790" d="M44.489 132.142c-2.093.793-3.257 4.114-2.55 7.2a45.942 45.942 0 0 0 3.3 9.3c4.346 9.214 7.709 21.534 10.792 21.49s4.1-7.686 1.084-17.641c-2.73-9-5.232-20.8-7.5-21.382-1.156-.294-3.295.339-5.126 1.033z" fill="#e6d5b9"/><g data-name="Group 413"><path data-name="Path 791" d="M56.901 166.774c-8.376-2.565-4.585 31.085-1.773 38.283s3.867-5.131 4.372-17.553.697-19.721-2.599-20.73z" fill="#e6d5b9"/></g><path data-name="Path 792" d="M52.941 194.47c.095.127.7 11.184.7 11.184s5.338.382 5.338 0 .413-9.977.413-9.977z" fill="#e6d5b9"/><path data-name="Path 793" d="M16.109 182.455c-.039.155-8.235 7.6-8.235 7.6s3.073 4.381 3.369 4.141 8-5.976 8-5.976z" fill="#e6d5b9"/><path data-name="Path 794" d="M34.159 132.135c-2.206.372-3.993 3.4-3.9 6.572a45.938 45.938 0 0 0 1.429 9.765c2.478 9.882 3.39 22.62 6.423 23.175s5.517-6.745 4.483-17.1c-.935-9.357-1.1-21.417-3.216-22.431-1.067-.51-3.288-.307-5.219.019z" fill="#e6d5b9"/><g data-name="Group 414"><path data-name="Path 795" d="M40.787 167.936c-3.264-8.128-26.938 16.11-30.773 22.817s6.289-.368 16.274-7.776 15.783-11.843 14.499-15.041z" fill="#e6d5b9"/></g><path data-name="Path 796" d="M43.645 159.149c-.193 5.336-.738 9.834-1.9 11.73-3.776 6.159-24.753 19.861-24.753 19.861l-4.48-5.135-.277-.319s8.953-9.65 12.166-12.443a100.906 100.906 0 0 1 9.1-6.578s-9.478-26.812-3.776-33.982a5.935 5.935 0 0 0 .6-1.6c4.7-11.352 12.41.21 12.41.21s.21 2.567.445 6.418c.338 5.828.716 14.595.465 21.838z" fill="#263138"/><path data-name="Path 797" d="M43.644 159.149c-8.685-15.724-7.351-28.546-7.351-28.546l6.881 6.7c.341 5.836.722 14.604.47 21.846z" fill="#1e282d"/><path data-name="Path 798" d="M53.599 131.585s7.237 25.592 7.657 36.08-1.888 33.423-1.888 33.423h-6.293s-1.364-13.81-1.888-19.368.524-13.845.524-13.845-13.879-19.089-15.837-36.709" fill="#263138"/><path data-name="Path 799" d="M54.535 131.878a.626.626 0 0 1-.6.755l-24.14.42a1.212 1.212 0 0 1-1.234-1.3c.394-4.825 1.662-21.4 1.024-25.374-2.241-14.029.017-18.544 3.935-19.642 5.857-1.645 12.326.461 14.1 1.636 1.662 1.091 3.02 2.845 5.806 7.485a13.131 13.131 0 0 1 1.41 3.171 10.5 10.5 0 0 1 .3 1.469 10.96 10.96 0 0 1-1.921 7.316c-2.8 4.405.581 20.624 1.32 24.064z" fill="#cce2ed"/><path data-name="Path 800" d="M75.869 89.166c-.365-2.389-14.442-1.552-20.39-.753s-10.491 2.491-10.045 5.408 5.288 3.174 11.2 2.158 19.601-4.423 19.235-6.813z" fill="#e6d5b9"/><path data-name="Path 801" d="M64.267 87.676s6.922-1.014 7.167-1.154 6.013-6.992 6.013-6.992l3.077 4.929s-3.776 5.8-4.824 6.678-13.39 4.16-13.39 4.16-.245-6.888-.1-6.888 2.057-.733 2.057-.733z" fill="#e6d5b9"/><path data-name="Path 802" d="M54.837 99.031a10.5 10.5 0 0 1 .3 1.469 18.612 18.612 0 0 0-5.211-.026l4.891-1.468a.086.086 0 0 1 .02.025z" fill="#bdd9e5"/><path data-name="Path 803" d="M43.073 93.136l2.8-5.182 17.05-1.028 1.165 8.894-13.32 4.51s-7.769-2.206-7.628-2.722z" fill="#cce2ed"/><path data-name="Path 804" d="M54.267 70.272c-.214 2.517-1.76 3.939-2.8 6-1.182 2.337-.289 5.7-.114 8.179a21.519 21.519 0 0 1-2.921 13.047 29.762 29.762 0 0 1-5.515 6.037 6.582 6.582 0 0 1-3.221 1.884c-1.915.284-3.66-1.091-4.969-2.515a26.879 26.879 0 0 1-3.405-4.611 11.538 11.538 0 0 1-1.534-3.794 14.7 14.7 0 0 1-.051-3.429l.463-7.275c.184-2.883.417-5.92 2.036-8.311.953-1.409 2.408-2.587 3.059-4.187.691-1.7.78-2.715 2.1-4.2a10 10 0 0 1 5.413-3.576c3.9-.787 10.883.888 11.44 5.717a5.187 5.187 0 0 1 .019 1.034z" fill="#263138"/><path data-name="Path 805" d="M13.165 192.631a14.431 14.431 0 0 0-.835 4.563c-.182 2.811 1.3 3.9.656 4.23-.614.316-8.068-9.122-8.068-9.122l4.624-3.932s3.623 4.266 3.623 4.261z" fill="#263138"/><g data-name="Group 416"><g data-name="Group 415"><path data-name="Path 806" d="M90.284 66.716c-1.722-1.277-11.593 11.04-14.247 14.616s-5.191 7.548-3.261 8.98 4.995-2.148 7.649-5.725 11.58-16.594 9.859-17.871z" fill="#e6d5b9"/></g><path data-name="Path 807" d="M88.525 72.078a18.284 18.284 0 0 1 1.469-2.063c.51-.524 2.51.29 3.635-1.547s-.407-3.045-.6-3.427 2.582-2.926 1.956-3.474c-.643-.562-4.329 3.088-4.329 3.088a3.224 3.224 0 0 0-1.59 1.075c-.71.819-1.5 2.105-2.281 3.034" fill="#e6d5b9"/></g><path data-name="Path 809" d="M59.133 205.405s.563 1.634 3.964 3.762 4.294 1.663 4.37 2.459-14.139.141-14.139.141l.222-6.543s5.581.01 5.583.181z" fill="#263138"/></g><g data-name="Group 418"><path data-name="Path 810" d="M46.016 35.428H21.241a1.85 1.85 0 0 0-1.849 1.849v13.178a1.843 1.843 0 0 0 1.849 1.84h15.228a717.612 717.612 0 0 1 5.832 5.857v-5.857h3.715a1.842 1.842 0 0 0 1.849-1.84V37.281a1.85 1.85 0 0 0-1.849-1.853zM26.789 45.72a1.858 1.858 0 1 1 1.857-1.858 1.854 1.854 0 0 1-1.857 1.858zm6.835 0a1.858 1.858 0 1 1 1.866-1.858 1.859 1.859 0 0 1-1.866 1.858zm6.844 0a1.858 1.858 0 1 1 1.858-1.858 1.853 1.853 0 0 1-1.858 1.858z" fill="#d88c2c"/></g><g data-name="Group 427"><g data-name="Group 420"><g data-name="Group 419"><path data-name="Rectangle 245" d="M156.885 15.613h22.836a6.279 6.279 0 0 1 6.284 6.279v22.837a6.28 6.28 0 0 1-6.28 6.28h-22.84a6.28 6.28 0 0 1-6.28-6.28V21.893a6.28 6.28 0 0 1 6.28-6.28z" fill="#5b318c"/></g></g><g data-name="Group 426"><path data-name="Path 812" d="M172.547 24.885a.293.293 0 0 1-.246-.454l3.309-5.055a.294.294 0 0 1 .491.321l-3.309 5.055a.293.293 0 0 1-.245.133z" fill="#fff"/><path data-name="Path 813" d="M176.366 31.075a.294.294 0 0 1-.033-.585l6-.678a.294.294 0 0 1 .066.584l-6 .678z" fill="#fff"/><path data-name="Path 814" d="M174.597 27.893a.294.294 0 0 1-.155-.544l4.331-2.666a.294.294 0 0 1 .308.5l-4.33 2.666a.29.29 0 0 1-.154.044z" fill="#fff"/><g data-name="Group 425"><path data-name="Rectangle 246" fill="#fff" d="M155.904 36.76l6.099-4.553 5.149 6.896-6.1 4.554z"/><path data-name="Path 815" d="M162.002 32.199l-6.1 4.557-.862.644a2.74 2.74 0 0 0-.554 3.834l1.875 2.508a2.739 2.739 0 0 0 3.835.554l.862-.644 5.8 3.628a.619.619 0 0 0 .7-.03l1.638-1.224a.62.62 0 0 0-.044-1.023l-3.309-2.069.009-.057.426-.308a.664.664 0 0 0-.052-1.111l-1.248-.735 2.179-1.628 3.624-1.157a11.5 11.5 0 0 1 4.328-.348.848.848 0 0 0 .583-.144 1.273 1.273 0 0 0 .327-1.183 12.861 12.861 0 0 0-2.137-4.956c-.356-.569-.757-1.146-1.192-1.727s-.867-1.114-1.3-1.6a13.028 13.028 0 0 0-4.174-3.469 1.3 1.3 0 0 0-1.234-.013.845.845 0 0 0-.3.52 11.407 11.407 0 0 1-1.548 4.046l-2.129 3.135" fill="#fff"/><g data-name="Group 424"><g data-name="Group 423"><path data-name="Path 816" d="M172.196 29.956c.352.469.676.934.961 1.4a10.093 10.093 0 0 1 1.694 4.024 1.064 1.064 0 0 1-.287.972c-.34.254-.937.118-1.668-.321a17.953 17.953 0 0 1-6.331-8.441c-.217-.825-.181-1.437.158-1.691a1.082 1.082 0 0 1 1.02-.008 10.218 10.218 0 0 1 3.4 2.778c.353.388.705.823 1.053 1.287z" fill="#5b318c"/></g></g></g></g></g></g></svg>