<svg xmlns="http://www.w3.org/2000/svg" width="224.243" height="221.346" viewBox="0 0 224.243 221.346"><path d="M56.672 36.719s5.26-1.767 8.728-.362a10.922 10.922 0 0 1 6.015 5.306c4.494 4.151 13.273 12.57 15.829 16.567.666 1.041 1.374 1.707 1.308 2.736a4.051 4.051 0 0 1-1.207 2.286l-9.254-1.146c-3.04-2.456-9.634-7.194-13.631-11.4l-.284 2.349a11.359 11.359 0 0 1-6.6-8.075c-1.52-7.261-.904-8.261-.904-8.261z" fill="#27debf"/><path d="M77.267 61.451a7.185 7.185 0 0 1 5.068-2.037s-2.493-1.148-6.222 1.141z" opacity=".15"/><path d="M63.362 118.439c-20.067-.342-28.117 24.569-39.349 16.8-10.406-7.2 1.44-19.547 18.862-28.05 16.284-7.948 20.888-21.2 22.082-28.1 1.317-7.606 1.626-18.966-.676-32.659-.842-5.011-5.205-9.441-11.576-10.155l-8.564-.2s-2.213.355-6.041 1.136-5.818 2.57-6.172 5.615a12.744 12.744 0 0 0 .311 5.185l1 7.256s2.906 8.146 3.136 11.265a26.318 26.318 0 0 1-1.94 12.138c-3.277 7.781-16.058 15.418-27.776 29.423-10.941 13.077-8.214 34.982 6.783 41.074 12.793 5.2 26.123 2.236 35.981-8.22 13.518-14.337 25.709-11.061 24.214-4.584-2.2 9.543-16.359 7.027-26.314 14.708-10.223 7.888-7.557 18.005-3.182 21.952 4.118 3.715 9.986 2.721 9.986 2.721s-10.645-1.512-9.643-10.734c.935-8.614 8.39-10.92 25.274-14.909 19.088-4.5 18.249-31.243-6.396-31.662z" fill="#27debf"/><path d="M55.361 72.816a1.23 1.23 0 0 1-.176.466 1.157 1.157 0 0 1-.448.358c-.918.458-2.039.218-3.013.54-.79.261.539.558.764.585a9.457 9.457 0 0 0 1.575.01 6.287 6.287 0 0 0 .681-.058c.543-.087 1.028-.459 1.548-.539a3.668 3.668 0 0 1 1.41.329c.96.278 2.923.471 3.543-.566a.36.36 0 0 0 .061-.277.3.3 0 0 0-.292-.188 1.161 1.161 0 0 0-.361.079c-.973.3-3.056.475-3.048-1.014a11.665 11.665 0 0 1 .112-2.177c.038-.195.257-.291.45-.336.677-.159 1.389-.087 2.073-.211a.962.962 0 0 0 .384-.137.389.389 0 0 0 .178-.349.117.117 0 0 0-.036-.079.146.146 0 0 0-.1-.02q-.966.043-1.934-.008a2.473 2.473 0 0 1-.9-.169 1.718 1.718 0 0 1-.818-1.309c-.107-.62-.259-1.667.283-2.149a1.361 1.361 0 0 1 .864-.24 6.152 6.152 0 0 0 1.658-.221.74.74 0 0 0 .3-.158.3.3 0 0 0 .089-.308 15.052 15.052 0 0 1-2.154-.1 1.478 1.478 0 0 1-.518-.146c-.467-.26-.626-1.231-.694-1.723a13.439 13.439 0 0 0-.212-2.1c-.043-.141-.127-.3-.274-.308-.191-.006-.265.245-.277.436l-.121 1.842a4.449 4.449 0 0 1-.166 1.1c-.393 1.2-1.6 1.059-2.627 1.208-.362.052-.8.436-.541.69a.536.536 0 0 0 .352.106l1.991.113a.6.6 0 0 1 .376.108.578.578 0 0 1 .145.3 9.6 9.6 0 0 1 .264 1.674 1.471 1.471 0 0 1-1.114 1.458 4.365 4.365 0 0 1-1.277.156l-1.013.023c-.157 0-.357.04-.389.194a.241.241 0 0 0 .14.245.731.731 0 0 0 .3.06 4.412 4.412 0 0 1 2.377.532 2.477 2.477 0 0 1 .585 2.278zM44.728 58.701a.2.2 0 0 0 .011.1.4.4 0 0 0 .143.166c1.194.935 2.925.964 4.4.965a12.964 12.964 0 0 0 5.086-1.031 9.592 9.592 0 0 1 1.4-.543c1.189-.3 2.066.215 3.173.5a10.737 10.737 0 0 0 5.092.044c.913-.216 1.972-.8 1.908-1.735.019.286-5.876.327-6.3.3a3.186 3.186 0 0 1-1.629-.409 2.392 2.392 0 0 1-.881-1.362 15.854 15.854 0 0 1-.284-1.629c-.055-.32-1.139-3.945-1.645-3.317a.393.393 0 0 0-.055.257c.03 1.276.721 3.663.351 5.128s-2.407 1.937-3.693 2.14a21.194 21.194 0 0 1-5.138.176 7.579 7.579 0 0 0-1.47-.05c-.208.015-.446.132-.469.3z" opacity=".1"/><path d="M41.749 36.492a10.716 10.716 0 0 0 2.092 4.9 13.246 13.246 0 0 0 5.581 3.862c1.068.48 2.938 15.914 1.981 25.63 0 0-8.8 1.761-15.721-.269 0 0-.485-5.9-1.015-9.409-.384-2.541-3.982-14.551-3.877-18.149.09-3.065 1.247-4.791 4.8-5.529 3.573-.742 6.159-1.036 6.159-1.036z" fill="#455a64"/><path d="M48.587 46.659a.263.263 0 0 0-.175-.218 14.678 14.678 0 0 1-5.1-3.408 10.394 10.394 0 0 1-2.955-6.353l-.518.078a10.971 10.971 0 0 0 3.08 6.622 15.428 15.428 0 0 0 5.166 3.5q.1.853.2 1.73a111.475 111.475 0 0 1 .933 20.258 36.165 36.165 0 0 1-13.722-.377q.028.29.051.551a34.764 34.764 0 0 0 7.694.836 34.152 34.152 0 0 0 6.283-.534.262.262 0 0 0 .207-.243 111.729 111.729 0 0 0-.925-20.551q-.113-.963-.219-1.891z" fill="#fafafa"/><path d="M42.77 131.583a59.164 59.164 0 0 1 10.825-11.2c-13.3 5.641-20.371 21.227-29.578 14.86s-1-16.765 13.082-24.967c-7.054 3.318-20.477 10.456-23.989 18.768-2.338 5.533 1.413 13.4 10.166 13.992s14.794-4.91 19.494-11.453zM69.2 130.974l-.007.006c3.283.524 5.074 2.672 4.446 5.392-2.2 9.543-16.359 7.027-26.314 14.708-5.6 4.323-7.329 9.313-7.03 13.593 1.7-10.309 12.088-14.527 20.972-16.216s14.467-5.141 15.5-10.355-3.749-6.683-7.567-7.128zM65.501 75.149c-.033 0-.063-.009-.1-.01l-.112 1.2s-3.757 4.432-14.8 4.03c-12.641-.459-14.94-4.362-14.94-4.362.066-.3.133-.618.207-1.017-.031-.01-.06-.015-.089-.022a25.351 25.351 0 0 1-1.233 3.714c-.124.3-.265.59-.418.885q-.136.266-.287.532l-.022.039-.3.514-.027.045a25.927 25.927 0 0 1-2.59 3.414c1.962 1.509 5.286 3.364 8.455 3.459a6.906 6.906 0 0 0 4.883-1.742 41.065 41.065 0 0 0 6.156.659 28.614 28.614 0 0 0 8.96-.969 5.837 5.837 0 0 0 3.43 1.333 37.435 37.435 0 0 0 1.225-3.392c.023-.075.041-.146.064-.22.074-.245.143-.486.21-.724.031-.113.065-.227.094-.338.09-.333.173-.66.249-.977.025-.1.045-.2.069-.3.05-.218.1-.433.142-.642l.083-.411.043-.212c.034-.179.071-.365.1-.536a62 62 0 0 0 .548-3.95z" opacity=".15"/><path d="M36.008 73.411c-.844-.279-.94.712-1.637 2.869-.652 2.019-1.1 2.954-.49 3.545.891.859 5.887 4.711 16.655 5.084 8.935.309 12.98-2.653 13.856-3.18 1-.6 1.5-1.3 1.822-5.054.153-1.816.427-3.094-.561-3.113l-.048.737s-3.821 4.892-14.863 4.491c-12.64-.46-14.94-4.363-14.94-4.363.065-.298.132-.618.206-1.016z" fill="#27debf"/><path d="M36.008 73.411c-.844-.279-.94.712-1.637 2.869-.652 2.019-1.1 2.954-.49 3.545.891.859 5.887 4.711 16.655 5.084 8.935.309 12.98-2.653 13.856-3.18 1-.6 1.5-1.3 1.822-5.054.153-1.816.427-3.094-.561-3.113l-.048.737s-3.821 4.892-14.863 4.491c-12.64-.46-14.94-4.363-14.94-4.363.065-.298.132-.618.206-1.016z" fill="#fff" opacity=".7"/><g transform="translate(32.476)"><circle cx="14.85" cy="14.85" r="14.85" fill="#263238"/><path d="M29.2 9.005s-1.3-6.893-10.665-6.633c-9.071.252-13.373 6.633-14.37 10.493-.8 3.089-1.52 10.922 4.232 12.175z" fill="#37474f"/><path d="M10.869 22.237c-.458.667-1.2-.806-1.8-1.458a2.221 2.221 0 0 0-3.61.927c-.992 2.176.685 4.246 2.079 4.939 2.493 1.239 3.285-.563 3.285-.563l.2 10.369c3.514 5.435 12.123 6.612 9.2.2v-3.823a11.781 11.781 0 0 0 2.969.1 6.059 6.059 0 0 0 4.548-4.113c1.05-3.286 1.446-6.83.725-13.353-.839-7.6-10.406-7.681-14.944-4.612-4.025 2.719-2.652 11.387-2.652 11.387z" fill="#27debf"/><path d="M19.888 32.78a28.376 28.376 0 0 1-5.306-1.6 5.763 5.763 0 0 0 2.607 1.715 21.076 21.076 0 0 0 2.7.722zM20.722 27.638l2.134.045a1.1 1.1 0 0 1-1.126 1.1 1.089 1.089 0 0 1-1.008-1.145z" opacity=".3"/><path d="M25.883 29.279a5.454 5.454 0 0 0-.074-.778 2.794 2.794 0 0 0-1.38-2.094 5.788 5.788 0 0 0-2.522-.258c-1.562.08-2.712.441-3.313 1.38a4.981 4.981 0 0 0-.184 5.029c1.167 2.108 3.376 2.525 5.51 2.573a7.552 7.552 0 0 0 2.669-.534 1.752 1.752 0 0 0 1.119-1.88c-.021-.1-.093-.216-.188-.184a.537.537 0 0 1-.133.515c-.4.422-1.1.067-1.344-.356a2.468 2.468 0 0 1-.238-1.321c.018-.698.099-1.398.078-2.092zm-.988 1.169a1.332 1.332 0 0 1-1.784.671c-.215-.119-.35-1.173.007-1.341s.167-.441-.8-.364-.965.343-.587.427.5 1.07.056 1.259a2.26 2.26 0 0 1-1.9-.061 2.935 2.935 0 0 1-.229-3.253 3.18 3.18 0 0 1 2.761-.872 3.034 3.034 0 0 1 2.4.8c.568.665.285 1.959.077 2.734z" fill="#27debf"/><path d="M25.883 29.279a5.454 5.454 0 0 0-.074-.778 2.794 2.794 0 0 0-1.38-2.094 5.788 5.788 0 0 0-2.522-.258c-1.562.08-2.712.441-3.313 1.38a4.981 4.981 0 0 0-.184 5.029c1.167 2.108 3.376 2.525 5.51 2.573a7.552 7.552 0 0 0 2.669-.534 1.752 1.752 0 0 0 1.119-1.88c-.021-.1-.093-.216-.188-.184a.537.537 0 0 1-.133.515c-.4.422-1.1.067-1.344-.356a2.468 2.468 0 0 1-.238-1.321c.018-.698.099-1.398.078-2.092zm-.988 1.169a1.332 1.332 0 0 1-1.784.671c-.215-.119-.35-1.173.007-1.341s.167-.441-.8-.364-.965.343-.587.427.5 1.07.056 1.259a2.26 2.26 0 0 1-1.9-.061 2.935 2.935 0 0 1-.229-3.253 3.18 3.18 0 0 1 2.761-.872 3.034 3.034 0 0 1 2.4.8c.568.665.285 1.959.077 2.734z" opacity=".5"/><path d="M17.756 17.632l-1.863 1.071a1.189 1.189 0 0 1 .434-1.545 1.019 1.019 0 0 1 1.429.474zM27.129 18.776l-1.7-1.363a1 1 0 0 1 1.477-.236 1.206 1.206 0 0 1 .223 1.599zM26.3 21.03a.873.873 0 1 1-.871-.945.905.905 0 0 1 .871.945zM18.929 21.3a.873.873 0 1 1-.871-.945.905.905 0 0 1 .871.945z" fill="#263238"/><path d="M21.518 19.668l.1 5.5 3.121-.716z" opacity=".3"/></g><path d="M41.547 20.785s3.485-7.231 10.257-8.174 9.2 1.987 9.266 4.271a5.075 5.075 0 0 0 2.177-3.255c.61-3.28-1.588-9.014-11.444-8.252-7.194.556-11.329 4.922-12.739 9.122a10.817 10.817 0 0 0-.046 5.958 2.259 2.259 0 0 1 2.529.33z" fill="#455a64"/><path d="M57.213 9.374a.943.943 0 0 1-.1.422l-.739 1.472a.892.892 0 0 1-.3.345.947.947 0 0 1-.428.156l-.016.005-.956.056-.334.017a.92.92 0 0 1-.506-.116.961.961 0 0 1-.345-.339.041.041 0 0 0-.011-.023l-.689-1.295a.871.871 0 0 1-.105-.422.915.915 0 0 1 .05-.323l.789-1.572a.861.861 0 0 1 .3-.345.948.948 0 0 1 .444-.161h.017l.378-.023.889-.05a.9.9 0 0 1 .861.478l.694 1.295a.88.88 0 0 1 .107.423z" fill="#37474f"/><path d="M57.214 9.268a.826.826 0 0 1-.089.372l-.652 1.3a.791.791 0 0 1-.265.3.835.835 0 0 1-.377.137l-.015.005-.843.049-.294.015a.81.81 0 0 1-.446-.1.843.843 0 0 1-.3-.3.036.036 0 0 0-.01-.02l-.608-1.142a.766.766 0 0 1-.093-.372.8.8 0 0 1 .044-.284l.7-1.387a.764.764 0 0 1 .265-.3.84.84 0 0 1 .392-.142h.015l.333-.019.785-.044a.8.8 0 0 1 .76.421l.613 1.142a.777.777 0 0 1 .085.369z" fill="#27debf"/><path d="M57.214 9.268a.826.826 0 0 1-.089.372l-.652 1.3a.791.791 0 0 1-.265.3.835.835 0 0 1-.377.137l-.015.005-.843.049-.294.015a.81.81 0 0 1-.446-.1.843.843 0 0 1-.3-.3.036.036 0 0 0-.01-.02l-.608-1.142a.766.766 0 0 1-.093-.372.8.8 0 0 1 .044-.284l.7-1.387a.764.764 0 0 1 .265-.3.84.84 0 0 1 .392-.142h.015l.333-.019.785-.044a.8.8 0 0 1 .76.421l.613 1.142a.777.777 0 0 1 .085.369z" fill="#fff" opacity=".7"/><path d="M55.606 8.61l-.784.047-.392.78.392.733.784-.047.392-.78z" fill="#27debf" opacity=".5"/><path d="M57.213 9.268l-1.216.073-.392-.731.593-1.177a.842.842 0 0 1 .309.318l.613 1.142a.777.777 0 0 1 .093.375zM56.208 11.244a.834.834 0 0 1-.377.137l-.015.005-.843.049-.294.015a.81.81 0 0 1-.446-.1l.588-1.177.785-.044zM54.821 8.655l-.392.785-1.211.073a.8.8 0 0 1 .044-.284l.7-1.387a.764.764 0 0 1 .265-.3z" fill="#fff" opacity=".5"/><path d="M88.181 62.103c-.835 1.149-2 4.468-4.7 7.582-2.053 2.369-6.206 6.633-7.99 8.259-2.306 2.1-3.343 2.842-5.221 4.379-1.414 1.157-2.775 2.743-6.046 3.249-1.859.288-5.024-.227-5.965-3.047-.54-1.621.548-1.82 3.554-3.052 3.081-1.263 3.684-1.708 4.4-2.8a14.379 14.379 0 0 0 .119-2.47c-.1-.451-.322-.667-.68-.643l.062-.64a6.3 6.3 0 0 1 1.477.659c1.181.689 2.157 1.328 4.483-1.988 2.056-2.929 2.821-6.981 5.79-10.374s10.717.886 10.717.886z" fill="#27debf"/><g><path d="M37.638 37.132s-4.521-.916-7.754.967c-2.661 1.549-4.155 3.153-5.426 6.931-3.859 4.747-11.352 14.329-13.314 18.65-.511 1.125-1.117 1.885-.906 2.894.161.767.606 1.226 1.52 2.091l9-2.449c2.66-2.863 8.514-8.49 11.872-13.225l.615 2.285a11.358 11.358 0 0 0 5.385-8.931c.47-7.401-.992-9.213-.992-9.213z" fill="#27debf"/><path d="M10.772 67.646a55.155 55.155 0 0 0 5.7 6.053 81.207 81.207 0 0 0 9.527 6.281c2.694 1.574 3.714 2.339 5.791 3.593 1.564.945 5.028 2.761 8.338 2.8 1.881.02 4.316-1.187 5.814-4.059.766-1.469-1.61-2.424-4.815-2.958a12.433 12.433 0 0 1-5.752-2.064 1.569 1.569 0 0 1-.737-1.858l.395-1.247c-.152-.109-.55.017-1.442.726-1.071.85-1.7 1.285-4.749-1.377-2.839-2.475-3.913-5.152-7.333-8.088s-10.737 2.198-10.737 2.198z" fill="#27debf"/><path d="M32.626 52.991l.615 2.285a9.5 9.5 0 0 0 1.452-1.033 5.457 5.457 0 0 1 .125-2.246 3.509 3.509 0 0 0 .178-2.131 19.364 19.364 0 0 1-2.37 3.125zM21.507 65.446a6.7 6.7 0 0 0-5.233-.5s2.114-2.285 6.331-.664z" opacity=".15"/></g><g><path d="M53.446 36.381c1.164.831 3.941 2.779 4.683 4.634a3.188 3.188 0 0 1-.539 3.546c-.449.37 1.35 3.044 2.221 11.906.586 5.971.553 13.373.553 13.373s4.038-.358 6.212-1.906c.042-.523 2.8-14.66.472-21.759a15.639 15.639 0 0 0-9.312-9.757s-2.651-.133-4.29-.037z" fill="#455a64"/></g><path d="M66.902 65.916c-1.531.567-3.468 1.09-4.235 1.29.314-13.43-2.433-21.192-2.84-22.263a5.349 5.349 0 0 0 .649-3.054c-.254-2.014-1.763-3.941-4.289-5.526-.331-.008-.69-.014-1.055-.016 2.859 1.582 4.564 3.558 4.822 5.607a4.782 4.782 0 0 1-.639 2.818.26.26 0 0 0-.023.244c.032.078 3.236 7.986 2.841 22.524a.261.261 0 0 0 .262.269.256.256 0 0 0 .063-.007c.134-.033 2.444-.611 4.348-1.292.032-.185.063-.381.096-.594z" fill="#fafafa"/><path d="M53.501 187.219c.539-2.472 1.975-4.272 6.839-3.45 6.8 1.15 11.155.034 12.778-3.449 1.893-4.059-.365-8.96-9.667-8.049-8.472.83-13.988.343-16.031-3.078 0 0 .3 3.42 6.348 5.127 7.649 2.159 12.22-.251 14.7 2.884a2.837 2.837 0 0 1-1.576 3.975 14.753 14.753 0 0 1-6.135.29c-6.718-.711-7.867 3.936-7.256 5.75z" fill="#27debf"/><g><path d="M199.735 167.669c-25.773-.236-136.428 15.911-136.428 15.911s-9.84-2.9-9.807 3.642c.01 1.882 65.68 34.521 101.423 34.124 24.066-.268 59.386-20.074 65.748-28.886 7.147-9.905 5.181-24.557-20.936-24.791z" fill="#27debf"/><path d="M195.777 188.662c2.167.25 4.252.751 3.418 2.584a3.152 3.152 0 0 1-3 1.667z" fill="#a8e4e6"/><path d="M193.443 158.15c2.584.25 5.919.875 4.585 2.542s-6.336 1.959-6.336 1.959z" fill="#662d91"/><path d="M191.026 114.547c2.167-.166 4.793.042 4.543 1.668-.165 1.074-4.543 1.667-4.543 1.667z" fill="#6fcdd1"/><path d="M196.611 181.743c-.334 2.751-.417 9.921-.417 9.921-15.924 8.754-48.021 20.259-49.938 20.092s-5.5-6.67-2.918-8.587 51.356-20.676 53.273-21.426z" fill="#fff"/><path d="M61.054 177.742c.166 2.334-.167 8.169.333 8.837s81.034 26.762 84.536 27.262 46.686-18.258 51.689-20.759c2.167-1.667 1.5-3.834-.667-2.167s-48.271 20.009-51.6 20.843c-.584-.083-2.084-6-.084-7.837s52.19-21.009 54.357-22.176c2.668-1.834 3.334-3.5-4-4.334-7.51-.837-134.564.331-134.564.331z" fill="#0071bc"/><path d="M195.027 172.656c1.584.083 5.044.209 5.669 1.25.232.385.25 1.251-1.083 2-3.418 1.834-38.1 22.259-39.851 21.842a5.716 5.716 0 0 1-2.834-1.75s33.351-21.592 38.099-23.342z" fill="#f7931e"/><path d="M196.528 162.151c-2.834 3.335-3.084 10.671.167 12-4.419 3-39.017 23.01-39.017 23.01s-4.753-10.588 2-14.923 36.85-20.087 36.85-20.087z" fill="#fff"/><path d="M68.473 159.401c-3.835.833-11.5 1.167-11.839 6.5s-.166 10 .5 12.005 86.036 18.508 98.542 20.675c3.5 1 5.836-.667 11.339-3.5s32.013-18.675 33.347-19.675.166-2.668-1.834-1.5-34.349 20.343-37.85 22.51c-1.834.833-1.918-10.755 2.084-13.923s33.515-20.508 33.515-20.508-127.304-2.418-127.804-2.584z" fill="#f08e1a"/><path d="M194.194 146.895l-.083 14.006c-6.837 5.5-33.848 17.924-38.1 17.924-2.5-1.584-5.418-15.673 1.584-17.174s36.599-14.756 36.599-14.756z" fill="#fff"/><path d="M69.057 143.393c-4.5 2.168-7.5 9.338-2 17.341 1.834 2.168 80.2 18.009 88.705 20.342 3.5.5 36.181-16.341 41.184-19.175 3.334-2.418.167-3.5-3.168-.833s-34.181 16.341-36.182 17.008c-2.5.833-5.169-10.172.333-13.839s36.349-16.341 39.017-17.508c2.168-1.334 2.5-3.168 0-3.335s-91.039-8.5-91.706-8.5-29.68 5.331-36.183 8.499z" fill="#662d91"/><path d="M83.146 148.562c5.752 1 57.4 12.005 71.155 13.631" fill="none" stroke="#904bc4" stroke-miterlimit="10"/><path d="M192.694 134.473c1.834.041 3.334.292 3.168 1.126a5.02 5.02 0 0 1-1.209 1.876s-2.043.749-1.959-3.002z" fill="#d95f67"/><path d="M193.11 120.384c-.167 3.584.25 16.174.25 16.174-10.422 9.421-18.092 16.006-22.176 16.674s-9.255-12.339-2.5-19.425c6.585-5.169 24.426-13.423 24.426-13.423z" fill="#fff"/><path d="M69.72 124.969c-5.5.5-8.754 13.672-1.667 20.925.833.834 76.532 8.5 97.208 9.671 4.168.167 8.169-.334 11.171-2.835s15.841-12.172 18.008-14.506 1.5-4.335-.5-2.5-16.174 14.339-21.677 16.841-5.168-14.506-1.333-18.341 21.842-13.006 23.009-14.006.5-3.334-1.168-2.5-118.712 3.416-123.051 7.251z" fill="#d95f67"/><path d="M69.766 129.805l22.3 1.75c-3.376 2.376-4.585 11.005 0 14.59-7.5-.833-21.55-2.209-21.55-2.209-2.626-.501-4.627-12.131-.75-14.131z" fill="none" stroke="#fc929a" stroke-miterlimit="10" stroke-width="2"/><path d="M95.776 131.93l22.385 1.376c4.753 1.375 4 14.755-.625 14.881-5.877-.375-19.633-2-19.633-2-4.502-.251-7.503-10.627-2.127-14.257zM123.413 133.806s33.347 1.584 40.434 1.75c-2.751 8.588-1.126 14.215.25 17.091-8.628-.25-41.56-3.71-41.56-3.71 4.295-4.46 3.252-10.754.876-15.131z" fill="none" stroke="#fc929a" stroke-miterlimit="10" stroke-width="2"/><path d="M192.86 105.378l-.834 10.338c-1.834 2.5-21.467 12.255-24.8 13.005s-6.044-8.254.458-13.422c5.168-4.003 25.176-9.921 25.176-9.921z" fill="#fff"/><path d="M95.902 98.874c-6.25-.164-33.915 6.53-35.14 8.483-2.313 3.689-2.376 15.944 1.626 17.445s100.793 7 104.045 6.752 26.512-13.255 28.762-14.506c1.292-1-1.667-2.334-2.667-1.583s-18.675 10.337-24.594 12.922c-3.7 1.617-2.25-11.339 1.251-12.839s25.511-9 26.512-10.255 1.25-2.251-.751-2.5-89.54-3.665-99.044-3.919z" fill="#6fcdd1"/><path d="M74.225 108.462c-2.751 1.751-3.418 13.5.584 17.841M78.477 108.712c-2.751 1.751-3.418 13.5.584 17.84M147.437 113.047c-2.23 1.751-3.673 13.089-.431 17.424M151.871 113.298c-2.229 1.751-3.938 13.255-.7 17.59" fill="none" stroke="#ffe5b0" stroke-miterlimit="10" stroke-width="2"/><path d="M63.012 107.795c4.752-.125 88.913 5.752 100.668 6.252" fill="none" stroke="#42989c" stroke-miterlimit="10"/><path d="M114.05 137.996c.665 3.959.326 7.352.636 10.911s1.267 3 2.782-1.719 1.051-6.495 1.051-6.495l-2.4-4.113" fill="#ffd1b3"/><path d="M118.002 139.811c-.727 5.749-2.661 9.337-3.475 7.371.022.64.05 1.279.105 1.915.31 3.559 1.526 2.894 3.041-1.821s.843-6.584.843-6.584z" fill="#36241a"/><path d="M140.913 93.539s-13.005 3.751-16.006.75c0 0-19.758 7.378-22.385 10.88s8.378 28.137 9.754 33.764c1.627.376 4.315-1.625 4.315-1.625s-.188-1.407-.563-3.377c1.207-4.191 4.538-12.99 6.5-20.258 0 0 6.5-2.5 14.256-6.5s7.255-7.757 4.129-13.634zm-25.636 14.464c-1 .792-1.667 3.418-1.876 7.462 0 0-1.083-7.3-1.083-7.42.124-.5 7.627-3 11.588-4.377 0 0-7.628 3.543-8.629 4.335z" fill="#2e76a6"/><path d="M110.275 140.434c-1.5 3.5-3.449 5.847-5.033 8.848s-.541 3.158 3.126.156 4.126-4.564 4.126-4.564l.2-4.522" fill="#ffd1b3"/><path d="M110.899 134.306c0 .375-1.25 6.628-1.25 6.628 1.5 1.876 2.626 1.25 3.251.75.751-2.126 2.251-5.627 2.251-5.627" fill="#2e76a6"/><path d="M119.737 48.816c-2.064 7.652.479 11.874 3.856 14.05s8.879-1.451 9.879-5.343c3.564.066 3.252-6.333-.188-3.694 1.063-4.749-9.108-13.788-13.547-5.013z" fill="#ffbc8f"/><path d="M135.161 69.446c-1.251-1.334-3.919-1.866-4.5-2.949s-1.094-6.315-1.094-6.315l-4.326.594s1.334 5.169.751 6.086-3.5 3.418-3.5 3.752 3.418 9.671 3.418 9.671 4.498-5.837 9.251-10.839z" fill="#ffbc8f"/><path d="M125.031 63.276a8.884 8.884 0 0 0 6.711-2.71" fill="none" stroke="#c9926e" stroke-miterlimit="10"/><path d="M140.996 100.793c1.959 6.086 1.417 6.836 2 7.92a13.87 13.87 0 0 0 3.667 3.5c.667 0-1.667-3-1.667-3.585 5.169 1.167 9.921.25 9.421-.25s-7.462-2.668-8.546-3.085-2.459-6.836-2.459-6.836" fill="#ffbc8f"/><path d="M123.217 69.685c-.083 3.168 2.522 6.846 3.857 7.514 3.251-2.335 7.5-8.337 7.5-8.337 1.918.667 3.753 5.085 5.42 11.171s4.167 20.175 4.167 20.175a4.138 4.138 0 0 1-3.252.917c-1-3.335-1.667-6.253-1.667-6.253-3.668 1.25-11.588 2.584-14.339-.584-1.084-3.084-2.917-11-2.917-11-.751 5-4.594 10.171-5.545 10.171-2.042 0-4.5-10.8-4.5-18.133a2.072 2.072 0 0 0 2.542-.625 58.216 58.216 0 0 0 2.251 9.421c2.084-5.169 2.668-10 3.084-10.755s3.066-3.265 3.399-3.682z" fill="#ff828b"/><path d="M129.074 44.199c-3.835-1.759-9.337 2.177-9.671 5.783a5.829 5.829 0 0 1 4-2.573c-.751 2.419 5.418 4.794 7.753 4.354a7.6 7.6 0 0 0 1.167 3.584c1.126-2.243 2.5-2.089 2.5-2.089 1.003-3.87-1.164-7.916-5.749-9.059z" fill="#42332b"/><path d="M128.491 44.111c-2.918-5.19 3.085-5.365 5.919-3.518s1.918 6.86-1.25 6.6a19.561 19.561 0 0 0-4.669-3.082z" fill="#42332b"/><path d="M106.617 50.583l2.376-2.095 4.283 6.284c2.439-1.032 9.879-3.314 9.879-3.314l.281 3.032s-7.409 2.658-9.5 2.846-6.6-6.128-7.319-6.753z" fill="#fff"/><path d="M105.402 50.188s1.875 16.632 1.959 17.3c1.126.542 6.252 2.5 6.252 2.5a3.691 3.691 0 0 0 2.377.333 89.834 89.834 0 0 0 10.17-1.917c.293-.959-1.167-14.965-1.291-15.34-.626-.208-9.963 2.043-9.963 2.043-.584.959-3.251.667-3.084-.542-1.881-2.126-6.72-5.17-6.42-4.377z" fill="#2e3192"/><path d="M111.984 75.531l-.375-3.877-1.647-2.814s3.064-3.314 4.627-3.876-1.876 2.688-1.5 2.688c3.126-1.938 3.407-2.063 3.47-1.876a7.2 7.2 0 0 1 .136 2.293c-.188.125-3.418 1.709-3.418 1.709l.917.459.25 4.626a2.039 2.039 0 0 1-2.46.668z" fill="#ffbc8f"/><path d="M112.608 68.823a29.305 29.305 0 0 1 3.962-2.34M135.076 54.27c-.584.308-.875 1.319-1.208 1.891" fill="none" stroke="#c9926e" stroke-miterlimit="10"/><path d="M121.694 74.739c.084 1.334-.416 2.793-.416 4.168 0 2.71 1.125 5.753 1.709 8.337M132.992 76.866a21.284 21.284 0 0 1 1.251 3.21c.333.833.751 1.625 1.126 2.418a24.4 24.4 0 0 1 1.375 4.5c1 3.918 4 13.214 4.086 13.756M115.652 80.117c.334 2.293 1.792 5.169 1.876 7.545" fill="none" stroke="#d95b63" stroke-miterlimit="10"/><path d="M114.943 56.023c.208 3.085.333 6.586.792 9.379M111.608 54.522c.71 2.293.542 5 .875 7.42a20.426 20.426 0 0 0 .376 3.293" fill="none" stroke="#1c206b" stroke-miterlimit="10"/><path d="M113.401 114.173c-.333 4.084-1.918 16.923-3.209 24.052M113.818 139.35c.357-.932 1.582-4.083 3.015-7.986M118.718 106.169c3.126-1.376 6.627-3.189 10.692-5.065M124.427 100.271a15.773 15.773 0 0 0 2.418 2.209" fill="none" stroke="#154f75" stroke-miterlimit="10"/><path d="M145.832 107.253a13 13 0 0 1 2.543.416 28.632 28.632 0 0 1 4.96 1.168" fill="none" stroke="#c9926e" stroke-miterlimit="10"/><path d="M195.278 103.543c-3.168 1-27.178 9.67-29.513 11.255s-4.419 16.423.334 16.174" fill="none" stroke="#42989c" stroke-miterlimit="10"/><path d="M171.557 130.43c-4.126 1.875-6 6.628-6 11.755s0 14.256 6 12.631" fill="none" stroke="#b82c35" stroke-miterlimit="10"/><path d="M196.819 145.186c-4.5 2.626-38.141 15.007-41.767 18.883s-2.5 16.757 2 16.007" fill="none" stroke="#4b1b70" stroke-miterlimit="10"/><path fill="none" stroke="#ffca8c" stroke-miterlimit="10" d="M60.011 162.944l59.776 10.63"/><path d="M168.433 176.574c-4.377 2.876-8.129 4.419-10 7.17s-3.418 15.465 1.251 14.173" fill="none" stroke="#ba4e0f" stroke-miterlimit="10"/><path d="M160.68 185.161c-1 2.834-1 6.086-.917 9.087.083 3.669 3.586 1.334 5.836.167" fill="none" stroke="#ba4e0f" stroke-miterlimit="10"/><path d="M144.923 203.919c-.917 1.417-.5 4.168-.25 5.753.166 1.084.167 2.334 1.25 2.668 1.5.416 4-1.251 5.169-2" fill="none" stroke="#62a0a3" stroke-miterlimit="10"/><path d="M142.755 209.506c0-1.918-.667-5.419.667-7 .833-.917 2.667-1.333 3.751-1.667a59.485 59.485 0 0 1 7.419-2.5" fill="none" stroke="#bffdff" stroke-miterlimit="10"/><path fill="none" stroke="#62a0a3" stroke-miterlimit="10" d="M84.147 185.161l59.776 16.174M181.521 187.663c2.585-1.084 17.674-7.837 18.592-8.087"/><path fill="none" stroke="#edddbb" stroke-miterlimit="10" d="M158.012 175.741l35.098-15.674M158.678 166.653a38.572 38.572 0 0 0 6.087-2.417c6.253-2.419 12.338-5.086 18.674-7.421M165.432 165.319c9.67-3.751 19.508-7.5 28.6-12.505M161.116 187.205c1.626-1 2.648-1.293 4.065-2.127 4.168-2.417 8.17-5 12.505-7.17M160.179 189.662c2.084-1.25 4.252-2.25 6.336-3.334M160.846 191.664c1.25-1.584 4.585-2.334 6.336-3.167 4.086-2 7.754-5 11.672-7.337M146.757 205.92c4.335-1.334 8.67-3.084 12.922-4.585 7.587-2.668 15.256-5.085 22.593-8.421M168.349 196.583c9.254-2.917 18.258-6.752 27.346-10.087M145.173 209.838c6.169-2.334 12.589-4.335 18.592-7M167.432 119.967c4.919-2.251 10.088-4 15.006-6.336M166.306 121.719c2.584-1.5 5.752-2.5 8.5-3.752M166.557 126.761c4.419-1.75 8.67-3.834 13.005-5.919M172.351 122.467c4.084-1.918 8.337-3.335 12.421-5.335M170.266 151.689a32.762 32.762 0 0 1 6.42-5.253c4.168-2.835 7.837-6.336 12.005-9.337M172.768 147.142a57.245 57.245 0 0 0 5.252-3.5M168.933 144.059c3.971-2.93 8.5-4.914 12.466-7.749a104.067 104.067 0 0 0 10.711-8.507M182.688 132.805c2.418-1.667 5-3.168 7.42-4.752"/><path d="M72.642 166.821c-4 1.375-2.752 13.381-.25 15.006M75.518 167.321c-1.375 1.25-3.564 9.754.125 15.069M140.296 179.326c-2.251 1.75-4 12.192-.75 16.194M142.797 180.076c-1.375 2-3.251 11.442-.875 15.694" fill="none" stroke="#ba4e0f" stroke-miterlimit="10" stroke-width="2"/><path d="M125.773 185.152c-.068 2.514-9.718 2.671-21.553.351s-21.376-6.239-21.308-8.753 9.717-2.671 21.553-.352 21.375 6.241 21.308 8.754z" fill="#ffe5b0"/><path d="M59.011 164.069c3 .5 98.417 18.508 98.417 18.508" fill="none" stroke="#ffca8c" stroke-miterlimit="10"/><path d="M107.836 49.334c1.25.812 2.751 3.314 3.751 4.752M108.649 48.52c1.063.437 1.938 2.439 2.563 3.376.376.625 1.126 2.5 1.626 2.626M113.693 54.565c.688-.186 2.266-.747 5.127-1.73 1.5-.562 2.834-.646 4.21-1.4M117.277 53.956a19.5 19.5 0 0 0 5.878-1.563" fill="none" stroke="#edddbb" stroke-miterlimit="10" stroke-width=".5"/><path d="M124.573 82.537a43.149 43.149 0 0 1 6.753 2.335M127.281 84.327c.793.333 1.543.583 2.335.875" fill="none" stroke="#d95b63" stroke-miterlimit="10"/><path d="M112.561 143.888c-3.559 4.227-6.988 6.116-6.636 4.132a30.652 30.652 0 0 0-.9 1.584c-1.584 3-.25 3.085 3.418.083s4.086-4.836 4.086-4.836z" fill="#36241a"/><path d="M62.138 109.295c-.751.668-.917 2.251-1 3.335a38.921 38.921 0 0 0 1 10.254M63.471 109.129c-1.167.417-1 2.167-1.167 3.251M62.137 113.631a11.18 11.18 0 0 1-.083 1.668M65.06 106.712a74.316 74.316 0 0 1 8.67-2.585c5.836-1.25 11.338-3.084 17.257-4.168M147.424 111.88c5.586 0 11.171.5 16.757.917M165.015 113.214a86.1 86.1 0 0 0 10.087-3.751M164.18 114.798c-2.584 1.834-2.584 7.67-2.584 10.254M162.43 115.131c-1 .834-1.418 2.668-1.751 3.918M184.689 105.544c2.167-.833 4.585-1.417 6.836-2.084" fill="none" stroke="#9ceff2" stroke-miterlimit="10"/><path d="M69.306 127.47c6 0 11.588 1 17.59 1M88.899 128.637a14.148 14.148 0 0 0 3.252.084M74.309 145.894a73.816 73.816 0 0 0 10.5 1.334M85.397 147.311a20.184 20.184 0 0 0 2.251.084M129.749 151.23c3.835 0 7.67.917 11.5 1.084M142.588 152.647c.5 0 1.584 0 2.334.084" fill="none" stroke="#b82c35" stroke-miterlimit="10"/><path d="M68.06 148.145c-2.5 2.251-1.25 7.17-.167 9.671M69.89 148.479c-1.25.167-1.334 2.251-1.417 3.169M153.759 162.985c-3.251 1.751-3.668 6.252-3.668 9.5M152.092 162.651a5.164 5.164 0 0 0-3.168 4.169" fill="none" stroke="#904bc4" stroke-miterlimit="10"/><path d="M156.385 177.533a2.28 2.28 0 0 0 2.5.792c3.418-.541 6.754-2.5 9.879-3.834M189.775 164.278c1.208-.875 2.71-1.418 3.96-2.251s2.418-1.751 3.71-2.5" fill="none" stroke="#4b1b70" stroke-miterlimit="10"/><path d="M198.883 173.511c1.751-.063-15.319 10-21.322 13.818" fill="none" stroke="#ba4e0f" stroke-miterlimit="10"/><path d="M62.137 180.91a18.556 18.556 0 0 0 .668 5.251M84.725 186.578a34.811 34.811 0 0 0 6.586 1.751c3.919.917 7.837 2.251 11.755 3.334M104.739 192.081a11.9 11.9 0 0 1 2.834.75M129.666 199.418c1.75.583 3.668.917 5.419 1.334a33.349 33.349 0 0 0 6.336 1M141.254 202.419c-2 1.417-1.084 5.586-1.084 7.67M139.337 202.502a7.336 7.336 0 0 0-.334 2.751" fill="none" stroke="#bffdff" stroke-miterlimit="10"/><path d="M186.691 196.582c2-1.25 4.5-1.917 6.67-2.917 1.25-.584 4.584-1.751 5.169-3" fill="none" stroke="#62a0a3" stroke-miterlimit="10"/><path d="M169.6 151.981c3 2.917 7.753-1.584 10.421-3.168M189.775 140.475c2.334-1 4.085-3.5 5.669-5.335" fill="none" stroke="#b82c35" stroke-miterlimit="10"/><path d="M165.682 125.052c0 1.167.292 3.71 1.584 4.21 1.083.376 2.793-.583 3.71-1.084 2-1.083 4.168-1.959 6.21-2.959q1.251-.625 2.5-1.126M190.735 118.01c1.334-.834 3-1.334 4.168-2.459" fill="none" stroke="#42989c" stroke-miterlimit="10"/></g></svg>