<svg xmlns="http://www.w3.org/2000/svg" width="76.49" height="76.49" viewBox="0 0 76.49 76.49"><path data-name="Icon metro-info" d="M33.464 22.708a3.6 3.6 0 0 1 3.585-3.585h2.39a3.6 3.6 0 0 1 3.59 3.585v2.39a3.6 3.6 0 0 1-3.585 3.585h-2.39a3.6 3.6 0 0 1-3.585-3.585zm14.342 34.664H28.684v-4.785h4.781V38.245h-4.781v-4.78h14.345v19.122h4.781zM38.245 0A38.245 38.245 0 1 0 76.49 38.245 38.245 38.245 0 0 0 38.245 0zm0 69.319a31.074 31.074 0 1 1 31.074-31.074 31.074 31.074 0 0 1-31.074 31.074z" fill="#31728d"/></svg>