<svg xmlns="http://www.w3.org/2000/svg" width="313.596" height="151.649" viewBox="0 0 313.596 151.649"><g fill="#d9eefd"><path d="M79.992 73.746a45.9 45.9 0 0 1 8.273 2.709 27.074 27.074 0 0 1 7.583 4.874 21.328 21.328 0 0 1 5.269 7.634 23.094 23.094 0 0 1 1.331 11.08 30.084 30.084 0 0 1-3.349 11.916 24.725 24.725 0 0 1-6.451 7.633 25.479 25.479 0 0 1-8.224 4.235 39.7 39.7 0 0 1-8.617 1.625 42.955 42.955 0 0 1-7.731-.1 32.858 32.858 0 0 1-5.515-.985 22.988 22.988 0 0 1-7.386-3.349 18.93 18.93 0 0 1-4.876-5.269q-2.117-3.3-1.625-8.617a15.5 15.5 0 0 1 1.724-6.4 14.472 14.472 0 0 1 3.4-4.185 14.772 14.772 0 0 1 4.185-2.461 26.9 26.9 0 0 1 4.185-1.231 230.221 230.221 0 0 1 .69-25.114 251.827 251.827 0 0 1 5.122-33.584 3.5 3.5 0 0 1 1.083-2.019 3.893 3.893 0 0 1 2.069-1.033 12.632 12.632 0 0 1 2.708-.1 5.26 5.26 0 0 1 2.611.985 3.205 3.205 0 0 1 1.378 3.644q-.789 3.45-2.363 12.557a205.3 205.3 0 0 0-2.364 22.406 40.671 40.671 0 0 0 8.273-3.152 32.365 32.365 0 0 0 7.781-5.417 24.958 24.958 0 0 0 5.515-7.682 17.858 17.858 0 0 0 1.379-9.947 16.511 16.511 0 0 0-2.315-6.746 19.6 19.6 0 0 0-4.431-4.973 26.126 26.126 0 0 0-5.763-3.447 45.889 45.889 0 0 0-6.2-2.216 48.274 48.274 0 0 0-5.76-1.23q-2.711-.393-4.58-.591a55.526 55.526 0 0 1-3.2 7.977 46.461 46.461 0 0 1-5.17 8.174 55.968 55.968 0 0 1-7.535 7.829 54.408 54.408 0 0 1-10.39 6.943 31.692 31.692 0 0 1-6.2 2.856 48.216 48.216 0 0 1-7.191 1.921 49.4 49.4 0 0 1-9.552.838 21.857 21.857 0 0 1-11.326-2.906 13.139 13.139 0 0 1-6.3-8.519q-.887-7.583 4.825-13.788a33.379 33.379 0 0 1 6.55-5.27 47.3 47.3 0 0 1 10.538-4.737 110.081 110.081 0 0 1 15.462-3.687 166.63 166.63 0 0 1 21.323-2.065 36.566 36.566 0 0 0 .049-10.538q-.738-4.627-2.609-6.7a1.549 1.549 0 0 1-.345-1.527A1.638 1.638 0 0 1 57.063.865a22.337 22.337 0 0 1 2.659-.69 8.412 8.412 0 0 1 2.856-.1 7.348 7.348 0 0 1 2.708.985 6.182 6.182 0 0 1 2.216 2.364 6.8 6.8 0 0 1 .739 1.723q.343 1.132.542 2.019a35.173 35.173 0 0 1 .3 5.317 41.353 41.353 0 0 1-.985 8.274q2.56.1 6.4.6t8.126 1.511a58.206 58.206 0 0 1 8.568 2.745 31.813 31.813 0 0 1 7.732 4.446 22.915 22.915 0 0 1 5.663 6.5 18.067 18.067 0 0 1 2.313 8.913 21.258 21.258 0 0 1-2.413 10.588 29.91 29.91 0 0 1-6.4 8.174 37.908 37.908 0 0 1-8.716 5.86 55.873 55.873 0 0 1-9.379 3.652zM51.825 38.783a37.635 37.635 0 0 0 3.742-6.7 49.328 49.328 0 0 0 2.364-6.8 184.444 184.444 0 0 0-19.747 1.773 106.706 106.706 0 0 0-14.231 3.054 45.081 45.081 0 0 0-9.7 3.988 29.534 29.534 0 0 0-5.958 4.383q-5.221 5.221-4.137 11.523a7.673 7.673 0 0 0 2.364 4.136 12.163 12.163 0 0 0 4.235 2.413 18.634 18.634 0 0 0 5.417.936 29.777 29.777 0 0 0 5.91-.393 42.769 42.769 0 0 0 9.011-2.364 46.751 46.751 0 0 0 8.224-4.087 46.02 46.02 0 0 0 7.042-5.417 35.926 35.926 0 0 0 5.464-6.445zm41.561 60.864a20.082 20.082 0 0 0-1.723-10.1 18.575 18.575 0 0 0-5.22-6.45 22.522 22.522 0 0 0-6.894-3.644 47.11 47.11 0 0 0-6.749-1.67q-.1 3.45-.1 7.042t.2 7.338a17.507 17.507 0 0 1 4.53 1.625 18.051 18.051 0 0 1 4.037 2.906 8.427 8.427 0 0 1 2.118 3.694 4.1 4.1 0 0 1-1.034 4.086 6.013 6.013 0 0 1-3.348 1.872 1.438 1.438 0 0 1-1.773-1.084 11.36 11.36 0 0 0-4.137-5.712q.2 3.347.542 6.8t.838 6.894a3.614 3.614 0 0 1-.641 2.609 3.92 3.92 0 0 1-2.216 1.625 12.259 12.259 0 0 1-2.758.3 5.189 5.189 0 0 1-2.659-.69 3.268 3.268 0 0 1-1.28-1.133 4.842 4.842 0 0 1-.69-1.526q-.395-1.973-1.033-6.106T62.36 97.686a23.564 23.564 0 0 0-2.9.837 10.86 10.86 0 0 0-2.856 1.527 8.766 8.766 0 0 0-2.266 2.511 9.417 9.417 0 0 0-1.23 3.693 10.926 10.926 0 0 0 .689 6.206 12.646 12.646 0 0 0 2.954 4.037 13.049 13.049 0 0 0 3.694 2.364q1.92.786 2.906 1.083a19.351 19.351 0 0 0 3.89.591 35.627 35.627 0 0 0 5.86-.1 30.233 30.233 0 0 0 6.7-1.428 19.789 19.789 0 0 0 6.353-3.5 19.671 19.671 0 0 0 4.925-6.2 23.232 23.232 0 0 0 2.306-9.659zM137.803 81.625a2.655 2.655 0 0 1 .2.985 2.813 2.813 0 0 1-1.083 2.068 21.483 21.483 0 0 1-3.546 2.758 24.438 24.438 0 0 1-3.447 1.773 22.644 22.644 0 0 1-1.674 8.717 17.208 17.208 0 0 1-3.151 4.776 9.646 9.646 0 0 1-4.433 2.462 12.12 12.12 0 0 1-7.091-.837 12.927 12.927 0 0 1-4.825-3.939 15.232 15.232 0 0 1-2.609-5.516 16.165 16.165 0 0 1-.443-5.663 14.342 14.342 0 0 1 2.265-6.647 22.425 22.425 0 0 1 2.757-3.4 12.4 12.4 0 0 1 .148-4.284 10.705 10.705 0 0 1 1.428-3.546 7.892 7.892 0 0 1 2.364-2.413 5.058 5.058 0 0 1 2.758-.886 9.512 9.512 0 0 1 3.989.985 11.858 11.858 0 0 1 3.939 3.1 18.259 18.259 0 0 1 3.1 5.515 26.285 26.285 0 0 1 1.478 8.126 13.975 13.975 0 0 0 3.594-1.969 19.632 19.632 0 0 0 2.512-2.266.951.951 0 0 1 .59-.395 1.03 1.03 0 0 1 1.18.496zm-18.221 19.4a3.866 3.866 0 0 0 2.216-1.527 10.981 10.981 0 0 0 1.527-2.806 18.06 18.06 0 0 0 .885-3.3q.3-1.722.395-3.1a12.372 12.372 0 0 1-5.122-.788 24.99 24.99 0 0 1-3.151-1.478 9.626 9.626 0 0 0-.3 1.478 165.35 165.35 0 0 0-.2 1.674 13.114 13.114 0 0 0 .1 5.417 8.844 8.844 0 0 0 1.379 2.954 5.044 5.044 0 0 0 2.271 1.478zm-1.97-24.326a2.308 2.308 0 0 0-.935.837 5.078 5.078 0 0 0-.543 1.133 11.874 11.874 0 0 1 1.281.443 8.528 8.528 0 0 1 1.083.542 1.6 1.6 0 0 1 .69.985 1.126 1.126 0 0 1-.3 1.182 10.757 10.757 0 0 0-1.181 2.167 6.041 6.041 0 0 0 1.281.985 7.186 7.186 0 0 0 1.28.591q.688.3 1.281.492a8.613 8.613 0 0 0 1.673.393l1.576.2a18.675 18.675 0 0 0-1.033-5.368 8.778 8.778 0 0 0-2.118-3.4 9.008 9.008 0 0 0-1.379-.985 5.372 5.372 0 0 0-1.28-.443 1.9 1.9 0 0 0-1.375.248z"/><path d="M165.477 81.625a2.655 2.655 0 0 1 .2.985 2.813 2.813 0 0 1-1.088 2.07 21.483 21.483 0 0 1-3.545 2.758 24.44 24.44 0 0 1-3.447 1.773 22.646 22.646 0 0 1-1.674 8.717 17.2 17.2 0 0 1-3.151 4.776 9.646 9.646 0 0 1-4.433 2.462 12.12 12.12 0 0 1-7.091-.837 12.926 12.926 0 0 1-4.825-3.939 15.231 15.231 0 0 1-2.609-5.516 16.166 16.166 0 0 1-.443-5.663 14.344 14.344 0 0 1 2.265-6.647 22.426 22.426 0 0 1 2.758-3.4 12.4 12.4 0 0 1 .148-4.284 10.73 10.73 0 0 1 1.428-3.546 7.9 7.9 0 0 1 2.364-2.413 5.06 5.06 0 0 1 2.758-.886 9.512 9.512 0 0 1 3.989.985 11.859 11.859 0 0 1 3.939 3.1 18.281 18.281 0 0 1 3.1 5.515 26.289 26.289 0 0 1 1.477 8.126 13.939 13.939 0 0 0 3.594-1.969 19.631 19.631 0 0 0 2.512-2.266.951.951 0 0 1 .591-.395 1.029 1.029 0 0 1 1.183.494zm-18.221 19.4a3.866 3.866 0 0 0 2.216-1.527 10.983 10.983 0 0 0 1.527-2.806 18.057 18.057 0 0 0 .885-3.3q.3-1.722.395-3.1a12.372 12.372 0 0 1-5.122-.788 25 25 0 0 1-3.151-1.478 9.64 9.64 0 0 0-.3 1.478 165.35 165.35 0 0 0-.2 1.674 13.114 13.114 0 0 0 .1 5.417 8.845 8.845 0 0 0 1.379 2.954 5.051 5.051 0 0 0 2.271 1.478zm-1.967-24.324a2.308 2.308 0 0 0-.935.837 5.071 5.071 0 0 0-.543 1.133 11.885 11.885 0 0 1 1.281.443 8.534 8.534 0 0 1 1.083.542 1.6 1.6 0 0 1 .69.985 1.126 1.126 0 0 1-.3 1.182 10.759 10.759 0 0 0-1.181 2.167 6.043 6.043 0 0 0 1.281.985 7.189 7.189 0 0 0 1.28.591q.688.3 1.281.492a8.616 8.616 0 0 0 1.673.393l1.576.2a18.6 18.6 0 0 0-1.033-5.368 8.779 8.779 0 0 0-2.118-3.4 9.01 9.01 0 0 0-1.379-.985 5.371 5.371 0 0 0-1.28-.443 1.9 1.9 0 0 0-1.376.246z"/><path d="M201.719 81.821a1.855 1.855 0 0 1 .591 1.971q-.2.885-.69 2.609t-1.281 3.742q-.789 2.019-1.871 4.185a23.543 23.543 0 0 1-2.462 3.94 14.435 14.435 0 0 1-3.053 2.954 6.8 6.8 0 0 1-3.644 1.28 11.857 11.857 0 0 1-7.091-1.576 13.771 13.771 0 0 1-4.383-4.431 19.931 19.931 0 0 1-2.363-5.663 35.033 35.033 0 0 1-.935-5.269q-.986 2.067-1.724 3.939t-1.231 3.152q.1 1.379.148 2.461a11.293 11.293 0 0 0 .247 1.969 3.29 3.29 0 0 1-.3 1.478 2.6 2.6 0 0 1-.788.985 2.546 2.546 0 0 1-1.673.493 4.738 4.738 0 0 1-2.167-.3 5.239 5.239 0 0 1-1.674-1.231 5.723 5.723 0 0 1-1.182-2.806 89.567 89.567 0 0 1-1.478-13.887 124.005 124.005 0 0 1 .345-13.591q.54-6.6 1.576-12.656t2.216-10.98q1.182-4.925 2.265-8.519t1.674-5.368a2.443 2.443 0 0 1 2.266-1.773 10.4 10.4 0 0 1 2.856 0 4.327 4.327 0 0 1 2.118.738 5.636 5.636 0 0 1 1.526 1.527 4.68 4.68 0 0 1 .738 2.018 5.6 5.6 0 0 1-.147 2.216 191.855 191.855 0 0 0-6.6 28.266 201.733 201.733 0 0 0-2.068 20.879q.887-2.265 2.364-5.269a57.452 57.452 0 0 1 3.546-6.155 24.084 24.084 0 0 1 5.023-5.516 16.6 16.6 0 0 1 5.367-2.954 7.577 7.577 0 0 1 4.825 0 6.288 6.288 0 0 1 3.5 3.447 8.658 8.658 0 0 1 .59 5.565 16.82 16.82 0 0 1-2.509 6.157 17.678 17.678 0 0 1-4.974 5.023 12.76 12.76 0 0 1-6.993 2.166 30.664 30.664 0 0 0 2.067 5.619 13.766 13.766 0 0 0 2.611 3.546 3.606 3.606 0 0 0 3.694.885 5.8 5.8 0 0 0 2.708-2.265 35.886 35.886 0 0 0 2.906-4.432 51.648 51.648 0 0 0 2.413-4.875q1.035-2.412 1.428-3.6.393-.983 1.183-.393a1.2 1.2 0 0 1 .245.148 1.027 1.027 0 0 0 .245.151zm-25.508.2a10.568 10.568 0 0 0 3.842-1.921 25.124 25.124 0 0 0 3.349-3.053 18.863 18.863 0 0 0 2.265-2.955q.787-1.33.689-1.625a2.542 2.542 0 0 0-.59-.591 1.292 1.292 0 0 0-1.133-.1 6.16 6.16 0 0 0-1.871 1.033 15 15 0 0 0-2.708 2.906 33.769 33.769 0 0 0-3.843 6.304z"/><path d="M225.059 81.821a1.938 1.938 0 0 1 .69 1.971q-.3 1.379-1.231 4.431a42.2 42.2 0 0 1-2.511 6.254 22.243 22.243 0 0 1-3.89 5.613 7.228 7.228 0 0 1-5.366 2.413 12.813 12.813 0 0 1-7.584-2.068 11.085 11.085 0 0 1-2.609-2.413 14.2 14.2 0 0 1-2.118-3.792 21.14 21.14 0 0 1-1.231-5.368 32.97 32.97 0 0 1 .148-7.336 31.929 31.929 0 0 1 2.363-8.469 19.779 19.779 0 0 1 1.674-3.054 13.285 13.285 0 0 1 2.266-2.609 9.566 9.566 0 0 1 2.954-1.773 9.192 9.192 0 0 1 3.742-.543 6.086 6.086 0 0 1 4.087 1.676 6.252 6.252 0 0 1 1.724 3.546 11.543 11.543 0 0 1-.345 4.53 14.789 14.789 0 0 1-2.118 4.629 14.088 14.088 0 0 1-3.694 3.693 9.707 9.707 0 0 1-4.875 1.724 34.951 34.951 0 0 0 .246 3.791 17.323 17.323 0 0 0 .985 4.187 7.7 7.7 0 0 0 2.166 3.2 4.578 4.578 0 0 0 3.89.837 4.755 4.755 0 0 0 2.611-2.118 32.256 32.256 0 0 0 2.708-4.382q1.28-2.462 2.316-4.875t1.428-3.6a.622.622 0 0 1 .443-.492.743.743 0 0 1 .64.1 2.44 2.44 0 0 1 .491.297zm-12.508-11.224a2.3 2.3 0 0 0-.739.245 3.576 3.576 0 0 0-1.231 1.232 16.1 16.1 0 0 0-1.526 3.053 31.313 31.313 0 0 0-1.526 5.712 13.636 13.636 0 0 0 2.511-1.576 10.594 10.594 0 0 0 2.609-3.053 9.074 9.074 0 0 0 1.183-2.758 4.018 4.018 0 0 0 0-1.773 1.563 1.563 0 0 0-.591-.936.82.82 0 0 0-.69-.146z"/><path d="M226.241 65.079a13.38 13.38 0 0 0 1.674 2.216 10.25 10.25 0 0 0 4.038 2.414q.2.1 1.182.542t2.364 1.231c.59.329 1.2.689 1.821 1.083a6.015 6.015 0 0 1 1.576 1.428 4.937 4.937 0 0 1 .886 2.019 6.229 6.229 0 0 1-.148 2.758q-1.971 6.107-1.477 10.045t2.462 4.235a2.867 2.867 0 0 0 2.511-1.083 18.69 18.69 0 0 0 2.363-3.1 27.7 27.7 0 0 0 1.969-3.791q.836-1.97 1.231-3.152.393-.887 1.183-.393a2.159 2.159 0 0 0 .492.3 1.927 1.927 0 0 1 .591 1.971 34.351 34.351 0 0 1-1.181 3.89 24.266 24.266 0 0 1-2.462 4.973 18.229 18.229 0 0 1-3.792 4.284 7.472 7.472 0 0 1-5.17 1.723 8.148 8.148 0 0 1-5.613-2.166 11.33 11.33 0 0 1-3.049-5.574 25.685 25.685 0 0 1-.542-8.174 49.229 49.229 0 0 1 1.921-10.1c-.527 0-1.069-.015-1.626-.05s-1.1-.081-1.625-.147a27.429 27.429 0 0 1-.738 6.55 36.557 36.557 0 0 1-1.33 4.481 2.118 2.118 0 0 1-1.674 1.281h-.591a.794.794 0 0 1-.64-.3.588.588 0 0 1-.05-.689 39.235 39.235 0 0 0 1.084-5.27 30.787 30.787 0 0 0 .3-6.45 5.189 5.189 0 0 1-3.694-1.872 5.54 5.54 0 0 1-1.033-3.249 8.453 8.453 0 0 1 .64-3.3 4.754 4.754 0 0 1 1.33-2.018l.591-.3c.2-.064.443-.13.738-.2a2.3 2.3 0 0 1 .935 0 2.253 2.253 0 0 1 1.231.738 4.308 4.308 0 0 1 .69 1.183 6.765 6.765 0 0 1 .345 1.181 2.211 2.211 0 0 0 .287.852z"/><path d="M270.264 81.822a1.855 1.855 0 0 1 .591 1.971q-.2.885-.738 2.9t-1.428 4.53q-.887 2.512-2.069 5.171a33.631 33.631 0 0 1-2.609 4.825 14.7 14.7 0 0 1-3.2 3.546 5.537 5.537 0 0 1-3.743 1.28 6.141 6.141 0 0 1-3.939-2.068 16.932 16.932 0 0 1-3-5.22 37.81 37.81 0 0 1-2.019-10.34 88.942 88.942 0 0 1-.2-11.966q.3-6.548 1.181-13.1t2.217-12.606q1.328-6.058 2.806-10.588a53.144 53.144 0 0 1 4.037-9.454q.985-1.674 2.118-3.25a16.33 16.33 0 0 1 2.414-2.708 8.654 8.654 0 0 1 2.758-1.674 5.1 5.1 0 0 1 3.053-.148q1.87.494 2.709 3.4a24.432 24.432 0 0 1 .69 7.387 65.233 65.233 0 0 1-1.232 10.1 84.62 84.62 0 0 1-3.1 11.473 97.513 97.513 0 0 1-4.826 11.523 58.76 58.76 0 0 1-6.45 10.292q-.592 4.728-.838 8.962a50.753 50.753 0 0 0 .05 7.485 16.032 16.032 0 0 0 1.181 5.171 2.786 2.786 0 0 0 2.561 1.92q1.278 0 2.758-2.461a43.459 43.459 0 0 0 2.807-5.663q1.328-3.2 2.363-6.3t1.428-4.285q.393-.983 1.183-.393a1.174 1.174 0 0 1 .245.148 1.053 1.053 0 0 0 .241.14zm-7.288-38.7q-.494 1.772-1.231 4.579t-1.478 6.353q-.738 3.546-1.526 7.633t-1.477 8.224a71.347 71.347 0 0 0 6.007-14.281 117.76 117.76 0 0 0 3.054-12.8 88.993 88.993 0 0 0 1.182-12.7q-.789 1.772-1.576 4.037t-1.477 4.234q-.791 2.352-1.478 4.716z"/><path d="M312.908 112.452q.2.491.393 1.083a9.329 9.329 0 0 1 .3 2.462 5.687 5.687 0 0 1-.738 2.806 3.409 3.409 0 0 1-2.9 1.527 5.807 5.807 0 0 1-2.166-.395 4.093 4.093 0 0 1-1.379-1.133 3.253 3.253 0 0 1-.395-2.413 9.554 9.554 0 0 0-.147-2.511 5.607 5.607 0 0 0-1.133-2.462 8.3 8.3 0 0 0-2.414-2.019 11.5 11.5 0 0 0-3.889-1.28q-.69 3.445-1.28 6.3t-1.084 4.825q-.59 2.364-1.083 4.137a59.966 59.966 0 0 1-3.694 10.192 41.053 41.053 0 0 1-5.17 8.323 29.983 29.983 0 0 1-6.549 6.057 22.076 22.076 0 0 1-7.731 3.3 21.926 21.926 0 0 1-4.284.393 17.623 17.623 0 0 1-5.171-.886 12.618 12.618 0 0 1-5.416-3.446 12.939 12.939 0 0 1-2.857-5.615q-.983-3.644.591-9.454a27.668 27.668 0 0 1 4.334-8.864 40.952 40.952 0 0 1 7.731-8.126 50.237 50.237 0 0 1 10.242-6.352 43.964 43.964 0 0 1 11.966-3.645q1.379-8.471 1.821-15.265t.346-12.015q-1.381 7.782-3.842 11.67a18.023 18.023 0 0 1-5.022 5.565 10.778 10.778 0 0 1-6.2 1.773 6.708 6.708 0 0 1-5.269-3.053 17.385 17.385 0 0 1-2.709-7.633 45.72 45.72 0 0 1 0-11.228 82.734 82.734 0 0 1 2.758-13.739 1.509 1.509 0 0 1 1.871-1.378 16.93 16.93 0 0 1 3.3.393 9.478 9.478 0 0 1 3.5 1.478 2.4 2.4 0 0 1 .985 2.758q-.3 1.381-.838 3.841t-1.083 5.318q-.542 2.858-.985 5.86t-.591 5.466a18.7 18.7 0 0 0 .148 4.185q.295 1.724 1.183 1.921a2.847 2.847 0 0 0 2.758-.838 12.594 12.594 0 0 0 2.561-3.4 37.555 37.555 0 0 0 2.215-4.973q1.033-2.807 1.872-5.615t1.428-5.219q.59-2.412.886-3.89c.064-.328.114-.591.147-.788a3.036 3.036 0 0 0 .049-.492v-.395a1.819 1.819 0 0 1 1.774-1.674 14.235 14.235 0 0 1 3.151.148c.986.165 1.838.345 2.562.542a3.548 3.548 0 0 1 2.954 3.447 133.474 133.474 0 0 1 .1 19.8q-.69 9.455-1.871 17.136 1.774.2 3.89.591a18.783 18.783 0 0 1 4.137 1.28 14.714 14.714 0 0 1 3.6 2.216 8.167 8.167 0 0 1 2.337 3.403zm-50.721 32.6a9.545 9.545 0 0 0 7.584.2 18.471 18.471 0 0 0 6.746-4.924 35.506 35.506 0 0 0 5.465-8.322 47.171 47.171 0 0 0 3.546-10q.887-3.544 1.576-6.845t1.281-6.452a47.239 47.239 0 0 0-7.387 2.561 47.545 47.545 0 0 0-7.386 4.038 43.609 43.609 0 0 0-6.648 5.465 34.387 34.387 0 0 0-5.269 6.746 16.792 16.792 0 0 0-1.478 2.856 18.8 18.8 0 0 0-1.035 2.906 22.393 22.393 0 0 0-.64 3.4 14.509 14.509 0 0 0 .443 4.924 5.14 5.14 0 0 0 3.202 3.445z"/></g></svg>