<svg xmlns="http://www.w3.org/2000/svg" width="315.176" height="149.633" viewBox="0 0 315.176 149.633"><g data-name="Group 325" fill="#d9eefd"><path data-name="Path 697" d="M54.256 75.58a6.992 6.992 0 0 0 1.256.774q.675.29 1.6.579a9.938 9.938 0 0 0 2.271.387q.677-8.893 2.127-19.142t4.253-21.752a4.178 4.178 0 0 1 1.113-1.981 3.566 3.566 0 0 1 1.981-1.015 14.933 14.933 0 0 1 2.659-.145 4.469 4.469 0 0 1 2.561 1.015 3.146 3.146 0 0 1 1.354 3.577q-.387 1.645-1.161 5.172t-1.69 8.508q-.921 4.98-1.838 11.215t-1.5 13.293a38.713 38.713 0 0 0 8.555-3.964 38.277 38.277 0 0 0 8.555-7.008 34.569 34.569 0 0 0 6.236-9.62 23.184 23.184 0 0 0 1.691-11.89 15 15 0 0 0-2.174-6.671 19.526 19.526 0 0 0-4.35-4.833 26.033 26.033 0 0 0-5.607-3.385 41.926 41.926 0 0 0-6.092-2.174 42.7 42.7 0 0 0-5.751-1.161q-2.708-.337-4.546-.532a55.677 55.677 0 0 1-3.093 7.782 44.271 44.271 0 0 1-5.026 7.976 53.575 53.575 0 0 1-7.443 7.685 58.521 58.521 0 0 1-10.249 6.912 35.273 35.273 0 0 1-6.091 2.708 47.4 47.4 0 0 1-7.056 1.884 48.507 48.507 0 0 1-9.378.822 21.456 21.456 0 0 1-11.118-2.852 12.9 12.9 0 0 1-6.188-8.362q-.869-7.443 4.739-13.534a32.755 32.755 0 0 1 6.428-5.173 46.392 46.392 0 0 1 10.345-4.65 107.714 107.714 0 0 1 15.178-3.62 163.749 163.749 0 0 1 20.93-2.026 32.937 32.937 0 0 0 .1-10.344q-.776-4.542-2.514-6.573a1.621 1.621 0 0 1-.386-1.5A1.486 1.486 0 0 1 55.999.851 21.94 21.94 0 0 1 58.61.174a8.509 8.509 0 0 1 2.851-.1 6.846 6.846 0 0 1 2.66.967 7.021 7.021 0 0 1 2.222 2.321 11.577 11.577 0 0 1 .63 1.691q.337 1.111.531 1.982a34.4 34.4 0 0 1 .29 5.221 40.513 40.513 0 0 1-.967 8.12q2.514.2 6.236.643a65.64 65.64 0 0 1 7.926 1.482 59.793 59.793 0 0 1 8.363 2.744 33.48 33.48 0 0 1 7.589 4.316 21.561 21.561 0 0 1 5.608 6.331 18.5 18.5 0 0 1 2.367 8.75 25.92 25.92 0 0 1-1.353 9.571 30.523 30.523 0 0 1-4.254 8.12 37.02 37.02 0 0 1-6.284 6.622 53.866 53.866 0 0 1-7.444 5.172 59.091 59.091 0 0 1-7.637 3.722 43.208 43.208 0 0 1-6.961 2.175q6.573 11.409 11.407 18.707a74.334 74.334 0 0 0 8.894 11.359 20.646 20.646 0 0 0 7.927 5.318 19.463 19.463 0 0 0 8.507.676 1.365 1.365 0 0 1 1.161.339 1.728 1.728 0 0 1 .58 1.015 9.238 9.238 0 0 1-.242 1.884 5.809 5.809 0 0 1-1.016 2.175 6.54 6.54 0 0 1-3.48 2.466 7.425 7.425 0 0 1-4.349-.049 16.438 16.438 0 0 1-3.529-1.691 30.546 30.546 0 0 1-4.35-3.335 53.721 53.721 0 0 1-5.124-5.415 74.636 74.636 0 0 1-5.751-8.024q-2.9-4.447-6.044-9.522t-6.814-11.07q-.387 8.316.048 17.112a145.04 145.04 0 0 0 1.982 17.691 3.669 3.669 0 0 1-.58 2.563 3.651 3.651 0 0 1-2.128 1.595 13.134 13.134 0 0 1-2.755.29 5.536 5.536 0 0 1-2.659-.676 3.319 3.319 0 0 1-1.837-2.611q-.29-1.546-.772-4.882t-.87-8.265q-.389-4.931-.484-11.408t.29-14.309a19.8 19.8 0 0 1-7.106-.87 14.312 14.312 0 0 1-5.656-3.286 8.486 8.486 0 0 1-2.03-3.384 3.833 3.833 0 0 1 .677-3.771 6.335 6.335 0 0 1 3.094-1.837 1.164 1.164 0 0 1 1.643.87 13.8 13.8 0 0 0 1.838 3.287 10.789 10.789 0 0 0 2.801 2.614zM50.97 38.166a44.665 44.665 0 0 0 3.576-6.67 48.379 48.379 0 0 0 2.321-6.671 182.689 182.689 0 0 0-19.335 1.74 104.449 104.449 0 0 0-14.018 3 43.032 43.032 0 0 0-9.474 3.915 29.352 29.352 0 0 0-5.8 4.3q-5.128 5.124-4.061 11.311a7.654 7.654 0 0 0 2.272 4.06 11.393 11.393 0 0 0 4.109 2.368 18.268 18.268 0 0 0 5.317.919 29.152 29.152 0 0 0 5.8-.386 43.922 43.922 0 0 0 8.845-2.273 45.075 45.075 0 0 0 8.122-3.963 44.046 44.046 0 0 0 6.961-5.317 35.236 35.236 0 0 0 5.365-6.332z"/><path data-name="Path 698" d="M123.861 81.09a1.9 1.9 0 0 1 .676 1.934q-.29 1.354-1.208 4.349a41.565 41.565 0 0 1-2.467 6.139 21.8 21.8 0 0 1-3.818 5.51 7.1 7.1 0 0 1-5.268 2.368 12.578 12.578 0 0 1-7.445-2.03 10.882 10.882 0 0 1-2.562-2.368 13.967 13.967 0 0 1-2.078-3.722 20.84 20.84 0 0 1-1.21-5.269 32.436 32.436 0 0 1 .146-7.2 31.221 31.221 0 0 1 2.321-8.314 19.309 19.309 0 0 1 1.642-3 13.042 13.042 0 0 1 2.224-2.561 9.4 9.4 0 0 1 2.9-1.74 9.023 9.023 0 0 1 3.673-.533 5.974 5.974 0 0 1 4.012 1.645 6.13 6.13 0 0 1 1.693 3.48 11.31 11.31 0 0 1-.34 4.447 14.464 14.464 0 0 1-2.076 4.549 13.829 13.829 0 0 1-3.626 3.625 9.529 9.529 0 0 1-4.786 1.692 34.314 34.314 0 0 0 .242 3.721 16.907 16.907 0 0 0 .968 4.11 7.545 7.545 0 0 0 2.125 3.142 4.5 4.5 0 0 0 3.819.821 4.662 4.662 0 0 0 2.561-2.079 31.793 31.793 0 0 0 2.66-4.3q1.255-2.417 2.271-4.785t1.4-3.529a.612.612 0 0 1 .435-.483.729.729 0 0 1 .628.1 2.449 2.449 0 0 1 .488.281zm-12.278-11.016a2.266 2.266 0 0 0-.726.241 3.513 3.513 0 0 0-1.209 1.21 15.748 15.748 0 0 0-1.5 3 30.637 30.637 0 0 0-1.5 5.607 13.347 13.347 0 0 0 2.465-1.547 10.4 10.4 0 0 0 2.563-3 8.924 8.924 0 0 0 1.16-2.707 3.942 3.942 0 0 0 0-1.74 1.538 1.538 0 0 0-.579-.919.808.808 0 0 0-.674-.145z"/><path data-name="Path 699" d="M164.077 81.09a1.821 1.821 0 0 1 .58 1.934q-.2.869-.676 2.609t-1.257 3.819a43.065 43.065 0 0 1-1.837 4.206 25.014 25.014 0 0 1-2.418 3.915 11.918 11.918 0 0 1-3 2.851 5.9 5.9 0 0 1-3.577.967q-4.351-.194-6.381-5.026T143.867 83.7a57.74 57.74 0 0 1-3.044 5.124 35.334 35.334 0 0 1-3.965 4.979 19.882 19.882 0 0 1-4.688 3.673 8.62 8.62 0 0 1-5.219 1.112 6.974 6.974 0 0 1-4.251-1.79 7.8 7.8 0 0 1-2.126-3.673 12.312 12.312 0 0 1-.242-4.787 26.794 26.794 0 0 1 1.256-5.268 24.047 24.047 0 0 1 2.417-5.027 18.913 18.913 0 0 1 3.335-4.012 23.035 23.035 0 0 1 4.545-3.191 17.7 17.7 0 0 1 4.978-1.836 11.732 11.732 0 0 1 4.739 0 7.922 7.922 0 0 1 4.011 2.223 18.726 18.726 0 0 1 .532-2.417q.338-1.159.629-2.417a1.894 1.894 0 0 1 1.932-1.449 25.818 25.818 0 0 1 3.241.483 9.313 9.313 0 0 1 3.43 1.451 2.989 2.989 0 0 1 .871 1.209 2.389 2.389 0 0 1 .1 1.5q-.289 1.356-.82 3.819t-1.113 5.317q-.579 2.853-1.014 5.8t-.58 5.414a17.648 17.648 0 0 0 .145 4.06q.29 1.6 1.16 1.692 1.255.194 2.561-1.595a25.883 25.883 0 0 0 2.466-4.254q1.16-2.465 2.078-4.98t1.306-3.673a.611.611 0 0 1 .435-.483.729.729 0 0 1 .628.1 2.4 2.4 0 0 1 .477.286zm-34.126 11.988q.675.1 1.934-1.063a33.809 33.809 0 0 0 2.8-3q1.544-1.836 3.141-4.108t3-4.3q1.4-2.029 2.416-3.576t1.3-2.03a2.518 2.518 0 0 0-2.03-1.257 6.146 6.146 0 0 0-3.286.628 13.985 13.985 0 0 0-3.819 2.707 18.844 18.844 0 0 0-3.625 5.075 28.907 28.907 0 0 0-2.659 6.139 8.516 8.516 0 0 0-.339 3.238 1.7 1.7 0 0 0 1.166 1.547z"/><path data-name="Path 700" d="M184.861 95.108a28.421 28.421 0 0 1-.629-3q-.243-1.546-.435-2.9-.194-1.546-.29-3.094-1.354 2.225-3.094 4.544a26.332 26.332 0 0 1-3.866 4.157 19.6 19.6 0 0 1-4.495 2.949 8.906 8.906 0 0 1-4.882.821 6.975 6.975 0 0 1-4.255-1.788 7.483 7.483 0 0 1-2.079-3.673 13.792 13.792 0 0 1-.242-4.787 24.432 24.432 0 0 1 1.21-5.268 22.707 22.707 0 0 1 2.466-5.024 20.029 20.029 0 0 1 3.384-4.012 20 20 0 0 1 3.868-2.851 21.786 21.786 0 0 1 4.3-1.886 12.345 12.345 0 0 1 4.253-.58 8.592 8.592 0 0 1 3.82 1.064 162.06 162.06 0 0 1 2.321-16.1 115.008 115.008 0 0 1 3.383-13.487 47.894 47.894 0 0 1 3.866-9.28 27.617 27.617 0 0 1 1.982-3.191 14.891 14.891 0 0 1 2.417-2.658 9.077 9.077 0 0 1 2.756-1.644 5.006 5.006 0 0 1 3-.145q1.932.485 2.756 3.335a23.914 23.914 0 0 1 .677 7.251 64.158 64.158 0 0 1-1.209 9.909 82.907 82.907 0 0 1-3.046 11.262 90.861 90.861 0 0 1-4.784 11.311 59.987 59.987 0 0 1-6.38 10.1q-.583 4.641-.774 8.8a54.078 54.078 0 0 0 .1 7.347 15.763 15.763 0 0 0 1.161 5.076 2.734 2.734 0 0 0 2.514 1.884q1.255 0 2.707-2.416a42.673 42.673 0 0 0 2.756-5.559q1.305-3.141 2.32-6.187t1.4-4.206q.386-.871 1.161-.386a2.122 2.122 0 0 0 .483.29 1.891 1.891 0 0 1 .58 1.934q-.2.869-.726 2.851t-1.4 4.447q-.871 2.465-2.03 5.076a30.122 30.122 0 0 1-2.61 4.737 15.862 15.862 0 0 1-3.143 3.48 5.258 5.258 0 0 1-3.625 1.256 4.608 4.608 0 0 1-2.9-1.063 9.645 9.645 0 0 1-2.515-2.9 21.4 21.4 0 0 1-2.232-5.796zm-14.6-2.03q.771.2 2.415-1.353t3.578-3.771q1.931-2.223 3.866-4.737t3.288-4.254c0-.838.014-1.659.048-2.466s.079-1.658.144-2.561a4.8 4.8 0 0 0-2.465-.145 8.319 8.319 0 0 0-3 1.257 16.126 16.126 0 0 0-3.19 2.756 20.012 20.012 0 0 0-2.949 4.349 26.665 26.665 0 0 0-2.61 6.139 8.954 8.954 0 0 0-.291 3.238 1.9 1.9 0 0 0 1.169 1.548zm27.937-49.981q-.483 1.74-1.159 4.495t-1.452 6.236q-.773 3.481-1.5 7.492t-1.4 8.073a72.269 72.269 0 0 0 5.946-14.018 96.245 96.245 0 0 0 2.949-12.567 78.4 78.4 0 0 0 1.063-12.471q-.775 1.74-1.547 3.963t-1.451 4.156q-.769 2.321-1.446 4.642z"/><path data-name="Path 701" d="M228.267 81.09a1.9 1.9 0 0 1 .676 1.934q-.288 1.354-1.208 4.349a41.439 41.439 0 0 1-2.465 6.139 21.806 21.806 0 0 1-3.819 5.51 7.1 7.1 0 0 1-5.268 2.368 12.575 12.575 0 0 1-7.445-2.03 10.879 10.879 0 0 1-2.561-2.368 13.937 13.937 0 0 1-2.079-3.722 20.8 20.8 0 0 1-1.209-5.269 32.363 32.363 0 0 1 .145-7.2 31.3 31.3 0 0 1 2.319-8.314 19.327 19.327 0 0 1 1.644-3 13 13 0 0 1 2.224-2.561 9.383 9.383 0 0 1 2.9-1.74 9.015 9.015 0 0 1 3.672-.533 5.972 5.972 0 0 1 4.012 1.645 6.129 6.129 0 0 1 1.691 3.48 11.309 11.309 0 0 1-.337 4.447 14.538 14.538 0 0 1-2.078 4.544 13.861 13.861 0 0 1-3.626 3.625 9.536 9.536 0 0 1-4.786 1.692 34.283 34.283 0 0 0 .242 3.721 16.952 16.952 0 0 0 .968 4.11 7.546 7.546 0 0 0 2.125 3.142 4.494 4.494 0 0 0 3.819.821 4.671 4.671 0 0 0 2.563-2.079 31.888 31.888 0 0 0 2.658-4.3q1.255-2.417 2.273-4.785t1.4-3.529a.609.609 0 0 1 .434-.483.731.731 0 0 1 .629.1 2.432 2.432 0 0 1 .487.286zM215.99 70.07a2.249 2.249 0 0 0-.726.241 3.512 3.512 0 0 0-1.208 1.21 15.8 15.8 0 0 0-1.5 3 30.552 30.552 0 0 0-1.5 5.607 13.424 13.424 0 0 0 2.465-1.547 10.4 10.4 0 0 0 2.561-3 8.908 8.908 0 0 0 1.161-2.707 3.946 3.946 0 0 0 0-1.74 1.54 1.54 0 0 0-.58-.919.805.805 0 0 0-.673-.141z"/><path data-name="Path 702" d="M229.426 64.655a13.134 13.134 0 0 0 1.644 2.175 10.063 10.063 0 0 0 3.964 2.369q.192.1 1.16.532t2.321 1.209c.58.323 1.175.676 1.788 1.063a5.886 5.886 0 0 1 1.547 1.4 4.861 4.861 0 0 1 .87 1.982 6.147 6.147 0 0 1-.145 2.707q-1.937 6-1.449 9.861t2.416 4.157a2.816 2.816 0 0 0 2.466-1.063 18.4 18.4 0 0 0 2.32-3.046 27.29 27.29 0 0 0 1.932-3.721q.82-1.933 1.209-3.094.386-.871 1.16-.386a2.139 2.139 0 0 0 .484.29 1.891 1.891 0 0 1 .58 1.934 33.7 33.7 0 0 1-1.16 3.819 23.82 23.82 0 0 1-2.417 4.882 17.879 17.879 0 0 1-3.723 4.205 7.332 7.332 0 0 1-5.074 1.691 8 8 0 0 1-5.51-2.126 11.122 11.122 0 0 1-3-5.462 25.213 25.213 0 0 1-.532-8.024 48.317 48.317 0 0 1 1.886-9.909c-.518 0-1.049-.015-1.6-.049s-1.081-.079-1.595-.144a26.93 26.93 0 0 1-.725 6.429 35.647 35.647 0 0 1-1.306 4.4 2.076 2.076 0 0 1-1.643 1.257h-.579a.78.78 0 0 1-.629-.291.577.577 0 0 1-.049-.676 38.346 38.346 0 0 0 1.063-5.173 30.067 30.067 0 0 0 .291-6.331 5.094 5.094 0 0 1-3.626-1.838 5.448 5.448 0 0 1-1.015-3.19 8.3 8.3 0 0 1 .629-3.239 4.657 4.657 0 0 1 1.305-1.981l.58-.291c.193-.063.435-.128.725-.193a2.253 2.253 0 0 1 .918 0 2.211 2.211 0 0 1 1.209.725 4.285 4.285 0 0 1 .678 1.161 6.629 6.629 0 0 1 .336 1.16 2.187 2.187 0 0 0 .296.819z"/><path data-name="Path 703" d="M272.64 81.09a1.821 1.821 0 0 1 .579 1.934q-.2.869-.725 2.851t-1.4 4.447q-.87 2.465-2.03 5.076a33.116 33.116 0 0 1-2.561 4.737 14.454 14.454 0 0 1-3.143 3.48 5.434 5.434 0 0 1-3.675 1.256 6.032 6.032 0 0 1-3.866-2.03 16.577 16.577 0 0 1-2.948-5.124 37.113 37.113 0 0 1-1.983-10.15 87.479 87.479 0 0 1-.193-11.746q.29-6.428 1.161-12.858t2.174-12.374q1.307-5.946 2.756-10.393a52.221 52.221 0 0 1 3.964-9.28q.967-1.644 2.078-3.191a15.934 15.934 0 0 1 2.368-2.658 8.508 8.508 0 0 1 2.707-1.644 5.01 5.01 0 0 1 3-.145q1.834.485 2.657 3.335a23.942 23.942 0 0 1 .678 7.251 63.736 63.736 0 0 1-1.21 9.909 83.05 83.05 0 0 1-3.044 11.262 95.353 95.353 0 0 1-4.738 11.311 57.559 57.559 0 0 1-6.333 10.1q-.578 4.641-.82 8.8a49.8 49.8 0 0 0 .048 7.347 15.734 15.734 0 0 0 1.161 5.076 2.734 2.734 0 0 0 2.513 1.884q1.256 0 2.707-2.416a42.4 42.4 0 0 0 2.756-5.559q1.3-3.141 2.321-6.187t1.4-4.206q.386-.965 1.161-.386a1.2 1.2 0 0 1 .242.145 1.01 1.01 0 0 0 .238.146zm-7.154-37.993q-.487 1.74-1.21 4.495t-1.449 6.236q-.724 3.481-1.5 7.492t-1.45 8.073a70.042 70.042 0 0 0 5.9-14.018 115.564 115.564 0 0 0 3-12.567 87.386 87.386 0 0 0 1.161-12.471q-.776 1.74-1.547 3.963t-1.45 4.156q-.782 2.321-1.455 4.642z"/><path data-name="Path 704" d="M314.499 111.157c.129.321.256.676.386 1.063a9.162 9.162 0 0 1 .291 2.417 5.585 5.585 0 0 1-.726 2.755 3.346 3.346 0 0 1-2.851 1.5 5.7 5.7 0 0 1-2.126-.387 4.017 4.017 0 0 1-1.354-1.112 3.187 3.187 0 0 1-.387-2.368 9.414 9.414 0 0 0-.144-2.465 5.5 5.5 0 0 0-1.113-2.417 8.128 8.128 0 0 0-2.367-1.982 11.3 11.3 0 0 0-3.82-1.256q-.677 3.382-1.256 6.187t-1.064 4.737q-.578 2.321-1.062 4.061a59.047 59.047 0 0 1-3.626 10 40.243 40.243 0 0 1-5.076 8.17 29.4 29.4 0 0 1-6.428 5.945 21.675 21.675 0 0 1-7.588 3.238 21.553 21.553 0 0 1-4.206.386 17.288 17.288 0 0 1-5.075-.87 12.394 12.394 0 0 1-5.318-3.383 12.714 12.714 0 0 1-2.8-5.511q-.963-3.577.58-9.28a27.159 27.159 0 0 1 4.254-8.7 40.163 40.163 0 0 1 7.589-7.976 49.279 49.279 0 0 1 10.054-6.235 43.168 43.168 0 0 1 11.746-3.578q1.352-8.316 1.789-14.985t.337-11.794q-1.354 7.639-3.769 11.455a17.706 17.706 0 0 1-4.931 5.462 10.579 10.579 0 0 1-6.091 1.74 6.588 6.588 0 0 1-5.172-3 17.064 17.064 0 0 1-2.659-7.492 44.878 44.878 0 0 1 0-11.021 81.186 81.186 0 0 1 2.707-13.486 1.481 1.481 0 0 1 1.835-1.353 16.639 16.639 0 0 1 3.241.386 9.306 9.306 0 0 1 3.431 1.451 2.359 2.359 0 0 1 .967 2.707q-.29 1.356-.821 3.77t-1.064 5.22q-.532 2.806-.967 5.752t-.581 5.366a18.227 18.227 0 0 0 .146 4.108q.291 1.692 1.16 1.886a2.8 2.8 0 0 0 2.708-.822 12.359 12.359 0 0 0 2.514-3.335 36.58 36.58 0 0 0 2.174-4.882q1.015-2.755 1.837-5.511t1.4-5.123q.579-2.368.869-3.819c.064-.322.112-.58.146-.774a3.1 3.1 0 0 0 .048-.483v-.387a1.784 1.784 0 0 1 1.74-1.644 13.986 13.986 0 0 1 3.094.145q1.448.242 2.512.532a3.482 3.482 0 0 1 2.9 3.384 130.7 130.7 0 0 1 .1 19.432q-.677 9.281-1.837 16.821 1.741.192 3.819.58a18.472 18.472 0 0 1 4.061 1.256 14.454 14.454 0 0 1 3.528 2.175 8.028 8.028 0 0 1 2.316 3.344zm-49.788 32a9.366 9.366 0 0 0 7.443.193 18.124 18.124 0 0 0 6.623-4.833 34.888 34.888 0 0 0 5.365-8.169 46.309 46.309 0 0 0 3.48-9.813q.869-3.479 1.547-6.719t1.257-6.333a46.361 46.361 0 0 0-7.25 2.514 46.627 46.627 0 0 0-7.251 3.964 42.757 42.757 0 0 0-6.527 5.365 33.745 33.745 0 0 0-5.171 6.622 16.563 16.563 0 0 0-1.45 2.8 18.316 18.316 0 0 0-1.016 2.852 22.012 22.012 0 0 0-.628 3.336 14.192 14.192 0 0 0 .436 4.833 5.041 5.041 0 0 0 3.142 3.387z"/></g></svg>