<svg xmlns="http://www.w3.org/2000/svg" width="418.891" height="132.034" viewBox="0 0 418.891 132.034"><defs><clipPath id="a"><path data-name="Path 501" d="M1376.223 1389.763a54.274 54.274 0 0 1 .415 7.613 42.146 42.146 0 0 1-.21 6.91 68.055 68.055 0 0 0 10.548.379c1.534-.018 3.069-.036 4.6-.149 2.449-.181 4.872-.605 7.308-.909q3.457-.431 6.943-.539a134.359 134.359 0 0 1 .747-17.368c.682-5.676 1.976-11.5 1.955-17.223-.007-1.866.166-5.1-1.991-5.945-1.929-.753-3.885-1.431-5.844-2.1a29.153 29.153 0 0 0-5.583-1.419 24.738 24.738 0 0 0-8.258.389 50.9 50.9 0 0 0-7.254 2.184 9.2 9.2 0 0 0-2.757 1.137 8.582 8.582 0 0 0-1.662 3.057 32.2 32.2 0 0 0-2.461 10.07 18 18 0 0 0 .139 5c.556 2.61 1.985 4.906 2.93 7.375a9.1 9.1 0 0 1 .435 1.538z" transform="translate(-1372.613 -1358.825)" fill="#a6b73e"/></clipPath></defs><g data-name="Group 315"><g data-name="Group 282"><path data-name="Path 464" d="M28.609 126.999a5.765 5.765 0 0 1-5.02-2.768c-1.41-2.087-1.575-4.63-2.866-6.757a19.006 19.006 0 0 0-4.507-4.678c-3.251-2.637-6.949-4.924-8.678-8.926-2.256-5.221-1.091-11.455 1.875-16.308A36.47 36.47 0 0 1 19.76 77.199a22.5 22.5 0 0 0 7.844-10.985c2.664-7.914 1.028-16.566 4.014-24.284a29.378 29.378 0 0 1 14.19-15.862c11.159-5.4 24.348-.6 32.3 8.641A24.689 24.689 0 0 0 94.75 43.05c12.125.993 24.756-5.6 35.989 1.842 5.725 3.792 9.772 10.513 11.032 17.606a22.514 22.514 0 0 1-.914 12.212c-1.518 3.712-4.135 6.74-6.384 9.947-3.737 5.329-5.782 12.451-2.287 18.453a39.1 39.1 0 0 0 5.829 6.97 14.879 14.879 0 0 1 3.972 7.662c.832 4.368.508 9.279-2.352 12.684" fill="none" stroke="#e2f3f5" stroke-miterlimit="10" stroke-width="5"/><path data-name="Path 465" d="M13.458 82.357c-3.535 5.027-6.263 11.865-4.37 18.177 1.887 6.293 7.922 10.173 10.559 16.151 1.645 3.728.511 9.322 4.786 11.6a9.883 9.883 0 0 0 4.693.771l97.893-.012a30.178 30.178 0 0 0 8.9-.888c6.781-2.086 7.063-8.046 4.722-13.716-1.452-3.515-4.222-6.2-5.8-9.651a22.139 22.139 0 0 1-1.312-15.269q.091-.312.19-.622c1.522-4.736 4.585-8.807 5.852-13.628 2.616-9.952-3.164-20.475-10.762-26.872a32.168 32.168 0 0 0-10.527-6.132c-10.6-3.479-22.371.547-33-2.817-8.154-2.581-14.849-9.291-23.157-11.231a23.327 23.327 0 0 0-18.708 4A30.21 30.21 0 0 0 32.26 48.93c-1.662 6.224-1.61 13.059-4.559 18.713-2.522 4.837-7.2 7.447-10.993 10.956a23.664 23.664 0 0 0-3.25 3.758z" fill="#fff"/><g data-name="Group 218" transform="translate(27.503 69.276)"><path data-name="Rectangle 209" fill="#727f87" d="M14.395 24.441l1.509.255-3.23 19.08-1.509-.255z"/><circle data-name="Ellipse 13" cx="1.395" cy="1.395" r="1.395" transform="rotate(-35.4 72.893 6.03)" fill="#324751"/><path data-name="Rectangle 210" fill="#727f87" d="M15.101 28.713l1.209-.94L28.19 43.062l-1.208.94z"/><circle data-name="Ellipse 14" cx="1.395" cy="1.395" r="1.395" transform="rotate(-22.172 121.987 -44.365)" fill="#324751"/><path data-name="Rectangle 211" fill="#727f87" d="M2.387 43.991l-1.209-.94L13.06 27.765l1.209.94z"/><circle data-name="Ellipse 15" cx="1.395" cy="1.395" r="1.395" transform="rotate(-19.64 123.28 21.338)" fill="#324751"/><g data-name="Group 217"><path data-name="Path 466" d="M23.631 12.326l-3.5-6.7 10.131-5.3a2.88 2.88 0 0 1 3.887 1.218l.834 1.595a2.88 2.88 0 0 1-1.218 3.887z" fill="#727f87"/><path data-name="Rectangle 212" d="M20.63 5.036l3.77 7.213-2.774 1.45a4.069 4.069 0 0 1-5.49-1.723 4.069 4.069 0 0 1 1.72-5.49l2.774-1.45z" fill="#324751"/><path data-name="Rectangle 213" fill="#ea394a" d="M21.946 4.348l3.77 7.213-1.508.787-3.77-7.212z"/><path data-name="Rectangle 214" d="M15.261 9.238l2.628 5.024-6.764 3.537a2.966 2.966 0 0 1-4.006-1.256 2.7 2.7 0 0 1 1.147-3.647l6.995-3.658z" fill="#324751"/><path data-name="Path 467" d="M15.951 23.817l.37-8.861-5.644 2.952z" fill="#324751"/></g><path data-name="Rectangle 215" d="M14.728 18.47a1.935 1.935 0 0 1 1.935 1.935v8.686h-3.87v-8.686a1.935 1.935 0 0 1 1.935-1.935z" fill="#727f87"/><circle data-name="Ellipse 16" cx="1.193" cy="1.193" r="1.193" transform="translate(13.536 19.377)" fill="#ea394a"/><path data-name="Rectangle 216" d="M11.803 26.21h5.85v.855a2.925 2.925 0 0 1-2.925 2.925 2.925 2.925 0 0 1-2.925-2.925v-.855z" fill="#324751"/></g><g data-name="Group 223"><g data-name="Group 220"><g data-name="Group 219"><path data-name="Path 468" d="M132.14 98.179a3.17 3.17 0 0 0 .073-2.4 9.282 9.282 0 0 0-1.1-2.179 9.894 9.894 0 0 1-1.208-2.455 5.281 5.281 0 0 1 .059-2.939 21.765 21.765 0 0 1 2.564-4.615 6.624 6.624 0 0 0 .871-2.219 3.819 3.819 0 0 0-.289-2.415 3.487 3.487 0 0 1 1.038 2.457 6.257 6.257 0 0 1-.549 2.7c-.7 1.682-1.76 3.048-2.17 4.524a3.965 3.965 0 0 0-.125 2.148 11.711 11.711 0 0 0 .86 2.256 7.825 7.825 0 0 1 .787 2.6 3.04 3.04 0 0 1-.811 2.537z" fill="#fff"/></g></g><g data-name="Group 222"><g data-name="Group 221"><path data-name="Rectangle 217" d="M127.298 99.197h10.4v9.7a5.2 5.2 0 0 1-5.2 5.2 5.2 5.2 0 0 1-5.2-5.2v-9.7z" fill="#ffc73c"/><path data-name="Path 469" d="M138.428 102.567a4.584 4.584 0 1 0 4.516 4.583 4.55 4.55 0 0 0-4.516-4.583zm0 7.532a2.949 2.949 0 1 1 2.906-2.949 2.928 2.928 0 0 1-2.906 2.949z" fill="#ffc73c"/><path data-name="Path 470" d="M128.854 108.442a.564.564 0 0 1-.562-.562v-7.251a.564.564 0 0 1 .563-.562.564.564 0 0 1 .563.563v7.251a.564.564 0 0 1-.564.561z" fill="#fff" opacity=".2"/><path data-name="Path 471" d="M135.297 99.201v12.266a2.634 2.634 0 0 1-2.634 2.634h2.4a2.634 2.634 0 0 0 2.634-2.634V99.201z" fill="#ffc73c" style="mix-blend-mode:multiply;isolation:isolate"/></g></g></g><path data-name="Path 472" d="M152.848 119.139H2.77A2.706 2.706 0 0 1 .002 116.5a2.706 2.706 0 0 1 2.768-2.639h150.08a2.706 2.706 0 0 1 2.768 2.639 2.706 2.706 0 0 1-2.77 2.639z" fill="#9ed2f2"/><g data-name="Group 224" transform="translate(32.433 24.378)"><rect data-name="Rectangle 218" width="29.482" height="17.902" rx="8.951" transform="rotate(180 14.741 8.951)" fill="#ffc73c"/><path data-name="Path 473" d="M25.602 22.614v-8.227l-6.443 3.514z" fill="#ffc73c"/><rect data-name="Rectangle 219" width="14.595" height="1.562" rx=".781" transform="translate(4.491 8.195)" fill="#fff"/><rect data-name="Rectangle 220" width="4.784" height="1.562" rx=".781" transform="translate(20.208 8.195)" fill="#fff"/><rect data-name="Rectangle 221" width="14.595" height="1.562" rx=".781" transform="rotate(180 12.496 3.105)" fill="#fff"/><rect data-name="Rectangle 222" width="4.784" height="1.562" rx=".781" transform="rotate(180 4.637 3.105)" fill="#fff"/><rect data-name="Rectangle 223" width="10.25" height="1.562" rx=".781" transform="translate(4.491 11.438)" fill="#fff"/></g><g data-name="Group 251"><g data-name="Group 244"><g data-name="Group 228"><g data-name="Group 225"><path data-name="Path 474" d="M110.441 2.801a17.284 17.284 0 0 0 .568 18.922c2.618 3.619 6.546 6.044 9.665 9.242s5.487 7.91 3.841 12.062c-1.675 4.227-6.583 5.947-10.258 8.624a19.388 19.388 0 0 0-4.677 26.482h38.174s6.706-12.78-1.916-22.52-13.252-9.9-12.933-16.285 4.79-8.462 7.344-10.857 15.008-7.983 7.664-25.669z" fill="#fafafa"/></g><g data-name="Group 227"><g data-name="Group 226"><path data-name="Path 475" d="M110.442 2.801s.222 0 .657-.005l1.935-.005 7.449-.011 27.432-.02h.028l.01.026a35.587 35.587 0 0 1 1.423 4.134 24.121 24.121 0 0 1 .811 4.492 17.844 17.844 0 0 1-.242 4.742 15.225 15.225 0 0 1-1.726 4.609 16.791 16.791 0 0 1-1.438 2.086 19.438 19.438 0 0 1-1.759 1.881 25.955 25.955 0 0 1-2 1.69c-.695.537-1.42 1.045-2.128 1.582-.355.267-.679.567-1.017.868s-.689.579-1.042.861c-.705.564-1.418 1.128-2.091 1.746a11.162 11.162 0 0 0-3.135 4.5 10.909 10.909 0 0 0-.6 2.749c-.019.236-.051.471-.059.709s-.018.475-.007.713a8.147 8.147 0 0 0 .144 1.42 6.487 6.487 0 0 0 1.146 2.615 14.535 14.535 0 0 0 1.98 2.144c1.449 1.325 2.987 2.59 4.459 3.956s2.917 2.792 4.3 4.3a25.885 25.885 0 0 1 1.985 2.36 16.607 16.607 0 0 1 1.6 2.668 17.518 17.518 0 0 1 1.644 6.054 22.165 22.165 0 0 1-.372 6.364 26.139 26.139 0 0 1-.819 3.122 22.812 22.812 0 0 1-1.212 3.015l-.016.031h-38.24l-.016-.025a19.682 19.682 0 0 1-3.2-9.011 19 19 0 0 1 1.321-9.1 19.8 19.8 0 0 1 5.046-7.208 22.952 22.952 0 0 1 3.445-2.513c1.192-.74 2.394-1.424 3.531-2.173a16.179 16.179 0 0 0 3.107-2.528 8.495 8.495 0 0 0 1.923-3.333 8.292 8.292 0 0 0 .152-3.721 12.122 12.122 0 0 0-1.18-3.42 16.722 16.722 0 0 0-1.921-2.919 23.306 23.306 0 0 0-2.325-2.426c-1.616-1.488-3.27-2.789-4.759-4.126a33.333 33.333 0 0 1-2.1-2.032 18.911 18.911 0 0 1-1.743-2.148 16.367 16.367 0 0 1-2.184-4.527 16.9 16.9 0 0 1-.744-4.288c-.031-.333-.019-.66-.019-.979s-.005-.631.028-.934l.068-.886c.034-.286.082-.564.12-.834a15.921 15.921 0 0 1 1.5-4.754 6.478 6.478 0 0 1 .345-.666l.274-.467c.147-.25.223-.375.223-.375l-.217.382-.268.468a6.593 6.593 0 0 0-.34.666 16.028 16.028 0 0 0-1.477 4.751c-.038.27-.084.546-.118.832s-.043.582-.066.884-.022.613-.025.932-.011.645.021.977a16.88 16.88 0 0 0 .75 4.274 16.325 16.325 0 0 0 2.183 4.507 18.9 18.9 0 0 0 1.74 2.139c.649.689 1.355 1.36 2.1 2.025 1.488 1.333 3.143 2.633 4.764 4.121a23.337 23.337 0 0 1 2.335 2.432 16.812 16.812 0 0 1 1.934 2.931 12.2 12.2 0 0 1 1.191 3.443 8.377 8.377 0 0 1-.151 3.76 8.58 8.58 0 0 1-1.941 3.371 16.256 16.256 0 0 1-3.123 2.545c-1.139.752-2.342 1.437-3.531 2.177a22.84 22.84 0 0 0-3.429 2.5 19.7 19.7 0 0 0-5.016 7.173 18.9 18.9 0 0 0-1.31 9.046 19.578 19.578 0 0 0 3.181 8.959l-.046-.025h38.174l-.052.031a22.668 22.668 0 0 0 1.2-3 26.018 26.018 0 0 0 .816-3.108 22.054 22.054 0 0 0 .37-6.33 17.4 17.4 0 0 0-1.632-6.014 16.471 16.471 0 0 0-1.589-2.651 25.773 25.773 0 0 0-1.977-2.351q-2.073-2.257-4.293-4.293c-1.471-1.365-3-2.628-4.458-3.957a14.629 14.629 0 0 1-1.994-2.161 6.6 6.6 0 0 1-1.164-2.658 8.264 8.264 0 0 1-.145-1.439c-.011-.24 0-.48.007-.72s.041-.477.06-.715a11.034 11.034 0 0 1 .6-2.775 11.269 11.269 0 0 1 3.165-4.538c.676-.621 1.392-1.186 2.1-1.749.353-.281.7-.565 1.039-.858s.665-.6 1.022-.872c.711-.538 1.435-1.045 2.128-1.58a25.826 25.826 0 0 0 1.99-1.682 19.386 19.386 0 0 0 1.75-1.871 16.7 16.7 0 0 0 1.43-2.073 15.137 15.137 0 0 0 1.718-4.579 17.735 17.735 0 0 0 .244-4.717 24.013 24.013 0 0 0-.8-4.476 35.53 35.53 0 0 0-1.415-4.125l.038.025-27.415-.02-7.455-.011-1.94-.005c-.43.003-.655-.001-.655-.001z" fill="#263238"/></g></g></g><g data-name="Group 229"><path data-name="Path 476" d="M146.392 13.172c5.622.924-3.242 10.882-8.26 14.812-2.906 2.275-6.026 4.743-7.406 8.165-1.565 3.883-.405 8.248-1.164 12.154a.543.543 0 0 1-1.075-.114 42.327 42.327 0 0 0-.456-7.651 18.4 18.4 0 0 0-4.489-9.746c-2.048-2.142-4.734-3.565-6.919-5.567-3.19-2.923-6.467-6.694-6.786-11.008 0 0 6.125-4.933 9.524-4.311 3.973.728 7.885 6.858 14.041 6.156 4.298-.49 6.467-3.966 12.99-2.89z" fill="#e8505b"/></g><g data-name="Group 230"><path data-name="Path 477" d="M146.89 66.471c-.142-1.406-.517-3-1.765-3.661a3.484 3.484 0 0 0-2.5-.139c-.828.218-1.606.594-2.427.838a7.952 7.952 0 0 1-4.965-.157 30.54 30.54 0 0 1-4.252-2.37 6.529 6.529 0 0 0-4.651-1c-2.719.677-4.135 3.95-6.823 4.741a7.389 7.389 0 0 1-3.693-.121 14.409 14.409 0 0 0-3.679-.582 4.082 4.082 0 0 0-2.674 1.042l.007-.009-.02.021a2.744 2.744 0 0 0-.308.361 5.049 5.049 0 0 0-.711 3.964 14.164 14.164 0 0 0 1.759 4.271 12.573 12.573 0 0 0 3.4 4.221c1.831 1.3 4.133.4 6.374.581a105.556 105.556 0 0 0 16.077.289c2.761-.214 5.349.085 7.54-1.609a8.91 8.91 0 0 0 3.027-4.875 16.682 16.682 0 0 0 .284-5.806z" fill="#e8505b"/></g><g data-name="Group 232"><g data-name="Group 231" opacity=".24"><path data-name="Path 478" d="M137.026 63.777a1.444 1.444 0 0 0-.136 1.516 5.027 5.027 0 0 1 .792 1.4 3.782 3.782 0 0 1-.674 2.395 7.637 7.637 0 0 0-.741 4.42 6.013 6.013 0 0 0 2.194 3.859 2.133 2.133 0 0 0 1.86.527 1.8 1.8 0 0 0 1.112-1.42 6.03 6.03 0 0 0-.058-1.884 29.314 29.314 0 0 1 .221-8.753 1.765 1.765 0 0 0-.138-1.415 1.647 1.647 0 0 0-.8-.458c-1.165-.388-2.422.043-3.628-.186"/></g></g><g data-name="Group 233"><path data-name="Path 479" d="M106.778 79.865s-.105-1.752 2.18-2.727h40.152s2.094 1.06 2.352 2.691z" fill="#263238"/></g><g data-name="Group 234"><path data-name="Path 480" d="M148.26 3.015l-.063.03-37.755-.243s-.134-.086-.335-.243a1.432 1.432 0 0 1 .894-2.558l36.644.3a1.431 1.431 0 0 1 .615 2.714z" fill="#263238"/></g><g data-name="Group 236"><g data-name="Group 235" opacity=".24"><path data-name="Path 481" d="M142.217 17.417c.076.146-.207.46-.749.941s-1.335 1.141-2.343 1.953a30.567 30.567 0 0 1-3.8 2.683 15.394 15.394 0 0 1-2.608 1.2 12.184 12.184 0 0 1-1.5.414 9.915 9.915 0 0 1-1.619.211 8.661 8.661 0 0 1-3.255-.445 11.755 11.755 0 0 1-2.615-1.335c-.753-.5-1.4-.992-2.013-1.463s-1.164-.928-1.66-1.357c-1.983-1.718-3.026-2.982-2.825-3.226s1.612.55 3.8 1.895l1.787 1.1c.641.391 1.331.822 2.034 1.221a11.334 11.334 0 0 0 2.206 1 7.038 7.038 0 0 0 2.428.286 12.863 12.863 0 0 0 4.834-1.392c1.453-.711 2.753-1.516 3.886-2.15a19.583 19.583 0 0 1 2.805-1.368c.707-.262 1.135-.305 1.207-.168z"/></g></g><g data-name="Group 237"><path data-name="Path 482" d="M128.514 52.982a.637.637 0 1 1-.032.012" fill="#e8505b"/></g><g data-name="Group 239"><g data-name="Group 238"><path data-name="Path 483" d="M115.01 23.665a1.132 1.132 0 0 1-.134-.134l-.366-.4c-.154-.178-.358-.384-.566-.646l-.713-.887c-.243-.344-.52-.715-.8-1.126l-.409-.651c-.069-.113-.144-.224-.211-.342l-.2-.363a15.112 15.112 0 0 1-1.391-3.349 14.058 14.058 0 0 1-.528-3.588c0-.279.014-.552.021-.816.006-.132 0-.263.017-.391s.027-.253.04-.377c.028-.247.048-.486.081-.714l.118-.652c.064-.418.175-.784.254-1.11.043-.162.077-.314.119-.451l.122-.373.172-.515a1.159 1.159 0 0 1 .068-.177 1.219 1.219 0 0 1-.045.184l-.151.52-.112.375c-.039.137-.07.29-.11.452-.073.326-.177.692-.236 1.109l-.11.65c-.031.227-.048.465-.074.71l-.037.375c-.012.127-.009.257-.014.388 0 .263-.018.533-.016.81a14.226 14.226 0 0 0 .533 3.558 15.321 15.321 0 0 0 1.373 3.329l.194.362c.066.118.14.229.208.342l.4.651c.273.411.545.784.783 1.13l.7.9c.2.266.4.476.55.658l.349.415a1.2 1.2 0 0 1 .121.144z" fill="#263238"/></g></g><g data-name="Group 241"><g data-name="Group 240"><path data-name="Path 484" d="M112.884 56.943a.434.434 0 0 1 .042-.074l.133-.211.22-.341.141-.217c.055-.074.12-.148.185-.23l.44-.537c.172-.186.37-.378.577-.59a15.6 15.6 0 0 1 1.538-1.294c1.189-.9 2.723-1.8 4.385-2.842a25.271 25.271 0 0 0 2.515-1.772 11.818 11.818 0 0 0 2.257-2.385 11.283 11.283 0 0 0 1.824-6.01 14.228 14.228 0 0 0-.858-5.106 19.025 19.025 0 0 0-1.484-3.182c-.208-.36-.378-.634-.5-.819l-.132-.211a.434.434 0 0 1-.042-.074.46.46 0 0 1 .052.068l.142.2c.124.181.3.451.515.809a18.2 18.2 0 0 1 1.522 3.177 14.178 14.178 0 0 1 .888 5.136 11.712 11.712 0 0 1-.124 1.511 11.093 11.093 0 0 1-.328 1.547 10.559 10.559 0 0 1-1.384 3.015 11.879 11.879 0 0 1-2.281 2.408 25.07 25.07 0 0 1-2.53 1.774c-1.669 1.042-3.2 1.928-4.394 2.817a15.842 15.842 0 0 0-1.542 1.275c-.208.208-.407.4-.581.58l-.445.528c-.066.08-.132.153-.188.226l-.145.213-.229.333-.143.2a.471.471 0 0 1-.046.078z" fill="#263238"/></g></g><g data-name="Group 243"><g data-name="Group 242"><path data-name="Path 485" d="M110.801 60.9a.422.422 0 0 1-.049.1l-.16.285c-.072.122-.158.272-.244.454s-.2.381-.294.616l-.158.364c-.054.127-.1.264-.151.4-.109.277-.194.583-.291.9a12.109 12.109 0 0 0-.4 4.306c.037.332.065.649.122.941.026.146.045.289.075.423l.089.387c.05.248.123.465.177.659s.109.358.157.491l.1.309a.427.427 0 0 1 .029.111.419.419 0 0 1-.051-.1l-.126-.3a4.756 4.756 0 0 1-.177-.487c-.06-.193-.139-.41-.195-.659l-.1-.388c-.032-.135-.053-.279-.082-.426-.062-.294-.094-.613-.134-.947a11.678 11.678 0 0 1 .4-4.344c.1-.322.19-.63.3-.907.055-.139.1-.277.158-.4l.166-.364c.1-.234.217-.433.312-.612a4.752 4.752 0 0 1 .263-.447l.179-.275a.426.426 0 0 1 .085-.09z" fill="#263238"/></g></g></g><g data-name="Group 246"><g data-name="Group 245"><path data-name="Path 486" d="M138.501 66.288a.2.2 0 0 1-.045.033l-.14.087-.543.326-.394.234c-.147.081-.312.157-.487.246-.352.17-.743.386-1.205.561l-.716.294c-.25.1-.519.177-.793.272-.545.2-1.149.341-1.78.506a20.909 20.909 0 0 1-8.425.22c-.639-.131-1.249-.242-1.8-.412-.278-.08-.552-.144-.806-.231l-.73-.256c-.47-.15-.872-.346-1.233-.5-.179-.079-.348-.147-.5-.22l-.406-.213-.56-.3-.144-.08a.2.2 0 0 1-.047-.031.206.206 0 0 1 .053.02l.149.07.569.278.409.2c.152.07.322.135.5.211.362.145.765.335 1.234.479l.729.247c.254.084.527.145.8.223.553.166 1.161.272 1.8.4a21.252 21.252 0 0 0 8.382-.219c.628-.161 1.229-.3 1.773-.493.273-.092.542-.167.792-.265l.716-.285c.461-.169.854-.379 1.208-.543.175-.085.341-.159.489-.237l.4-.224.553-.307.146-.078a.2.2 0 0 1 .052-.013z" fill="#263238"/></g></g><g data-name="Group 248"><g data-name="Group 247"><path data-name="Path 487" d="M140.837 18.877a.288.288 0 0 1-.048.044l-.147.121-.572.456c-.5.394-1.219.965-2.129 1.646a30.891 30.891 0 0 1-3.332 2.2 15.156 15.156 0 0 1-2.146.988 9.788 9.788 0 0 1-2.477.551 9.43 9.43 0 0 1-4.759-.99 16.148 16.148 0 0 1-1.838-1.093 28.353 28.353 0 0 1-1.488-1.117c-.887-.712-1.582-1.314-2.064-1.727l-.553-.478-.142-.127a.258.258 0 0 1-.046-.046.276.276 0 0 1 .053.037l.15.118.567.462c.492.4 1.195.995 2.086 1.7.444.353.945.721 1.491 1.1a16.45 16.45 0 0 0 1.831 1.076 9.386 9.386 0 0 0 4.7.97 9.734 9.734 0 0 0 2.447-.542 15.255 15.255 0 0 0 2.133-.974 32.118 32.118 0 0 0 3.335-2.175c.916-.671 1.644-1.233 2.15-1.616l.585-.439.154-.112a.26.26 0 0 1 .059-.033z" fill="#263238"/></g></g><g data-name="Group 250"><g data-name="Group 249" opacity=".24"><path data-name="Path 488" d="M120.625 68.165c1.062-.82 2.553-.621 3.865-.345a11.685 11.685 0 0 0 3.962.539c1-.14 1.919-.633 2.907-.846a2.573 2.573 0 0 1 2.734.793 21.279 21.279 0 0 1-13.468-.141"/></g></g></g><g data-name="Group 280"><path data-name="Path 489" d="M113.353 92.78a15.023 15.023 0 0 1-12.867-1.1c-3.693-2.369-7.058-4.08-11.6-4-4.06.074-7.418 2.269-11.351 2.736a10.8 10.8 0 0 1-8.549-3.17c-2.207-2.129-3.672-5.375-2.713-8.287.5-1.525 1.6-2.783 2.227-4.261 1.445-3.409-2.36-5.466-1.414-9.054.8-3.052 4.154-5.229 4.1-8.384-.036-2.31-1.825-4.1-2.455-6.238a8.483 8.483 0 0 1 .626-6.541 7.817 7.817 0 0 1 3.68-3.286c1.377-.587 2.915-.6 3.98-1.8 1.9-2.144 2.594-4.468 5.2-6.036 2.2-1.327 5.115-1.412 7.643-1.18a19.387 19.387 0 0 1 14.236 8.2 9.826 9.826 0 0 1 1.959 5.376c.031 2.175.03 4.362 1.363 6.211a10.122 10.122 0 0 0 4.7 3.161 23.98 23.98 0 0 1 5.21 2.371 5.576 5.576 0 0 1 2.622 4.809c-.153 1.594-1.256 2.98-1.4 4.574-.267 2.9 2.526 5.006 4.249 7.354a11.426 11.426 0 0 1 1 11.588c-2.09 4.2-5.886 5.152-9.864 6.734q-.294.121-.582.223z" fill="#755846"/><path data-name="Path 490" d="M103.206 73.513c.147 3.564-.679 6.24-3.938 8a19.172 19.172 0 0 1-8.568 1.935c-4.8.118-10.157-1.121-13.751-4.5a3.561 3.561 0 0 1-1.325-2.257c-.043-.812.4-1.577.443-2.39.066-1.37-1-2.5-1.475-3.791a8.18 8.18 0 0 1 .364-5.317 15 15 0 0 0 1.187-5.268c-.11-2.347-1.52-4.4-2.65-6.457s-2.018-4.568-1.053-6.71a4.8 4.8 0 0 1 3.7-2.669c1.637-.182 3.108 1.689 4.157 2.72a25.681 25.681 0 0 0 4.675 3.636c2.339 1.42 4.907 2.467 7.108 4.093a10 10 0 0 1 3.4 3.9c.716 1.767-.538 3.477.979 5.1.979 1.048 2.481 1.405 3.664 2.216 2.524 1.747 2.968 4.946 3.083 7.759z" fill="#5e4130"/><path data-name="Path 491" d="M112.263 92.304a14.113 14.113 0 0 0 8.308-1.206 9.138 9.138 0 0 0 4.876-8.293 11.646 11.646 0 0 0-2-7.281c-1.683-2.223-4.5-3.59-5.55-6.174a4.967 4.967 0 0 1 .825-5.247 3.679 3.679 0 0 0 1.411-2.99 6.581 6.581 0 0 0-2.977-4.547 17.392 17.392 0 0 0-7.437-2.29c-1.726-.219-3.446-.7-3.981-2.564a13.675 13.675 0 0 1-.285-3.092c-.115-2.2-.276-4.4-.6-6.575a12.343 12.343 0 0 0-3.827-6.669q-.392-.373-.812-.713c-4.688-3.8-13.366-5.143-18.537-1.623a8.011 8.011 0 0 0-3.391 5.136c-.262 1.4-.643 1.705-2.014 2.131-2.49.773-5.317 1.321-7.295 3.148a6.834 6.834 0 0 0-2.052 5.669c.263 2.65 2.116 3.918 3.443 6.019 1.354 2.144.29 4.842-1.284 6.612-1.212 1.363-2.931 2.358-3.615 4.048a5.975 5.975 0 0 0 .548 4.848c.308.606.671 1.184.943 1.807a7 7 0 0 1-.226 5.994" fill="none" stroke="#755846" stroke-miterlimit="10" stroke-width="10"/><g data-name="Group 252"><path data-name="Path 492" d="M94.023 77.839c-2.158 2.453-6.306 2.648-9.209 1.644A4.7 4.7 0 0 1 81.4 75.1c-.047-2.395 2.054-4.1 2.585-6.328a15.021 15.021 0 0 0 .24-3.856c-.036-1.5-.047-3.009-.12-4.509A15.953 15.953 0 0 1 88.377 60c1.307.054 2.612-.082 3.918-.006a.462.462 0 0 1 .293.087.422.422 0 0 1 .1.282c.175 2.029 0 4.083.14 6.116a10.239 10.239 0 0 0 1.638 5.3 4.941 4.941 0 0 1-.443 6.06z" fill="#f8a17a"/></g><g data-name="Group 253"><path data-name="Path 493" d="M59.613 105.503c-.576-.2-1.15-.39-1.716-.588-3.109-1.088-6.284-1.983-9.394-3.072-2.083-.73-4.153-1.5-6.236-2.23-1.77-.621-3.593-1.68-5.471-1.861a1.879 1.879 0 0 0-1.324.245 2.176 2.176 0 0 0-.581 1.764 3.3 3.3 0 0 0 .548 2.328 3.257 3.257 0 0 0 .711.542c2.588 1.621 5.138 3.366 7.776 4.916 3.109 1.845 6.288 3.576 9.553 5.13 1.825.869 3.7 1.643 5.549 2.48 1.9.859 3.927 1.886 6.063 1.883a4.138 4.138 0 0 0 4.047-2.789 4.781 4.781 0 0 0-.693-4.434 7.19 7.19 0 0 0-2.123-1.608 42.919 42.919 0 0 0-6.709-2.706z" fill="#f8a17a"/></g><g data-name="Group 254"><path data-name="Path 494" d="M72.563 105.445c1.338-4 2.387-6.133 3.9-9.691 2.282-5.357 4.941-11.218 3.948-17.229-.475-2.878-2.94-5.276-6-4.743a6.746 6.746 0 0 0-4.451 3.013 24.98 24.98 0 0 0-2.487 5.7 105.141 105.141 0 0 0-3.063 10.481c-.849 3.542-1.305 7.2-2.463 10.66a12.2 12.2 0 0 0-.664 2.435c1.831 1.458 5.92 4.486 7.853 8.572a83.425 83.425 0 0 0 3.427-9.198z" fill="#a6b73e"/></g><g data-name="Group 255"><path data-name="Path 495" d="M71.453 96.588c.149 3.5.4 7.025.544 10.521.428-1.326 1.091-3.163 1.444-4.153.7-1.973 1.795-4.194 2.3-6.228a56.469 56.469 0 0 0 1.245-7.564 13.08 13.08 0 0 0 .065-2.845 20.451 20.451 0 0 0-.942-3.138q-.405-1.238-.858-2.46c-.246-.667-1.381-1.488-1.016-2.33a45.81 45.81 0 0 0-2.585 7.022 22.605 22.605 0 0 0-.387 6.774z" fill="#a6b73e" opacity=".5" style="mix-blend-mode:multiply;isolation:isolate"/></g><g data-name="Group 256"><path data-name="Path 496" d="M114.874 86.868c1.588 3.384 3.064 6.823 4.347 10.335a69.542 69.542 0 0 1 2.506 7.347c.514 2.111 1.11 4.893-.285 6.79a4.833 4.833 0 0 1-5.589 1.445 7.171 7.171 0 0 1-3.489-3.6c-1.006-1.977-2.011-3.965-3.071-5.922-2.2-4.063-4.641-7.988-6.87-12.032-1.972-3.578-3.684-7.6-3.622-11.758.043-2.916 2.124-5.654 5.232-5.581a6.747 6.747 0 0 1 4.849 2.319 24.976 24.976 0 0 1 3.306 5.272q1.41 2.657 2.686 5.385z" fill="#a6b73e"/></g><g data-name="Group 257"><path data-name="Path 497" d="M109.096 96.862c.577 3.055 1.13 6.119 1.758 9.161l.074.352c-.615-1.251-1.64-3.087-2.132-4.016-.982-1.851-2.871-5.1-3.983-6.924a16.787 16.787 0 0 1-2.176-5.382c-.357-1.585.14-2.409.435-3.989a16.842 16.842 0 0 1 1.269-3.372c.227-.533.391-1.222.616-1.751a6.671 6.671 0 0 0 .363-2.224 19.13 19.13 0 0 1 .735 3.147c.86 5.032 2.096 9.985 3.041 14.998z" fill="#a6b73e" opacity=".5" style="mix-blend-mode:multiply;isolation:isolate"/></g><g data-name="Group 258"><path data-name="Path 498" d="M84.07 68.471a16.209 16.209 0 0 0 .182-3.572c-.036-1.5-.047-3.009-.12-4.509a15.951 15.951 0 0 1 4.273-.407c1.307.054 2.612-.083 3.918-.006a.461.461 0 0 1 .294.087.423.423 0 0 1 .1.282c.175 2.029 0 4.083.14 6.116a14.85 14.85 0 0 0 .219 1.738 9.35 9.35 0 0 1-.629.51 6.7 6.7 0 0 1-5.718 1.042 8.636 8.636 0 0 1-2.659-1.281z" fill="#e5785c"/></g><g data-name="Group 261"><path data-name="Path 499" d="M74.045 100.986a54.274 54.274 0 0 1 .415 7.613 42.146 42.146 0 0 1-.21 6.91 68.055 68.055 0 0 0 10.548.379c1.534-.018 3.069-.036 4.6-.149 2.449-.181 4.872-.605 7.308-.909q3.457-.431 6.943-.539a134.359 134.359 0 0 1 .747-17.368c.682-5.676 1.976-11.5 1.955-17.223-.007-1.866.166-5.1-1.991-5.945-1.929-.753-3.885-1.431-5.844-2.1a29.153 29.153 0 0 0-5.583-1.419 24.738 24.738 0 0 0-8.258.389 50.9 50.9 0 0 0-7.254 2.184 9.2 9.2 0 0 0-2.757 1.137 8.582 8.582 0 0 0-1.662 3.057 32.2 32.2 0 0 0-2.461 10.07 18 18 0 0 0 .139 5c.556 2.61 1.985 4.906 2.93 7.375a9.1 9.1 0 0 1 .435 1.538z" fill="#a6b73e"/><g data-name="Group 260" clip-path="url(#a)" transform="translate(70.435 70.048)"><g data-name="Group 259"><path data-name="Path 500" d="M14.848-8.957a16.073 16.073 0 0 1 2.775-.128 11.531 11.531 0 0 1 7.035 2.439 7.9 7.9 0 0 1 3.3 6.044 11.37 11.37 0 0 1-1.43 4.765c-2.4 5.279-6.154 9.413-10.633 8.943-5.709-.6-9.242-8.753-7.046-16.418a8.979 8.979 0 0 1 1.949-3.746 6.862 6.862 0 0 1 4.05-1.899z" fill="#f8a17a"/></g></g></g><g data-name="Group 273"><g data-name="Group 263"><path data-name="Path 503" d="M25.027 97.6a12.916 12.916 0 0 0-2.619 1.349c-.569.372-1.269.9-1.179 1.673a.333.333 0 0 0 .247.3.447.447 0 0 0 .177-.016c1.086-.26 2.022-1.1 3.139-1.1a3.542 3.542 0 0 0-1.136.5q-.586.287-1.142.629a4.453 4.453 0 0 0-1.633 1.422.735.735 0 0 0-.09.581.746.746 0 0 0 .734.451 2.189 2.189 0 0 0 .876-.267l.664-.31a3.112 3.112 0 0 0-1.167.981.777.777 0 0 0 .236 1.054c.331.158.648-.032.96-.128.484-.148.942-.406 1.436-.514-.3.073-.464.54-.506.845a1 1 0 0 0 .308.836.652.652 0 0 0 .321.183.914.914 0 0 0 .469-.08l2.982-1.071c1.537-.556 3-1.244 4.587-1.668a11.373 11.373 0 0 1 1.741-.394 9.279 9.279 0 0 1 3.089-.262c.817.213 2.659.667 3.453.379 1.118-.4.914-.547.808-1.537-.134-1.254-2.444-1.946-3.485-2.486-.686-.356-1.033-1.364-1.614-1.871a10.25 10.25 0 0 0-1.765-1.239 5.671 5.671 0 0 0-1.525-.525 10.294 10.294 0 0 0-1.369-.087 9.973 9.973 0 0 1-2.611-.877c-.609-.239-1.285-.524-1.861-.043a1.238 1.238 0 0 0-.422 1.12c.077.493.369.519.783.687.291.118.939.536 1.242.5a17.57 17.57 0 0 0-4.128.985z" fill="#f8a17a"/></g><g data-name="Group 266"><g data-name="Group 265"><g data-name="Group 264"><path data-name="Path 504" d="M27.789 98.814a7.088 7.088 0 0 0-.886.123 8.445 8.445 0 0 0-.868.221 8.32 8.32 0 0 0-.839.313q-.2.092-.406.189c-.132.07-.264.138-.392.216.139-.055.275-.114.414-.167s.276-.109.415-.16c.278-.1.558-.2.84-.287s.567-.168.854-.244.577-.139.868-.204z" fill="#e5785c"/></g></g></g><g data-name="Group 269"><g data-name="Group 268"><g data-name="Group 267"><path data-name="Path 505" d="M27.886 100.435a8.413 8.413 0 0 0-1.4.436 13.043 13.043 0 0 0-1.323.634q-.639.36-1.252.761-.3.2-.606.41c-.2.142-.4.281-.6.426l1.247-.765c.416-.254.832-.506 1.26-.737s.859-.455 1.3-.653a12.424 12.424 0 0 1 1.374-.512z" fill="#e5785c"/></g></g></g><g data-name="Group 272"><g data-name="Group 271"><g data-name="Group 270"><path data-name="Path 506" d="M28.424 102.367c-.093.014-.187.029-.28.045l-.278.06-.274.077-.271.088a7.793 7.793 0 0 0-1.04.459q-.5.266-.976.58-.236.157-.47.317c-.153.111-.308.219-.459.333.164-.094.325-.193.488-.288l.485-.291c.325-.191.65-.38.983-.554a11.136 11.136 0 0 1 1.019-.477 8.1 8.1 0 0 1 1.073-.349z" fill="#e5785c"/></g></g></g></g><g data-name="Group 274"><path data-name="Path 507" d="M115.634 95.999c-.437 1.589-.865 3.18-1.257 4.78a33.3 33.3 0 0 0-1.049 6.419c-.076 1.687-.253 3.735 1.208 4.928a5.087 5.087 0 0 0 2.461 1.006c1.887.291 3.869-.188 4.677-1.97a23.841 23.841 0 0 0 1.906-6.635c.61-4.145.937-8.34 1.409-12.5a64.527 64.527 0 0 0 .747-11.361c-.088-1.39-.447-2.721-1.769-3.406a2.486 2.486 0 0 0-3.209.544 12.474 12.474 0 0 0-1.81 5.206c-.352 1.964-.892 3.906-1.382 5.842-.604 2.391-1.278 4.767-1.932 7.147z" fill="#f8a17a"/></g><g data-name="Group 275"><path data-name="Path 508" d="M124.509 62.604a49.726 49.726 0 0 1-1.184 6.519 2.89 2.89 0 0 1 1.2.118.986.986 0 0 1 .668.92 1.447 1.447 0 0 1 1.8 1.537 1.575 1.575 0 0 1 1.677.491c.615.76.206 2.019.006 2.877a17.7 17.7 0 0 1-1.126 3.365 10.963 10.963 0 0 1-4.382 5.089.927.927 0 0 1-.677.168.962.962 0 0 1-.517-.535 30.216 30.216 0 0 1-2.313-5.53 7.088 7.088 0 0 1-.414-2.719 16.71 16.71 0 0 1 .749-2.569q.391-1.525.777-3.052.472-1.869.933-3.74c.211-.858.805-4.876 2.335-4.208.446.191.491.789.468 1.269z" fill="#f8a17a"/></g><g data-name="Group 276"><path data-name="Path 509" d="M121.662 78.557a8.435 8.435 0 0 0-1.762-3.678.476.476 0 0 1-.154-.339c.019-.144.164-.232.3-.3.042-.222 1.287-.432 1.51-.515a1.939 1.939 0 0 0 .794 1.293 1.129 1.129 0 0 0 1.424-.147 2.06 2.06 0 0 0 1.667 1.255c-.654.382-1.426.483-2.093.873a5.257 5.257 0 0 0-1.686 1.558z" fill="#e5785c"/></g><g data-name="Group 277"><path data-name="Path 510" d="M120.952 74.464a11.168 11.168 0 0 1 1.784-.784c.584-.29 1.112-.933.89-1.546s-1-.768-1.643-.693a8.684 8.684 0 0 0-1.628.41c-1.316.425-2.99.775-3.315 2.381a4.229 4.229 0 0 0 .192 2.011 11.724 11.724 0 0 0 3.864 5.779c.641-.9.286-2.147-.173-3.151-.595-1.306-1.44-3.319.029-4.407z" fill="#f8a17a"/></g><g data-name="Group 278"><path data-name="Path 511" d="M83.33 38.562a9.742 9.742 0 0 1 4.529-1.226 16.855 16.855 0 0 1 4.705.526 14.492 14.492 0 0 1 7.845 5.132 12.973 12.973 0 0 1 2.16 4.251 16.359 16.359 0 0 1 .519 4.739c-.016 1.583-.128 3.157-.076 4.715a8.461 8.461 0 0 0 .364 2.266 3.558 3.558 0 0 0 1.226 1.815 4.275 4.275 0 0 0 2.1.723c.763.09 1.56.1 2.355.2a10.729 10.729 0 0 1 4.545 1.489 3.645 3.645 0 0 1 1.614 4.315 16.9 16.9 0 0 1-1.005 2.165 6.894 6.894 0 0 0-.586 2.215 10.322 10.322 0 0 0 .8 4.546 42.416 42.416 0 0 1 1.561 4.472 9.544 9.544 0 0 1 .285 2.364 7.449 7.449 0 0 1-.415 2.339 8.005 8.005 0 0 1-2.756 3.775 7.787 7.787 0 0 0 2.672-8.425 43.153 43.153 0 0 0-1.614-4.426 10.63 10.63 0 0 1-.876-4.675 7.259 7.259 0 0 1 .587-2.341 17.472 17.472 0 0 0 .976-2.12 3.248 3.248 0 0 0-1.469-3.865 10.339 10.339 0 0 0-4.369-1.4c-.768-.1-1.552-.1-2.355-.191a4.689 4.689 0 0 1-2.316-.8 4 4 0 0 1-1.376-2.039 8.884 8.884 0 0 1-.375-2.387c-.046-1.594.074-3.169.1-4.736a15.957 15.957 0 0 0-.484-4.628 13.072 13.072 0 0 0-2.061-4.148 14.238 14.238 0 0 0-7.626-5.129 16.7 16.7 0 0 0-4.646-.628 9.687 9.687 0 0 0-4.538 1.117z" fill="#8e6751"/></g><path data-name="Path 512" d="M73.864 52.698c-2.813 2.894-.261 9.966 4.225 8.943 4.82-1.1 4.1-8.612-.264-9.845a3.811 3.811 0 0 0-3.961.902z" fill="#fff"/><path data-name="Path 513" d="M96.051 52.537a19.439 19.439 0 0 0-.852-5.81c-2.357-7.217-11.36-9-16.781-3.819-6.045 5.777-3.732 19.589 2.636 24.441a7.144 7.144 0 0 0 6.084 1.2c6.256-1.684 8.952-9.384 8.913-16.012z" fill="#f8a17a"/><path data-name="Path 514" d="M94.868 52.715c2.77-1.514 3.622 2.32 3.146 4.229a6.086 6.086 0 0 1-1 2.205c-.659.873-2.543 2.322-3.629 1.367a2.426 2.426 0 0 1-.559-1.826c-.038-1.76.165-4.949 2.042-5.975z" fill="#f8a17a"/><path data-name="Path 515" d="M96.066 47.024c-2.482-7.6-11.96-9.475-17.667-4.021a11.244 11.244 0 0 0-2.777 4.474 5.284 5.284 0 0 0 .44.592 8.481 8.481 0 0 0 2.951 2 42.441 42.441 0 0 0 10.042 2.975c.253.047.508.094.763.145a8.508 8.508 0 0 1 2.714.908c2.338 1.378 1.333 4.41 3.046 5.738a1.634 1.634 0 0 0 .468.253 25.562 25.562 0 0 0 .916-6.949 20.463 20.463 0 0 0-.896-6.115z" fill="#e5785c"/><path data-name="Path 516" d="M90.066 52.324a8.508 8.508 0 0 1 2.535 1.329c2.089 1.734.612 4.566 2.092 6.15 1.311 1.4 3.3-.451 3.822-1.748.96-2.389.9-5.048.833-7.621a15.99 15.99 0 0 0-.5-4.264 10.482 10.482 0 0 0-2.418-3.983 15.509 15.509 0 0 0-12.2-4.758c-3.512.221-9.674 3.173-6.92 7.644a8.484 8.484 0 0 0 2.594 2.448 42.434 42.434 0 0 0 9.439 4.539c.233.087.478.174.723.264z" fill="#755846"/><g data-name="Group 279"><path data-name="Path 517" d="M98.338 52.14l-1.943-.121c.568-5.4-1-12.461-5.617-15.024-1.728-.96-9.379-2.521-12.239.507-.391.44-.653.808-.653.808 1.594-5.336 10.249-4.663 14.229-2.87 6.041 2.723 6.792 10.964 6.223 16.7z" fill="#b8d1ce"/></g><path data-name="Path 518" d="M96.031 51.624c-3.91 1-5.42 8.367-1.059 9.834 4.687 1.575 7.985-5.213 4.909-8.538a3.81 3.81 0 0 0-3.85-1.296z" fill="#fff"/><path data-name="Path 519" d="M97.313 52.569c-2.7.434-4.361 6.167-1.58 7.745 2.989 1.7 5.793-3.41 4.035-6.351a2.4 2.4 0 0 0-2.455-1.394z" fill="#b8d1ce"/></g></g><text data-name="Script Timer" transform="translate(182.891 92.421)" fill="#2980b9" font-size="38" font-family="Merriweather-Regular, Merriweather"><tspan x="0" y="0">Script Timer</tspan></text></g></svg>