<svg xmlns="http://www.w3.org/2000/svg" width="259.394" height="219.012" viewBox="0 0 259.394 219.012"><defs><clipPath id="a"><path d="M1378.631 1410.4c.726 3.757.555 8.8.692 12.69a70.28 70.28 0 0 1-.35 11.518c5.976.839 11.547.7 17.582.632 2.557-.03 5.116-.06 7.666-.249 4.081-.3 8.121-1.009 12.182-1.515q5.762-.718 11.574-.9a223.962 223.962 0 0 1 1.245-28.95c1.138-9.46 3.293-19.17 3.259-28.709-.011-3.11.277-8.5-3.32-9.909-3.215-1.256-6.475-2.386-9.741-3.5a48.6 48.6 0 0 0-9.306-2.365 41.24 41.24 0 0 0-13.765.648 84.869 84.869 0 0 0-12.091 3.641c-1.453.537-3.432.894-4.595 1.9-1.344 1.158-2.1 3.511-2.771 5.1a53.68 53.68 0 0 0-4.1 16.786 30.007 30.007 0 0 0 .232 8.336c.927 4.35 3.309 8.177 4.885 12.293a15.189 15.189 0 0 1 .722 2.553z" transform="translate(-1372.613 -1358.826)" fill="#a6b73e"/></clipPath></defs><path d="M47.688 211.694c-3.329.3-6.5-1.845-8.367-4.614-2.351-3.479-2.625-7.717-4.778-11.263-1.9-3.122-4.709-5.524-7.512-7.8-5.42-4.4-11.583-8.208-14.465-14.878-3.76-8.7-1.818-19.095 3.125-27.184 4.294-7.027 10.588-12.551 17.246-17.274 6.062-4.3 10.7-11.249 13.075-18.311 4.44-13.192 1.714-27.614 6.69-40.478 4.457-11.523 12.993-21.283 23.652-26.44 18.6-9 40.585-.992 53.845 14.4a41.154 41.154 0 0 0 27.741 13.9c20.211 1.655 41.265-9.331 59.989 3.07 9.543 6.32 16.288 17.524 18.39 29.347 1.184 6.66 1.048 14.069-1.523 20.356-2.53 6.187-6.893 11.235-10.641 16.58-6.229 8.882-9.638 20.755-3.812 30.759 2.547 4.374 6.227 7.952 9.717 11.618a24.8 24.8 0 0 1 6.621 12.771c1.387 7.281.847 15.467-3.921 21.142" fill="none" stroke="#e2f3f5" stroke-miterlimit="10" stroke-width="5"/><path d="M22.432 137.28c-5.893 8.379-10.439 19.778-7.284 30.3 3.145 10.49 13.2 16.958 17.6 26.921 2.741 6.214.851 15.539 7.978 19.335 2.357 1.256 5.151 1.285 7.822 1.284l163.175-.021c4.988 0 10.064-.014 14.832-1.48 11.3-3.476 11.773-13.412 7.87-22.862-2.42-5.859-7.038-10.334-9.668-16.086a36.9 36.9 0 0 1-2.186-25.452q.151-.521.316-1.037c2.537-7.894 7.643-14.68 9.755-22.716 4.36-16.589-5.275-34.129-17.939-44.792a53.621 53.621 0 0 0-17.547-10.221c-17.664-5.8-37.29.912-55.008-4.7-13.592-4.3-24.751-15.486-38.6-18.72-10.643-2.485-22.143.168-31.184 6.663s-15.6 16.662-18.591 27.857c-2.771 10.374-2.684 21.769-7.6 31.192-4.2 8.062-12 12.413-18.324 18.262a39.443 39.443 0 0 0-5.417 6.273z" fill="#fff"/><g transform="translate(45.843 115.474)"><path fill="#727f87" d="M23.994 40.74l2.514.426-5.384 31.803-2.514-.425z"/><circle cx="2.325" cy="2.325" r="2.325" transform="rotate(-35.4 121.504 10.053)" fill="#324751"/><path fill="#727f87" d="M25.172 47.862l2.014-1.566L46.993 71.78l-2.015 1.565z"/><circle cx="2.325" cy="2.325" r="2.325" transform="rotate(-22.172 203.338 -73.95)" fill="#324751"/><path fill="#727f87" d="M3.979 73.328l-2.014-1.566L21.77 46.28l2.014 1.566z"/><circle cx="2.325" cy="2.325" r="2.325" transform="rotate(-19.64 205.492 35.568)" fill="#324751"/><path d="M39.391 20.546l-5.84-11.168L50.438.547a4.8 4.8 0 0 1 6.479 2.03l1.39 2.659a4.8 4.8 0 0 1-2.03 6.479z" fill="#727f87"/><path d="M34.388 8.394l6.283 12.023-4.622 2.415a6.783 6.783 0 0 1-9.152-2.87 6.783 6.783 0 0 1 2.869-9.153l4.622-2.415z" fill="#324751"/><path fill="#ea394a" d="M36.581 7.247l6.283 12.023-2.512 1.313L34.07 8.56z"/><path d="M25.438 15.398l4.38 8.376-11.273 5.895a4.944 4.944 0 0 1-6.673-2.09 4.508 4.508 0 0 1 1.906-6.084l11.66-6.097z" fill="#324751"/><path d="M26.588 39.693l.617-14.77-9.408 4.92z" fill="#324751"/><path d="M24.551 30.787a3.226 3.226 0 0 1 3.225 3.226v14.474h-6.451V34.013a3.226 3.226 0 0 1 3.226-3.226z" fill="#727f87"/><circle cx="1.988" cy="1.988" r="1.988" transform="translate(22.563 32.3)" fill="#ea394a"/><path d="M19.675 43.689h9.752v1.425a4.876 4.876 0 0 1-4.876 4.875 4.876 4.876 0 0 1-4.876-4.875v-1.425z" fill="#324751"/></g><path d="M220.259 163.65a5.282 5.282 0 0 0 .123-3.994 15.469 15.469 0 0 0-1.839-3.632 16.477 16.477 0 0 1-2.014-4.093 8.8 8.8 0 0 1 .1-4.9c.958-3.088 2.921-5.364 4.273-7.692a11.045 11.045 0 0 0 1.451-3.7 6.367 6.367 0 0 0-.482-4.025 5.811 5.811 0 0 1 1.731 4.1 10.424 10.424 0 0 1-.916 4.5c-1.173 2.8-2.933 5.08-3.618 7.542a6.608 6.608 0 0 0-.208 3.58 19.511 19.511 0 0 0 1.433 3.76 13.047 13.047 0 0 1 1.311 4.329 5.067 5.067 0 0 1-1.345 4.225z" fill="#fff"/><path d="M212.189 165.35h17.34v16.167a8.67 8.67 0 0 1-8.67 8.67 8.67 8.67 0 0 1-8.67-8.67V165.35z" fill="#ffc73c"/><path d="M230.74 170.968a7.64 7.64 0 1 0 7.529 7.639 7.585 7.585 0 0 0-7.529-7.639zm0 12.554a4.915 4.915 0 1 1 4.844-4.915 4.88 4.88 0 0 1-4.844 4.915z" fill="#ffc73c"/><path d="M214.778 180.76a.94.94 0 0 1-.937-.937v-12.087a.941.941 0 0 1 .938-.937.94.94 0 0 1 .938.938v12.087a.94.94 0 0 1-.939.936z" fill="#fff" opacity=".2"/><path d="M225.524 165.354V185.8a4.391 4.391 0 0 1-4.391 4.391h4a4.391 4.391 0 0 0 4.391-4.391v-20.446z" fill="#ffc73c" style="mix-blend-mode:multiply;isolation:isolate"/><path d="M254.779 198.59H4.614A4.511 4.511 0 0 1 0 194.19a4.51 4.51 0 0 1 4.614-4.4h250.165a4.51 4.51 0 0 1 4.614 4.4 4.511 4.511 0 0 1-4.614 4.4z" fill="#9ed2f2"/><g transform="translate(54.061 40.634)"><rect width="49.143" height="29.841" rx="14.921" transform="rotate(180 24.572 14.92)" fill="#ffc73c"/><path d="M42.676 37.696V23.982l-10.74 5.858z" fill="#ffc73c"/><rect width="24.328" height="2.604" rx="1.302" transform="translate(7.485 13.661)" fill="#fff"/><rect width="7.974" height="2.604" rx="1.302" transform="translate(33.684 13.661)" fill="#fff"/><rect width="24.328" height="2.604" rx="1.302" transform="rotate(180 20.829 5.176)" fill="#fff"/><rect width="7.974" height="2.604" rx="1.302" transform="rotate(180 7.73 5.176)" fill="#fff"/><rect width="17.086" height="2.604" rx="1.302" transform="translate(7.485 19.066)" fill="#fff"/></g><g><path d="M184.094 4.67a28.811 28.811 0 0 0 .947 31.54c4.364 6.032 10.911 10.075 16.109 15.4s9.147 13.184 6.4 20.105c-2.793 7.046-10.973 9.912-17.1 14.375a32.318 32.318 0 0 0-7.8 44.142h63.632s11.178-21.3-3.193-37.537-22.09-16.5-21.557-27.146 7.984-14.105 12.242-18.1 25.017-13.307 12.775-42.787z" fill="#fafafa"/><path d="M184.094 4.67s.369-.006 1.1-.009l3.225-.009 12.417-.018 45.725-.033h.047l.017.043a59.278 59.278 0 0 1 2.371 6.89 40.172 40.172 0 0 1 1.352 7.487 29.736 29.736 0 0 1-.4 7.9 25.388 25.388 0 0 1-2.876 7.683 27.977 27.977 0 0 1-2.4 3.478 32.447 32.447 0 0 1-2.931 3.136 43.312 43.312 0 0 1-3.327 2.816c-1.158.9-2.367 1.742-3.547 2.636-.591.446-1.131.946-1.694 1.447s-1.149.966-1.737 1.435c-1.176.94-2.364 1.881-3.485 2.91a18.61 18.61 0 0 0-5.226 7.5 18.2 18.2 0 0 0-1 4.582c-.032.393-.084.786-.1 1.181s-.03.792-.012 1.188a13.555 13.555 0 0 0 .239 2.367 10.812 10.812 0 0 0 1.91 4.359 24.215 24.215 0 0 0 3.3 3.573c2.416 2.209 4.978 4.317 7.433 6.594s4.861 4.654 7.168 7.165a43.181 43.181 0 0 1 3.309 3.935 27.654 27.654 0 0 1 2.668 4.448 29.2 29.2 0 0 1 2.74 10.091 36.958 36.958 0 0 1-.62 10.608 43.576 43.576 0 0 1-1.365 5.2 37.973 37.973 0 0 1-2.021 5.026l-.026.052h-63.743l-.027-.041a32.807 32.807 0 0 1-5.328-15.02 31.667 31.667 0 0 1 2.2-15.161 33.009 33.009 0 0 1 8.411-12.014 38.235 38.235 0 0 1 5.743-4.189c1.987-1.233 3.99-2.374 5.885-3.622a26.958 26.958 0 0 0 5.179-4.213 14.158 14.158 0 0 0 3.2-5.556 13.822 13.822 0 0 0 .253-6.2 20.2 20.2 0 0 0-1.967-5.7 27.88 27.88 0 0 0-3.2-4.865 38.811 38.811 0 0 0-3.876-4.044c-2.694-2.48-5.45-4.648-7.932-6.877a55.386 55.386 0 0 1-3.5-3.388 31.517 31.517 0 0 1-2.9-3.581 27.285 27.285 0 0 1-3.641-7.546 28.174 28.174 0 0 1-1.239-7.147c-.052-.555-.032-1.1-.031-1.633s-.009-1.052.046-1.557l.114-1.477c.057-.477.136-.939.2-1.39a26.54 26.54 0 0 1 2.5-7.924 10.771 10.771 0 0 1 .576-1.11l.457-.779c.245-.417.371-.625.371-.625l-.361.637-.447.78a10.933 10.933 0 0 0-.567 1.11 26.711 26.711 0 0 0-2.463 7.92c-.063.45-.14.911-.2 1.387l-.11 1.474c-.054.5-.036 1.022-.042 1.553s-.019 1.075.034 1.628a28.128 28.128 0 0 0 1.249 7.124 27.217 27.217 0 0 0 3.639 7.513 31.47 31.47 0 0 0 2.9 3.565 56.653 56.653 0 0 0 3.5 3.376c2.481 2.223 5.24 4.388 7.941 6.87a38.887 38.887 0 0 1 3.892 4.054 28.014 28.014 0 0 1 3.223 4.886 20.339 20.339 0 0 1 1.985 5.74 13.966 13.966 0 0 1-.251 6.268 14.307 14.307 0 0 1-3.235 5.619 27.1 27.1 0 0 1-5.206 4.242c-1.9 1.253-3.9 2.4-5.886 3.628a38.066 38.066 0 0 0-5.717 4.174 32.844 32.844 0 0 0-8.362 11.956 31.5 31.5 0 0 0-2.183 15.078 32.633 32.633 0 0 0 5.3 14.934l-.077-.041h63.631l-.086.052a37.788 37.788 0 0 0 2.008-5 43.332 43.332 0 0 0 1.359-5.181 36.768 36.768 0 0 0 .618-10.552 29.006 29.006 0 0 0-2.721-10.025 27.466 27.466 0 0 0-2.649-4.419 43.054 43.054 0 0 0-3.295-3.918q-3.455-3.763-7.156-7.156c-2.451-2.275-5.009-4.38-7.432-6.6a24.369 24.369 0 0 1-3.324-3.6 11 11 0 0 1-1.939-4.431 13.722 13.722 0 0 1-.241-2.4c-.019-.4 0-.8.012-1.2s.068-.795.1-1.191a18.386 18.386 0 0 1 1.007-4.625 18.786 18.786 0 0 1 5.276-7.564c1.128-1.035 2.32-1.977 3.495-2.916.588-.469 1.169-.942 1.732-1.43s1.108-1 1.7-1.453c1.186-.9 2.392-1.741 3.548-2.634a43.015 43.015 0 0 0 3.316-2.8 32.271 32.271 0 0 0 2.918-3.118 27.869 27.869 0 0 0 2.384-3.455 25.241 25.241 0 0 0 2.863-7.632 29.562 29.562 0 0 0 .407-7.862 40.038 40.038 0 0 0-1.341-7.461 59.23 59.23 0 0 0-2.359-6.875l.064.042-45.7-.034-12.427-.018-3.234-.009c-.72-.006-1.095-.012-1.095-.012z" fill="#263238"/><path d="M244.017 21.955c9.372 1.54-5.4 18.139-13.769 24.689-4.843 3.792-10.045 7.905-12.345 13.611-2.609 6.473-.675 13.748-1.94 20.259a.901.901 0 0 1-1.792-.19 70.545 70.545 0 0 0-.76-12.753c-1-5.968-3.3-11.872-7.482-16.245-3.414-3.57-7.891-5.942-11.532-9.28-5.317-4.873-10.779-11.157-11.312-18.35 0 0 10.209-8.223 15.876-7.185 6.622 1.213 13.142 11.432 23.4 10.262 7.169-.818 10.78-6.608 21.656-4.818zM244.844 110.798c-.237-2.344-.862-5-2.942-6.1a5.807 5.807 0 0 0-4.174-.232c-1.38.363-2.677.99-4.045 1.4a13.255 13.255 0 0 1-8.276-.262c-2.543-.934-4.725-2.622-7.087-3.95s-5.125-2.317-7.754-1.662c-4.533 1.128-6.892 6.585-11.373 7.9a12.319 12.319 0 0 1-6.155-.2 24.013 24.013 0 0 0-6.132-.97 6.8 6.8 0 0 0-4.457 1.737l.012-.016-.033.036a4.6 4.6 0 0 0-.514.6 8.418 8.418 0 0 0-1.185 6.607 23.614 23.614 0 0 0 2.932 7.119 20.959 20.959 0 0 0 5.669 7.036c3.051 2.174 6.889.673 10.624.968a175.941 175.941 0 0 0 26.8.481c4.6-.357 8.916.142 12.568-2.681a14.852 14.852 0 0 0 5.046-8.127 27.807 27.807 0 0 0 .476-9.684z" fill="#e8505b"/><path d="M228.406 106.309a2.406 2.406 0 0 0-.227 2.526 8.37 8.37 0 0 1 1.321 2.336c.323 1.375-.5 2.721-1.123 3.992a12.727 12.727 0 0 0-1.234 7.367 10.022 10.022 0 0 0 3.656 6.433 3.556 3.556 0 0 0 3.1.878 3 3 0 0 0 1.853-2.367 10.035 10.035 0 0 0-.1-3.141 48.878 48.878 0 0 1 .369-14.591 2.939 2.939 0 0 0-.23-2.359 2.742 2.742 0 0 0-1.339-.764c-1.941-.646-4.038.072-6.048-.31" opacity=".24"/><path d="M177.988 133.126s-.175-2.92 3.634-4.546h66.929s3.49 1.766 3.92 4.486zM247.133 5.025l-.106.049-62.933-.405s-.223-.143-.558-.4a2.386 2.386 0 0 1 1.489-4.265l61.081.493a2.386 2.386 0 0 1 1.027 4.528z" fill="#263238"/><path d="M237.061 29.032c.127.243-.345.767-1.248 1.568s-2.226 1.9-3.906 3.255a50.97 50.97 0 0 1-6.34 4.472 25.647 25.647 0 0 1-4.348 2 20.281 20.281 0 0 1-2.5.691 16.521 16.521 0 0 1-2.7.352 14.435 14.435 0 0 1-5.426-.741 19.592 19.592 0 0 1-4.359-2.225c-1.255-.832-2.336-1.653-3.355-2.439s-1.941-1.547-2.768-2.261c-3.306-2.864-5.044-4.97-4.709-5.377.347-.423 2.687.917 6.333 3.158l2.979 1.829c1.069.651 2.219 1.37 3.391 2.034a18.889 18.889 0 0 0 3.676 1.661 11.733 11.733 0 0 0 4.047.477 21.442 21.442 0 0 0 8.058-2.319c2.422-1.185 4.589-2.527 6.478-3.584a32.664 32.664 0 0 1 4.676-2.28c1.179-.423 1.899-.504 2.021-.271z" opacity=".24"/><path d="M214.218 88.315a1.06 1.06 0 1 1-.053.021" fill="#e8505b"/><path d="M191.71 39.446a1.911 1.911 0 0 1-.222-.224l-.61-.668c-.257-.3-.6-.639-.943-1.077l-1.189-1.479c-.406-.574-.866-1.192-1.33-1.877l-.682-1.086c-.115-.188-.241-.374-.352-.571l-.329-.606a25.193 25.193 0 0 1-2.319-5.582 23.439 23.439 0 0 1-.88-5.981c0-.466.024-.92.034-1.361.01-.22.006-.438.029-.651l.067-.628c.047-.411.08-.81.135-1.19s.134-.74.2-1.087c.107-.7.291-1.307.423-1.85.072-.27.128-.524.2-.752l.2-.622.287-.858a.158.158 0 1 1 .037.012l-.252.867-.187.625c-.066.229-.116.484-.183.754-.121.543-.3 1.154-.393 1.848l-.184 1.083c-.051.378-.08.775-.123 1.184l-.062.624c-.02.212-.015.428-.023.647-.008.438-.03.889-.026 1.351a23.727 23.727 0 0 0 .888 5.931 25.548 25.548 0 0 0 2.288 5.549l.323.6c.11.2.233.382.347.57l.67 1.086c.455.686.908 1.306 1.305 1.883l1.163 1.492c.337.443.668.793.916 1.1l.581.692a1.96 1.96 0 0 1 .196.252zM188.165 94.916a.776.776 0 0 1 .07-.123l.222-.351.367-.568.235-.362c.092-.123.2-.247.308-.383l.733-.895c.288-.31.617-.63.962-.983a25.979 25.979 0 0 1 2.563-2.157c1.982-1.5 4.539-2.995 7.31-4.737a42.127 42.127 0 0 0 4.192-2.953 19.7 19.7 0 0 0 3.762-3.975 18.808 18.808 0 0 0 3.041-10.018 23.72 23.72 0 0 0-1.431-8.511 31.71 31.71 0 0 0-2.473-5.3 37.96 37.96 0 0 0-.825-1.365l-.22-.352a.725.725 0 0 1-.069-.124.761.761 0 0 1 .086.113l.236.342c.206.3.5.753.858 1.348a30.361 30.361 0 0 1 2.538 5.3 23.632 23.632 0 0 1 1.481 8.561 19.494 19.494 0 0 1-.206 2.518 18.518 18.518 0 0 1-.546 2.579 17.6 17.6 0 0 1-2.307 5.025 19.792 19.792 0 0 1-3.8 4.014 41.785 41.785 0 0 1-4.217 2.957c-2.782 1.737-5.34 3.214-7.324 4.7a26.452 26.452 0 0 0-2.57 2.125c-.347.347-.679.662-.969.967l-.742.88c-.11.133-.22.255-.314.376l-.242.355-.381.556-.238.34a.758.758 0 0 1-.09.101zM184.692 101.513a.709.709 0 0 1-.081.173l-.266.475c-.12.2-.263.454-.407.757s-.333.635-.491 1.027l-.263.607c-.09.211-.163.44-.251.671-.182.461-.324.972-.485 1.5a20.179 20.179 0 0 0-.658 7.177c.062.553.108 1.081.2 1.568.044.244.075.482.125.706l.148.645c.083.414.206.776.3 1.1s.181.6.262.819l.175.516a.72.72 0 0 1 .049.185.7.7 0 0 1-.085-.17l-.21-.5a7.882 7.882 0 0 1-.3-.812c-.1-.322-.232-.683-.325-1.1l-.161-.647c-.054-.225-.089-.465-.137-.71-.1-.49-.156-1.021-.223-1.579a19.473 19.473 0 0 1 .664-7.242c.168-.536.316-1.049.507-1.512.091-.232.169-.461.264-.673l.276-.607c.167-.391.362-.722.519-1.021a7.875 7.875 0 0 1 .438-.745l.3-.458a.705.705 0 0 1 .116-.15zM230.856 110.49a.347.347 0 0 1-.075.055l-.233.145-.906.544-.657.39c-.245.135-.52.263-.811.41-.587.284-1.24.644-2.009.935l-1.193.489c-.417.167-.866.3-1.322.454-.909.332-1.915.568-2.966.843a34.854 34.854 0 0 1-14.043.367c-1.065-.219-2.082-.4-3.007-.687-.464-.134-.919-.239-1.344-.384l-1.217-.426c-.783-.25-1.453-.576-2.055-.828-.3-.132-.58-.246-.831-.367l-.677-.355-.932-.5-.241-.133a.047.047 0 1 1 .01-.017l.249.116.948.463.682.338c.253.116.536.225.835.352.6.242 1.274.558 2.058.8l1.216.413c.424.141.878.242 1.341.372.922.276 1.936.453 3 .666a35.42 35.42 0 0 0 13.972-.365c1.047-.268 2.05-.5 2.956-.821.455-.154.9-.279 1.319-.441l1.193-.476c.769-.281 1.423-.632 2.013-.905.292-.142.569-.265.816-.395l.664-.374.923-.512.243-.129a.339.339 0 0 1 .081-.037zM234.75 31.465a.464.464 0 0 1-.08.074l-.245.2-.953.761c-.831.657-2.032 1.609-3.549 2.744a51.489 51.489 0 0 1-5.553 3.671 25.253 25.253 0 0 1-3.578 1.646 16.3 16.3 0 0 1-4.128.918 15.718 15.718 0 0 1-7.932-1.65 26.966 26.966 0 0 1-3.064-1.822 47.484 47.484 0 0 1-2.481-1.862c-1.478-1.186-2.636-2.19-3.441-2.878l-.923-.8-.237-.211a.446.446 0 0 1-.076-.077.459.459 0 0 1 .089.062l.25.2.946.769c.82.67 1.991 1.658 3.478 2.829.74.589 1.574 1.2 2.486 1.837a27.386 27.386 0 0 0 3.051 1.794 15.646 15.646 0 0 0 7.84 1.617 16.224 16.224 0 0 0 4.078-.9 25.426 25.426 0 0 0 3.555-1.624 53.467 53.467 0 0 0 5.558-3.625c1.526-1.119 2.74-2.055 3.585-2.693l.976-.732.257-.186a.448.448 0 0 1 .091-.062z" fill="#263238"/><g opacity=".24"><path d="M201.071 113.623c1.77-1.366 4.255-1.035 6.443-.575s4.391 1.208 6.6.9c1.668-.234 3.2-1.054 4.845-1.411s3.644-.093 4.557 1.323a35.471 35.471 0 0 1-22.449-.235"/></g></g><g><path d="M188.947 154.652c-6.884 2.435-15.185 2.186-21.448-1.831-6.156-3.949-11.765-6.8-19.34-6.663-6.768.123-12.366 3.782-18.921 4.561-5.2.618-10.481-1.649-14.25-5.284-3.678-3.548-6.121-8.959-4.522-13.813.837-2.542 2.668-4.639 3.712-7.1 2.409-5.682-3.934-9.11-2.357-15.092 1.342-5.087 6.924-8.715 6.84-13.976-.061-3.85-3.042-6.835-4.092-10.4a14.139 14.139 0 0 1 1.043-10.9 13.029 13.029 0 0 1 6.134-5.477c2.3-.978 4.859-1 6.634-3 3.163-3.574 4.323-7.448 8.662-10.061 3.674-2.212 8.526-2.353 12.74-1.966a32.316 32.316 0 0 1 23.73 13.675c1.869 2.79 3.219 5.645 3.266 8.961.051 3.625.05 7.272 2.271 10.354 1.865 2.588 4.858 4.1 7.827 5.269s6.079 2.112 8.685 3.952 4.675 4.841 4.371 8.016c-.255 2.658-2.094 4.967-2.339 7.625-.445 4.834 4.211 8.345 7.082 12.259a19.045 19.045 0 0 1 1.66 19.316c-3.483 7.007-9.811 8.587-16.442 11.224q-.463.182-.946.351z" fill="#755846"/><path d="M172.033 122.54c.244 5.94-1.133 10.4-6.565 13.339-4.327 2.34-9.507 3.107-14.282 3.225-8.008.2-16.93-1.868-22.921-7.493a5.936 5.936 0 0 1-2.209-3.762c-.072-1.354.673-2.629.739-3.983.11-2.284-1.665-4.175-2.459-6.319-1.048-2.832-.336-5.993.606-8.862s2.12-5.766 1.979-8.782c-.183-3.913-2.534-7.329-4.417-10.764s-3.364-7.614-1.755-11.185a8 8 0 0 1 6.171-4.45c2.729-.3 5.181 2.815 6.929 4.533a42.819 42.819 0 0 0 7.792 6.061c3.9 2.366 8.18 4.111 11.848 6.823 2.219 1.641 4.6 3.893 5.66 6.507 1.194 2.945-.9 5.8 1.631 8.505 1.631 1.748 4.135 2.342 6.107 3.693 4.222 2.889 4.953 8.221 5.146 12.914z" fill="#5e4130"/><path d="M187.13 153.86a23.522 23.522 0 0 0 13.848-2.01c5.344-2.8 8.018-7.925 8.129-13.824.08-4.274-.747-8.728-3.327-12.137-2.805-3.706-7.507-5.984-9.251-10.292-1.13-2.79-.859-6.588 1.375-8.746 1.422-1.374 2.534-2.923 2.352-4.983-.269-3.03-2.486-5.942-4.962-7.579-3.631-2.4-8.148-3.278-12.4-3.818-2.877-.366-5.745-1.174-6.635-4.274a22.787 22.787 0 0 1-.475-5.154c-.191-3.664-.46-7.329-1.007-10.96-.631-4.185-3.349-8.234-6.38-11.117q-.653-.621-1.354-1.189c-7.814-6.33-22.279-8.573-30.9-2.706a13.353 13.353 0 0 0-5.653 8.562c-.438 2.339-1.072 2.842-3.357 3.551-4.151 1.288-8.862 2.2-12.159 5.248a11.391 11.391 0 0 0-3.421 9.449c.438 4.418 3.527 6.531 5.738 10.032 2.258 3.574.483 8.072-2.14 11.021-2.02 2.271-4.885 3.931-6.026 6.748-1.05 2.592-.355 5.588.913 8.081.514 1.01 1.118 1.974 1.572 3.012a11.673 11.673 0 0 1-.377 9.992" fill="none" stroke="#755846" stroke-miterlimit="10" stroke-width="10"/><path d="M156.725 129.748c-3.6 4.089-10.511 4.414-15.35 2.741-3.294-1.139-5.622-3.736-5.691-7.306-.078-3.992 3.423-6.828 4.308-10.548a25.027 25.027 0 0 0 .4-6.428c-.061-2.5-.078-5.016-.2-7.516a26.6 26.6 0 0 1 7.121-.678c2.178.09 4.354-.137 6.531-.01a.769.769 0 0 1 .489.145.7.7 0 0 1 .162.47c.292 3.381.005 6.806.234 10.194a17.066 17.066 0 0 0 2.731 8.826 8.236 8.236 0 0 1-.735 10.11zM99.367 175.858c-.96-.326-1.916-.649-2.86-.98-5.183-1.814-10.475-3.306-15.658-5.121-3.473-1.216-6.923-2.5-10.395-3.717-2.95-1.035-5.99-2.8-9.12-3.1a3.132 3.132 0 0 0-2.207.409c-.853.646-.948 1.87-.969 2.94-.026 1.363 0 2.87.913 3.88a5.434 5.434 0 0 0 1.184.9c4.314 2.7 8.565 5.611 12.962 8.194 5.183 3.076 10.482 5.96 15.924 8.552 3.043 1.449 6.167 2.738 9.25 4.134 3.164 1.432 6.546 3.145 10.106 3.138a6.9 6.9 0 0 0 6.746-4.65 7.969 7.969 0 0 0-1.155-7.39 11.989 11.989 0 0 0-3.539-2.681 71.557 71.557 0 0 0-11.182-4.508z" fill="#f8a17a"/><path d="M120.954 175.763c2.229-6.662 3.979-10.224 6.505-16.154 3.8-8.929 8.236-18.7 6.58-28.719-.793-4.8-4.9-8.794-10.005-7.905a11.245 11.245 0 0 0-7.419 5.023c-1.933 2.89-3 6.256-4.145 9.508a175.279 175.279 0 0 0-5.106 17.47c-1.415 5.9-2.176 12-4.105 17.77a20.341 20.341 0 0 0-1.107 4.059c3.052 2.431 9.867 7.478 13.09 14.288a139.08 139.08 0 0 0 5.712-15.34z" fill="#a6b73e"/><path d="M119.104 161.001c.248 5.827.658 11.71.907 17.537.714-2.21 1.818-5.271 2.407-6.922 1.174-3.289 2.991-6.991 3.836-10.381a94.179 94.179 0 0 0 2.075-12.609 21.8 21.8 0 0 0 .108-4.743 34.059 34.059 0 0 0-1.57-5.231q-.676-2.064-1.429-4.1c-.411-1.111-2.3-2.481-1.694-3.884a76.371 76.371 0 0 0-4.309 11.7c-.97 3.87-.812 7.37-.645 11.292z" fill="#a6b73e" opacity=".5" style="mix-blend-mode:multiply;isolation:isolate"/><path d="M191.481 144.796c2.647 5.641 5.107 11.373 7.246 17.227a115.969 115.969 0 0 1 4.177 12.246c.856 3.518 1.85 8.157-.475 11.318a8.056 8.056 0 0 1-9.317 2.409c-2.668-1.048-4.551-3.51-5.815-6-1.677-3.3-3.353-6.609-5.119-9.871-3.668-6.773-7.737-13.315-11.451-20.055-3.287-5.964-6.14-12.662-6.037-19.6.072-4.861 3.541-9.425 8.72-9.3a11.244 11.244 0 0 1 8.082 3.865c2.34 2.571 3.894 5.742 5.511 8.787q2.351 4.427 4.478 8.974z" fill="#a6b73e"/><path d="M181.854 161.457c.962 5.093 1.884 10.2 2.93 15.27q.06.293.123.586c-1.025-2.084-2.733-5.145-3.554-6.694-1.636-3.085-4.785-8.5-6.638-11.542a27.976 27.976 0 0 1-3.626-8.97c-.6-2.642.232-4.016.725-6.648a28.05 28.05 0 0 1 2.116-5.621c.379-.888.651-2.038 1.027-2.919a11.119 11.119 0 0 0 .6-3.707 31.889 31.889 0 0 1 1.226 5.245c1.431 8.387 3.492 16.644 5.071 25z" fill="#a6b73e" opacity=".5" style="mix-blend-mode:multiply;isolation:isolate"/><path d="M140.135 114.134a27 27 0 0 0 .3-5.954c-.061-2.5-.078-5.016-.2-7.516a26.586 26.586 0 0 1 7.122-.678c2.178.09 4.354-.138 6.531-.01a.769.769 0 0 1 .489.144.706.706 0 0 1 .162.47c.292 3.382 0 6.806.234 10.194a24.788 24.788 0 0 0 .366 2.9c-.342.3-.69.586-1.048.851a11.161 11.161 0 0 1-9.53 1.736 14.393 14.393 0 0 1-4.426-2.137z" fill="#e5785c"/><path d="M123.425 168.335c.726 3.757.555 8.8.692 12.69a70.28 70.28 0 0 1-.35 11.518c5.976.839 11.547.7 17.582.632 2.557-.03 5.116-.06 7.666-.249 4.081-.3 8.121-1.009 12.182-1.515q5.762-.718 11.574-.9a223.962 223.962 0 0 1 1.245-28.95c1.138-9.46 3.293-19.17 3.259-28.709-.011-3.11.277-8.5-3.32-9.909-3.215-1.256-6.475-2.386-9.741-3.5a48.6 48.6 0 0 0-9.306-2.365 41.24 41.24 0 0 0-13.765.648 84.869 84.869 0 0 0-12.091 3.641c-1.453.537-3.432.894-4.595 1.9-1.344 1.158-2.1 3.511-2.771 5.1a53.68 53.68 0 0 0-4.1 16.786 30.007 30.007 0 0 0 .232 8.336c.927 4.35 3.309 8.177 4.885 12.293a15.189 15.189 0 0 1 .722 2.553z" fill="#a6b73e"/><g clip-path="url(#a)" transform="translate(117.407 116.761)"><path d="M24.749-14.927a26.776 26.776 0 0 1 4.625-.213 19.222 19.222 0 0 1 11.727 4.065C43.75-8.903 46.554-5.7 46.601-1c.027 2.842-1.211 5.358-2.384 7.942-4 8.8-10.258 15.69-17.725 14.906-9.516-1-15.405-14.591-11.745-27.366a14.97 14.97 0 0 1 3.249-6.245 11.437 11.437 0 0 1 6.753-3.164z" fill="#f8a17a"/></g><path d="M41.717 162.686a21.516 21.516 0 0 0-4.366 2.249c-.949.619-2.115 1.507-1.965 2.788a.555.555 0 0 0 .412.5.749.749 0 0 0 .294-.027c1.81-.433 3.371-1.842 5.232-1.831a5.909 5.909 0 0 0-1.893.827q-.976.479-1.9 1.049a7.422 7.422 0 0 0-2.722 2.37 1.227 1.227 0 0 0-.15.968 1.244 1.244 0 0 0 1.224.752 3.645 3.645 0 0 0 1.461-.445l1.107-.517a5.189 5.189 0 0 0-1.945 1.636 1.3 1.3 0 0 0 .393 1.757c.551.263 1.08-.054 1.6-.213.806-.247 1.57-.677 2.394-.857-.5.123-.773.9-.844 1.409a1.661 1.661 0 0 0 .514 1.394 1.086 1.086 0 0 0 .535.3 1.523 1.523 0 0 0 .781-.133l4.97-1.785c2.563-.926 5-2.073 7.645-2.781a18.979 18.979 0 0 1 2.9-.656c1.608-.162 3.544-.857 5.149-.437 1.362.356 4.433 1.111 5.756.632 1.863-.675 1.524-.912 1.347-2.561-.223-2.089-4.073-3.243-5.809-4.143-1.143-.593-1.722-2.273-2.69-3.119a17.06 17.06 0 0 0-2.942-2.065 9.449 9.449 0 0 0-2.542-.875 17.086 17.086 0 0 0-2.283-.146 16.632 16.632 0 0 1-4.352-1.462c-1.015-.4-2.142-.873-3.1-.073a2.063 2.063 0 0 0-.7 1.867c.129.822.615.865 1.305 1.145.485.2 1.564.893 2.071.839a29.3 29.3 0 0 0-6.887 1.644z" fill="#f8a17a"/><path d="M46.321 164.71a11.8 11.8 0 0 0-1.477.2 13.887 13.887 0 0 0-2.846.891q-.341.152-.676.315c-.22.116-.441.231-.654.359.231-.092.459-.189.69-.278s.46-.182.692-.267a29.214 29.214 0 0 1 2.823-.885c.477-.126.963-.227 1.448-.335zM46.484 167.413a14.03 14.03 0 0 0-2.331.727 21.7 21.7 0 0 0-2.205 1.057q-1.066.6-2.087 1.269-.508.338-1.011.683c-.331.236-.666.468-.993.71l2.078-1.276c.693-.423 1.387-.843 2.1-1.228s1.432-.759 2.172-1.088a20.668 20.668 0 0 1 2.277-.854zM47.381 170.633q-.233.035-.467.075l-.463.1-.456.128-.451.147a12.974 12.974 0 0 0-1.734.765q-.837.444-1.627.966-.394.261-.783.529c-.255.185-.513.365-.764.555.274-.156.541-.321.813-.48l.808-.485a37.713 37.713 0 0 1 1.638-.924 18.558 18.558 0 0 1 1.7-.8 13.518 13.518 0 0 1 1.786-.576z" fill="#e5785c"/><path d="M192.749 160.016c-.728 2.649-1.441 5.3-2.1 7.968a55.506 55.506 0 0 0-1.748 10.7c-.127 2.812-.421 6.225 2.014 8.214a8.479 8.479 0 0 0 4.1 1.677c3.145.486 6.448-.313 7.8-3.283a39.741 39.741 0 0 0 3.177-11.059c1.016-6.909 1.561-13.9 2.349-20.835.714-6.282 1.646-12.568 1.246-18.937-.146-2.317-.746-4.535-2.949-5.677a4.144 4.144 0 0 0-5.35.906c-1.806 2.473-2.48 5.687-3.016 8.677-.587 3.274-1.487 6.511-2.3 9.738-1.01 3.985-2.133 7.944-3.223 11.911z" fill="#f8a17a"/><path d="M207.541 104.354c-.179 3.664-1.307 7.27-1.973 10.866a4.811 4.811 0 0 1 2 .2 1.643 1.643 0 0 1 1.113 1.533 2.412 2.412 0 0 1 3.006 2.562 2.625 2.625 0 0 1 2.8.818c1.025 1.268.343 3.366.011 4.8a29.511 29.511 0 0 1-1.878 5.609 18.275 18.275 0 0 1-7.305 8.483 1.545 1.545 0 0 1-1.128.281 1.606 1.606 0 0 1-.861-.892 50.386 50.386 0 0 1-3.855-9.218 11.812 11.812 0 0 1-.69-4.533 27.846 27.846 0 0 1 1.249-4.282q.652-2.542 1.294-5.087.786-3.115 1.556-6.234c.353-1.429 1.342-8.127 3.893-7.015.736.312.807 1.308.768 2.109z" fill="#f8a17a"/><path d="M202.797 130.945a14.067 14.067 0 0 0-2.937-6.131.791.791 0 0 1-.257-.565c.032-.24.273-.387.492-.492.071-.37 2.145-.72 2.518-.858a3.233 3.233 0 0 0 1.324 2.156 1.881 1.881 0 0 0 2.373-.245 3.434 3.434 0 0 0 2.778 2.092c-1.09.637-2.376.805-3.488 1.455a8.761 8.761 0 0 0-2.803 2.588z" fill="#e5785c"/><path d="M201.613 124.122a18.612 18.612 0 0 1 2.975-1.306c.973-.484 1.853-1.555 1.484-2.577s-1.674-1.281-2.739-1.155a14.485 14.485 0 0 0-2.714.684c-2.193.708-4.985 1.292-5.525 3.969a7.043 7.043 0 0 0 .32 3.353 19.54 19.54 0 0 0 6.44 9.632c1.068-1.5.477-3.578-.288-5.252-.993-2.179-2.4-5.535.047-7.348z" fill="#f8a17a"/><path d="M138.901 64.278a16.239 16.239 0 0 1 7.55-2.044 28.1 28.1 0 0 1 7.843.876 24.156 24.156 0 0 1 13.077 8.555 21.616 21.616 0 0 1 3.6 7.086 27.26 27.26 0 0 1 .865 7.9c-.026 2.639-.214 5.263-.127 7.859a14.11 14.11 0 0 0 .606 3.778 5.932 5.932 0 0 0 2.044 3.025 7.125 7.125 0 0 0 3.5 1.206c1.272.151 2.6.158 3.926.336a17.885 17.885 0 0 1 7.577 2.482 6.077 6.077 0 0 1 2.691 7.192 28.214 28.214 0 0 1-1.675 3.609 11.49 11.49 0 0 0-.977 3.693 17.209 17.209 0 0 0 1.33 7.578 70.717 70.717 0 0 1 2.6 7.455 15.9 15.9 0 0 1 .474 3.941 12.414 12.414 0 0 1-.691 3.9 13.344 13.344 0 0 1-4.594 6.293 12.979 12.979 0 0 0 4.454-14.044 71.9 71.9 0 0 0-2.691-7.378 17.721 17.721 0 0 1-1.461-7.793 12.1 12.1 0 0 1 .979-3.9 29.2 29.2 0 0 0 1.626-3.533 5.416 5.416 0 0 0-2.448-6.442 17.234 17.234 0 0 0-7.283-2.337c-1.28-.167-2.587-.167-3.925-.318a7.816 7.816 0 0 1-3.86-1.333 6.671 6.671 0 0 1-2.294-3.4 14.811 14.811 0 0 1-.625-3.979c-.077-2.657.124-5.282.16-7.895a26.6 26.6 0 0 0-.807-7.714 21.789 21.789 0 0 0-3.435-6.914 23.733 23.733 0 0 0-12.711-8.549 27.833 27.833 0 0 0-7.744-1.047 16.148 16.148 0 0 0-7.554 1.856z" fill="#8e6751"/><path d="M123.122 87.839c-4.689 4.824-.436 16.613 7.042 14.907 8.035-1.833 6.826-14.355-.439-16.411a6.352 6.352 0 0 0-6.603 1.504z" fill="#fff"/><path d="M160.106 87.572a32.4 32.4 0 0 0-1.42-9.685c-3.929-12.029-18.935-15-27.971-6.366-10.077 9.629-6.22 32.653 4.394 40.74a11.909 11.909 0 0 0 10.141 2c10.427-2.799 14.922-15.632 14.856-26.689z" fill="#f8a17a"/><path d="M158.134 87.869c4.617-2.524 6.038 3.868 5.244 7.049a10.148 10.148 0 0 1-1.662 3.676c-1.1 1.456-4.24 3.871-6.049 2.278a4.044 4.044 0 0 1-.931-3.044c-.069-2.932.264-8.251 3.398-9.959z" fill="#f8a17a"/><path d="M160.129 78.383c-4.137-12.665-19.935-15.793-29.449-6.7a18.742 18.742 0 0 0-4.628 7.458 8.8 8.8 0 0 0 .734.987 14.138 14.138 0 0 0 4.92 3.338 70.737 70.737 0 0 0 16.739 4.96c.423.079.848.157 1.272.241a14.182 14.182 0 0 1 4.524 1.513c3.9 2.3 2.221 7.35 5.077 9.564a2.726 2.726 0 0 0 .78.422 42.606 42.606 0 0 0 1.527-11.583 34.1 34.1 0 0 0-1.496-10.2z" fill="#e5785c"/><path d="M150.126 87.217a14.18 14.18 0 0 1 4.225 2.215c3.481 2.89 1.021 7.61 3.486 10.252 2.185 2.34 5.5-.752 6.371-2.914 1.6-3.982 1.507-8.414 1.389-12.7a26.664 26.664 0 0 0-.839-7.108 17.478 17.478 0 0 0-4.03-6.639 25.852 25.852 0 0 0-20.343-7.931c-5.854.369-16.125 5.289-11.535 12.742a14.137 14.137 0 0 0 4.325 4.08 70.73 70.73 0 0 0 15.734 7.566c.404.142.811.287 1.217.437z" fill="#755846"/><g><path d="M163.917 86.91l-3.238-.2c.946-8.994-1.675-20.771-9.363-25.044-2.88-1.6-15.634-4.2-20.4.845-.652.733-1.089 1.347-1.089 1.347 2.657-8.894 17.084-7.773 23.718-4.784 10.069 4.537 11.326 18.271 10.372 27.836z" fill="#b8d1ce"/></g><path d="M160.072 86.051c-6.517 1.671-9.035 13.948-1.765 16.391 7.812 2.626 13.31-8.688 8.183-14.232a6.352 6.352 0 0 0-6.418-2.159z" fill="#fff"/><path d="M162.209 87.627c-4.5.723-7.27 10.28-2.633 12.91 4.982 2.827 9.657-5.684 6.726-10.586-1.144-1.912-2.645-2.557-4.093-2.324z" fill="#b8d1ce"/></g></svg>