<svg xmlns="http://www.w3.org/2000/svg" width="293.339" height="146.038" viewBox="0 0 293.339 146.038">
  <g id="Group_430" data-name="Group 430" transform="translate(-781.552 -106.206)">
    <text id="Article_Reader" data-name="Article 
Reader" transform="translate(940.891 177)" fill="#2980b9" font-size="38" font-family="Merriweather-Regular, Merriweather"><tspan x="0" y="0">Article </tspan><tspan x="0" y="47">Reader</tspan></text>
    <g id="Group_429" data-name="Group 429" transform="translate(438.74 2.265)">
      <g id="Group_348" data-name="Group 348" transform="translate(342.812 162.984)">
        <g id="Group_343" data-name="Group 343" transform="translate(0 13.576)">
          <path id="Path_715" data-name="Path 715" d="M354.678,263.827s-14.274-2.515-11.511-6.849,11.615,6.807,11.615,6.807" transform="translate(-342.812 -254.216)" fill="#55b1c6"/>
          <path id="Path_716" data-name="Path 716" d="M367.77,277.157s-12.575,7.207-13.227,2.109,13.28-2.208,13.28-2.208" transform="translate(-348.793 -264.567)" fill="#55b1c6"/>
          <path id="Path_717" data-name="Path 717" d="M381.863,289.337s-12.459,7.4-13.192,2.316,13.244-2.417,13.244-2.417" transform="translate(-356.006 -270.847)" fill="#55b1c6"/>
          <path id="Path_718" data-name="Path 718" d="M394.79,307.169s-12.47,7.387-13.2,2.3,13.247-2.4,13.247-2.4" transform="translate(-362.608 -279.951)" fill="#55b1c6"/>
          <path id="Path_719" data-name="Path 719" d="M403.989,324.068s-13.15,6.1-13.36.959,13.421-1.053,13.421-1.053" transform="translate(-367.235 -288.162)" fill="#55b1c6"/>
          <path id="Path_720" data-name="Path 720" d="M410.755,340.923s-13.437,5.433-13.391.293,13.457-.384,13.457-.384" transform="translate(-370.676 -296.535)" fill="#55b1c6"/>
          <path id="Path_721" data-name="Path 721" d="M416.784,359.262s-13.437,5.433-13.391.293,13.457-.384,13.457-.384" transform="translate(-373.756 -305.902)" fill="#55b1c6"/>
          <path id="Path_722" data-name="Path 722" d="M375.251,264.942s-9.865-10.619-5.045-12.408,5.154,12.437,5.154,12.437" transform="translate(-356.127 -252.379)" fill="#55b1c6"/>
          <path id="Path_723" data-name="Path 723" d="M391.568,276.905s-7.205-12.576-2.106-13.228,2.205,13.281,2.205,13.281" transform="translate(-365.708 -258.139)" fill="#55b1c6"/>
          <path id="Path_724" data-name="Path 724" d="M407.184,294.472s-4-13.931,1.109-13.348-1.025,13.423-1.025,13.423" transform="translate(-374.931 -267.052)" fill="#55b1c6"/>
          <path id="Path_725" data-name="Path 725" d="M417.809,312.615s-1.886-14.371,3.078-13.036S417.88,312.7,417.88,312.7" transform="translate(-380.94 -276.443)" fill="#55b1c6"/>
          <path id="Path_726" data-name="Path 726" d="M424.416,331.048s3.1-14.158,7.32-11.217-7.282,11.323-7.282,11.323" transform="translate(-384.494 -286.627)" fill="#55b1c6"/>
          <path id="Path_727" data-name="Path 727" d="M431.257,349.33s3.1-14.158,7.32-11.217-7.282,11.323-7.282,11.323" transform="translate(-387.988 -295.965)" fill="#55b1c6"/>
          <g id="Group_342" data-name="Group 342" transform="translate(10.533 8.565)">
            <path id="Path_728" data-name="Path 728" d="M398.608,321.461a.478.478,0,0,1-.5-.363c-6.1-24.94-14.854-37.282-21.123-43.244-6.764-6.433-12.157-7.009-12.211-7.013a.478.478,0,0,1,.087-.952c.23.021,5.709.582,12.7,7.194,6.389,6.041,15.3,18.543,21.477,43.789a.477.477,0,0,1-.351.577A.422.422,0,0,1,398.608,321.461Z" transform="translate(-364.343 -269.886)" fill="#55b1c6"/>
          </g>
        </g>
        <g id="Group_345" data-name="Group 345" transform="translate(1.806 34.725)">
          <path id="Path_729" data-name="Path 729" d="M388.118,341.842a34.607,34.607,0,0,1,8.808,4.268,15.075,15.075,0,0,0,2.409,1.325,3.083,3.083,0,0,0,2.748.187c1.247-.756.932-2.652.274-3.952-2.859-5.663-8.767-8.844-12.131-14.13-.518-.814-1.006-1.668-1.489-2.539l-3.675-.762,2.8-.817c-1.922-3.478-3.978-6.937-7.631-8.721l-1.067,2.708s.116-1.647.243-3.089c-2.5-1.117-5.19-2.062-7.072-4.069a17.908,17.908,0,0,1-2.919-5.178l-3.378.447s1.309-1.364,2.3-2.628c-.108-.187-.223-.373-.341-.555-1.855-2.832-4.776-4.487-7.795-5.82a44.961,44.961,0,0,0-5.2-2c-.275.643-.513,1.186-.513,1.186l-.808-1.547a19.043,19.043,0,0,0-2.978-.486c-.7-.056-3.162-.217-3.615.483-1.3,2.026-.231,4.787,1.407,6.553,1.551,1.672,3.3,2.951,4.678,4.656l1.621-.495-.645,1.9c.091.151.177.306.26.466,1.907,3.672,2.325,8.689,4.141,12.384,1.317-1.483,2.69-2.826,2.69-2.826l-.869,5.465a8.283,8.283,0,0,0,5.943,2.327c.883.028,1.751.007,2.608.025l-.227-1.679,1.3,1.736a8.17,8.17,0,0,1,3.214.863c3.1,1.626,4.752,4.887,6.679,7.829,1,.154,1.875.292,1.875.292l-.791,1.268a14.432,14.432,0,0,0,1.739,1.957A14.13,14.13,0,0,0,388.118,341.842Z" transform="translate(-346.505 -295.61)" fill="#80dcbe"/>
          <g id="Group_344" data-name="Group 344" transform="translate(5.684 4.545)">
            <path id="Path_730" data-name="Path 730" d="M400.964,344.755c-7.186-4.433-9.463-8.132-11.472-11.4a21.088,21.088,0,0,0-3.226-4.352,27.57,27.57,0,0,0-6.085-3.912c-3.854-2.056-7.839-4.182-9.258-7.889-2.419-6.321-12.334-12.256-12.43-12.306l-.367.711.184-.355-.185.355c.094.05,9.714,5.773,12.051,11.882,1.526,3.985,5.645,6.183,9.628,8.308a27.062,27.062,0,0,1,5.906,3.782,20.157,20.157,0,0,1,3.1,4.2c1.953,3.175,4.385,7.126,11.732,11.658Z" transform="translate(-358.124 -304.9)" fill="#55b1c6"/>
          </g>
        </g>
        <g id="Group_347" data-name="Group 347" transform="translate(21.273)">
          <path id="Path_731" data-name="Path 731" d="M407.635,282.951a34.623,34.623,0,0,1,6.4,7.409,15.1,15.1,0,0,0,1.687,2.172,3.084,3.084,0,0,0,2.449,1.26c1.445-.2,1.906-2.066,1.818-3.519-.381-6.332-4.545-11.594-5.539-17.781-.153-.952-.262-1.929-.361-2.92l-3.072-2.156,2.9.36c-.386-3.954-.9-7.945-3.55-11.031l-2.053,2.064s.76-1.466,1.448-2.74c-1.855-2.018-3.947-3.95-4.88-6.538a17.918,17.918,0,0,1-.628-5.911l-3.279-.928s1.742-.734,3.149-1.5c-.025-.215-.057-.431-.093-.645-.581-3.336-2.607-6.012-4.85-8.433a45.076,45.076,0,0,0-3.982-3.9c-.507.481-.941.886-.941.886l-.129-1.742a19.051,19.051,0,0,0-2.542-1.627c-.618-.327-2.817-1.452-3.511-.988-2,1.342-2.109,4.3-1.305,6.574.762,2.15,1.857,4.016,2.451,6.129l1.684.188-1.344,1.485c.024.175.041.351.054.531.3,4.127-1.308,8.9-1.105,13.011,1.8-.84,3.59-1.529,3.59-1.529L389.13,255.8a8.284,8.284,0,0,0,4.534,4.492c.8.375,1.605.7,2.384,1.056l.457-1.632.507,2.109a8.174,8.174,0,0,1,2.609,2.066c2.2,2.721,2.426,6.37,3.029,9.834.856.538,1.606,1.012,1.606,1.012l-1.228.851a14.425,14.425,0,0,0,.821,2.486A14.13,14.13,0,0,0,407.635,282.951Z" transform="translate(-386.297 -224.629)" fill="#70c3e0"/>
          <g id="Group_346" data-name="Group 346" transform="translate(4.589 5.956)">
            <path id="Path_732" data-name="Path 732" d="M419.5,290.226c-4.841-6.918-5.465-11.216-6.016-15.009a21.1,21.1,0,0,0-1.238-5.274,27.571,27.571,0,0,0-4.037-6c-2.723-3.415-5.539-6.946-5.374-10.912.283-6.762-6.467-16.14-6.535-16.224l-.619.507.31-.253-.311.252c.067.084,6.63,9.15,6.357,15.684-.179,4.264,2.732,7.914,5.547,11.444a27.051,27.051,0,0,1,3.924,5.812,20.155,20.155,0,0,1,1.184,5.082c.536,3.689,1.2,8.28,6.153,15.353Z" transform="translate(-395.677 -236.803)" fill="#55b1c6"/>
          </g>
        </g>
      </g>
      <g id="Group_410" data-name="Group 410" transform="translate(387.023 103.941)">
        <g id="Group_356" data-name="Group 356">
          <g id="Group_355" data-name="Group 355">
            <g id="Group_354" data-name="Group 354">
              <g id="Group_353" data-name="Group 353">
                <g id="Group_352" data-name="Group 352">
                  <g id="Group_351" data-name="Group 351">
                    <g id="Group_350" data-name="Group 350">
                      <g id="Group_349" data-name="Group 349">
                        <path id="Path_733" data-name="Path 733" d="M433.181,112.848V233.24a8.909,8.909,0,0,0,8.912,8.907h52.759a8.909,8.909,0,0,0,8.912-8.907V112.848a8.908,8.908,0,0,0-8.912-8.907H442.093A8.908,8.908,0,0,0,433.181,112.848Z" transform="translate(-433.181 -103.941)" fill="#1e282d"/>
                        <path id="Path_734" data-name="Path 734" d="M433.181,112.417V226.983a8.7,8.7,0,0,0,8.912,8.476h52.759a8.7,8.7,0,0,0,8.912-8.476V112.417a8.7,8.7,0,0,0-8.912-8.476H442.093A8.7,8.7,0,0,0,433.181,112.417Z" transform="translate(-433.181 -103.941)" fill="#263138"/>
                        <path id="Path_735" data-name="Path 735" d="M447.854,112.739h50.567a5.544,5.544,0,0,1,5.544,5.544V225a5.544,5.544,0,0,1-5.544,5.544H447.85a5.539,5.539,0,0,1-5.54-5.539V118.283a5.544,5.544,0,0,1,5.544-5.544Z" transform="translate(-437.844 -108.435)" fill="#edf6f9"/>
                      </g>
                    </g>
                  </g>
                </g>
              </g>
            </g>
          </g>
        </g>
        <g id="Group_376" data-name="Group 376" transform="translate(4.333 17.83)">
          <circle id="Ellipse_24" data-name="Ellipse 24" cx="25.773" cy="25.773" r="25.773" transform="translate(0 50.196) rotate(-76.858)" fill="#cce2ed"/>
          <g id="Group_358" data-name="Group 358" transform="translate(4.311 4.311)">
            <g id="Group_357" data-name="Group 357" transform="translate(0 0)">
              <circle id="Ellipse_25" data-name="Ellipse 25" cx="22.087" cy="22.087" r="22.087" transform="translate(0 42.944) rotate(-76.451)" fill="#6dc4e2"/>
            </g>
          </g>
          <g id="Group_360" data-name="Group 360" transform="translate(8.536 8.536)">
            <g id="Group_359" data-name="Group 359" transform="translate(0 0)">
              <circle id="Ellipse_26" data-name="Ellipse 26" cx="18.679" cy="18.679" r="18.679" transform="translate(0 36.389) rotate(-76.92)" fill="#be5f67"/>
            </g>
          </g>
          <g id="Group_375" data-name="Group 375" transform="translate(24.107 17.178)">
            <g id="Group_371" data-name="Group 371" transform="translate(2.092)">
              <path id="Path_736" data-name="Path 736" d="M504.946,179.822l-.006,9.145a4.324,4.324,0,1,1-8.647,0l.006-9.145a4.324,4.324,0,1,1,8.647,0Z" transform="translate(-495.949 -175.5)" fill="#cce2ed"/>
              <path id="Path_737" data-name="Path 737" d="M495.937,194.32a.335.335,0,0,0-.343.343l0,3.918a4.668,4.668,0,0,0,9.3.582,4.72,4.72,0,0,0,.036-.584l0-3.919a.342.342,0,0,0-.343-.343Z" transform="translate(-495.59 -185.111)" fill="#fff"/>
              <g id="Group_370" data-name="Group 370" transform="translate(1.26 0.567)">
                <g id="Group_369" data-name="Group 369">
                  <g id="Group_361" data-name="Group 361" transform="translate(1.861)">
                    <path id="Path_738" data-name="Path 738" d="M504.915,176.965a.155.155,0,0,1-.155-.153.151.151,0,0,1,.151-.153h0a.153.153,0,1,1,0,.306Zm-.93,0a.154.154,0,0,1-.155-.153.151.151,0,0,1,.151-.153h0a.153.153,0,1,1,0,.306Zm-.931,0a.154.154,0,0,1-.155-.153.151.151,0,0,1,.151-.153h0a.153.153,0,1,1,0,.306Zm-.93,0a.155.155,0,0,1-.156-.153.151.151,0,0,1,.151-.153h0a.153.153,0,1,1,0,.306Z" transform="translate(-501.969 -176.659)" fill="#b8d3dd"/>
                  </g>
                  <g id="Group_362" data-name="Group 362" transform="translate(0.931 1.12)">
                    <path id="Path_739" data-name="Path 739" d="M504.875,179.254a.155.155,0,0,1-.155-.153.151.151,0,0,1,.151-.153h0a.153.153,0,1,1,0,.306Zm-.93,0a.155.155,0,0,1-.155-.153.151.151,0,0,1,.151-.153h0a.153.153,0,1,1,0,.306Zm-.93,0a.155.155,0,0,1-.155-.153.151.151,0,0,1,.151-.153h0a.153.153,0,1,1,0,.306Zm-.93,0a.155.155,0,0,1-.155-.153.151.151,0,0,1,.151-.153h0a.153.153,0,1,1,0,.306Zm-.93,0A.155.155,0,0,1,501,179.1a.151.151,0,0,1,.151-.153h0a.153.153,0,1,1,0,.306Zm-.93,0a.155.155,0,0,1-.156-.153.151.151,0,0,1,.151-.153h0a.153.153,0,0,1,0,.306Z" transform="translate(-500.068 -178.948)" fill="#b8d3dd"/>
                  </g>
                  <g id="Group_363" data-name="Group 363" transform="translate(0 2.24)">
                    <path id="Path_740" data-name="Path 740" d="M504.834,181.543a.155.155,0,0,1-.156-.153.151.151,0,0,1,.151-.153h0a.153.153,0,0,1,0,.306Zm-.93,0a.155.155,0,0,1-.155-.153.151.151,0,0,1,.151-.153h0a.153.153,0,1,1,0,.306Zm-.931,0a.155.155,0,0,1-.155-.153.151.151,0,0,1,.151-.153h0a.153.153,0,1,1,0,.306Zm-.93,0a.155.155,0,0,1-.155-.153.151.151,0,0,1,.151-.153h0a.153.153,0,1,1,0,.306Zm-.93,0a.155.155,0,0,1-.155-.153.151.151,0,0,1,.151-.153h0a.153.153,0,1,1,0,.306Zm-.93,0a.155.155,0,0,1-.156-.153.151.151,0,0,1,.151-.153h0a.153.153,0,1,1,0,.306Zm-.93,0a.155.155,0,0,1-.156-.153.151.151,0,0,1,.151-.153h0a.153.153,0,0,1,0,.306Zm-.93,0a.155.155,0,0,1-.156-.153.151.151,0,0,1,.151-.153h0a.153.153,0,0,1,0,.306Z" transform="translate(-498.166 -181.237)" fill="#b8d3dd"/>
                  </g>
                  <g id="Group_364" data-name="Group 364" transform="translate(0 3.359)">
                    <path id="Path_741" data-name="Path 741" d="M504.834,183.831a.155.155,0,0,1-.156-.153.151.151,0,0,1,.151-.153h0a.153.153,0,0,1,0,.306Zm-.93,0a.155.155,0,0,1-.155-.153.151.151,0,0,1,.151-.153h0a.153.153,0,0,1,0,.306Zm-.931,0a.155.155,0,0,1-.155-.153.151.151,0,0,1,.151-.153h0a.153.153,0,1,1,0,.306Zm-.93,0a.155.155,0,0,1-.155-.153.151.151,0,0,1,.151-.153h0a.153.153,0,1,1,0,.306Zm-.93,0a.155.155,0,0,1-.155-.153.151.151,0,0,1,.151-.153h0a.153.153,0,0,1,0,.306Zm-.93,0a.155.155,0,0,1-.156-.153.151.151,0,0,1,.151-.153h0a.153.153,0,1,1,0,.306Zm-.93,0a.155.155,0,0,1-.156-.153.151.151,0,0,1,.151-.153h0a.153.153,0,0,1,0,.306Zm-.93,0a.155.155,0,0,1-.156-.153.151.151,0,0,1,.151-.153h0a.153.153,0,0,1,0,.306Z" transform="translate(-498.166 -183.525)" fill="#b8d3dd"/>
                  </g>
                  <g id="Group_365" data-name="Group 365" transform="translate(0 4.479)">
                    <path id="Path_742" data-name="Path 742" d="M504.834,186.12a.155.155,0,0,1-.156-.153.151.151,0,0,1,.151-.153h0a.153.153,0,0,1,0,.306Zm-.93,0a.155.155,0,0,1-.155-.153.151.151,0,0,1,.151-.153h0a.153.153,0,0,1,0,.306Zm-.931,0a.155.155,0,0,1-.155-.153.151.151,0,0,1,.151-.153h0a.153.153,0,1,1,0,.306Zm-.93,0a.155.155,0,0,1-.155-.153.151.151,0,0,1,.151-.153h0a.153.153,0,1,1,0,.306Zm-.93,0a.155.155,0,0,1-.155-.153.151.151,0,0,1,.151-.153h0a.153.153,0,0,1,0,.306Zm-.93,0a.155.155,0,0,1-.156-.153.151.151,0,0,1,.151-.153h0a.153.153,0,1,1,0,.306Zm-.93,0a.155.155,0,0,1-.156-.153.151.151,0,0,1,.151-.153h0a.153.153,0,0,1,0,.306Zm-.93,0a.155.155,0,0,1-.156-.153.151.151,0,0,1,.151-.153h0a.153.153,0,0,1,0,.306Z" transform="translate(-498.166 -185.814)" fill="#b8d3dd"/>
                  </g>
                  <g id="Group_366" data-name="Group 366" transform="translate(0 5.599)">
                    <path id="Path_743" data-name="Path 743" d="M504.834,188.409a.155.155,0,0,1-.156-.153.151.151,0,0,1,.151-.153h0a.153.153,0,0,1,0,.306Zm-.93,0a.155.155,0,0,1-.155-.153.151.151,0,0,1,.151-.153h0a.153.153,0,0,1,0,.306Zm-.931,0a.155.155,0,0,1-.155-.153.151.151,0,0,1,.151-.153h0a.153.153,0,1,1,0,.306Zm-.93,0a.155.155,0,0,1-.155-.153.151.151,0,0,1,.151-.153h0a.153.153,0,1,1,0,.306Zm-.93,0a.155.155,0,0,1-.155-.153.151.151,0,0,1,.151-.153h0a.153.153,0,0,1,0,.306Zm-.93,0a.155.155,0,0,1-.156-.153.151.151,0,0,1,.151-.153h0a.153.153,0,1,1,0,.306Zm-.93,0a.155.155,0,0,1-.156-.153.151.151,0,0,1,.151-.153h0a.153.153,0,0,1,0,.306Zm-.93,0a.155.155,0,0,1-.156-.153.151.151,0,0,1,.151-.153h0a.153.153,0,0,1,0,.306Z" transform="translate(-498.166 -188.103)" fill="#b8d3dd"/>
                  </g>
                  <g id="Group_367" data-name="Group 367" transform="translate(0 6.718)">
                    <path id="Path_744" data-name="Path 744" d="M504.834,190.7a.155.155,0,0,1-.156-.153.151.151,0,0,1,.151-.153h0a.153.153,0,0,1,0,.306Zm-.93,0a.155.155,0,0,1-.155-.153.151.151,0,0,1,.151-.153h0a.153.153,0,1,1,0,.306Zm-.931,0a.155.155,0,0,1-.155-.153.151.151,0,0,1,.151-.153h0a.153.153,0,1,1,0,.306Zm-.93,0a.155.155,0,0,1-.155-.153.151.151,0,0,1,.151-.153h0a.153.153,0,1,1,0,.306Zm-.93,0a.155.155,0,0,1-.155-.153.151.151,0,0,1,.151-.153h0a.153.153,0,1,1,0,.306Zm-.93,0a.155.155,0,0,1-.156-.153.151.151,0,0,1,.151-.153h0a.153.153,0,1,1,0,.306Zm-.93,0a.155.155,0,0,1-.156-.153.151.151,0,0,1,.151-.153h0a.153.153,0,0,1,0,.306Zm-.93,0a.155.155,0,0,1-.156-.153.151.151,0,0,1,.151-.153h0a.153.153,0,0,1,0,.306Z" transform="translate(-498.166 -190.392)" fill="#b8d3dd"/>
                  </g>
                  <g id="Group_368" data-name="Group 368" transform="translate(0 7.838)">
                    <path id="Path_745" data-name="Path 745" d="M504.834,192.987a.155.155,0,0,1-.156-.153.151.151,0,0,1,.151-.153h0a.153.153,0,0,1,0,.306Zm-.93,0a.155.155,0,0,1-.155-.153.151.151,0,0,1,.151-.153h0a.153.153,0,1,1,0,.306Zm-.931,0a.155.155,0,0,1-.155-.153.151.151,0,0,1,.151-.153h0a.153.153,0,1,1,0,.306Zm-.93,0a.155.155,0,0,1-.155-.153.151.151,0,0,1,.151-.153h0a.153.153,0,1,1,0,.306Zm-.93,0a.155.155,0,0,1-.155-.153.151.151,0,0,1,.151-.153h0a.153.153,0,1,1,0,.306Zm-.93,0a.155.155,0,0,1-.156-.153.151.151,0,0,1,.151-.153h0a.153.153,0,1,1,0,.306Zm-.93,0a.155.155,0,0,1-.156-.153.151.151,0,0,1,.151-.153h0a.153.153,0,0,1,0,.306Zm-.93,0a.155.155,0,0,1-.156-.153.151.151,0,0,1,.151-.153h0a.153.153,0,0,1,0,.306Z" transform="translate(-498.166 -192.681)" fill="#b8d3dd"/>
                  </g>
                </g>
              </g>
            </g>
            <g id="Group_372" data-name="Group 372" transform="translate(0 9.03)">
              <path id="Path_746" data-name="Path 746" d="M498.165,205.341a6.843,6.843,0,0,1-6.851-6.844l0-3.955a.586.586,0,0,1,.586-.585h0a.585.585,0,0,1,.585.586l0,3.954a5.677,5.677,0,0,0,11.31.709,5.318,5.318,0,0,0,.046-.714l0-3.951a.585.585,0,0,1,.586-.585h0a.585.585,0,0,1,.585.586l0,3.95a6.491,6.491,0,0,1-.056.863,6.84,6.84,0,0,1-6.791,5.985Z" transform="translate(-491.314 -193.957)" fill="#fff"/>
            </g>
            <g id="Group_373" data-name="Group 373" transform="translate(6.233 17.594)">
              <path id="Path_747" data-name="Path 747" d="M504.674,220.93a.619.619,0,0,1-.619-.619v-8.23a.619.619,0,1,1,1.237,0v8.23A.619.619,0,0,1,504.674,220.93Z" transform="translate(-504.055 -211.463)" fill="#fff"/>
            </g>
            <g id="Group_374" data-name="Group 374" transform="translate(2.625 25.102)">
              <path id="Rectangle_244" data-name="Rectangle 244" d="M2.4,0H6.054a2.4,2.4,0,0,1,2.4,2.4v.058a0,0,0,0,1,0,0H0a0,0,0,0,1,0,0V2.4A2.4,2.4,0,0,1,2.4,0Z" fill="#fff"/>
            </g>
          </g>
        </g>
        <g id="Group_409" data-name="Group 409" transform="translate(9.24 86.157)">
          <g id="Group_377" data-name="Group 377" transform="translate(51.613 9.709)">
            <path id="Path_748" data-name="Path 748" d="M557.813,301.792a.245.245,0,0,1-.245-.245v-1.406a.245.245,0,1,1,.489,0v1.406A.244.244,0,0,1,557.813,301.792Z" transform="translate(-557.568 -299.897)" fill="#46a5ce"/>
          </g>
          <g id="Group_378" data-name="Group 378" transform="translate(49.948 8.847)">
            <path id="Path_749" data-name="Path 749" d="M554.41,301.754a.244.244,0,0,1-.245-.245v-3.13a.245.245,0,0,1,.489,0v3.13A.244.244,0,0,1,554.41,301.754Z" transform="translate(-554.165 -298.135)" fill="#46a5ce"/>
          </g>
          <g id="Group_379" data-name="Group 379" transform="translate(48.283 6.686)">
            <path id="Path_750" data-name="Path 750" d="M551.007,301.658a.244.244,0,0,1-.245-.245v-7.452a.245.245,0,1,1,.489,0v7.452A.244.244,0,0,1,551.007,301.658Z" transform="translate(-550.762 -293.717)" fill="#46a5ce"/>
          </g>
          <g id="Group_380" data-name="Group 380" transform="translate(46.618 7.473)">
            <path id="Path_751" data-name="Path 751" d="M547.6,301.693a.245.245,0,0,1-.245-.245v-5.877a.245.245,0,1,1,.489,0v5.877A.244.244,0,0,1,547.6,301.693Z" transform="translate(-547.358 -295.327)" fill="#46a5ce"/>
          </g>
          <g id="Group_381" data-name="Group 381" transform="translate(44.953 5.6)">
            <path id="Path_752" data-name="Path 752" d="M544.2,301.611a.244.244,0,0,1-.245-.245v-9.624a.245.245,0,1,1,.489,0v9.624A.245.245,0,0,1,544.2,301.611Z" transform="translate(-543.956 -291.497)" fill="#46a5ce"/>
          </g>
          <g id="Group_382" data-name="Group 382" transform="translate(43.288 2.406)">
            <path id="Path_753" data-name="Path 753" d="M540.8,301.47a.244.244,0,0,1-.245-.245V285.214a.245.245,0,0,1,.489,0v16.012A.244.244,0,0,1,540.8,301.47Z" transform="translate(-540.552 -284.969)" fill="#46a5ce"/>
          </g>
          <g id="Group_383" data-name="Group 383" transform="translate(41.623 7.346)">
            <path id="Path_754" data-name="Path 754" d="M537.394,301.688a.245.245,0,0,1-.245-.245v-6.132a.245.245,0,0,1,.489,0v6.132A.245.245,0,0,1,537.394,301.688Z" transform="translate(-537.149 -295.066)" fill="#46a5ce"/>
          </g>
          <g id="Group_384" data-name="Group 384" transform="translate(39.959 8.666)">
            <path id="Path_755" data-name="Path 755" d="M533.991,301.746a.244.244,0,0,1-.245-.245V298.01a.245.245,0,1,1,.489,0V301.5A.244.244,0,0,1,533.991,301.746Z" transform="translate(-533.746 -297.765)" fill="#46a5ce"/>
          </g>
          <g id="Group_385" data-name="Group 385" transform="translate(38.293 9.773)">
            <path id="Path_756" data-name="Path 756" d="M530.587,301.794a.245.245,0,0,1-.245-.245v-1.278a.245.245,0,1,1,.489,0v1.278A.244.244,0,0,1,530.587,301.794Z" transform="translate(-530.342 -300.027)" fill="#46a5ce"/>
          </g>
          <g id="Group_386" data-name="Group 386" transform="translate(36.628 8.282)">
            <path id="Path_757" data-name="Path 757" d="M527.184,301.728a.244.244,0,0,1-.245-.245v-4.258a.245.245,0,1,1,.489,0v4.258A.244.244,0,0,1,527.184,301.728Z" transform="translate(-526.939 -296.981)" fill="#46a5ce"/>
          </g>
          <g id="Group_387" data-name="Group 387" transform="translate(34.964 6.494)">
            <path id="Path_758" data-name="Path 758" d="M523.781,301.65a.245.245,0,0,1-.245-.245V293.57a.245.245,0,0,1,.489,0v7.836A.245.245,0,0,1,523.781,301.65Z" transform="translate(-523.536 -293.325)" fill="#46a5ce"/>
          </g>
          <g id="Group_388" data-name="Group 388" transform="translate(33.299 3.939)">
            <path id="Path_759" data-name="Path 759" d="M520.378,301.538a.244.244,0,0,1-.245-.245V288.348a.245.245,0,0,1,.489,0v12.946A.245.245,0,0,1,520.378,301.538Z" transform="translate(-520.133 -288.103)" fill="#46a5ce"/>
          </g>
          <g id="Group_389" data-name="Group 389" transform="translate(31.633 5.94)">
            <path id="Path_760" data-name="Path 760" d="M516.974,301.626a.245.245,0,0,1-.245-.245v-8.943a.245.245,0,1,1,.489,0v8.943A.244.244,0,0,1,516.974,301.626Z" transform="translate(-516.729 -292.193)" fill="#46a5ce"/>
          </g>
          <g id="Group_390" data-name="Group 390" transform="translate(29.969 8.959)">
            <path id="Path_761" data-name="Path 761" d="M513.571,301.759a.245.245,0,0,1-.245-.245v-2.906a.245.245,0,1,1,.489,0v2.906A.245.245,0,0,1,513.571,301.759Z" transform="translate(-513.326 -298.363)" fill="#46a5ce"/>
          </g>
          <g id="Group_391" data-name="Group 391" transform="translate(28.304 5.557)">
            <path id="Path_762" data-name="Path 762" d="M510.168,301.609a.245.245,0,0,1-.245-.245v-9.71a.245.245,0,1,1,.489,0v9.71A.244.244,0,0,1,510.168,301.609Z" transform="translate(-509.923 -291.41)" fill="#46a5ce"/>
          </g>
          <g id="Group_392" data-name="Group 392" transform="translate(26.639 3.449)">
            <path id="Path_763" data-name="Path 763" d="M506.765,301.516a.244.244,0,0,1-.245-.245V287.347a.245.245,0,1,1,.489,0v13.925A.244.244,0,0,1,506.765,301.516Z" transform="translate(-506.52 -287.102)" fill="#46a5ce"/>
          </g>
          <g id="Group_393" data-name="Group 393" transform="translate(24.974)">
            <path id="Path_764" data-name="Path 764" d="M503.362,301.364a.244.244,0,0,1-.245-.245V280.3a.245.245,0,0,1,.489,0v20.824A.244.244,0,0,1,503.362,301.364Z" transform="translate(-503.117 -280.051)" fill="#46a5ce"/>
          </g>
          <g id="Group_394" data-name="Group 394" transform="translate(23.309 3.705)">
            <path id="Path_765" data-name="Path 765" d="M499.958,301.527a.245.245,0,0,1-.245-.245V287.869a.245.245,0,1,1,.489,0v13.414A.244.244,0,0,1,499.958,301.527Z" transform="translate(-499.713 -287.624)" fill="#46a5ce"/>
          </g>
          <g id="Group_395" data-name="Group 395" transform="translate(21.644 6.004)">
            <path id="Path_766" data-name="Path 766" d="M496.555,301.628a.245.245,0,0,1-.245-.245v-8.815a.245.245,0,1,1,.489,0v8.815A.245.245,0,0,1,496.555,301.628Z" transform="translate(-496.31 -292.324)" fill="#46a5ce"/>
          </g>
          <g id="Group_396" data-name="Group 396" transform="translate(19.979 8.559)">
            <path id="Path_767" data-name="Path 767" d="M493.152,301.741a.244.244,0,0,1-.245-.245v-3.7a.245.245,0,1,1,.489,0v3.7A.244.244,0,0,1,493.152,301.741Z" transform="translate(-492.907 -297.547)" fill="#46a5ce"/>
          </g>
          <g id="Group_397" data-name="Group 397" transform="translate(18.314 7.665)">
            <path id="Path_768" data-name="Path 768" d="M489.749,301.7a.244.244,0,0,1-.245-.245v-5.493a.245.245,0,1,1,.489,0v5.493A.244.244,0,0,1,489.749,301.7Z" transform="translate(-489.504 -295.719)" fill="#46a5ce"/>
          </g>
          <g id="Group_398" data-name="Group 398" transform="translate(16.65 8.538)">
            <path id="Path_769" data-name="Path 769" d="M486.346,301.74a.244.244,0,0,1-.245-.245v-3.747a.245.245,0,0,1,.489,0V301.5A.244.244,0,0,1,486.346,301.74Z" transform="translate(-486.101 -297.503)" fill="#46a5ce"/>
          </g>
          <g id="Group_399" data-name="Group 399" transform="translate(14.984 4.471)">
            <path id="Path_770" data-name="Path 770" d="M482.942,301.561a.245.245,0,0,1-.245-.245V289.435a.245.245,0,1,1,.489,0v11.882A.244.244,0,0,1,482.942,301.561Z" transform="translate(-482.697 -289.19)" fill="#46a5ce"/>
          </g>
          <g id="Group_400" data-name="Group 400" transform="translate(13.32 6.579)">
            <path id="Path_771" data-name="Path 771" d="M479.539,301.654a.245.245,0,0,1-.245-.245v-7.666a.245.245,0,1,1,.489,0v7.666A.245.245,0,0,1,479.539,301.654Z" transform="translate(-479.294 -293.499)" fill="#46a5ce"/>
          </g>
          <g id="Group_401" data-name="Group 401" transform="translate(11.655 3.002)">
            <path id="Path_772" data-name="Path 772" d="M476.136,301.5a.244.244,0,0,1-.245-.245V286.433a.245.245,0,0,1,.489,0v14.819A.244.244,0,0,1,476.136,301.5Z" transform="translate(-475.891 -286.188)" fill="#46a5ce"/>
          </g>
          <g id="Group_402" data-name="Group 402" transform="translate(9.99 1.788)">
            <path id="Path_773" data-name="Path 773" d="M472.733,301.442a.244.244,0,0,1-.245-.245V283.951a.245.245,0,0,1,.489,0V301.2A.245.245,0,0,1,472.733,301.442Z" transform="translate(-472.488 -283.706)" fill="#46a5ce"/>
          </g>
          <g id="Group_403" data-name="Group 403" transform="translate(8.325 4.28)">
            <path id="Path_774" data-name="Path 774" d="M469.329,301.552a.244.244,0,0,1-.245-.245V289.044a.245.245,0,1,1,.489,0v12.264A.244.244,0,0,1,469.329,301.552Z" transform="translate(-469.084 -288.799)" fill="#46a5ce"/>
          </g>
          <g id="Group_404" data-name="Group 404" transform="translate(6.66 3.992)">
            <path id="Path_775" data-name="Path 775" d="M465.926,301.539a.245.245,0,0,1-.245-.245V288.456a.245.245,0,0,1,.489,0v12.839A.245.245,0,0,1,465.926,301.539Z" transform="translate(-465.681 -288.211)" fill="#46a5ce"/>
          </g>
          <g id="Group_405" data-name="Group 405" transform="translate(4.995 7.122)">
            <path id="Path_776" data-name="Path 776" d="M462.523,301.678a.244.244,0,0,1-.245-.245v-6.579a.245.245,0,1,1,.489,0v6.579A.245.245,0,0,1,462.523,301.678Z" transform="translate(-462.278 -294.609)" fill="#46a5ce"/>
          </g>
          <g id="Group_406" data-name="Group 406" transform="translate(3.33 8.432)">
            <path id="Path_777" data-name="Path 777" d="M459.119,301.735a.245.245,0,0,1-.245-.245v-3.96a.245.245,0,1,1,.489,0v3.96A.244.244,0,0,1,459.119,301.735Z" transform="translate(-458.874 -297.286)" fill="#46a5ce"/>
          </g>
          <g id="Group_407" data-name="Group 407" transform="translate(1.665 8.655)">
            <path id="Path_778" data-name="Path 778" d="M455.717,301.745a.244.244,0,0,1-.245-.245v-3.513a.245.245,0,0,1,.489,0V301.5A.245.245,0,0,1,455.717,301.745Z" transform="translate(-455.472 -297.743)" fill="#46a5ce"/>
          </g>
          <g id="Group_408" data-name="Group 408" transform="translate(0 9.581)">
            <path id="Path_779" data-name="Path 779" d="M452.313,301.786a.244.244,0,0,1-.245-.245v-1.66a.245.245,0,0,1,.489,0v1.66A.244.244,0,0,1,452.313,301.786Z" transform="translate(-452.068 -299.636)" fill="#46a5ce"/>
          </g>
        </g>
      </g>
      <g id="Group_417" data-name="Group 417" transform="translate(346.114 145.227)">
        <path id="Path_780" data-name="Path 780" d="M383.689,254.3l14.088-.586.617-24.1-1.306-5.541-6.174-2.9-4.191.8a4.916,4.916,0,0,0-3.992,5l1.528,17.058Z" transform="translate(-366.502 -205.106)" fill="#e6d5b9"/>
        <path id="Path_781" data-name="Path 781" d="M396.25,215.1v4.843a7.194,7.194,0,0,0,3.418.612c1.291,0,1.581-.612,1.581-.612v-1.79Z" transform="translate(-373.409 -202.006)" fill="#e6d5b9"/>
        <path id="Path_782" data-name="Path 782" d="M395.082,200.272c.011.175.017.34.028.5,0,.057-.006.113-.006.175-.119,2.875,1.726,5.954,4.5,6.373,0,0,.022.005.062.011.023,0,.057.006.1.006.594.073,2.745.249,3.531-.617a7.314,7.314,0,0,0,1.743-4.161,16.356,16.356,0,0,0-.232-2.093c0-.4.216-1.659.22-2.2a4.82,4.82,0,0,0-4.775-5.111C395.654,193.147,394.952,197.182,395.082,200.272Z" transform="translate(-372.805 -190.792)" fill="#e6d5b9"/>
        <path id="Path_783" data-name="Path 783" d="M406.464,224.666" transform="translate(-378.626 -206.891)" fill="#6ebaad"/>
        <g id="Group_412" data-name="Group 412" transform="translate(11.019 18.289)">
          <path id="Path_784" data-name="Path 784" d="M372.572,245.09c1.511.628,5.974-7.809,7.6-11.53s2.246-6.944.4-7.712-3.695,1.943-5.186,5.722S371.061,244.461,372.572,245.09Z" transform="translate(-372.113 -225.718)" fill="#e6d5b9"/>
          <path id="Path_785" data-name="Path 785" d="M377.632,254.075s-1.513,3.643-1.513,3.784,1.742,4.752,1.742,4.752l-4.717-5.28Z" transform="translate(-372.625 -240.202)" fill="#e6d5b9"/>
          <g id="Group_411" data-name="Group 411" transform="translate(0 16.771)">
            <path id="Path_786" data-name="Path 786" d="M381.071,278.181c1.319-.6-2.767-10.476-4.022-13.217s-2.784-5.541-4.263-4.863-.356,3.663.9,6.4S379.752,278.786,381.071,278.181Z" transform="translate(-372.084 -259.998)" fill="#e6d5b9"/>
            <path id="Path_787" data-name="Path 787" d="M387.443,291.787c-1.607.6-.232,3.311.27,4.22.818,1.48,3.106,2.213,3.685,1.9s-1.526-3.521-1.455-3.7,1.032,1.647,1.546,1.3-.762-2.516-1.6-3.18A2.189,2.189,0,0,0,387.443,291.787Z" transform="translate(-379.542 -276.146)" fill="#e6d5b9"/>
          </g>
        </g>
        <path id="Path_788" data-name="Path 788" d="M382.362,234l-.732,1.008-3.188,4.4-.022.034-3.852-3.328c2.208-7.935,5.491-11.5,5.491-11.5Z" transform="translate(-362.334 -206.864)" fill="#cce2ed"/>
        <path id="Path_789" data-name="Path 789" d="M385.253,236.819l-3.188,4.4a34.312,34.312,0,0,1,.49-13.06Z" transform="translate(-365.958 -208.674)" fill="#bdd9e5"/>
        <path id="Path_790" data-name="Path 790" d="M401.918,284.465c-1.4.532-2.186,2.761-1.712,4.834a30.839,30.839,0,0,0,2.212,6.245c2.917,6.184,5.174,14.454,7.244,14.424s2.755-5.159.727-11.841c-1.833-6.039-3.512-13.958-5.035-14.352A7.284,7.284,0,0,0,401.918,284.465Z" transform="translate(-375.358 -237.057)" fill="#e6d5b9"/>
        <g id="Group_413" data-name="Group 413" transform="translate(31.457 70.559)">
          <path id="Path_791" data-name="Path 791" d="M417.3,332.653c-5.622-1.722-3.078,20.864-1.19,25.7s2.6-3.444,2.935-11.781S419.507,333.331,417.3,332.653Z" transform="translate(-413.862 -332.56)" fill="#e6d5b9"/>
        </g>
        <path id="Path_792" data-name="Path 792" d="M415.446,370.75c.064.085.469,7.507.469,7.507s3.583.256,3.583,0,.277-6.7.277-6.7Z" transform="translate(-383.214 -281.508)" fill="#e6d5b9"/>
        <path id="Path_793" data-name="Path 793" d="M359.142,354.266c-.026.1-5.527,5.1-5.527,5.1s2.063,2.941,2.261,2.779,5.369-4.011,5.369-4.011Z" transform="translate(-351.632 -273.088)" fill="#e6d5b9"/>
        <path id="Path_794" data-name="Path 794" d="M386.944,285c-1.481.25-2.68,2.285-2.616,4.411a30.836,30.836,0,0,0,.959,6.555c1.663,6.633,2.275,15.182,4.311,15.555s3.7-4.527,3.009-11.475c-.628-6.28-.74-14.375-2.158-15.056A7.283,7.283,0,0,0,386.944,285Z" transform="translate(-367.318 -237.596)" fill="#e6d5b9"/>
        <g id="Group_414" data-name="Group 414" transform="translate(2.862 70.326)">
          <path id="Path_795" data-name="Path 795" d="M376.624,333.19c-2.191-5.456-18.081,10.813-20.655,15.315s4.221-.247,10.923-5.219S377.486,335.337,376.624,333.19Z" transform="translate(-355.412 -332.084)" fill="#e6d5b9"/>
        </g>
        <path id="Path_796" data-name="Path 796" d="M380.682,298.841c-.13,3.582-.5,6.6-1.273,7.873-2.534,4.134-16.614,13.331-16.614,13.331l-3.007-3.447-.186-.214s6.009-6.477,8.166-8.352a67.724,67.724,0,0,1,6.1-4.415s-6.361-18-2.535-22.809a3.983,3.983,0,0,0,.4-1.076c3.154-7.62,8.329.141,8.329.141s.141,1.723.3,4.308C380.6,288.1,380.851,293.981,380.682,298.841Z" transform="translate(-354.69 -233.307)" fill="#263138"/>
        <path id="Path_797" data-name="Path 797" d="M397.488,302.286c-5.829-10.554-4.934-19.16-4.934-19.16l4.618,4.5C397.4,291.54,397.657,297.425,397.488,302.286Z" transform="translate(-371.496 -236.752)" fill="#1e282d"/>
        <path id="Path_798" data-name="Path 798" d="M403.928,284.179s4.857,17.177,5.139,24.217S407.8,330.83,407.8,330.83h-4.224s-.915-9.269-1.267-13a53.318,53.318,0,0,1,.352-9.293s-9.316-12.812-10.63-24.639" transform="translate(-371.254 -237.146)" fill="#263138"/>
        <path id="Path_799" data-name="Path 799" d="M399.426,252.818a.42.42,0,0,1-.406.507l-16.2.282a.814.814,0,0,1-.828-.873c.265-3.239,1.115-14.367.687-17.031-1.5-9.417.011-12.447,2.641-13.184a13.7,13.7,0,0,1,9.467,1.1c1.115.732,2.027,1.909,3.9,5.024a8.813,8.813,0,0,1,.946,2.129,7.053,7.053,0,0,1,.2.986,7.357,7.357,0,0,1-1.29,4.911C396.661,239.623,398.931,250.509,399.426,252.818Z" transform="translate(-366.124 -205.587)" fill="#cce2ed"/>
        <path id="Path_800" data-name="Path 800" d="M425.553,225.173c-.245-1.6-9.693-1.042-13.685-.505s-7.042,1.672-6.742,3.63,3.549,2.131,7.519,1.449S425.8,226.777,425.553,225.173Z" transform="translate(-377.932 -206.611)" fill="#e6d5b9"/>
        <path id="Path_801" data-name="Path 801" d="M429.5,218.52s4.646-.681,4.81-.774,4.036-4.693,4.036-4.693l2.065,3.309a44.269,44.269,0,0,1-3.238,4.482c-.7.587-8.987,2.792-8.987,2.792s-.164-4.623-.07-4.623S429.5,218.52,429.5,218.52Z" transform="translate(-389.672 -200.959)" fill="#e6d5b9"/>
        <path id="Path_802" data-name="Path 802" d="M414.607,239.79a7.04,7.04,0,0,1,.2.986,12.492,12.492,0,0,0-3.5-.017l3.283-.985A.057.057,0,0,1,414.607,239.79Z" transform="translate(-381.103 -214.608)" fill="#bdd9e5"/>
        <path id="Path_803" data-name="Path 803" d="M401.908,227.37l1.879-3.478,11.444-.69.782,5.969-8.941,3.027s-5.215-1.481-5.12-1.827Z" transform="translate(-376.299 -206.144)" fill="#cce2ed"/>
        <path id="Path_804" data-name="Path 804" d="M400.023,195.488c-.143,1.689-1.181,2.644-1.879,4.024-.793,1.568-.194,3.826-.076,5.49a14.444,14.444,0,0,1-1.96,8.757,19.978,19.978,0,0,1-3.7,4.052,4.418,4.418,0,0,1-2.162,1.265c-1.285.19-2.456-.732-3.336-1.688a18.042,18.042,0,0,1-2.286-3.095,7.745,7.745,0,0,1-1.029-2.546,9.866,9.866,0,0,1-.034-2.3q.156-2.441.311-4.883c.123-1.935.28-3.973,1.367-5.579a16.947,16.947,0,0,0,2.053-2.81,7.572,7.572,0,0,1,1.412-2.821,6.713,6.713,0,0,1,3.633-2.4c2.621-.528,7.3.6,7.679,3.837A3.483,3.483,0,0,1,400.023,195.488Z" transform="translate(-366.901 -189.607)" fill="#263138"/>
        <path id="Path_805" data-name="Path 805" d="M355.1,365.241a9.685,9.685,0,0,0-.56,3.063c-.122,1.886.87,2.618.44,2.839-.412.212-5.415-6.123-5.415-6.123l3.1-2.639S355.1,365.244,355.1,365.241Z" transform="translate(-349.561 -277.234)" fill="#263138"/>
        <g id="Group_416" data-name="Group 416" transform="translate(45.091)">
          <g id="Group_415" data-name="Group 415" transform="translate(0 3.431)">
            <path id="Path_806" data-name="Path 806" d="M453.937,195.408c-1.156-.857-7.781,7.41-9.562,9.81s-3.484,5.066-2.189,6.028,3.353-1.442,5.134-3.842S455.092,196.266,453.937,195.408Z" transform="translate(-441.731 -195.346)" fill="#e6d5b9"/>
          </g>
          <path id="Path_807" data-name="Path 807" d="M463.045,195.428a12.273,12.273,0,0,1,.986-1.384c.342-.352,1.685.195,2.44-1.039a1.846,1.846,0,0,0-.406-2.3c-.132-.257,1.733-1.964,1.313-2.332s-2.905,2.072-2.905,2.072a2.164,2.164,0,0,0-1.067.722c-.476.549-1.01,1.413-1.531,2.037" transform="translate(-452.019 -188.333)" fill="#e6d5b9"/>
        </g>
        <path id="Path_808" data-name="Path 808" d="M395.484,284.473" transform="translate(-373.018 -237.44)" fill="#aa1d28"/>
        <path id="Path_809" data-name="Path 809" d="M419.873,385.625s.378,1.1,2.66,2.525,2.882,1.116,2.933,1.651-9.49.094-9.49.094l.149-4.392S419.872,385.51,419.873,385.625Z" transform="translate(-383.485 -289.044)" fill="#263138"/>
      </g>
      <g id="Group_418" data-name="Group 418" transform="translate(355.828 127.72)">
        <path id="Path_810" data-name="Path 810" d="M387.287,152.547H370.658a1.242,1.242,0,0,0-1.241,1.241v8.845a1.237,1.237,0,0,0,1.241,1.235h10.221c1.387,1.365,3.914,3.931,3.914,3.931v-3.931h2.494a1.237,1.237,0,0,0,1.241-1.235v-8.845A1.242,1.242,0,0,0,387.287,152.547Zm-12.905,6.908a1.247,1.247,0,1,1,1.247-1.247A1.244,1.244,0,0,1,374.382,159.455Zm4.588,0a1.247,1.247,0,1,1,1.252-1.247A1.248,1.248,0,0,1,378.97,159.455Zm4.594,0a1.247,1.247,0,1,1,1.247-1.247A1.244,1.244,0,0,1,383.563,159.455Z" transform="translate(-369.417 -152.547)" fill="#d88c2c"/>
      </g>
      <g id="Group_427" data-name="Group 427" transform="translate(443.898 114.421)">
        <g id="Group_420" data-name="Group 420">
          <g id="Group_419" data-name="Group 419">
            <path id="Rectangle_245" data-name="Rectangle 245" d="M6.28,0h11.2a6.279,6.279,0,0,1,6.279,6.279v11.2a6.28,6.28,0,0,1-6.28,6.28H6.28A6.28,6.28,0,0,1,0,17.478V6.28A6.28,6.28,0,0,1,6.28,0Z" fill="#5b318c"/>
          </g>
        </g>
        <g id="Group_426" data-name="Group 426" transform="translate(2.239 2.436)">
          <g id="Group_422" data-name="Group 422" transform="translate(12.488 3.59)">
            <g id="Group_421" data-name="Group 421">
              <path id="Path_811" data-name="Path 811" d="M579.543,137.681" transform="translate(-579.543 -137.681)" fill="#fff"/>
            </g>
          </g>
          <path id="Path_812" data-name="Path 812" d="M579.337,134.129a.2.2,0,0,1-.165-.3l2.221-3.393a.2.2,0,0,1,.33.216L579.5,134.04A.2.2,0,0,1,579.337,134.129Z" transform="translate(-566.849 -130.342)" fill="#fff"/>
          <path id="Path_813" data-name="Path 813" d="M584.576,145.69a.2.2,0,0,1-.022-.393l4.03-.455a.2.2,0,0,1,.044.392l-4.03.455Z" transform="translate(-569.525 -137.748)" fill="#fff"/>
          <path id="Path_814" data-name="Path 814" d="M582.149,139.932a.2.2,0,0,1-.1-.365l2.907-1.79a.2.2,0,0,1,.206.336l-2.906,1.79A.2.2,0,0,1,582.149,139.932Z" transform="translate(-568.285 -134.125)" fill="#fff"/>
          <g id="Group_425" data-name="Group 425" transform="translate(0 3.431)">
            <rect id="Rectangle_246" data-name="Rectangle 246" width="5.111" height="5.779" transform="matrix(0.801, -0.598, 0.598, 0.801, 1.317, 8.327)" fill="#fff"/>
            <path id="Path_815" data-name="Path 815" d="M559.427,142.624l-4.094,3.059-.579.432a1.839,1.839,0,0,0-.372,2.573l1.258,1.683a1.839,1.839,0,0,0,2.574.372l.579-.432,3.9,2.435a.415.415,0,0,0,.469-.02l1.1-.821a.416.416,0,0,0-.03-.687l-2.221-1.389.006-.038.286-.206a.446.446,0,0,0-.035-.746l-.838-.493,1.463-1.092h0l2.432-.776a7.717,7.717,0,0,1,2.905-.234.569.569,0,0,0,.391-.1.854.854,0,0,0,.219-.794,8.634,8.634,0,0,0-1.434-3.327c-.239-.382-.508-.769-.8-1.159s-.582-.748-.875-1.076a8.744,8.744,0,0,0-2.8-2.328.87.87,0,0,0-.828-.009.567.567,0,0,0-.2.349,7.658,7.658,0,0,1-1.039,2.716l-1.426,2.106" transform="translate(-554.016 -137.355)" fill="#fff"/>
            <g id="Group_424" data-name="Group 424" transform="translate(8.382 0.948)">
              <g id="Group_423" data-name="Group 423">
                <path id="Path_816" data-name="Path 816" d="M575.021,142.1c.236.315.453.627.645.936a6.774,6.774,0,0,1,1.137,2.7.714.714,0,0,1-.193.653c-.228.171-.629.079-1.12-.215a12.05,12.05,0,0,1-4.249-5.666c-.146-.554-.121-.964.106-1.135a.726.726,0,0,1,.684-.005,6.859,6.859,0,0,1,2.282,1.864C574.551,141.5,574.787,141.793,575.021,142.1Z" transform="translate(-571.15 -139.292)" fill="#5b318c"/>
              </g>
            </g>
          </g>
        </g>
      </g>
    </g>
  </g>
</svg>
