<svg xmlns="http://www.w3.org/2000/svg" width="186" height="217.578" viewBox="0 0 186 217.578">
  <g id="Group_428" data-name="Group 428" transform="translate(-342.812 -103.941)">
    <g id="Group_348" data-name="Group 348" transform="translate(342.812 191.907)">
      <g id="Group_343" data-name="Group 343" transform="translate(0 20.227)">
        <path id="Path_715" data-name="Path 715" d="M360.491,267.672s-21.266-3.746-17.15-10.2,17.3,10.142,17.3,10.142" transform="translate(-342.812 -253.354)" fill="#55b1c6"/>
        <path id="Path_716" data-name="Path 716" d="M374.26,277.605s-18.735,10.738-19.707,3.141,19.786-3.289,19.786-3.289" transform="translate(-345.987 -258.849)" fill="#55b1c6"/>
        <path id="Path_717" data-name="Path 717" d="M388.339,289.729s-18.563,11.032-19.655,3.451,19.731-3.6,19.731-3.6" transform="translate(-349.816 -262.182)" fill="#55b1c6"/>
        <path id="Path_718" data-name="Path 718" d="M401.267,307.567s-18.578,11.006-19.659,3.424,19.736-3.572,19.736-3.572" transform="translate(-353.32 -267.014)" fill="#55b1c6"/>
        <path id="Path_719" data-name="Path 719" d="M410.535,324.868s-19.591,9.081-19.9,1.429,20-1.569,20-1.569" transform="translate(-355.776 -271.373)" fill="#55b1c6"/>
        <path id="Path_720" data-name="Path 720" d="M417.315,341.95s-20.019,8.095-19.951.437,20.049-.572,20.049-.572" transform="translate(-357.603 -275.817)" fill="#55b1c6"/>
        <path id="Path_721" data-name="Path 721" d="M423.344,360.289s-20.019,8.095-19.951.437,20.049-.572,20.049-.572" transform="translate(-359.237 -280.79)" fill="#55b1c6"/>
        <path id="Path_722" data-name="Path 722" d="M378.372,271.1s-14.7-15.821-7.517-18.486,7.679,18.529,7.679,18.529" transform="translate(-349.88 -252.379)" fill="#55b1c6"/>
        <path id="Path_723" data-name="Path 723" d="M393.493,283.4s-10.735-18.737-3.138-19.707,3.286,19.787,3.286,19.787" transform="translate(-354.965 -255.436)" fill="#55b1c6"/>
        <path id="Path_724" data-name="Path 724" d="M407.914,301.02s-5.958-20.755,1.652-19.887-1.527,20-1.527,20" transform="translate(-359.861 -260.168)" fill="#55b1c6"/>
        <path id="Path_725" data-name="Path 725" d="M417.981,319.044s-2.81-21.411,4.586-19.422-4.48,19.551-4.48,19.551" transform="translate(-363.05 -265.152)" fill="#55b1c6"/>
        <path id="Path_726" data-name="Path 726" d="M424.416,336.74s4.623-21.093,10.905-16.712S424.473,336.9,424.473,336.9" transform="translate(-364.937 -270.558)" fill="#55b1c6"/>
        <path id="Path_727" data-name="Path 727" d="M431.257,355.022s4.623-21.093,10.905-16.712-10.849,16.87-10.849,16.87" transform="translate(-366.792 -275.515)" fill="#55b1c6"/>
        <g id="Group_342" data-name="Group 342" transform="translate(15.693 12.761)">
          <path id="Path_728" data-name="Path 728" d="M415.393,346.726a.712.712,0,0,1-.741-.542c-9.09-37.157-22.131-55.545-31.471-64.428-10.078-9.584-18.113-10.442-18.193-10.449a.712.712,0,0,1,.129-1.418c.343.031,8.505.867,18.92,10.718,9.518,9,22.8,27.627,32,65.239a.711.711,0,0,1-.523.86A.629.629,0,0,1,415.393,346.726Z" transform="translate(-364.343 -269.886)" fill="#55b1c6"/>
        </g>
      </g>
      <g id="Group_345" data-name="Group 345" transform="translate(2.691 51.736)">
        <path id="Path_729" data-name="Path 729" d="M408.5,364.49a51.561,51.561,0,0,1,13.123,6.359,22.462,22.462,0,0,0,3.59,1.974c1.31.56,2.88,1.017,4.094.278,1.858-1.127,1.388-3.951.409-5.889-4.26-8.437-13.062-13.176-18.074-21.051-.772-1.212-1.5-2.485-2.218-3.782l-5.475-1.136,4.178-1.218c-2.863-5.182-5.927-10.335-11.37-12.994l-1.59,4.035s.173-2.454.362-4.6C391.8,324.8,387.8,323.392,385,320.4c-2.031-2.169-3.128-4.975-4.349-7.715l-5.033.666s1.95-2.032,3.42-3.916c-.161-.279-.332-.556-.509-.827-2.764-4.219-7.115-6.685-11.613-8.671a66.991,66.991,0,0,0-7.749-2.982c-.41.958-.765,1.767-.765,1.767l-1.2-2.305a28.375,28.375,0,0,0-4.437-.725c-1.039-.083-4.711-.324-5.386.72-1.944,3.018-.344,7.133,2.1,9.763,2.311,2.491,4.911,4.4,6.97,6.937l2.415-.737-.961,2.825c.136.225.263.456.387.694,2.842,5.471,3.464,12.945,6.17,18.45,1.961-2.209,4.007-4.211,4.007-4.211l-1.294,8.142c2.014,2.031,4.8,3.34,8.854,3.467,1.315.042,2.609.01,3.886.037l-.338-2.5,1.94,2.587a12.172,12.172,0,0,1,4.788,1.286c4.617,2.422,7.08,7.281,9.951,11.664,1.488.23,2.794.435,2.794.435l-1.179,1.889a21.509,21.509,0,0,0,2.591,2.915A21.051,21.051,0,0,0,408.5,364.49Z" transform="translate(-346.505 -295.61)" fill="#80dcbe"/>
        <g id="Group_344" data-name="Group 344" transform="translate(8.469 6.771)">
          <path id="Path_730" data-name="Path 730" d="M421.95,364.279c-10.706-6.6-14.1-12.116-17.091-16.979a31.417,31.417,0,0,0-4.807-6.484c-2.287-2.211-5.58-3.969-9.066-5.829-5.742-3.063-11.679-6.231-13.793-11.753-3.6-9.417-18.376-18.26-18.519-18.334l-.547,1.059.274-.529-.276.528c.14.075,14.472,8.6,17.955,17.7,2.273,5.937,8.41,9.212,14.345,12.378,3.41,1.82,6.632,3.539,8.8,5.634a30.032,30.032,0,0,1,4.621,6.252c2.91,4.73,6.533,10.616,17.48,17.369Z" transform="translate(-358.124 -304.9)" fill="#55b1c6"/>
        </g>
      </g>
      <g id="Group_347" data-name="Group 347" transform="translate(31.695)">
        <path id="Path_731" data-name="Path 731" d="M418.088,311.521a51.582,51.582,0,0,1,9.529,11.038,22.5,22.5,0,0,0,2.513,3.235c.982,1.033,2.241,2.074,3.649,1.878,2.152-.3,2.84-3.077,2.709-5.244-.568-9.435-6.771-17.274-8.252-26.492-.227-1.418-.391-2.875-.537-4.351l-4.577-3.212,4.319.536c-.575-5.891-1.346-11.838-5.289-16.435l-3.059,3.074s1.133-2.184,2.157-4.082c-2.763-3.007-5.881-5.885-7.271-9.741-1.005-2.8-.9-5.807-.935-8.807l-4.885-1.383s2.6-1.093,4.692-2.24c-.037-.321-.085-.642-.139-.961-.866-4.97-3.883-8.957-7.225-12.564a67.154,67.154,0,0,0-5.933-5.808c-.756.717-1.4,1.321-1.4,1.321l-.192-2.595a28.384,28.384,0,0,0-3.786-2.424c-.921-.488-4.2-2.164-5.23-1.472-2.98,2-3.142,6.412-1.945,9.794,1.135,3.2,2.767,5.983,3.651,9.131l2.509.281-2,2.213c.035.261.061.523.08.791.441,6.149-1.949,13.258-1.647,19.384,2.676-1.251,5.349-2.278,5.349-2.278l-4.416,6.961c1.044,2.664,3.083,4.969,6.755,6.692,1.191.559,2.391,1.043,3.553,1.574l.682-2.431.755,3.143a12.178,12.178,0,0,1,3.886,3.079c3.279,4.053,3.615,9.491,4.513,14.652,1.276.8,2.393,1.507,2.393,1.507l-1.83,1.267a21.491,21.491,0,0,0,1.223,3.7A21.052,21.052,0,0,0,418.088,311.521Z" transform="translate(-386.297 -224.629)" fill="#70c3e0"/>
        <g id="Group_346" data-name="Group 346" transform="translate(6.837 8.874)">
          <path id="Path_732" data-name="Path 732" d="M431.166,316.4c-7.212-10.306-8.142-16.711-8.963-22.362a31.431,31.431,0,0,0-1.844-7.858c-1.224-2.937-3.551-5.855-6.015-8.945-4.058-5.088-8.253-10.349-8.006-16.257.422-10.075-9.635-24.047-9.737-24.172l-.923.755.461-.378-.463.376c.1.125,9.878,13.632,9.471,23.368-.267,6.353,4.07,11.791,8.265,17.051,2.41,3.022,4.687,5.877,5.846,8.66a30.027,30.027,0,0,1,1.765,7.571c.8,5.5,1.792,12.336,9.167,22.874Z" transform="translate(-395.677 -236.803)" fill="#55b1c6"/>
        </g>
      </g>
    </g>
    <g id="Group_410" data-name="Group 410" transform="translate(408.68 103.941)">
      <g id="Group_356" data-name="Group 356">
        <g id="Group_355" data-name="Group 355">
          <g id="Group_354" data-name="Group 354">
            <g id="Group_353" data-name="Group 353">
              <g id="Group_352" data-name="Group 352">
                <g id="Group_351" data-name="Group 351">
                  <g id="Group_350" data-name="Group 350">
                    <g id="Group_349" data-name="Group 349">
                      <path id="Path_733" data-name="Path 733" d="M433.181,117.212V296.581a13.273,13.273,0,0,0,13.277,13.271h78.6a13.273,13.273,0,0,0,13.277-13.271V117.212a13.272,13.272,0,0,0-13.277-13.271h-78.6A13.272,13.272,0,0,0,433.181,117.212Z" transform="translate(-433.181 -103.941)" fill="#1e282d"/>
                      <path id="Path_734" data-name="Path 734" d="M433.181,116.569V287.258c0,6.974,5.942,12.628,13.277,12.628h78.6c7.335,0,13.277-5.655,13.277-12.628V116.569c0-6.975-5.943-12.628-13.277-12.628h-78.6C439.123,103.941,433.181,109.595,433.181,116.569Z" transform="translate(-433.181 -103.941)" fill="#263138"/>
                      <path id="Path_735" data-name="Path 735" d="M450.57,112.739h75.338a8.259,8.259,0,0,1,8.26,8.26V280a8.259,8.259,0,0,1-8.26,8.26H450.564A8.252,8.252,0,0,1,442.31,280V121a8.259,8.259,0,0,1,8.26-8.26Z" transform="translate(-435.656 -106.326)" fill="#edf6f9"/>
                    </g>
                  </g>
                </g>
              </g>
            </g>
          </g>
        </g>
      </g>
      <g id="Group_376" data-name="Group 376" transform="translate(6.456 26.565)">
        <circle id="Ellipse_24" data-name="Ellipse 24" cx="38.398" cy="38.398" r="38.398" transform="translate(0 74.786) rotate(-76.858)" fill="#cce2ed"/>
        <g id="Group_358" data-name="Group 358" transform="translate(6.423 6.423)">
          <g id="Group_357" data-name="Group 357">
            <circle id="Ellipse_25" data-name="Ellipse 25" cx="32.906" cy="32.906" r="32.906" transform="translate(0 63.981) rotate(-76.451)" fill="#6dc4e2"/>
          </g>
        </g>
        <g id="Group_360" data-name="Group 360" transform="translate(12.717 12.717)">
          <g id="Group_359" data-name="Group 359">
            <circle id="Ellipse_26" data-name="Ellipse 26" cx="27.83" cy="27.83" r="27.83" transform="translate(0 54.215) rotate(-76.92)" fill="#be5f67"/>
          </g>
        </g>
        <g id="Group_375" data-name="Group 375" transform="translate(35.916 25.593)">
          <g id="Group_371" data-name="Group 371" transform="translate(3.117)">
            <path id="Path_736" data-name="Path 736" d="M509.185,181.94l-.009,13.625a6.442,6.442,0,1,1-12.884,0l.009-13.625a6.442,6.442,0,1,1,12.884,0Z" transform="translate(-495.781 -175.5)" fill="#cce2ed"/>
            <path id="Path_737" data-name="Path 737" d="M496.107,194.321a.5.5,0,0,0-.512.512l-.005,5.838a6.954,6.954,0,0,0,13.854.867,7.038,7.038,0,0,0,.053-.87l.005-5.839a.51.51,0,0,0-.512-.512Z" transform="translate(-495.59 -180.602)" fill="#fff"/>
            <g id="Group_370" data-name="Group 370" transform="translate(1.878 0.845)">
              <g id="Group_369" data-name="Group 369">
                <g id="Group_361" data-name="Group 361" transform="translate(2.772)">
                  <path id="Path_738" data-name="Path 738" d="M506.358,177.115a.23.23,0,0,1-.231-.227.225.225,0,0,1,.224-.228h.007a.228.228,0,1,1,0,.456Zm-1.386,0a.23.23,0,0,1-.231-.227.225.225,0,0,1,.224-.228h.007a.228.228,0,1,1,0,.456Zm-1.386,0a.23.23,0,0,1-.231-.227.225.225,0,0,1,.224-.228h.007a.228.228,0,1,1,0,.456Zm-1.386,0a.231.231,0,0,1-.232-.227.225.225,0,0,1,.224-.228h.007a.228.228,0,1,1,0,.456Z" transform="translate(-501.969 -176.659)" fill="#b8d3dd"/>
                </g>
                <g id="Group_362" data-name="Group 362" transform="translate(1.386 1.668)">
                  <path id="Path_739" data-name="Path 739" d="M507.229,179.4a.23.23,0,0,1-.231-.227.225.225,0,0,1,.225-.228h.007a.228.228,0,1,1,0,.456Zm-1.386,0a.231.231,0,0,1-.231-.227.225.225,0,0,1,.224-.228h.007a.228.228,0,1,1,0,.456Zm-1.386,0a.23.23,0,0,1-.231-.227.225.225,0,0,1,.224-.228h.007a.228.228,0,1,1,0,.456Zm-1.386,0a.23.23,0,0,1-.231-.227.225.225,0,0,1,.224-.228h.007a.228.228,0,1,1,0,.456Zm-1.386,0a.231.231,0,0,1-.232-.227.225.225,0,0,1,.224-.228h.007a.228.228,0,1,1,0,.456Zm-1.386,0a.231.231,0,0,1-.232-.227.225.225,0,0,1,.224-.228h.007a.228.228,0,0,1,0,.456Z" transform="translate(-500.068 -178.948)" fill="#b8d3dd"/>
                </g>
                <g id="Group_363" data-name="Group 363" transform="translate(0 3.337)">
                  <path id="Path_740" data-name="Path 740" d="M508.1,181.693a.231.231,0,0,1-.232-.228.225.225,0,0,1,.224-.227h.007a.228.228,0,0,1,0,.456Zm-1.386,0a.231.231,0,0,1-.231-.228.225.225,0,0,1,.225-.227h.007a.228.228,0,1,1,0,.456Zm-1.386,0a.231.231,0,0,1-.231-.228.225.225,0,0,1,.224-.227h.007a.228.228,0,1,1,0,.456Zm-1.386,0a.23.23,0,0,1-.231-.228.225.225,0,0,1,.224-.227h.007a.228.228,0,1,1,0,.456Zm-1.386,0a.23.23,0,0,1-.231-.228.225.225,0,0,1,.224-.227h.007a.228.228,0,1,1,0,.456Zm-1.386,0a.231.231,0,0,1-.232-.228.225.225,0,0,1,.224-.227h.007a.228.228,0,1,1,0,.456Zm-1.386,0a.231.231,0,0,1-.232-.228.225.225,0,0,1,.225-.227h.007a.228.228,0,0,1,0,.456Zm-1.386,0a.231.231,0,0,1-.232-.228.225.225,0,0,1,.225-.227h.007a.228.228,0,0,1,0,.456Z" transform="translate(-498.166 -181.237)" fill="#b8d3dd"/>
                </g>
                <g id="Group_364" data-name="Group 364" transform="translate(0 5.004)">
                  <path id="Path_741" data-name="Path 741" d="M508.1,183.981a.231.231,0,0,1-.232-.228.225.225,0,0,1,.224-.228h.007a.228.228,0,0,1,0,.456Zm-1.386,0a.231.231,0,0,1-.231-.228.225.225,0,0,1,.225-.228h.007a.228.228,0,0,1,0,.456Zm-1.386,0a.231.231,0,0,1-.231-.228.225.225,0,0,1,.224-.228h.007a.228.228,0,0,1,0,.456Zm-1.386,0a.23.23,0,0,1-.231-.228.225.225,0,0,1,.224-.228h.007a.228.228,0,1,1,0,.456Zm-1.386,0a.23.23,0,0,1-.231-.228.225.225,0,0,1,.224-.228h.007a.228.228,0,1,1,0,.456Zm-1.386,0a.231.231,0,0,1-.232-.228.225.225,0,0,1,.224-.228h.007a.228.228,0,1,1,0,.456Zm-1.386,0a.231.231,0,0,1-.232-.228.225.225,0,0,1,.225-.228h.007a.228.228,0,0,1,0,.456Zm-1.386,0a.231.231,0,0,1-.232-.228.225.225,0,0,1,.225-.228h.007a.228.228,0,0,1,0,.456Z" transform="translate(-498.166 -183.525)" fill="#b8d3dd"/>
                </g>
                <g id="Group_365" data-name="Group 365" transform="translate(0 6.673)">
                  <path id="Path_742" data-name="Path 742" d="M508.1,186.27a.231.231,0,0,1-.232-.228.225.225,0,0,1,.224-.228h.007a.228.228,0,0,1,0,.456Zm-1.386,0a.231.231,0,0,1-.231-.228.225.225,0,0,1,.225-.228h.007a.228.228,0,0,1,0,.456Zm-1.386,0a.231.231,0,0,1-.231-.228.225.225,0,0,1,.224-.228h.007a.228.228,0,0,1,0,.456Zm-1.386,0a.23.23,0,0,1-.231-.228.225.225,0,0,1,.224-.228h.007a.228.228,0,1,1,0,.456Zm-1.386,0a.23.23,0,0,1-.231-.228.225.225,0,0,1,.224-.228h.007a.228.228,0,1,1,0,.456Zm-1.386,0a.231.231,0,0,1-.232-.228.225.225,0,0,1,.224-.228h.007a.228.228,0,1,1,0,.456Zm-1.386,0a.231.231,0,0,1-.232-.228.225.225,0,0,1,.225-.228h.007a.228.228,0,0,1,0,.456Zm-1.386,0a.231.231,0,0,1-.232-.228.225.225,0,0,1,.225-.228h.007a.228.228,0,0,1,0,.456Z" transform="translate(-498.166 -185.814)" fill="#b8d3dd"/>
                </g>
                <g id="Group_366" data-name="Group 366" transform="translate(0 8.341)">
                  <path id="Path_743" data-name="Path 743" d="M508.1,188.559a.231.231,0,0,1-.232-.228.225.225,0,0,1,.224-.228h.007a.228.228,0,0,1,0,.456Zm-1.386,0a.231.231,0,0,1-.231-.228.225.225,0,0,1,.225-.228h.007a.228.228,0,0,1,0,.456Zm-1.386,0a.231.231,0,0,1-.231-.228.225.225,0,0,1,.224-.228h.007a.228.228,0,0,1,0,.456Zm-1.386,0a.23.23,0,0,1-.231-.228.225.225,0,0,1,.224-.228h.007a.228.228,0,1,1,0,.456Zm-1.386,0a.23.23,0,0,1-.231-.228.225.225,0,0,1,.224-.228h.007a.228.228,0,1,1,0,.456Zm-1.386,0a.231.231,0,0,1-.232-.228.225.225,0,0,1,.224-.228h.007a.228.228,0,1,1,0,.456Zm-1.386,0a.231.231,0,0,1-.232-.228.225.225,0,0,1,.225-.228h.007a.228.228,0,0,1,0,.456Zm-1.386,0a.231.231,0,0,1-.232-.228.225.225,0,0,1,.225-.228h.007a.228.228,0,0,1,0,.456Z" transform="translate(-498.166 -188.103)" fill="#b8d3dd"/>
                </g>
                <g id="Group_367" data-name="Group 367" transform="translate(0 10.01)">
                  <path id="Path_744" data-name="Path 744" d="M508.1,190.848a.231.231,0,0,1-.232-.227.225.225,0,0,1,.224-.228h.007a.228.228,0,0,1,0,.456Zm-1.386,0a.23.23,0,0,1-.231-.227.225.225,0,0,1,.225-.228h.007a.228.228,0,1,1,0,.456Zm-1.386,0a.231.231,0,0,1-.231-.227.225.225,0,0,1,.224-.228h.007a.228.228,0,1,1,0,.456Zm-1.386,0a.23.23,0,0,1-.231-.227.225.225,0,0,1,.224-.228h.007a.228.228,0,1,1,0,.456Zm-1.386,0a.23.23,0,0,1-.231-.227.225.225,0,0,1,.224-.228h.007a.228.228,0,1,1,0,.456Zm-1.386,0a.231.231,0,0,1-.232-.227.225.225,0,0,1,.224-.228h.007a.228.228,0,1,1,0,.456Zm-1.386,0a.231.231,0,0,1-.232-.227.225.225,0,0,1,.225-.228h.007a.228.228,0,0,1,0,.456Zm-1.386,0a.231.231,0,0,1-.232-.227.225.225,0,0,1,.225-.228h.007a.228.228,0,0,1,0,.456Z" transform="translate(-498.166 -190.392)" fill="#b8d3dd"/>
                </g>
                <g id="Group_368" data-name="Group 368" transform="translate(0 11.678)">
                  <path id="Path_745" data-name="Path 745" d="M508.1,193.137a.231.231,0,0,1-.232-.228.224.224,0,0,1,.224-.227h.007a.228.228,0,0,1,0,.456Zm-1.386,0a.231.231,0,0,1-.231-.228.224.224,0,0,1,.225-.227h.007a.228.228,0,1,1,0,.456Zm-1.386,0a.231.231,0,0,1-.231-.228.224.224,0,0,1,.224-.227h.007a.228.228,0,1,1,0,.456Zm-1.386,0a.23.23,0,0,1-.231-.228.224.224,0,0,1,.224-.227h.007a.228.228,0,1,1,0,.456Zm-1.386,0a.23.23,0,0,1-.231-.228.224.224,0,0,1,.224-.227h.007a.228.228,0,1,1,0,.456Zm-1.386,0a.231.231,0,0,1-.232-.228.225.225,0,0,1,.224-.227h.007a.228.228,0,1,1,0,.456Zm-1.386,0a.231.231,0,0,1-.232-.228.224.224,0,0,1,.225-.227h.007a.228.228,0,0,1,0,.456Zm-1.386,0a.231.231,0,0,1-.232-.228.224.224,0,0,1,.225-.227h.007a.228.228,0,0,1,0,.456Z" transform="translate(-498.166 -192.681)" fill="#b8d3dd"/>
                </g>
              </g>
            </g>
          </g>
          <g id="Group_372" data-name="Group 372" transform="translate(0 13.453)">
            <path id="Path_746" data-name="Path 746" d="M501.521,210.917a10.2,10.2,0,0,1-10.207-10.2l.005-5.893a.873.873,0,0,1,.872-.871h0a.872.872,0,0,1,.872.873l-.006,5.891a8.459,8.459,0,0,0,16.851,1.057,7.916,7.916,0,0,0,.069-1.063l.006-5.887a.872.872,0,0,1,.872-.871h0a.872.872,0,0,1,.872.873l-.006,5.886a9.666,9.666,0,0,1-.084,1.285,10.19,10.19,0,0,1-10.118,8.916Z" transform="translate(-491.314 -193.957)" fill="#fff"/>
          </g>
          <g id="Group_373" data-name="Group 373" transform="translate(9.287 26.213)">
            <path id="Path_747" data-name="Path 747" d="M504.977,225.568a.922.922,0,0,1-.922-.922V212.385a.922.922,0,1,1,1.843,0v12.261A.922.922,0,0,1,504.977,225.568Z" transform="translate(-504.055 -211.463)" fill="#fff"/>
          </g>
          <g id="Group_374" data-name="Group 374" transform="translate(3.911 37.399)">
            <path id="Rectangle_244" data-name="Rectangle 244" d="M2.4,0h7.8a2.4,2.4,0,0,1,2.4,2.4V3.661a0,0,0,0,1,0,0H0a0,0,0,0,1,0,0V2.4A2.4,2.4,0,0,1,2.4,0Z" fill="#fff"/>
          </g>
        </g>
      </g>
      <g id="Group_409" data-name="Group 409" transform="translate(13.766 128.362)">
        <g id="Group_377" data-name="Group 377" transform="translate(76.896 14.465)">
          <path id="Path_748" data-name="Path 748" d="M557.932,302.72a.365.365,0,0,1-.364-.364v-2.094a.364.364,0,0,1,.729,0v2.094A.364.364,0,0,1,557.932,302.72Z" transform="translate(-557.568 -299.897)" fill="#46a5ce"/>
        </g>
        <g id="Group_378" data-name="Group 378" transform="translate(74.416 13.181)">
          <path id="Path_749" data-name="Path 749" d="M554.529,303.526a.364.364,0,0,1-.364-.364V298.5a.364.364,0,1,1,.729,0v4.663A.364.364,0,0,1,554.529,303.526Z" transform="translate(-554.165 -298.135)" fill="#46a5ce"/>
        </g>
        <g id="Group_379" data-name="Group 379" transform="translate(71.936 9.961)">
          <path id="Path_750" data-name="Path 750" d="M551.126,305.549a.364.364,0,0,1-.364-.364v-11.1a.364.364,0,0,1,.729,0v11.1A.364.364,0,0,1,551.126,305.549Z" transform="translate(-550.762 -293.717)" fill="#46a5ce"/>
        </g>
        <g id="Group_380" data-name="Group 380" transform="translate(69.455 11.134)">
          <path id="Path_751" data-name="Path 751" d="M547.722,304.812a.365.365,0,0,1-.364-.364v-8.756a.364.364,0,0,1,.729,0v8.756A.364.364,0,0,1,547.722,304.812Z" transform="translate(-547.358 -295.327)" fill="#46a5ce"/>
        </g>
        <g id="Group_381" data-name="Group 381" transform="translate(66.975 8.343)">
          <path id="Path_752" data-name="Path 752" d="M544.32,306.565a.364.364,0,0,1-.364-.364V291.861a.364.364,0,0,1,.729,0V306.2A.365.365,0,0,1,544.32,306.565Z" transform="translate(-543.956 -291.497)" fill="#46a5ce"/>
        </g>
        <g id="Group_382" data-name="Group 382" transform="translate(64.494 3.585)">
          <path id="Path_753" data-name="Path 753" d="M540.916,309.553a.364.364,0,0,1-.364-.364V285.333a.364.364,0,1,1,.729,0v23.855A.364.364,0,0,1,540.916,309.553Z" transform="translate(-540.552 -284.969)" fill="#46a5ce"/>
        </g>
        <g id="Group_383" data-name="Group 383" transform="translate(62.013 10.944)">
          <path id="Path_754" data-name="Path 754" d="M537.513,304.931a.365.365,0,0,1-.364-.364V295.43a.364.364,0,0,1,.729,0v9.136A.365.365,0,0,1,537.513,304.931Z" transform="translate(-537.149 -295.066)" fill="#46a5ce"/>
        </g>
        <g id="Group_384" data-name="Group 384" transform="translate(59.533 12.911)">
          <path id="Path_755" data-name="Path 755" d="M534.11,303.7a.364.364,0,0,1-.364-.364v-5.2a.364.364,0,0,1,.729,0v5.2A.364.364,0,0,1,534.11,303.7Z" transform="translate(-533.746 -297.765)" fill="#46a5ce"/>
        </g>
        <g id="Group_385" data-name="Group 385" transform="translate(57.052 14.56)">
          <path id="Path_756" data-name="Path 756" d="M530.706,302.66a.365.365,0,0,1-.364-.364v-1.9a.364.364,0,0,1,.729,0v1.9A.364.364,0,0,1,530.706,302.66Z" transform="translate(-530.342 -300.027)" fill="#46a5ce"/>
        </g>
        <g id="Group_386" data-name="Group 386" transform="translate(54.572 12.34)">
          <path id="Path_757" data-name="Path 757" d="M527.3,304.054a.364.364,0,0,1-.364-.364v-6.344a.364.364,0,0,1,.729,0v6.344A.364.364,0,0,1,527.3,304.054Z" transform="translate(-526.939 -296.981)" fill="#46a5ce"/>
        </g>
        <g id="Group_387" data-name="Group 387" transform="translate(52.091 9.675)">
          <path id="Path_758" data-name="Path 758" d="M523.9,305.728a.365.365,0,0,1-.364-.364V293.689a.364.364,0,1,1,.729,0v11.674A.365.365,0,0,1,523.9,305.728Z" transform="translate(-523.536 -293.325)" fill="#46a5ce"/>
        </g>
        <g id="Group_388" data-name="Group 388" transform="translate(49.611 5.869)">
          <path id="Path_759" data-name="Path 759" d="M520.5,308.119a.364.364,0,0,1-.364-.364V288.467a.364.364,0,0,1,.729,0v19.288A.365.365,0,0,1,520.5,308.119Z" transform="translate(-520.133 -288.103)" fill="#46a5ce"/>
        </g>
        <g id="Group_389" data-name="Group 389" transform="translate(47.13 8.85)">
          <path id="Path_760" data-name="Path 760" d="M517.093,306.246a.365.365,0,0,1-.364-.364V292.557a.364.364,0,0,1,.729,0v13.325A.364.364,0,0,1,517.093,306.246Z" transform="translate(-516.729 -292.193)" fill="#46a5ce"/>
        </g>
        <g id="Group_390" data-name="Group 390" transform="translate(44.649 13.347)">
          <path id="Path_761" data-name="Path 761" d="M513.69,303.422a.365.365,0,0,1-.364-.364v-4.33a.364.364,0,0,1,.729,0v4.33A.365.365,0,0,1,513.69,303.422Z" transform="translate(-513.326 -298.363)" fill="#46a5ce"/>
        </g>
        <g id="Group_391" data-name="Group 391" transform="translate(42.169 8.279)">
          <path id="Path_762" data-name="Path 762" d="M510.287,306.6a.365.365,0,0,1-.364-.364V291.774a.364.364,0,0,1,.729,0V306.24A.364.364,0,0,1,510.287,306.6Z" transform="translate(-509.923 -291.41)" fill="#46a5ce"/>
        </g>
        <g id="Group_392" data-name="Group 392" transform="translate(39.689 5.139)">
          <path id="Path_763" data-name="Path 763" d="M506.884,308.577a.364.364,0,0,1-.364-.364V287.466a.364.364,0,1,1,.729,0v20.746A.364.364,0,0,1,506.884,308.577Z" transform="translate(-506.52 -287.102)" fill="#46a5ce"/>
        </g>
        <g id="Group_393" data-name="Group 393" transform="translate(37.208)">
          <path id="Path_764" data-name="Path 764" d="M503.481,311.8a.364.364,0,0,1-.364-.364V280.415a.364.364,0,0,1,.729,0V311.44A.364.364,0,0,1,503.481,311.8Z" transform="translate(-503.117 -280.051)" fill="#46a5ce"/>
        </g>
        <g id="Group_394" data-name="Group 394" transform="translate(34.727 5.52)">
          <path id="Path_765" data-name="Path 765" d="M500.077,308.338a.365.365,0,0,1-.364-.364V287.988a.364.364,0,0,1,.729,0v19.985A.364.364,0,0,1,500.077,308.338Z" transform="translate(-499.713 -287.624)" fill="#46a5ce"/>
        </g>
        <g id="Group_395" data-name="Group 395" transform="translate(32.247 8.945)">
          <path id="Path_766" data-name="Path 766" d="M496.674,306.186a.365.365,0,0,1-.364-.364V292.688a.364.364,0,1,1,.729,0v13.134A.365.365,0,0,1,496.674,306.186Z" transform="translate(-496.31 -292.324)" fill="#46a5ce"/>
        </g>
        <g id="Group_396" data-name="Group 396" transform="translate(29.767 12.752)">
          <path id="Path_767" data-name="Path 767" d="M493.271,303.8a.364.364,0,0,1-.364-.364v-5.52a.364.364,0,0,1,.729,0v5.52A.364.364,0,0,1,493.271,303.8Z" transform="translate(-492.907 -297.547)" fill="#46a5ce"/>
        </g>
        <g id="Group_397" data-name="Group 397" transform="translate(27.286 11.42)">
          <path id="Path_768" data-name="Path 768" d="M489.868,304.632a.364.364,0,0,1-.364-.364v-8.185a.364.364,0,1,1,.729,0v8.185A.364.364,0,0,1,489.868,304.632Z" transform="translate(-489.504 -295.719)" fill="#46a5ce"/>
        </g>
        <g id="Group_398" data-name="Group 398" transform="translate(24.806 12.72)">
          <path id="Path_769" data-name="Path 769" d="M486.465,303.815a.364.364,0,0,1-.364-.364v-5.583a.364.364,0,0,1,.729,0v5.583A.364.364,0,0,1,486.465,303.815Z" transform="translate(-486.101 -297.503)" fill="#46a5ce"/>
        </g>
        <g id="Group_399" data-name="Group 399" transform="translate(22.325 6.661)">
          <path id="Path_770" data-name="Path 770" d="M483.061,307.621a.365.365,0,0,1-.364-.364v-17.7a.364.364,0,1,1,.729,0v17.7A.364.364,0,0,1,483.061,307.621Z" transform="translate(-482.697 -289.19)" fill="#46a5ce"/>
        </g>
        <g id="Group_400" data-name="Group 400" transform="translate(19.844 9.802)">
          <path id="Path_771" data-name="Path 771" d="M479.658,305.649a.365.365,0,0,1-.364-.364V293.863a.364.364,0,0,1,.729,0v11.421A.365.365,0,0,1,479.658,305.649Z" transform="translate(-479.294 -293.499)" fill="#46a5ce"/>
        </g>
        <g id="Group_401" data-name="Group 401" transform="translate(17.364 4.473)">
          <path id="Path_772" data-name="Path 772" d="M476.255,309a.364.364,0,0,1-.364-.364V286.552a.364.364,0,1,1,.729,0v22.078A.364.364,0,0,1,476.255,309Z" transform="translate(-475.891 -286.188)" fill="#46a5ce"/>
        </g>
        <g id="Group_402" data-name="Group 402" transform="translate(14.884 2.664)">
          <path id="Path_773" data-name="Path 773" d="M472.852,310.131a.364.364,0,0,1-.364-.364v-25.7a.364.364,0,0,1,.729,0v25.7A.365.365,0,0,1,472.852,310.131Z" transform="translate(-472.488 -283.706)" fill="#46a5ce"/>
        </g>
        <g id="Group_403" data-name="Group 403" transform="translate(12.403 6.376)">
          <path id="Path_774" data-name="Path 774" d="M469.448,307.8a.364.364,0,0,1-.364-.364V289.163a.364.364,0,1,1,.729,0v18.272A.364.364,0,0,1,469.448,307.8Z" transform="translate(-469.084 -288.799)" fill="#46a5ce"/>
        </g>
        <g id="Group_404" data-name="Group 404" transform="translate(9.922 5.948)">
          <path id="Path_775" data-name="Path 775" d="M466.045,308.068a.365.365,0,0,1-.364-.364V288.575a.364.364,0,1,1,.729,0V307.7A.365.365,0,0,1,466.045,308.068Z" transform="translate(-465.681 -288.211)" fill="#46a5ce"/>
        </g>
        <g id="Group_405" data-name="Group 405" transform="translate(7.442 10.611)">
          <path id="Path_776" data-name="Path 776" d="M462.642,305.141a.364.364,0,0,1-.364-.364v-9.8a.364.364,0,0,1,.729,0v9.8A.365.365,0,0,1,462.642,305.141Z" transform="translate(-462.278 -294.609)" fill="#46a5ce"/>
        </g>
        <g id="Group_406" data-name="Group 406" transform="translate(4.961 12.562)">
          <path id="Path_777" data-name="Path 777" d="M459.238,303.915a.365.365,0,0,1-.364-.364v-5.9a.364.364,0,1,1,.729,0v5.9A.364.364,0,0,1,459.238,303.915Z" transform="translate(-458.874 -297.286)" fill="#46a5ce"/>
        </g>
        <g id="Group_407" data-name="Group 407" transform="translate(2.481 12.895)">
          <path id="Path_778" data-name="Path 778" d="M455.836,303.706a.364.364,0,0,1-.364-.364v-5.234a.364.364,0,0,1,.729,0v5.234A.365.365,0,0,1,455.836,303.706Z" transform="translate(-455.472 -297.743)" fill="#46a5ce"/>
        </g>
        <g id="Group_408" data-name="Group 408" transform="translate(0 14.275)">
          <path id="Path_779" data-name="Path 779" d="M452.432,302.839a.364.364,0,0,1-.364-.364V300a.364.364,0,1,1,.729,0v2.474A.364.364,0,0,1,452.432,302.839Z" transform="translate(-452.068 -299.636)" fill="#46a5ce"/>
        </g>
      </g>
    </g>
    <g id="Group_417" data-name="Group 417" transform="translate(347.731 165.452)">
      <path id="Path_780" data-name="Path 780" d="M384.159,270.534l20.989-.872.92-35.909-1.946-8.256-9.2-4.327-6.244,1.192a7.325,7.325,0,0,0-5.948,7.452l2.276,25.414Z" transform="translate(-358.553 -197.236)" fill="#e6d5b9"/>
      <path id="Path_781" data-name="Path 781" d="M396.25,215.1v7.215s1.525.911,5.093.911c1.924,0,2.356-.911,2.356-.911V219.65Z" transform="translate(-362.22 -195.591)" fill="#e6d5b9"/>
      <path id="Path_782" data-name="Path 782" d="M395.089,203.762c.017.261.026.506.042.742,0,.085-.009.168-.009.261-.177,4.284,2.571,8.87,6.711,9.494,0,0,.034.008.093.017.034,0,.085.009.144.009.886.109,4.089.371,5.261-.92a10.9,10.9,0,0,0,2.6-6.2,24.369,24.369,0,0,0-.345-3.118c0-.6.321-2.472.327-3.285.028-3.822-2.544-7.615-7.115-7.615C395.941,193.147,394.9,199.159,395.089,203.762Z" transform="translate(-361.899 -189.638)" fill="#e6d5b9"/>
      <path id="Path_783" data-name="Path 783" d="M406.464,224.666" transform="translate(-364.989 -198.184)" fill="#6ebaad"/>
      <g id="Group_412" data-name="Group 412" transform="translate(16.416 27.248)">
        <path id="Path_784" data-name="Path 784" d="M372.783,254.58c2.251.936,8.9-11.634,11.326-17.179s3.347-10.346.6-11.489-5.5,2.9-7.727,8.525S370.532,253.643,372.783,254.58Z" transform="translate(-372.099 -225.718)" fill="#e6d5b9"/>
        <path id="Path_785" data-name="Path 785" d="M379.83,254.075s-2.254,5.428-2.254,5.637,2.6,7.08,2.6,7.08l-7.027-7.866Z" transform="translate(-372.371 -233.406)" fill="#e6d5b9"/>
        <g id="Group_411" data-name="Group 411" transform="translate(0 24.986)">
          <path id="Path_786" data-name="Path 786" d="M385.474,287.088c1.965-.9-4.122-15.608-5.992-19.691s-4.147-8.255-6.351-7.246-.53,5.458,1.341,9.541S383.509,287.989,385.474,287.088Z" transform="translate(-372.084 -259.998)" fill="#e6d5b9"/>
          <path id="Path_787" data-name="Path 787" d="M387.814,291.873c-2.394.888-.346,4.933.4,6.287,1.219,2.206,4.628,3.3,5.49,2.835s-2.274-5.246-2.168-5.52,1.538,2.454,2.3,1.936-1.135-3.748-2.378-4.738S389.314,291.315,387.814,291.873Z" transform="translate(-376.043 -268.57)" fill="#e6d5b9"/>
        </g>
      </g>
      <path id="Path_788" data-name="Path 788" d="M386.18,238.6l-1.091,1.5-4.749,6.553-.034.05-5.739-4.959c3.289-11.822,8.181-17.134,8.181-17.134Z" transform="translate(-356.341 -198.169)" fill="#cce2ed"/>
      <path id="Path_789" data-name="Path 789" d="M387.013,241.062l-4.749,6.553a51.121,51.121,0,0,1,.73-19.458Z" transform="translate(-358.264 -199.13)" fill="#bdd9e5"/>
      <path id="Path_790" data-name="Path 790" d="M402.824,284.827c-2.093.793-3.257,4.114-2.55,7.2a45.942,45.942,0,0,0,3.3,9.3c4.346,9.214,7.709,21.534,10.792,21.49s4.1-7.686,1.084-17.641c-2.73-9-5.232-20.8-7.5-21.382C406.794,283.5,404.655,284.133,402.824,284.827Z" transform="translate(-363.254 -214.196)" fill="#e6d5b9"/>
      <g id="Group_413" data-name="Group 413" transform="translate(46.867 105.123)">
        <path id="Path_791" data-name="Path 791" d="M418.977,332.7c-8.376-2.565-4.585,31.085-1.773,38.283s3.867-5.131,4.372-17.553S422.273,333.709,418.977,332.7Z" transform="translate(-413.862 -332.56)" fill="#e6d5b9"/>
      </g>
      <path id="Path_792" data-name="Path 792" d="M415.446,370.75c.095.127.7,11.184.7,11.184s5.338.382,5.338,0,.413-9.977.413-9.977Z" transform="translate(-367.424 -237.791)" fill="#e6d5b9"/>
      <path id="Path_793" data-name="Path 793" d="M361.85,354.266c-.039.155-8.235,7.6-8.235,7.6s3.073,4.381,3.369,4.141,8-5.976,8-5.976Z" transform="translate(-350.66 -233.322)" fill="#e6d5b9"/>
      <path id="Path_794" data-name="Path 794" d="M388.227,285.106c-2.206.372-3.993,3.4-3.9,6.572a45.938,45.938,0,0,0,1.429,9.765c2.478,9.882,3.39,22.62,6.423,23.175s5.517-6.745,4.483-17.1c-.935-9.357-1.1-21.417-3.216-22.431C392.379,284.577,390.158,284.78,388.227,285.106Z" transform="translate(-358.987 -214.482)" fill="#e6d5b9"/>
      <g id="Group_414" data-name="Group 414" transform="translate(4.264 104.777)">
        <path id="Path_795" data-name="Path 795" d="M387.016,333.732c-3.264-8.128-26.938,16.11-30.773,22.817s6.289-.368,16.274-7.776S388.3,336.93,387.016,333.732Z" transform="translate(-355.412 -332.084)" fill="#e6d5b9"/>
      </g>
      <path id="Path_796" data-name="Path 796" d="M391.009,309.843c-.193,5.336-.738,9.834-1.9,11.73-3.776,6.159-24.753,19.861-24.753,19.861l-4.48-5.135-.277-.319s8.953-9.65,12.166-12.443a100.906,100.906,0,0,1,9.1-6.578s-9.478-26.812-3.776-33.982a5.935,5.935,0,0,0,.6-1.6c4.7-11.352,12.41.21,12.41.21s.21,2.567.445,6.418C390.882,293.833,391.26,302.6,391.009,309.843Z" transform="translate(-352.283 -212.205)" fill="#263138"/>
      <path id="Path_797" data-name="Path 797" d="M399.929,311.672c-8.685-15.724-7.351-28.546-7.351-28.546l6.881,6.7C399.8,295.662,400.181,304.43,399.929,311.672Z" transform="translate(-361.204 -214.034)" fill="#1e282d"/>
      <path id="Path_798" data-name="Path 798" d="M409.756,284.317s7.237,25.592,7.657,36.08-1.888,33.423-1.888,33.423h-6.293s-1.364-13.81-1.888-19.368.524-13.845.524-13.845-13.879-19.089-15.837-36.709" transform="translate(-361.076 -214.243)" fill="#263138"/>
      <path id="Path_799" data-name="Path 799" d="M407.969,267.859a.626.626,0,0,1-.6.755l-24.14.42a1.212,1.212,0,0,1-1.234-1.3c.394-4.825,1.662-21.4,1.024-25.374-2.241-14.029.017-18.544,3.935-19.642,5.857-1.645,12.326.461,14.1,1.636,1.662,1.091,3.02,2.845,5.806,7.485a13.131,13.131,0,0,1,1.41,3.171,10.5,10.5,0,0,1,.3,1.469,10.96,10.96,0,0,1-1.921,7.316C403.849,248.2,407.23,264.419,407.969,267.859Z" transform="translate(-358.353 -197.492)" fill="#cce2ed"/>
      <path id="Path_800" data-name="Path 800" d="M435.57,225.69c-.365-2.389-14.442-1.552-20.39-.753s-10.491,2.491-10.045,5.408,5.288,3.174,11.2,2.158S435.936,228.08,435.57,225.69Z" transform="translate(-364.62 -198.035)" fill="#e6d5b9"/>
      <path id="Path_801" data-name="Path 801" d="M430.2,221.2s6.922-1.014,7.167-1.154,6.013-6.992,6.013-6.992l3.077,4.929s-3.776,5.8-4.824,6.678-13.39,4.16-13.39,4.16-.245-6.888-.1-6.888S430.2,221.2,430.2,221.2Z" transform="translate(-370.852 -195.035)" fill="#e6d5b9"/>
      <path id="Path_802" data-name="Path 802" d="M416.221,239.8a10.5,10.5,0,0,1,.3,1.469,18.612,18.612,0,0,0-5.211-.026l4.891-1.468A.086.086,0,0,1,416.221,239.8Z" transform="translate(-366.303 -202.28)" fill="#bdd9e5"/>
      <path id="Path_803" data-name="Path 803" d="M401.908,229.412l2.8-5.182,17.05-1.028,1.165,8.894-13.32,4.51s-7.769-2.206-7.628-2.722Z" transform="translate(-363.754 -197.787)" fill="#cce2ed"/>
      <path id="Path_804" data-name="Path 804" d="M408.113,197.771c-.214,2.517-1.76,3.939-2.8,6-1.182,2.337-.289,5.7-.114,8.179a21.519,21.519,0,0,1-2.921,13.047,29.762,29.762,0,0,1-5.515,6.037,6.582,6.582,0,0,1-3.221,1.884c-1.915.284-3.66-1.091-4.969-2.515a26.879,26.879,0,0,1-3.405-4.611,11.538,11.538,0,0,1-1.534-3.794,14.7,14.7,0,0,1-.051-3.429q.232-3.637.463-7.275c.184-2.883.417-5.92,2.036-8.311.953-1.409,2.408-2.587,3.059-4.187.691-1.7.78-2.715,2.1-4.2a10,10,0,0,1,5.413-3.576c3.9-.787,10.883.888,11.44,5.717A5.187,5.187,0,0,1,408.113,197.771Z" transform="translate(-358.765 -189.01)" fill="#263138"/>
      <path id="Path_805" data-name="Path 805" d="M357.807,366.642a14.431,14.431,0,0,0-.835,4.563c-.182,2.811,1.3,3.9.656,4.23-.614.316-8.068-9.122-8.068-9.122l4.624-3.932S357.807,366.647,357.807,366.642Z" transform="translate(-349.561 -235.522)" fill="#263138"/>
      <g id="Group_416" data-name="Group 416" transform="translate(67.18)">
        <g id="Group_415" data-name="Group 415" transform="translate(0 5.112)">
          <path id="Path_806" data-name="Path 806" d="M459.916,195.439c-1.722-1.277-11.593,11.04-14.247,14.616s-5.191,7.548-3.261,8.98,4.995-2.148,7.649-5.725S461.637,196.716,459.916,195.439Z" transform="translate(-441.731 -195.346)" fill="#e6d5b9"/>
        </g>
        <path id="Path_807" data-name="Path 807" d="M463.618,198.9a18.284,18.284,0,0,1,1.469-2.063c.51-.524,2.51.29,3.635-1.547s-.407-3.045-.6-3.427,2.582-2.926,1.956-3.474c-.643-.562-4.329,3.088-4.329,3.088a3.224,3.224,0,0,0-1.59,1.075c-.71.819-1.5,2.105-2.281,3.034" transform="translate(-447.192 -188.333)" fill="#e6d5b9"/>
      </g>
      <path id="Path_808" data-name="Path 808" d="M395.484,284.473" transform="translate(-362.012 -214.399)" fill="#aa1d28"/>
      <path id="Path_809" data-name="Path 809" d="M421.782,385.685s.563,1.634,3.964,3.762,4.294,1.663,4.37,2.459-14.139.141-14.139.141l.222-6.543S421.78,385.514,421.782,385.685Z" transform="translate(-367.568 -241.791)" fill="#263138"/>
    </g>
    <g id="Group_418" data-name="Group 418" transform="translate(362.204 139.369)">
      <path id="Path_810" data-name="Path 810" d="M396.041,152.547H371.266a1.85,1.85,0,0,0-1.849,1.849v13.178a1.843,1.843,0,0,0,1.849,1.84h15.228c2.067,2.034,5.832,5.857,5.832,5.857v-5.857h3.715a1.842,1.842,0,0,0,1.849-1.84V154.4A1.85,1.85,0,0,0,396.041,152.547Zm-19.227,10.292a1.858,1.858,0,1,1,1.857-1.858A1.854,1.854,0,0,1,376.814,162.839Zm6.835,0a1.858,1.858,0,1,1,1.866-1.858A1.859,1.859,0,0,1,383.649,162.839Zm6.844,0a1.858,1.858,0,1,1,1.858-1.858A1.853,1.853,0,0,1,390.493,162.839Z" transform="translate(-369.417 -152.547)" fill="#d88c2c"/>
    </g>
    <g id="Group_427" data-name="Group 427" transform="translate(493.417 119.554)">
      <g id="Group_420" data-name="Group 420">
        <g id="Group_419" data-name="Group 419">
          <path id="Rectangle_245" data-name="Rectangle 245" d="M6.28,0H29.116A6.279,6.279,0,0,1,35.4,6.279V29.116a6.28,6.28,0,0,1-6.28,6.28H6.28A6.28,6.28,0,0,1,0,29.116V6.28A6.28,6.28,0,0,1,6.28,0Z" fill="#5b318c"/>
        </g>
      </g>
      <g id="Group_426" data-name="Group 426" transform="translate(3.336 3.63)">
        <g id="Group_422" data-name="Group 422" transform="translate(18.606 5.349)">
          <g id="Group_421" data-name="Group 421">
            <path id="Path_811" data-name="Path 811" d="M579.543,137.681" transform="translate(-579.543 -137.681)" fill="#fff"/>
          </g>
        </g>
        <path id="Path_812" data-name="Path 812" d="M579.434,135.984a.293.293,0,0,1-.246-.454l3.309-5.055a.294.294,0,0,1,.491.321l-3.309,5.055A.293.293,0,0,1,579.434,135.984Z" transform="translate(-560.828 -130.342)" fill="#fff"/>
        <path id="Path_813" data-name="Path 813" d="M584.673,146.105a.294.294,0,0,1-.033-.585l6-.678a.294.294,0,0,1,.066.584l-6,.678Z" transform="translate(-562.248 -134.273)" fill="#fff"/>
        <path id="Path_814" data-name="Path 814" d="M582.246,141a.294.294,0,0,1-.155-.544l4.331-2.666a.294.294,0,0,1,.308.5l-4.33,2.666A.29.29,0,0,1,582.246,141Z" transform="translate(-561.59 -132.35)" fill="#fff"/>
        <g id="Group_425" data-name="Group 425" transform="translate(0 5.111)">
          <rect id="Rectangle_246" data-name="Rectangle 246" width="7.614" height="8.61" transform="matrix(0.801, -0.598, 0.598, 0.801, 1.963, 12.406)" fill="#fff"/>
          <path id="Path_815" data-name="Path 815" d="M562.077,145.2l-6.1,4.557-.862.644a2.74,2.74,0,0,0-.554,3.834l1.875,2.508a2.739,2.739,0,0,0,3.835.554l.862-.644,5.8,3.628a.619.619,0,0,0,.7-.03l1.638-1.224a.62.62,0,0,0-.044-1.023l-3.309-2.069.009-.057.426-.308a.664.664,0,0,0-.052-1.111l-1.248-.735,2.179-1.628h0l3.624-1.157a11.5,11.5,0,0,1,4.328-.348.848.848,0,0,0,.583-.144,1.273,1.273,0,0,0,.327-1.183,12.861,12.861,0,0,0-2.137-4.956c-.356-.569-.757-1.146-1.192-1.727s-.867-1.114-1.3-1.6a13.028,13.028,0,0,0-4.174-3.469,1.3,1.3,0,0,0-1.234-.013.845.845,0,0,0-.3.52,11.407,11.407,0,0,1-1.548,4.046L562.08,145.2" transform="translate(-554.016 -137.355)" fill="#fff"/>
          <g id="Group_424" data-name="Group 424" transform="translate(12.488 1.412)">
            <g id="Group_423" data-name="Group 423">
              <path id="Path_816" data-name="Path 816" d="M576.917,143.482c.352.469.676.934.961,1.4a10.093,10.093,0,0,1,1.694,4.024,1.064,1.064,0,0,1-.287.972c-.34.254-.937.118-1.668-.321a17.953,17.953,0,0,1-6.331-8.441c-.217-.825-.181-1.437.158-1.691a1.082,1.082,0,0,1,1.02-.008,10.218,10.218,0,0,1,3.4,2.778C576.217,142.583,576.569,143.018,576.917,143.482Z" transform="translate(-571.15 -139.292)" fill="#5b318c"/>
            </g>
          </g>
        </g>
      </g>
    </g>
  </g>
</svg>
