<svg xmlns="http://www.w3.org/2000/svg" width="76.49" height="76.49" viewBox="0 0 76.49 76.49">
  <path id="Icon_metro-info" data-name="Icon metro-info" d="M36.035,24.636a3.6,3.6,0,0,1,3.585-3.585h2.39A3.6,3.6,0,0,1,45.6,24.636v2.39a3.6,3.6,0,0,1-3.585,3.585h-2.39a3.6,3.6,0,0,1-3.585-3.585ZM50.377,59.3H31.255V54.515h4.781V40.173H31.255V35.393H45.6V54.515h4.781ZM40.816,1.928A38.245,38.245,0,1,0,79.061,40.173,38.245,38.245,0,0,0,40.816,1.928Zm0,69.319A31.074,31.074,0,1,1,71.89,40.173,31.074,31.074,0,0,1,40.816,71.247Z" transform="translate(-2.571 -1.928)" fill="#31728d"/>
</svg>
