<svg xmlns="http://www.w3.org/2000/svg" width="463.5" height="172.609" viewBox="0 0 463.5 172.609">
  <g id="Group_338" data-name="Group 338" transform="translate(611.711 -319.284)">
    <path id="Path_705" data-name="Path 705" d="M-536.35,424.265a9.677,9.677,0,0,0,1.746,1.074,23.567,23.567,0,0,0,2.215.8,13.8,13.8,0,0,0,3.154.538q.94-12.353,2.955-26.588t5.909-30.214a5.788,5.788,0,0,1,1.545-2.752,4.958,4.958,0,0,1,2.752-1.41,20.747,20.747,0,0,1,3.693-.2,6.208,6.208,0,0,1,3.558,1.41,4.37,4.37,0,0,1,1.881,4.968q-.538,2.285-1.611,7.183T-510.9,390.9q-1.277,6.917-2.551,15.577t-2.081,18.464a53.773,53.773,0,0,0,11.883-5.506A53.168,53.168,0,0,0-491.77,409.7a48.017,48.017,0,0,0,8.662-13.362,32.2,32.2,0,0,0,2.349-16.516,20.838,20.838,0,0,0-3.02-9.266,27.149,27.149,0,0,0-6.043-6.713,36.168,36.168,0,0,0-7.789-4.7,58.152,58.152,0,0,0-8.46-3.02,59.285,59.285,0,0,0-7.99-1.612q-3.761-.468-6.311-.738a77.367,77.367,0,0,1-4.3,10.809,61.5,61.5,0,0,1-6.982,11.079,74.351,74.351,0,0,1-10.34,10.675,81.211,81.211,0,0,1-14.234,9.6,49.033,49.033,0,0,1-8.458,3.761,65.963,65.963,0,0,1-9.8,2.617,67.375,67.375,0,0,1-13.026,1.142,29.8,29.8,0,0,1-15.443-3.962,17.916,17.916,0,0,1-8.594-11.615q-1.209-10.339,6.581-18.8a45.5,45.5,0,0,1,8.928-7.185,64.493,64.493,0,0,1,14.368-6.459,149.715,149.715,0,0,1,21.082-5.029,227.5,227.5,0,0,1,29.073-2.813,45.66,45.66,0,0,0,.134-14.368q-1.076-6.309-3.491-9.13a2.251,2.251,0,0,1-.536-2.083,2.064,2.064,0,0,1,1.477-1.543,30.449,30.449,0,0,1,3.626-.94,11.822,11.822,0,0,1,3.96-.134,9.494,9.494,0,0,1,3.693,1.343,9.754,9.754,0,0,1,3.088,3.223,15.934,15.934,0,0,1,.874,2.349q.468,1.544.738,2.753a47.967,47.967,0,0,1,.4,7.251,56.278,56.278,0,0,1-1.343,11.279q3.49.276,8.662.894a91.251,91.251,0,0,1,11.011,2.058,83.031,83.031,0,0,1,11.615,3.811,46.476,46.476,0,0,1,10.541,5.994,29.948,29.948,0,0,1,7.789,8.794,25.708,25.708,0,0,1,3.29,12.153,36.031,36.031,0,0,1-1.881,13.294,42.351,42.351,0,0,1-5.909,11.279,51.42,51.42,0,0,1-8.728,9.2,74.9,74.9,0,0,1-10.34,7.183,81.983,81.983,0,0,1-10.607,5.17,60.056,60.056,0,0,1-9.668,3.021q9.13,15.847,15.845,25.984A103.174,103.174,0,0,0-484.921,472.2q5.64,5.642,11.011,7.387a27.039,27.039,0,0,0,11.817.939,1.89,1.89,0,0,1,1.611.472,2.392,2.392,0,0,1,.806,1.409,12.823,12.823,0,0,1-.336,2.617,8.07,8.07,0,0,1-1.41,3.021,9.087,9.087,0,0,1-4.834,3.425,10.314,10.314,0,0,1-6.041-.068,22.738,22.738,0,0,1-4.9-2.351,42,42,0,0,1-6.043-4.632,74.266,74.266,0,0,1-7.117-7.519,103.968,103.968,0,0,1-7.99-11.147q-4.028-6.175-8.392-13.226t-9.466-15.375q-.54,11.55.066,23.768a201.474,201.474,0,0,0,2.753,24.573,5.091,5.091,0,0,1-.806,3.558,5.063,5.063,0,0,1-2.954,2.217,18.269,18.269,0,0,1-3.828.4,7.69,7.69,0,0,1-3.693-.94,4.607,4.607,0,0,1-2.551-3.627q-.4-2.147-1.073-6.781t-1.21-11.48q-.538-6.849-.671-15.845t.4-19.875a27.489,27.489,0,0,1-9.869-1.209,19.867,19.867,0,0,1-7.856-4.564,11.773,11.773,0,0,1-2.821-4.7,5.328,5.328,0,0,1,.94-5.238,8.8,8.8,0,0,1,4.3-2.551,1.616,1.616,0,0,1,2.281,1.209,19.162,19.162,0,0,0,2.553,4.566A14.986,14.986,0,0,0-536.35,424.265Zm-4.566-51.967a62.055,62.055,0,0,0,4.968-9.264,67.005,67.005,0,0,0,3.223-9.266,253.774,253.774,0,0,0-26.856,2.417,145.149,145.149,0,0,0-19.471,4.164,59.773,59.773,0,0,0-13.16,5.438,40.829,40.829,0,0,0-8.057,5.975q-7.118,7.118-5.639,15.711a10.642,10.642,0,0,0,3.156,5.639,15.837,15.837,0,0,0,5.707,3.29,25.36,25.36,0,0,0,7.385,1.276,40.5,40.5,0,0,0,8.057-.536,61.015,61.015,0,0,0,12.286-3.157,62.611,62.611,0,0,0,11.281-5.5,61.25,61.25,0,0,0,9.668-7.385A48.939,48.939,0,0,0-540.916,372.3Z" transform="translate(0 0)" fill="#2980b9"/>
    <path id="Path_706" data-name="Path 706" d="M-485.62,401.714a2.644,2.644,0,0,1,.939,2.687q-.4,1.881-1.679,6.041a57.484,57.484,0,0,1-3.424,8.528,30.326,30.326,0,0,1-5.3,7.654,9.855,9.855,0,0,1-7.318,3.29,17.463,17.463,0,0,1-10.34-2.819,15.143,15.143,0,0,1-3.558-3.29,19.378,19.378,0,0,1-2.887-5.169,28.865,28.865,0,0,1-1.679-7.321,44.947,44.947,0,0,1,.2-10,43.535,43.535,0,0,1,3.222-11.547,26.965,26.965,0,0,1,2.283-4.164,18.114,18.114,0,0,1,3.089-3.558,13.043,13.043,0,0,1,4.028-2.417,12.533,12.533,0,0,1,5.1-.74,8.3,8.3,0,0,1,5.573,2.284A8.515,8.515,0,0,1-495.02,386a15.738,15.738,0,0,1-.47,6.177,20.162,20.162,0,0,1-2.887,6.311,19.209,19.209,0,0,1-5.036,5.035,13.235,13.235,0,0,1-6.647,2.351,47.664,47.664,0,0,0,.336,5.169,23.549,23.549,0,0,0,1.344,5.708,10.478,10.478,0,0,0,2.952,4.364,6.245,6.245,0,0,0,5.306,1.141q1.609-.267,3.558-2.887a44.07,44.07,0,0,0,3.693-5.976q1.743-3.354,3.156-6.646t1.947-4.9a.848.848,0,0,1,.6-.671,1.012,1.012,0,0,1,.872.134A3.409,3.409,0,0,1-485.62,401.714Zm-17.054-15.307a3.148,3.148,0,0,0-1.008.334,4.878,4.878,0,0,0-1.679,1.68,21.956,21.956,0,0,0-2.081,4.162,42.688,42.688,0,0,0-2.081,7.788,18.59,18.59,0,0,0,3.424-2.149,14.449,14.449,0,0,0,3.559-4.162,12.4,12.4,0,0,0,1.611-3.76,5.432,5.432,0,0,0,0-2.417,2.131,2.131,0,0,0-.806-1.276A1.118,1.118,0,0,0-502.674,386.407Z" transform="translate(45.95 30.204)" fill="#2980b9"/>
    <path id="Path_707" data-name="Path 707" d="M-439.976,401.572a2.53,2.53,0,0,1,.806,2.687q-.271,1.207-.94,3.624t-1.745,5.3a59.218,59.218,0,0,1-2.551,5.841,34.9,34.9,0,0,1-3.357,5.44,16.619,16.619,0,0,1-4.162,3.962,8.208,8.208,0,0,1-4.97,1.341q-6.042-.269-8.862-6.982t-2.283-17.592a79.579,79.579,0,0,1-4.23,7.117,49.056,49.056,0,0,1-5.5,6.915,27.649,27.649,0,0,1-6.513,5.1,11.973,11.973,0,0,1-7.251,1.545,9.674,9.674,0,0,1-5.909-2.483,10.829,10.829,0,0,1-2.953-5.1,17.123,17.123,0,0,1-.336-6.647,37.106,37.106,0,0,1,1.745-7.318,33.4,33.4,0,0,1,3.357-6.983A26.231,26.231,0,0,1-491,391.77a31.943,31.943,0,0,1,6.311-4.432,24.587,24.587,0,0,1,6.915-2.55,16.28,16.28,0,0,1,6.579,0,11,11,0,0,1,5.573,3.088,26.005,26.005,0,0,1,.74-3.357q.468-1.609.872-3.357a2.631,2.631,0,0,1,2.685-2.013,35.82,35.82,0,0,1,4.5.671,12.944,12.944,0,0,1,4.766,2.015,4.167,4.167,0,0,1,1.21,1.679,3.308,3.308,0,0,1,.133,2.081q-.4,1.883-1.141,5.3t-1.545,7.385q-.8,3.962-1.409,8.057t-.806,7.52a24.461,24.461,0,0,0,.2,5.64q.4,2.215,1.611,2.348,1.743.271,3.558-2.214a36.167,36.167,0,0,0,3.425-5.909q1.612-3.424,2.886-6.917t1.814-5.1a.848.848,0,0,1,.6-.671,1.015,1.015,0,0,1,.874.134A3.385,3.385,0,0,1-439.976,401.572Zm-47.4,16.651q.938.136,2.687-1.477a46.793,46.793,0,0,0,3.894-4.164q2.145-2.55,4.364-5.707t4.162-5.976q1.946-2.819,3.357-4.967t1.813-2.819a3.5,3.5,0,0,0-2.819-1.747,8.54,8.54,0,0,0-4.566.872,19.424,19.424,0,0,0-5.3,3.76,26.171,26.171,0,0,0-5.035,7.049,40.157,40.157,0,0,0-3.693,8.528,11.825,11.825,0,0,0-.47,4.5A2.363,2.363,0,0,0-487.378,418.224Z" transform="translate(56.166 30.346)" fill="#2980b9"/>
    <path id="Path_708" data-name="Path 708" d="M-429.93,440.588a39.494,39.494,0,0,1-.874-4.162q-.335-2.147-.6-4.028-.271-2.147-.4-4.3-1.881,3.09-4.3,6.312a36.773,36.773,0,0,1-5.371,5.774,27.138,27.138,0,0,1-6.245,4.093,12.354,12.354,0,0,1-6.781,1.142,9.666,9.666,0,0,1-5.907-2.483,10.361,10.361,0,0,1-2.887-5.1,19.071,19.071,0,0,1-.336-6.647,33.856,33.856,0,0,1,1.679-7.318,31.6,31.6,0,0,1,3.424-6.983,27.872,27.872,0,0,1,4.7-5.573,27.82,27.82,0,0,1,5.371-3.96,30.272,30.272,0,0,1,5.976-2.619,17.153,17.153,0,0,1,5.907-.806,11.921,11.921,0,0,1,5.3,1.478,225.6,225.6,0,0,1,3.223-22.358,160.038,160.038,0,0,1,4.7-18.734,66.542,66.542,0,0,1,5.371-12.89,38.342,38.342,0,0,1,2.753-4.432,20.743,20.743,0,0,1,3.357-3.692,12.618,12.618,0,0,1,3.826-2.283,6.96,6.96,0,0,1,4.164-.2q2.685.674,3.828,4.632a33.172,33.172,0,0,1,.939,10.072,89.083,89.083,0,0,1-1.677,13.764,115.175,115.175,0,0,1-4.231,15.643,126.226,126.226,0,0,1-6.646,15.711,83.138,83.138,0,0,1-8.864,14.032q-.8,6.447-1.074,12.22a75.341,75.341,0,0,0,.134,10.2,21.9,21.9,0,0,0,1.612,7.051q1.207,2.62,3.491,2.617,1.743,0,3.76-3.356a58.73,58.73,0,0,0,3.826-7.723q1.815-4.36,3.223-8.592t1.947-5.842q.536-1.209,1.612-.536a2.941,2.941,0,0,0,.671.4,2.627,2.627,0,0,1,.806,2.687q-.271,1.207-1.008,3.96t-1.947,6.177q-1.207,3.427-2.819,7.051a41.842,41.842,0,0,1-3.626,6.579,22.027,22.027,0,0,1-4.364,4.834,7.31,7.31,0,0,1-5.036,1.745,6.408,6.408,0,0,1-4.028-1.475,13.385,13.385,0,0,1-3.491-4.029A29.6,29.6,0,0,1-429.93,440.588Zm-20.277-2.819q1.074.271,3.357-1.879t4.968-5.238q2.683-3.088,5.371-6.579t4.566-5.909q0-1.745.068-3.425t.2-3.558a6.668,6.668,0,0,0-3.424-.2,11.555,11.555,0,0,0-4.164,1.747,22.443,22.443,0,0,0-4.43,3.828,27.8,27.8,0,0,0-4.1,6.041,37.042,37.042,0,0,0-3.626,8.528,12.388,12.388,0,0,0-.4,4.5A2.641,2.641,0,0,0-450.207,437.768Zm38.807-69.423q-.673,2.416-1.611,6.243t-2.015,8.662q-1.076,4.835-2.081,10.407t-1.948,11.213A100.391,100.391,0,0,0-410.8,385.4a133.181,133.181,0,0,0,4.1-17.456,108.9,108.9,0,0,0,1.477-17.322q-1.076,2.416-2.149,5.5t-2.015,5.773Q-410.462,365.122-411.4,368.345Z" transform="translate(74.989 10.801)" fill="#2980b9"/>
    <path id="Path_709" data-name="Path 709" d="M-365.036,401.572a2.529,2.529,0,0,1,.8,2.687q-.269,1.207-.939,3.624t-1.747,5.3a59.218,59.218,0,0,1-2.551,5.841,34.666,34.666,0,0,1-3.357,5.44,16.594,16.594,0,0,1-4.162,3.962,8.2,8.2,0,0,1-4.968,1.341q-6.044-.269-8.864-6.982T-393.1,405.2a79.945,79.945,0,0,1-4.23,7.117,49.078,49.078,0,0,1-5.506,6.915,27.645,27.645,0,0,1-6.511,5.1,11.978,11.978,0,0,1-7.251,1.545,9.666,9.666,0,0,1-5.909-2.483,10.832,10.832,0,0,1-2.955-5.1,17.123,17.123,0,0,1-.335-6.647,37.106,37.106,0,0,1,1.745-7.318,33.4,33.4,0,0,1,3.357-6.983,26.23,26.23,0,0,1,4.632-5.573,32.033,32.033,0,0,1,6.311-4.432,24.587,24.587,0,0,1,6.915-2.55,16.287,16.287,0,0,1,6.581,0,11.014,11.014,0,0,1,5.573,3.088,25.752,25.752,0,0,1,.738-3.357q.47-1.609.872-3.357a2.632,2.632,0,0,1,2.685-2.013,35.877,35.877,0,0,1,4.5.671,12.954,12.954,0,0,1,4.766,2.015,4.163,4.163,0,0,1,1.208,1.679,3.309,3.309,0,0,1,.134,2.081q-.4,1.883-1.141,5.3t-1.545,7.385q-.807,3.962-1.41,8.057t-.806,7.52a24.545,24.545,0,0,0,.2,5.64q.4,2.215,1.612,2.348,1.743.271,3.558-2.214a36.171,36.171,0,0,0,3.424-5.909q1.612-3.424,2.887-6.917t1.813-5.1a.85.85,0,0,1,.6-.671,1.016,1.016,0,0,1,.874.134A3.381,3.381,0,0,1-365.036,401.572Zm-47.4,16.651q.938.136,2.685-1.477a46.793,46.793,0,0,0,3.894-4.164q2.147-2.55,4.364-5.707t4.164-5.976q1.946-2.819,3.357-4.967t1.811-2.819a3.5,3.5,0,0,0-2.819-1.747,8.54,8.54,0,0,0-4.566.872,19.47,19.47,0,0,0-5.3,3.76,26.171,26.171,0,0,0-5.035,7.049,40.237,40.237,0,0,0-3.693,8.528,11.856,11.856,0,0,0-.47,4.5A2.365,2.365,0,0,0-412.437,418.224Z" transform="translate(94.153 30.346)" fill="#2980b9"/>
    <path id="Path_710" data-name="Path 710" d="M-363.929,429.295a17.365,17.365,0,0,1-.268,3.088c-.181.9-.4,1.813-.672,2.753a9.3,9.3,0,0,1-1.207,2.617,15.667,15.667,0,0,1-5.506,5.44,13.84,13.84,0,0,1-7.52,1.813,15.563,15.563,0,0,1-5.64-1.745,11.046,11.046,0,0,1-3.828-3.291,8.868,8.868,0,0,1-1.409-6.111,13.539,13.539,0,0,1,3.357-7.655,16.217,16.217,0,0,1,8.728-5.235q-.538-.94-1.074-1.747a44.009,44.009,0,0,1-3.156-5.17q-1.279-2.482-2.083-4.5-.94-2.416-1.611-4.432a36.142,36.142,0,0,1-1.611-10.071,23.366,23.366,0,0,1,.336-3.962,11.53,11.53,0,0,1,1.208-3.558,9.76,9.76,0,0,1,2.417-2.887,9.231,9.231,0,0,1,3.826-1.813,12.791,12.791,0,0,1,4.432-.268,10.584,10.584,0,0,1,3.29,1.074,4.64,4.64,0,0,1,2.215,2.685c.27.987.136,1.679-.4,2.081s-1.142.9-1.813,1.478a7.949,7.949,0,0,0-1.813,2.483,10.257,10.257,0,0,0-.536,5.1,33.4,33.4,0,0,0,.94,3.894q.669,1.883,1.677,4.566a52.236,52.236,0,0,0,2.619,5.775l1.343,2.685a23.946,23.946,0,0,1,1.343,2.954q.671,1.749,1.343,3.761a21.427,21.427,0,0,1,8.862,5.907,26.349,26.349,0,0,1,2.687,4.03,16.808,16.808,0,0,1,1.477,3.894,7.313,7.313,0,0,1-.134,4.162,6.222,6.222,0,0,1-1.747,3.023,3.839,3.839,0,0,1-2.147.939,3.559,3.559,0,0,1-1.947-.4,3.224,3.224,0,0,1-1.142-.871,2.679,2.679,0,0,1-.6-1.477,3.184,3.184,0,0,1,.2-1.478c.178-.449.4-.939.672-1.477a14.2,14.2,0,0,0-1.343-4.094A10.137,10.137,0,0,0-363.929,429.295Zm-14.368,7.788a7.787,7.787,0,0,0,2.351-4.1,14.649,14.649,0,0,0,.2-6.111,15.236,15.236,0,0,0-5.708,2.283,7.687,7.687,0,0,0-3.021,3.359,3.828,3.828,0,0,0-.336,2.214,10.723,10.723,0,0,0,.47,1.545,6.287,6.287,0,0,0,.94,1.209,2.672,2.672,0,0,0,1.746.672,4.4,4.4,0,0,0,1.611-.268A10.185,10.185,0,0,0-378.3,437.082Z" transform="translate(112.38 32.032)" fill="#2980b9"/>
    <path id="Path_711" data-name="Path 711" d="M-258.955,365.925a9.839,9.839,0,0,1,1.477,2.685,7.172,7.172,0,0,1,.336,2.618,5.392,5.392,0,0,1-1.142,2.887,7.947,7.947,0,0,1-3.29,2.015,12.348,12.348,0,0,1-4.9.671,5.384,5.384,0,0,1-2.149-.4,4.978,4.978,0,0,1-1.611-.94,3,3,0,0,1-.94-2.147q-.4-3.626-5.707-3.626a75.537,75.537,0,0,0-14.57,1.947q-9.263,1.948-21.888,5.169t-27.527,6.043q-1.209,5.911-2.283,12.422t-1.881,12.892q-.8,6.379-1.141,12.085a75.024,75.024,0,0,0,0,10.071,22.027,22.027,0,0,0,1.477,6.983q1.139,2.62,3.425,2.617,1.743,0,3.76-3.356a65.194,65.194,0,0,0,3.894-7.723q1.878-4.36,3.29-8.592t1.947-5.842q.536-1.209,1.612-.536a2.943,2.943,0,0,0,.671.4,2.627,2.627,0,0,1,.806,2.687q-.271,1.207-1.008,3.96t-1.947,6.177q-1.209,3.427-2.819,7.051a41.847,41.847,0,0,1-3.626,6.579,22.066,22.066,0,0,1-4.364,4.834,7.31,7.31,0,0,1-5.036,1.745,8.379,8.379,0,0,1-5.371-2.819,24,24,0,0,1-4.164-7.117q-2.014-4.833-2.819-14.1a127.013,127.013,0,0,1-.068-18.062q.606-10,2.083-20.075a75.794,75.794,0,0,1-18.128.672,44.809,44.809,0,0,1-12.22-2.819,21.865,21.865,0,0,1-7.519-4.834,20.207,20.207,0,0,1-3.9-5.506,7.244,7.244,0,0,1-.6-3.692,7.611,7.611,0,0,1,1.208-3.357,7.442,7.442,0,0,1,2.753-2.485,9.622,9.622,0,0,1,4.029-1.074h1.343a2.877,2.877,0,0,1,2.013.738,2,2,0,0,1,.672,1.814,12.389,12.389,0,0,0,.8,5.639,11.708,11.708,0,0,0,3.76,4.968,22.014,22.014,0,0,0,7.117,3.558,36.793,36.793,0,0,0,11.013,1.41q1.881,0,4.094-.2t4.5-.47q1.209-6.849,2.619-12.892t2.887-10.743a2.515,2.515,0,0,1,2.551-1.745,18.414,18.414,0,0,1,3.693.47,8.952,8.952,0,0,1,4.23,2.349,3.73,3.73,0,0,1,1.409,2.081,4.275,4.275,0,0,1-.066,2.485q-.676,2.285-1.612,6.311t-2.013,9.4q6.847-1.476,14.032-3.357t14.166-3.894l13.494-3.894q6.512-1.878,11.749-3.357a44.672,44.672,0,0,1,13.026-1.747,32.922,32.922,0,0,1,8.46,1.343A14.789,14.789,0,0,1-258.955,365.925Z" transform="translate(108.922 17.653)" fill="#2980b9"/>
    <path id="Path_712" data-name="Path 712" d="M-324.077,402.366a2.915,2.915,0,0,1,.806,2.687,30.5,30.5,0,0,1-.806,4.364q-.674,2.753-1.745,5.975a60.778,60.778,0,0,1-2.619,6.511,36.853,36.853,0,0,1-3.492,5.976,19.055,19.055,0,0,1-4.3,4.364,7.811,7.811,0,0,1-5.036,1.545,8.9,8.9,0,0,1-7.117-3.626,20.237,20.237,0,0,1-3.558-9.6,56.966,56.966,0,0,1,.134-14.57,119.688,119.688,0,0,1,3.826-18.4,2.059,2.059,0,0,1,2.553-1.881,22.991,22.991,0,0,1,4.5.538,12.928,12.928,0,0,1,4.766,2.015,4.164,4.164,0,0,1,1.209,1.679,3.3,3.3,0,0,1,.134,2.081q-.4,1.881-1.209,5.1t-1.545,6.983q-.739,3.761-1.409,7.586t-.94,6.982a19.487,19.487,0,0,0,.134,5.24q.4,2.082,1.612,2.215,1.743.267,3.491-2.283a37.214,37.214,0,0,0,3.356-6.311q1.612-3.759,2.954-7.923t2.015-7.117a.85.85,0,0,1,.6-.671,1.38,1.38,0,0,1,1.008.134A2.942,2.942,0,0,0-324.077,402.366ZM-339.922,384.1a6.866,6.866,0,0,1-3.558-1.409,2.638,2.638,0,0,1-1.142-2.619,2.807,2.807,0,0,1,1.881-2.015,7.338,7.338,0,0,1,3.76-.4,6.751,6.751,0,0,1,3.424,1.41,2.508,2.508,0,0,1,1.142,2.483A2.832,2.832,0,0,1-336.3,383.7,6.877,6.877,0,0,1-339.922,384.1Z" transform="translate(131.475 29.552)" fill="#2980b9"/>
    <path id="Path_713" data-name="Path 713" d="M-310.345,388.554a2.817,2.817,0,0,1-1.612,2.285,3.84,3.84,0,0,1-2.685.536,1.348,1.348,0,0,1-1.477-1.074,1.212,1.212,0,0,1-.134-.94,2.5,2.5,0,0,0-.538-2.417q-.8-.669-1.209-.536a3.885,3.885,0,0,0-1.276.6,7.51,7.51,0,0,0-2.147,2.351,23.563,23.563,0,0,0-2.283,5.036,39.289,39.289,0,0,0-1.679,8.794,41.187,41.187,0,0,0,.671,10.34,24.282,24.282,0,0,0,1.074,3.626,10.416,10.416,0,0,0,1.746,3.02,6.4,6.4,0,0,0,2.618,1.881,6.661,6.661,0,0,0,3.693.2q1.745-.267,3.693-2.887A44.218,44.218,0,0,0-308.2,413.4q1.743-3.354,3.089-6.646t1.879-4.9q.536-1.209,1.612-.536a2.942,2.942,0,0,0,.671.4,2.627,2.627,0,0,1,.806,2.687q-.4,1.881-1.679,6.041a57.656,57.656,0,0,1-3.425,8.528,30.284,30.284,0,0,1-5.3,7.654,9.858,9.858,0,0,1-7.319,3.29,17.458,17.458,0,0,1-10.339-2.819,15.116,15.116,0,0,1-3.559-3.29,19.46,19.46,0,0,1-2.887-5.169,29,29,0,0,1-1.679-7.321,45.13,45.13,0,0,1,.2-10,43.472,43.472,0,0,1,3.223-11.547,26.837,26.837,0,0,1,2.283-4.164,18.1,18.1,0,0,1,3.088-3.558,13.068,13.068,0,0,1,4.03-2.417,12.529,12.529,0,0,1,5.1-.74q4.43.271,6.445,3.089A9.244,9.244,0,0,1-310.345,388.554Z" transform="translate(139.496 30.204)" fill="#2980b9"/>
  </g>
</svg>
