<svg xmlns="http://www.w3.org/2000/svg" width="427.976" height="206.961" viewBox="0 0 427.976 206.961"><g transform="translate(-384.2 243.003)"><path d="M493.369-142.359a62.644,62.644,0,0,1,11.29,3.7,36.949,36.949,0,0,1,10.349,6.652,29.107,29.107,0,0,1,7.19,10.418q2.622,6.249,1.816,15.121-.944,9.81-4.57,16.263a33.743,33.743,0,0,1-8.8,10.417,34.772,34.772,0,0,1-11.224,5.78,54.185,54.185,0,0,1-11.76,2.217,58.623,58.623,0,0,1-10.551-.134,44.844,44.844,0,0,1-7.527-1.344,31.373,31.373,0,0,1-10.08-4.57,25.835,25.835,0,0,1-6.655-7.19q-2.889-4.5-2.217-11.76a21.153,21.153,0,0,1,2.353-8.738,19.749,19.749,0,0,1,4.637-5.712,20.161,20.161,0,0,1,5.712-3.359,36.712,36.712,0,0,1,5.712-1.68,314.188,314.188,0,0,1,.941-34.274,343.672,343.672,0,0,1,6.99-45.834,4.776,4.776,0,0,1,1.478-2.756,5.313,5.313,0,0,1,2.824-1.41,17.239,17.239,0,0,1,3.7-.136,7.178,7.178,0,0,1,3.563,1.344,4.374,4.374,0,0,1,1.881,4.973q-1.077,4.708-3.225,17.138a280.176,280.176,0,0,0-3.226,30.579,55.506,55.506,0,0,0,11.29-4.3,44.171,44.171,0,0,0,10.619-7.392,34.061,34.061,0,0,0,7.527-10.484,24.371,24.371,0,0,0,1.882-13.575,22.533,22.533,0,0,0-3.16-9.207,26.744,26.744,0,0,0-6.047-6.788,35.654,35.654,0,0,0-7.864-4.7,62.63,62.63,0,0,0-8.468-3.024,65.882,65.882,0,0,0-7.861-1.679q-3.7-.536-6.251-.807a75.775,75.775,0,0,1-4.368,10.887,63.406,63.406,0,0,1-7.056,11.156,76.381,76.381,0,0,1-10.284,10.685,74.253,74.253,0,0,1-14.18,9.475,43.25,43.25,0,0,1-8.466,3.9,65.8,65.8,0,0,1-9.813,2.622,67.416,67.416,0,0,1-13.037,1.143,29.829,29.829,0,0,1-15.457-3.965,17.931,17.931,0,0,1-8.6-11.626q-1.21-10.349,6.585-18.816a45.556,45.556,0,0,1,8.938-7.192,64.555,64.555,0,0,1,14.382-6.465,150.235,150.235,0,0,1,21.1-5.032,227.406,227.406,0,0,1,29.1-2.818,49.9,49.9,0,0,0,.066-14.382q-1.007-6.315-3.561-9.139a2.114,2.114,0,0,1-.471-2.085,2.235,2.235,0,0,1,1.546-1.545,30.48,30.48,0,0,1,3.629-.941,11.48,11.48,0,0,1,3.9-.134,10.028,10.028,0,0,1,3.7,1.344,8.437,8.437,0,0,1,3.024,3.226,9.272,9.272,0,0,1,1.009,2.351q.468,1.545.739,2.756a48,48,0,0,1,.4,7.257A56.439,56.439,0,0,1,477.1-214.67q3.493.138,8.736.825t11.089,2.062a79.432,79.432,0,0,1,11.693,3.747,43.415,43.415,0,0,1,10.552,6.068A31.273,31.273,0,0,1,526.9-193.1a24.656,24.656,0,0,1,3.157,12.163,29.012,29.012,0,0,1-3.293,14.45,40.821,40.821,0,0,1-8.736,11.156,51.735,51.735,0,0,1-11.895,8A76.25,76.25,0,0,1,493.369-142.359Zm-38.441-47.715a51.362,51.362,0,0,0,5.107-9.139,67.322,67.322,0,0,0,3.226-9.275,251.722,251.722,0,0,0-26.949,2.419A145.624,145.624,0,0,0,416.89-201.9a61.525,61.525,0,0,0-13.24,5.442,40.3,40.3,0,0,0-8.131,5.982q-7.125,7.125-5.646,15.726a10.471,10.471,0,0,0,3.226,5.644,16.6,16.6,0,0,0,5.78,3.293,25.431,25.431,0,0,0,7.392,1.278,40.639,40.639,0,0,0,8.065-.537,58.37,58.37,0,0,0,12.3-3.226,63.8,63.8,0,0,0,11.223-5.578,62.805,62.805,0,0,0,9.611-7.392A49.029,49.029,0,0,0,454.927-190.074Zm56.72,83.064q.4-8.331-2.352-13.777a25.351,25.351,0,0,0-7.124-8.8,30.737,30.737,0,0,0-9.409-4.973,64.3,64.3,0,0,0-9.207-2.287q-.134,4.708-.134,9.611t.27,10.014a23.893,23.893,0,0,1,6.183,2.217,24.636,24.636,0,0,1,5.51,3.965,11.5,11.5,0,0,1,2.89,5.041,5.6,5.6,0,0,1-1.412,5.576,8.206,8.206,0,0,1-4.569,2.555,1.962,1.962,0,0,1-2.419-1.48,15.5,15.5,0,0,0-5.646-7.8q.267,4.568.739,9.275t1.143,9.409a4.932,4.932,0,0,1-.875,3.561,5.35,5.35,0,0,1-3.024,2.217,16.73,16.73,0,0,1-3.763.4,7.082,7.082,0,0,1-3.629-.941,4.461,4.461,0,0,1-1.747-1.546,6.607,6.607,0,0,1-.941-2.083q-.538-2.692-1.41-8.334T469.308-109.7a32.16,32.16,0,0,0-3.964,1.142,14.822,14.822,0,0,0-3.9,2.085,11.964,11.964,0,0,0-3.092,3.427A12.852,12.852,0,0,0,456.675-98a14.911,14.911,0,0,0,.94,8.469,17.258,17.258,0,0,0,4.032,5.51,17.808,17.808,0,0,0,5.041,3.226q2.62,1.072,3.965,1.478a26.409,26.409,0,0,0,5.309.807,48.622,48.622,0,0,0,8-.136A41.26,41.26,0,0,0,493.1-80.6a27.007,27.007,0,0,0,8.67-4.771,26.847,26.847,0,0,0,6.721-8.468A31.707,31.707,0,0,0,511.647-107.01Z" transform="translate(0 0)" fill="#31728d"/><path d="M523.69-162.9a3.623,3.623,0,0,1,.268,1.344,3.84,3.84,0,0,1-1.478,2.822,29.317,29.317,0,0,1-4.839,3.763,33.353,33.353,0,0,1-4.7,2.419q-.272,7.663-2.285,11.9a23.484,23.484,0,0,1-4.3,6.518,13.165,13.165,0,0,1-6.05,3.361,16.54,16.54,0,0,1-9.677-1.142,17.641,17.641,0,0,1-6.585-5.376,20.787,20.787,0,0,1-3.561-7.528,22.06,22.06,0,0,1-.6-7.729,19.573,19.573,0,0,1,3.091-9.071,30.6,30.6,0,0,1,3.763-4.638,16.928,16.928,0,0,1,.2-5.846,14.61,14.61,0,0,1,1.949-4.839,10.77,10.77,0,0,1,3.226-3.293,6.9,6.9,0,0,1,3.763-1.21,12.982,12.982,0,0,1,5.444,1.344,16.184,16.184,0,0,1,5.376,4.234,24.918,24.918,0,0,1,4.234,7.527,35.872,35.872,0,0,1,2.017,11.089,19.073,19.073,0,0,0,4.905-2.688,26.794,26.794,0,0,0,3.428-3.092,1.3,1.3,0,0,1,.805-.538A1.406,1.406,0,0,1,523.69-162.9Zm-24.866,26.479a5.276,5.276,0,0,0,3.024-2.085,14.988,14.988,0,0,0,2.085-3.83,24.651,24.651,0,0,0,1.208-4.5q.4-2.351.538-4.234a16.885,16.885,0,0,1-6.99-1.075,34.11,34.11,0,0,1-4.3-2.017,13.136,13.136,0,0,0-.4,2.017c-.091.718-.18,1.478-.268,2.285a17.9,17.9,0,0,0,.134,7.392,12.07,12.07,0,0,0,1.882,4.032A6.884,6.884,0,0,0,498.824-136.419Zm-2.688-33.2a3.15,3.15,0,0,0-1.276,1.142,6.931,6.931,0,0,0-.741,1.546,16.2,16.2,0,0,1,1.748.6,11.641,11.641,0,0,1,1.478.739,2.189,2.189,0,0,1,.941,1.344,1.536,1.536,0,0,1-.4,1.612,14.682,14.682,0,0,0-1.612,2.958,8.246,8.246,0,0,0,1.748,1.344,9.808,9.808,0,0,0,1.747.807q.939.4,1.748.671a11.755,11.755,0,0,0,2.284.537q1.075.136,2.151.27a25.486,25.486,0,0,0-1.41-7.326,11.98,11.98,0,0,0-2.89-4.637,12.292,12.292,0,0,0-1.882-1.344,7.331,7.331,0,0,0-1.747-.6A2.6,2.6,0,0,0,496.136-169.618Z" transform="translate(48.575 31.292)" fill="#31728d"/><path d="M548.729-162.9a3.625,3.625,0,0,1,.268,1.344,3.839,3.839,0,0,1-1.478,2.822,29.317,29.317,0,0,1-4.839,3.763,33.353,33.353,0,0,1-4.7,2.419q-.272,7.663-2.285,11.9a23.481,23.481,0,0,1-4.3,6.518,13.164,13.164,0,0,1-6.05,3.361,16.541,16.541,0,0,1-9.677-1.142,17.641,17.641,0,0,1-6.585-5.376,20.787,20.787,0,0,1-3.561-7.528,22.062,22.062,0,0,1-.6-7.729A19.575,19.575,0,0,1,508-161.62a30.6,30.6,0,0,1,3.763-4.638,16.928,16.928,0,0,1,.2-5.846,14.643,14.643,0,0,1,1.949-4.839,10.787,10.787,0,0,1,3.226-3.293,6.906,6.906,0,0,1,3.763-1.21,12.982,12.982,0,0,1,5.444,1.344,16.185,16.185,0,0,1,5.376,4.234,24.951,24.951,0,0,1,4.235,7.527,35.876,35.876,0,0,1,2.015,11.089,19.023,19.023,0,0,0,4.905-2.688,26.8,26.8,0,0,0,3.428-3.092,1.3,1.3,0,0,1,.807-.538A1.4,1.4,0,0,1,548.729-162.9Zm-24.866,26.479a5.276,5.276,0,0,0,3.024-2.085,14.989,14.989,0,0,0,2.085-3.83,24.644,24.644,0,0,0,1.208-4.5q.405-2.351.539-4.234a16.885,16.885,0,0,1-6.99-1.075,34.117,34.117,0,0,1-4.3-2.017,13.144,13.144,0,0,0-.4,2.017c-.091.718-.18,1.478-.268,2.285a17.9,17.9,0,0,0,.134,7.392,12.073,12.073,0,0,0,1.882,4.032A6.893,6.893,0,0,0,523.863-136.419Zm-2.688-33.2a3.149,3.149,0,0,0-1.276,1.142,6.921,6.921,0,0,0-.741,1.546,16.213,16.213,0,0,1,1.748.6,11.65,11.65,0,0,1,1.478.739,2.189,2.189,0,0,1,.941,1.344,1.537,1.537,0,0,1-.4,1.612,14.684,14.684,0,0,0-1.612,2.958,8.246,8.246,0,0,0,1.748,1.344,9.809,9.809,0,0,0,1.747.807q.939.4,1.748.671a11.758,11.758,0,0,0,2.284.537q1.075.136,2.151.27a25.379,25.379,0,0,0-1.41-7.326,11.98,11.98,0,0,0-2.89-4.637,12.293,12.293,0,0,0-1.882-1.344,7.33,7.33,0,0,0-1.747-.6A2.6,2.6,0,0,0,521.175-169.618Z" transform="translate(61.303 31.292)" fill="#31728d"/><path d="M584.677-144.6a2.532,2.532,0,0,1,.807,2.689q-.272,1.208-.941,3.561t-1.748,5.107q-1.077,2.756-2.554,5.712a32.134,32.134,0,0,1-3.36,5.377,19.7,19.7,0,0,1-4.166,4.032,9.276,9.276,0,0,1-4.973,1.747q-5.916.269-9.678-2.151a18.794,18.794,0,0,1-5.982-6.047,27.2,27.2,0,0,1-3.225-7.729,47.831,47.831,0,0,1-1.276-7.19q-1.346,2.821-2.353,5.376t-1.68,4.3q.133,1.882.2,3.359a15.419,15.419,0,0,0,.336,2.688,4.491,4.491,0,0,1-.4,2.017,3.543,3.543,0,0,1-1.075,1.344,3.474,3.474,0,0,1-2.284.673,6.466,6.466,0,0,1-2.958-.4,7.15,7.15,0,0,1-2.285-1.68,7.811,7.811,0,0,1-1.612-3.83,122.234,122.234,0,0,1-2.017-18.952,169.237,169.237,0,0,1,.471-18.548q.738-9,2.151-17.272t3.024-14.985q1.613-6.722,3.091-11.626t2.285-7.326a3.334,3.334,0,0,1,3.092-2.419,14.187,14.187,0,0,1,3.9,0,5.906,5.906,0,0,1,2.89,1.008,7.691,7.691,0,0,1,2.083,2.085,6.385,6.385,0,0,1,1.008,2.754,7.639,7.639,0,0,1-.2,3.024,261.835,261.835,0,0,0-9.006,38.576,275.324,275.324,0,0,0-2.822,28.494q1.211-3.091,3.226-7.19a78.381,78.381,0,0,1,4.839-8.4,32.865,32.865,0,0,1,6.855-7.528,22.648,22.648,0,0,1,7.325-4.032,10.341,10.341,0,0,1,6.585,0,8.581,8.581,0,0,1,4.772,4.7,11.817,11.817,0,0,1,.805,7.594,22.956,22.956,0,0,1-3.427,8.4,24.126,24.126,0,0,1-6.788,6.855,17.414,17.414,0,0,1-9.543,2.956,41.857,41.857,0,0,0,2.822,7.662,18.789,18.789,0,0,0,3.563,4.839,4.921,4.921,0,0,0,5.041,1.208q1.611-.4,3.7-3.091a48.977,48.977,0,0,0,3.965-6.048,70.525,70.525,0,0,0,3.293-6.653q1.412-3.292,1.949-4.907.536-1.342,1.614-.537a1.641,1.641,0,0,1,.335.2A1.4,1.4,0,0,0,584.677-144.6Zm-34.812.27a14.422,14.422,0,0,0,5.243-2.621,34.29,34.29,0,0,0,4.57-4.166,25.738,25.738,0,0,0,3.091-4.033q1.075-1.815.94-2.217a3.47,3.47,0,0,0-.805-.807,1.763,1.763,0,0,0-1.546-.134,8.407,8.407,0,0,0-2.554,1.41,20.475,20.475,0,0,0-3.7,3.965A46.085,46.085,0,0,0,549.865-144.331Z" transform="translate(74.817 13.263)" fill="#31728d"/><path d="M599.789-161.264a2.645,2.645,0,0,1,.941,2.689q-.4,1.882-1.68,6.047a57.588,57.588,0,0,1-3.427,8.536,30.357,30.357,0,0,1-5.309,7.661,9.864,9.864,0,0,1-7.324,3.293,17.487,17.487,0,0,1-10.35-2.822,15.126,15.126,0,0,1-3.561-3.293,19.382,19.382,0,0,1-2.89-5.175,28.847,28.847,0,0,1-1.68-7.326,44.989,44.989,0,0,1,.2-10.012,43.571,43.571,0,0,1,3.225-11.558,27,27,0,0,1,2.285-4.168,18.128,18.128,0,0,1,3.092-3.561,13.055,13.055,0,0,1,4.032-2.419,12.545,12.545,0,0,1,5.107-.741,8.306,8.306,0,0,1,5.578,2.287,8.533,8.533,0,0,1,2.353,4.839,15.753,15.753,0,0,1-.471,6.183,20.183,20.183,0,0,1-2.89,6.317,19.228,19.228,0,0,1-5.041,5.039,13.247,13.247,0,0,1-6.653,2.353,47.715,47.715,0,0,0,.336,5.174,23.645,23.645,0,0,0,1.344,5.714,10.506,10.506,0,0,0,2.956,4.368,6.248,6.248,0,0,0,5.309,1.142q1.613-.267,3.563-2.89a44.022,44.022,0,0,0,3.7-5.981q1.747-3.36,3.16-6.653t1.949-4.907a.848.848,0,0,1,.6-.671,1.014,1.014,0,0,1,.873.134A3.334,3.334,0,0,1,599.789-161.264ZM582.72-176.586a3.137,3.137,0,0,0-1.009.335,4.881,4.881,0,0,0-1.68,1.682,21.97,21.97,0,0,0-2.083,4.166,42.733,42.733,0,0,0-2.083,7.8,18.606,18.606,0,0,0,3.427-2.151,14.458,14.458,0,0,0,3.561-4.166,12.383,12.383,0,0,0,1.614-3.763,5.482,5.482,0,0,0,0-2.419,2.133,2.133,0,0,0-.807-1.278A1.119,1.119,0,0,0,582.72-176.586Z" transform="translate(91.558 29.927)" fill="#31728d"/><path d="M592.027-182.286a18.264,18.264,0,0,0,2.285,3.024,13.988,13.988,0,0,0,5.511,3.294q.267.134,1.612.739t3.226,1.68c.805.449,1.634.94,2.486,1.478a8.21,8.21,0,0,1,2.151,1.949,6.738,6.738,0,0,1,1.21,2.756,8.5,8.5,0,0,1-.2,3.763q-2.69,8.335-2.015,13.709t3.361,5.78a3.912,3.912,0,0,0,3.427-1.478,25.506,25.506,0,0,0,3.225-4.235A37.8,37.8,0,0,0,620.992-155q1.14-2.688,1.68-4.3.536-1.21,1.614-.537a2.947,2.947,0,0,0,.671.4,2.629,2.629,0,0,1,.807,2.689,46.889,46.889,0,0,1-1.612,5.309,33.114,33.114,0,0,1-3.361,6.788,24.878,24.878,0,0,1-5.175,5.846,10.2,10.2,0,0,1-7.056,2.352,11.12,11.12,0,0,1-7.661-2.956A15.462,15.462,0,0,1,596.732-147a35.051,35.051,0,0,1-.739-11.156,67.183,67.183,0,0,1,2.621-13.777c-.719,0-1.458-.021-2.219-.068s-1.5-.11-2.217-.2a37.434,37.434,0,0,1-1.008,8.938,49.886,49.886,0,0,1-1.815,6.115,2.89,2.89,0,0,1-2.285,1.748h-.807a1.083,1.083,0,0,1-.873-.4.8.8,0,0,1-.068-.94,53.541,53.541,0,0,0,1.48-7.192,42.017,42.017,0,0,0,.4-8.8q-3.629-.536-5.041-2.555a7.561,7.561,0,0,1-1.41-4.435,11.537,11.537,0,0,1,.873-4.5,6.488,6.488,0,0,1,1.815-2.754l.807-.4c.269-.087.6-.178,1.008-.268a3.132,3.132,0,0,1,1.276,0,3.074,3.074,0,0,1,1.68,1.008,5.878,5.878,0,0,1,.941,1.614,9.236,9.236,0,0,1,.471,1.612A3.018,3.018,0,0,0,592.027-182.286Z" transform="translate(100.932 28.099)" fill="#31728d"/><path d="M639.067-141.807a2.532,2.532,0,0,1,.807,2.689q-.271,1.208-1.008,3.964t-1.949,6.183q-1.21,3.428-2.824,7.058a45.9,45.9,0,0,1-3.561,6.585,20.06,20.06,0,0,1-4.368,4.839,7.557,7.557,0,0,1-5.109,1.747,8.38,8.38,0,0,1-5.376-2.822,23.109,23.109,0,0,1-4.1-7.124q-1.95-4.837-2.756-14.112a121.388,121.388,0,0,1-.268-16.331q.4-8.937,1.612-17.877t3.026-17.2q1.812-8.267,3.83-14.45a72.521,72.521,0,0,1,5.51-12.9q1.344-2.285,2.89-4.436a22.285,22.285,0,0,1,3.294-3.7,11.811,11.811,0,0,1,3.763-2.285,6.961,6.961,0,0,1,4.166-.2q2.552.674,3.7,4.637a33.344,33.344,0,0,1,.941,10.082,89.031,89.031,0,0,1-1.682,13.777,115.49,115.49,0,0,1-4.232,15.658,133.079,133.079,0,0,1-6.587,15.726,80.191,80.191,0,0,1-8.8,14.046q-.808,6.453-1.143,12.231a69.266,69.266,0,0,0,.068,10.214,21.879,21.879,0,0,0,1.612,7.058q1.21,2.62,3.495,2.62,1.744,0,3.763-3.359a59.317,59.317,0,0,0,3.831-7.729q1.812-4.367,3.225-8.6t1.949-5.848q.536-1.342,1.614-.537a1.6,1.6,0,0,1,.335.2A1.438,1.438,0,0,0,639.067-141.807Zm-9.946-52.822q-.674,2.419-1.68,6.249t-2.017,8.67q-1.007,4.84-2.083,10.417t-2.015,11.224a97.376,97.376,0,0,0,8.2-19.489,160.715,160.715,0,0,0,4.168-17.473A121.457,121.457,0,0,0,635.3-212.37q-1.077,2.419-2.151,5.51t-2.015,5.778Q630.059-197.855,629.122-194.629Z" transform="translate(113.972 10.469)" fill="#31728d"/><path d="M694.535-117.1q.269.67.537,1.478a12.733,12.733,0,0,1,.4,3.361,7.762,7.762,0,0,1-1.008,3.83q-1.007,1.815-3.964,2.085a7.925,7.925,0,0,1-2.956-.538,5.586,5.586,0,0,1-1.882-1.546,4.439,4.439,0,0,1-.539-3.293,13.035,13.035,0,0,0-.2-3.427,7.651,7.651,0,0,0-1.546-3.361,11.334,11.334,0,0,0-3.294-2.756,15.69,15.69,0,0,0-5.308-1.747q-.941,4.7-1.747,8.6t-1.48,6.585q-.806,3.226-1.478,5.646a81.838,81.838,0,0,1-5.041,13.91,56.023,56.023,0,0,1-7.056,11.359,40.921,40.921,0,0,1-8.938,8.266,30.128,30.128,0,0,1-10.551,4.5,29.923,29.923,0,0,1-5.846.537,24.051,24.051,0,0,1-7.057-1.21,17.22,17.22,0,0,1-7.391-4.7,17.659,17.659,0,0,1-3.9-7.662q-1.342-4.973.807-12.9a37.76,37.76,0,0,1,5.914-12.1,55.886,55.886,0,0,1,10.551-11.089,68.558,68.558,0,0,1,13.978-8.668,60,60,0,0,1,16.331-4.974q1.882-11.561,2.486-20.833t.472-16.4q-1.885,10.62-5.243,15.927a24.6,24.6,0,0,1-6.854,7.594,14.709,14.709,0,0,1-8.468,2.419,9.155,9.155,0,0,1-7.19-4.166,23.726,23.726,0,0,1-3.7-10.417,62.4,62.4,0,0,1,0-15.323,112.907,112.907,0,0,1,3.763-18.75,2.059,2.059,0,0,1,2.554-1.881,23.1,23.1,0,0,1,4.5.537,12.936,12.936,0,0,1,4.772,2.017,3.28,3.28,0,0,1,1.344,3.763q-.4,1.885-1.143,5.241t-1.478,7.258q-.74,3.9-1.344,8t-.807,7.46a25.528,25.528,0,0,0,.2,5.712q.4,2.353,1.614,2.621a3.885,3.885,0,0,0,3.763-1.143,17.186,17.186,0,0,0,3.495-4.637,51.252,51.252,0,0,0,3.023-6.788q1.409-3.83,2.555-7.662t1.949-7.122q.805-3.292,1.21-5.309c.088-.448.155-.807.2-1.075a4.138,4.138,0,0,0,.066-.671v-.538a2.483,2.483,0,0,1,2.421-2.285,19.426,19.426,0,0,1,4.3.2c1.345.225,2.508.471,3.5.739a4.841,4.841,0,0,1,4.032,4.7A182.148,182.148,0,0,1,678-150.706q-.941,12.9-2.554,23.387,2.421.267,5.309.807a25.633,25.633,0,0,1,5.646,1.747,20.08,20.08,0,0,1,4.907,3.024A11.147,11.147,0,0,1,694.535-117.1ZM625.314-72.615a13.026,13.026,0,0,0,10.35.268,25.208,25.208,0,0,0,9.207-6.72,48.458,48.458,0,0,0,7.459-11.358,64.383,64.383,0,0,0,4.839-13.643q1.211-4.837,2.151-9.341t1.748-8.8a64.47,64.47,0,0,0-10.082,3.495,64.888,64.888,0,0,0-10.08,5.511,59.517,59.517,0,0,0-9.073,7.459,46.927,46.927,0,0,0-7.19,9.207,22.919,22.919,0,0,0-2.017,3.9,25.651,25.651,0,0,0-1.412,3.965,30.569,30.569,0,0,0-.873,4.638,19.8,19.8,0,0,0,.6,6.72A7.015,7.015,0,0,0,625.314-72.615Z" transform="translate(116.702 27.567)" fill="#31728d"/></g></svg>