<svg xmlns="http://www.w3.org/2000/svg" width="92.77" height="92.77" viewBox="0 0 92.77 92.77">
  <path id="Icon_awesome-pause" data-name="Icon awesome-pause" d="M29.819,94.95H9.94A9.942,9.942,0,0,1,0,85.01V12.119A9.942,9.942,0,0,1,9.94,2.18H29.819a9.942,9.942,0,0,1,9.94,9.94V85.01A9.942,9.942,0,0,1,29.819,94.95ZM92.77,85.01V12.119a9.942,9.942,0,0,0-9.94-9.94H62.951a9.942,9.942,0,0,0-9.94,9.94V85.01a9.942,9.942,0,0,0,9.94,9.94H82.83A9.942,9.942,0,0,0,92.77,85.01Z" transform="translate(0 -2.18)" fill="#fff"/>
</svg>
