<svg xmlns="http://www.w3.org/2000/svg" xmlns:xlink="http://www.w3.org/1999/xlink" width="181.963" height="230.257" viewBox="0 0 181.963 230.257"><defs><linearGradient id="a" x1="-3.67" y1="-0.027" x2="-3.666" y2="-0.027" gradientUnits="objectBoundingBox"><stop offset="0.011" stop-color="#32bed2"/><stop offset="1" stop-color="#bdf7ff"/></linearGradient></defs><circle cx="90.98" cy="90.98" r="90.98" transform="translate(0)" fill="url(#a)"/><circle cx="84.582" cy="84.582" r="84.582" transform="translate(6.397 6.397)" fill="#31728d"/><circle cx="78.266" cy="78.266" r="78.266" transform="translate(12.713 12.713)" fill="#e5e5e5"/><circle cx="74.167" cy="74.167" r="74.167" transform="translate(16.813 16.813)" fill="#fff"/><path d="M1586.959,1019.747a90.978,90.978,0,0,0,55.372-163.168c-.728,2.1-1.362,4.054-1.959,5.583a348.245,348.245,0,0,1-19.651,42.288c-21.054,37.948-52.325,70.431-93.326,86.686-.6.236-2.431.925-4.91,1.82A90.7,90.7,0,0,0,1586.959,1019.747Z" transform="translate(-1495.98 -837.788)" fill="#802e6b" opacity="0.04" style="isolation:isolate"/><circle cx="4.914" cy="4.914" r="4.914" transform="translate(86.066 20.209)" fill="#263168"/><circle cx="4.916" cy="4.916" r="4.916" transform="translate(86.068 153.855)" fill="#1f265a"/><circle cx="4.914" cy="4.914" r="4.914" transform="translate(19.242 87.033)" fill="#263168"/><circle cx="4.914" cy="4.914" r="4.914" transform="translate(152.891 87.033)" fill="#263168"/><path d="M1634.8,874.989l-9.407-15.364-9.407,15.364h5.487V930.02h7.839V874.989Z" transform="translate(-1534.41 -839.04)" fill="#e48698"/><path d="M1563.263,979.792l-11.017,14.253,17.7,3.331L1568,992.247l32.285-12.345-2.786-7.327-32.285,12.345Z" transform="translate(-1508.212 -885.466)" fill="#e48698"/><circle cx="7.629" cy="7.629" r="7.629" transform="translate(83.351 83.35)" fill="#e48698"/><g transform="translate(0 91.637)"><ellipse cx="90.98" cy="11.45" rx="90.98" ry="11.45" transform="translate(0 115.72)" fill="#802e6b" opacity="0.08" style="isolation:isolate"/><g transform="translate(55.518)"><path d="M1598,1084.233l-2.061,10.518c-4.99.216-10.7.087-11.2,1.314-.272.666.664,1.19,1.355,1.392a36.659,36.659,0,0,0,5.881.809c1.132.147,2.268.248,3.4.4a5.948,5.948,0,0,0,3.34-.266c1.414-.656,1.545-2.843,2.045-4.186a66.753,66.753,0,0,1,3.063-6.785,1.551,1.551,0,0,0,0-1.377,1.961,1.961,0,0,0-1.44-.8,29.4,29.4,0,0,0-3.773-.521" transform="translate(-1577.063 -1022.999)" fill="#bf7b6b"/><path d="M1659.852,1049.718c-13.57-8.54-19.515-13.833-32.753-20.722a10.17,10.17,0,0,0-10.234.779c-6.755,4.716-8.01,18.067-13.628,33.554-.067.183,5.9,1.6,8.6,2.274,2.827-7.5,9.109-14.935,10.68-23.259,4.005,2.793,11.169,18.232,16.2,19.461a21.149,21.149,0,0,0,11.973-.595,12.958,12.958,0,0,0,5.934-3.909C1658.116,1055.423,1660.607,1052,1659.852,1049.718Z" transform="translate(-1584.69 -999.86)" fill="#1f265a"/><path d="M1584.908,1164.414c-1.938,5.505-2.92,9.567-2.92,9.567a60.933,60.933,0,0,0-9.306,4.662c-.479.294-1.017.728-.926,1.282.118.71,1.086.825,1.8.732a57.044,57.044,0,0,0,10.4-2.7,3.154,3.154,0,0,0,1.737-1.032,3.006,3.006,0,0,0,.389-1.183c.634-3.66,2.566-5.014,4.149-8.86" transform="translate(-1571.746 -1055.956)" fill="#bf7b6b"/><path d="M1663.706,1065.65a11.342,11.342,0,0,0-4.893-2.409c-3.706-.489-8.444,1.8-11.878,3.013-4.186,1.476-8.284,3.193-12.309,5.06a203.143,203.143,0,0,0-24.415,13.031,18.1,18.1,0,0,0-5.024,4.094,16.8,16.8,0,0,0-2.091,4.452c-3.28,9.247-10.86,23.881-14.141,33.129a39.51,39.51,0,0,1,7.948,3.387c4.463-9.79,14.447-24.354,20.113-33.5a8.667,8.667,0,0,1,3.063-3.4,9.1,9.1,0,0,1,3.357-.74c8.88-.859,16.161-1.645,26.284-4.807,5.083-1.587,13.151-4.653,16.435-8.848C1668.769,1074.773,1668.63,1069.17,1663.706,1065.65Z" transform="translate(-1578.819 -1014.343)" fill="#263168"/><path d="M1727.116,1029.269a3.97,3.97,0,0,0-1.185-1.256c-2.811-2.218-8.679-6.734-8.679-6.734a3.808,3.808,0,0,0-3.469-.53,11.252,11.252,0,0,0-3.193,1.74l-11,7.642c-.6.421.517,4.653.733,5.36,1.333,4.335-4.318,9.933-4.318,9.933,5.662,9.149,11.08,3.786,17.87,9.85.53.471,3.583-1.246,3.583-1.246s1.481.565,1.649.3c1.2-1.863,1.388-4.175,1.838-6.345,1.148-5.526,4.148-10.474,6-15.8A3.854,3.854,0,0,0,1727.116,1029.269Z" transform="translate(-1622.822 -996.821)" fill="#ffc866"/><g transform="translate(66.198 19.615)"><path d="M1696.8,1043.273l-11.284-5.259a2.91,2.91,0,0,1-1.378-2.488v-20.646c0-1.019.617-1.557,1.378-1.2l11.284,5.259a2.907,2.907,0,0,1,1.379,2.488v20.646C1698.183,1043.09,1697.566,1043.628,1696.8,1043.273Z" transform="translate(-1684.142 -1013.569)" fill="#263168"/><path d="M1696.538,1031.608c0,1.165-.707,1.779-1.575,1.374a3.322,3.322,0,0,1-1.575-2.842c0-1.164.707-1.779,1.575-1.374A3.321,3.321,0,0,1,1696.538,1031.608Z" transform="translate(-1687.943 -1019.764)" fill="#9376d1"/></g><path d="M1740.061,1004.6c0-.263-4.253-1.248-6.854,1.58,0,0-.937,8.363-4.915,12.011-.23.21-5.281.618-5.764,1.69a1.138,1.138,0,0,0,.107.861,7.013,7.013,0,0,0,3.217,3.283,12.11,12.11,0,0,0,5.419,1.414c3.18-.222,6.265-1.033,5.542-4.137C1735.831,1017.093,1740.073,1006.049,1740.061,1004.6Z" transform="translate(-1633.706 -990.11)" fill="#bf7b6b"/><path d="M1731.94,1040.609a20.152,20.152,0,0,0-6.922.348,3.333,3.333,0,0,0-1.354.547,5.8,5.8,0,0,0-1.59,1.819c-2.047,6.066-2.47,10.047-4.077,16.076-4.589-5.67-7.091-6.841-11.172-11.749a5.762,5.762,0,0,1-1.737-3.593c-.241-2.183-1.135-2.418-1.135-2.418l-.059,1.685c-1.093-1.405-4.294-5.93-4.917-5.612-.354.182-1.085,3.824-.683,5.8.159.785,2.729,2.928,4.476,4.363,1.93,1.583,7.234,12.015,13.633,18.426a3.68,3.68,0,0,0,2.322,1.337c1.341.038,3.18-2.039,3.946-3.779,2.958-6.714,5.563-10.5,8.5-17.9.585-1.478,1.776-3.62.7-4.792" transform="translate(-1623.713 -1003.871)" fill="#bf7b6b"/><path d="M1748.826,1032.095a4.93,4.93,0,0,0-1.726-3.617c-1.726-1.355-3.9-.539-5.285.877-3.807,3.881-4.558,6.877-5.831,12.694,5.5,1.026,10.02,1.284,11.444.98C1747.815,1042.947,1748.908,1035.414,1748.826,1032.095Z" transform="translate(-1639.254 -999.797)" fill="#ffc866"/><path d="M1744.027,984.458a7.749,7.749,0,0,0-9.467,2.278c-2.981,3.976-2.631,12.86-.848,17.451.766,1.969,7.088-.1,8.064-.883,1.944-1.551,2.532-3.215,4.509-6.108,1.018-1.491,2.02-2.282,2.133-4.084.079-1.252-1.4-3.769-1.786-4.963A6.746,6.746,0,0,0,1744.027,984.458Z" transform="translate(-1637.757 -981.681)" fill="#bf7b6b"/><path d="M1686.529,1028l-1.59,3.391a1.364,1.364,0,0,1-1.214.786,5.743,5.743,0,0,1-.9-.048c-.719-.111-.664-3.285,0-4.131a3.871,3.871,0,0,1,3.2-1.041.736.736,0,0,1,.561.878A.744.744,0,0,1,1686.529,1028Z" transform="translate(-1617.189 -999.439)" fill="#bf7b6b"/><path d="M1733.12,983.134c-1.7,1.708-2.179,4.586-2.251,6.993l7.17.018a3.58,3.58,0,0,0,1.37-.177,1.222,1.222,0,0,0,.813-1.031q.1.589.194,1.181l2.844,0a5.624,5.624,0,0,0-1.181,4.744c.226,1.674.821,3.285.994,4.965a10.115,10.115,0,0,1-1.422,6.272,7.133,7.133,0,0,0,2.587-4.469,15.875,15.875,0,0,0-.086-5.262,12,12,0,0,1-.229-3.192,3.408,3.408,0,0,1,1.594-2.645.908.908,0,0,1,.918-.059.949.949,0,0,1,.315.479,3.823,3.823,0,0,1-.3,3.22c-.441.741-1.122,1.308-1.627,2.007s-1.178,2.684-.78,3.448a21.768,21.768,0,0,0,10.727-2.6,26.753,26.753,0,0,1-2.874-6.5,28.492,28.492,0,0,0-1.564-4.871C1747.284,979.557,1737.712,978.512,1733.12,983.134Z" transform="translate(-1637.151 -980.264)" fill="#e48698"/></g></g></svg>